<svg xmlns="http://www.w3.org/2000/svg" xmlns:xlink="http://www.w3.org/1999/xlink" width="490.189" height="267.417" viewBox="0 0 490.189 267.417"><defs><style>.a{fill:none;}.b{fill:#3f3d56;}.c{fill:#58abc8;}.d{fill:#f2f2f2;}.e{fill:#ccc;}.f{opacity:0.1;}.g{clip-path:url(#a);}.h{fill:#d7a49d;}.i{clip-path:url(#b);}.j{fill:#c5c7c9;}.k{clip-path:url(#c);}.l{clip-path:url(#d);}.m{fill:#11405e;}.n{clip-path:url(#e);}.o{clip-path:url(#f);}.p{clip-path:url(#g);}.q{fill:#305066;}.r{clip-path:url(#h);}.s{clip-path:url(#i);}.t{clip-path:url(#j);}.u{clip-path:url(#k);}.v{clip-path:url(#l);}.w{fill:#d7a39e;}.x{clip-path:url(#m);}.y{clip-path:url(#n);}.z{fill:#b4b5b5;}.aa{clip-path:url(#o);}.ab{fill:url(#p);}</style><clipPath id="a"><path class="a" d="M304.4-234.8c2.84-1.958,8.064,3.494,8.064,3.494s13.682.75,17.866-.759,3.537-17.971,3.537-17.971,13.268-6.607,11.854,14.665c-1.227,18.456-32.859,7.687-32.859,7.687s-7.939,1.208-10.053-.2S301.556-232.842,304.4-234.8Z" transform="translate(-301.631 251.005)"/></clipPath><clipPath id="b"><path class="a" d="M349.672-232.631c4.184-1.507.855-18.947.855-18.947s15.413-5.658,14.536,15.642c-.4,9.822-11.116,11.665-19.46,10.811-.416-2.78-.29-4.031-1.237-6.7C344.986-231.937,349.236-232.472,349.672-232.631Z" transform="translate(-344.367 252.258)"/></clipPath><clipPath id="c"><path class="a" d="M367.682-114.334l-.794,4.669s2.657,26.92,3.13,37.689a8.433,8.433,0,0,1-1.248,4.8l-4.621,7.505,11.745-6.931.233-1.434L374.2-70.683l2.518-30.159a9.265,9.265,0,0,0-1.053-5.118l-2.433-4.563Z" transform="translate(-364.148 114.334)"/></clipPath><clipPath id="d"><path class="a" d="M355.709-196.219c-2.71,5.053.263,19.376,6.767,48.716l3.005,33.847a6.533,6.533,0,0,0,5.969,1.582c1.951-16.885,2.652-29.063-1.916-36.052L368.45-176.2l-4.139-19.274Z" transform="translate(-354.708 196.219)"/></clipPath><clipPath id="e"><path class="a" d="M372.872-32.441s5.175,5.335,1.242,6.545S360-20.637,359.371-22.6c-.777-2.455,8.2-9.837,8.2-9.837C369.119-31.64,371.823-31.52,372.872-32.441Z" transform="translate(-359.323 32.441)"/></clipPath><clipPath id="f"><path class="a" d="M375.866-109.939l.991,4.63S389.3-81.285,393.722-71.457a8.438,8.438,0,0,1,.616,4.917l-1.518,8.683,8.348-10.788-.616-1.107-2.463-2.06-8.828-28.945a9.245,9.245,0,0,0-2.873-4.365l-3.946-3.34Z" transform="translate(-375.866 109.939)"/></clipPath><clipPath id="g"><path class="a" d="M394.55-117.876c-1.314,2.513-3.543,3.119-6.016,3.213L373.151-146.9l-2.065-34.029-1.835-19.006,10.724.945c10.841,6.337,4.463,29.379-.064,50.184C387.405-146.323,390.651-131.879,394.55-117.876Z" transform="translate(-369.251 199.931)"/></clipPath><clipPath id="h"><path class="a" d="M410.5-40.4s5.435,2.944,2.521,6.757-7.859,11.013-10.108,8.438,4.061-10.268,3.415-12.955C409.74-39.316,410.5-40.4,410.5-40.4Z" transform="translate(-402.422 40.401)"/></clipPath><clipPath id="i"><path class="a" d="M363.9-227.293a40.484,40.484,0,0,1,4.459-29.734c-4.834-4.639-12.339-4.946-15.754-4.814a5.445,5.445,0,0,0-3.22,1.219c-2.71,2.2-8.29,7.4-7.281,12.266.776,3.743,7.846,22.422,7.846,22.422A15.53,15.53,0,0,0,363.9-227.293Z" transform="translate(-341.982 261.864)"/></clipPath><clipPath id="j"><path class="a" d="M362.942-285.469l3.27,13.614c.312,1.292-.861,1.694-2.176,1.887-3.091.453-5.431-.718-5.817-2.9-.034-.19-.141-.36-.167-.552l-1.4-10.171a1.826,1.826,0,0,1,1.069-1.92l2.71-1.2a1.828,1.828,0,0,1,1.547.033A1.827,1.827,0,0,1,362.942-285.469Z" transform="translate(-356.631 286.866)"/></clipPath><clipPath id="k"><path class="a" d="M368.408-207.863c11.948,6.092,13.281,28.813,14.084,48.735-9.823,2.493-19.575,6.166-29.853,1.129l-1.159-52.8Z" transform="translate(-351.48 210.795)"/></clipPath><clipPath id="l"><path class="a" d="M350.031-305.173s-6.644,13.753-.016,16.1c7.806,2.767,11.461-7.539,11.461-7.539S356.311-317.384,350.031-305.173Z" transform="translate(-347.074 309.018)"/></clipPath><clipPath id="m"><path class="a" d="M368.571-191.443a23.248,23.248,0,0,1-1.627,7.579.834.834,0,0,1-1,.6,3.073,3.073,0,0,0-.667-.164.492.492,0,0,0-.523.351c-.016.108.022.218.014.326a.565.565,0,0,1-.4.456,2.271,2.271,0,0,1-.638.075,21.2,21.2,0,0,0-2.653.444c-.241.046-.372.323-.409.57-.331,2.2,2.672,2.895,4.3,2.6a6.109,6.109,0,0,0,2.767-1.308,24.414,24.414,0,0,0,6.645-8.557C372.984-191.09,369.892-191.425,368.571-191.443Z" transform="translate(-360.641 191.443)"/></clipPath><clipPath id="n"><path class="a" d="M377.6-214.329c11.519-16.338-.352-40.067-.352-40.067-4.8-.772-7.106,1.671-7.63,6.388,5.391,11.649,4.922,22.184,2.454,30.212C373.391-217.666,376.442-217.063,377.6-214.329Z" transform="translate(-369.621 254.536)"/></clipPath><clipPath id="o"><path class="a" d="M348.637-309.039a1.613,1.613,0,0,0,.254,1.573,1.613,1.613,0,0,0,1.481.588,15.625,15.625,0,0,1,3.967-.108c8.537,1.118,4.69,6.376,4.608,7.263-.167,1.82,1.876-.784,1.922-.16.1,1.355-1.313,5.312-1.313,5.312-2.152,9.465,1.735,16.955,6.223,17.977,4.228.963,9.015-3.807,11.1-7.257.759-1.248,3.107-5.141,1.709-8.539-.945-2.3-2.661-2.079-4.553-4.269-3.912-4.524.014-9.374-3.273-13.8-3.149-4.243-9.942-4.095-12.869-4.03a11.652,11.652,0,0,0-6.938,2.074A7.966,7.966,0,0,0,348.637-309.039Z" transform="translate(-348.535 314.515)"/></clipPath><linearGradient id="p" x1="0.666" y1="0.457" x2="0.787" y2="0.508" gradientUnits="objectBoundingBox"><stop offset="0"/><stop offset="0.1" stop-color="#050507"/><stop offset="0.2" stop-color="#0a0a0e"/><stop offset="0.3" stop-color="#100f16"/><stop offset="0.4" stop-color="#15131d"/><stop offset="0.5" stop-color="#1a1824"/><stop offset="0.6" stop-color="#1f1d2b"/><stop offset="0.7" stop-color="#242233"/><stop offset="0.8" stop-color="#29273a"/><stop offset="0.9" stop-color="#2f2c41"/><stop offset="1" stop-color="#343148"/></linearGradient></defs><g transform="translate(-736.405 -309.5)"><g transform="translate(736.405 309.5)"><path class="b" d="M156.288,515.793l-.841-.189a191.473,191.473,0,0,1,373.4-.509l-.84.191c-19.855-87.177-96.259-148.063-185.8-148.063C253.836,367.223,175.646,429.706,156.288,515.793Z" transform="translate(-102.01 -287.92)"/><rect class="b" width="3.838" height="151.607" transform="translate(123.363 76.495)"/><path class="c" d="M309.751,280.232C310,333.245,272.7,376.393,272.7,376.393S235,333.59,234.76,280.577s37.053-96.161,37.053-96.161S309.507,227.219,309.751,280.232Z" transform="translate(-147.129 -184.416)"/><rect class="d" width="297.045" height="62.944" transform="translate(97.219 165.336)"/><path class="b" d="M203.5,310.187,235.834,242.5H494.078l24.143,67.687Z" transform="translate(-115.766 -137.952)"/><rect class="d" width="119.853" height="39.664" transform="translate(168.354 108.859)"/><path class="b" d="M383.47,177.5,364.5,217.163H506.771L495.562,177.5Z" transform="translate(-207.355 -100.975)"/><rect class="e" width="94.632" height="50.442" transform="translate(178.917 177.839)"/><rect class="e" width="50.442" height="48.717" transform="translate(108.859 179.564)"/><rect class="b" width="26.083" height="45.699" transform="translate(289.932 182.581)"/><rect class="b" width="490.189" height="0.862" transform="translate(0 228.065)"/><rect class="b" width="2.533" height="100.044" transform="translate(77.562 128.069)"/><path class="c" d="M206.2,427.617c.161,34.983-24.451,63.456-24.451,63.456s-24.874-28.245-25.035-63.228,24.451-63.456,24.451-63.456S206.037,392.634,206.2,427.617Z" transform="translate(-102.73 -286.798)"/><path class="f" d="M206.2,427.617c.161,34.983-24.451,63.456-24.451,63.456s-24.874-28.245-25.035-63.228,24.451-63.456,24.451-63.456S206.037,392.634,206.2,427.617Z" transform="translate(-102.73 -286.798)"/><rect class="b" width="2.533" height="100.044" transform="translate(44.636 128.069)"/><path class="c" d="M129.827,427.617c.161,34.983-24.451,63.456-24.451,63.456S80.5,462.828,80.34,427.845s24.451-63.456,24.451-63.456S129.665,392.634,129.827,427.617Z" transform="translate(-59.284 -286.798)"/><rect class="b" width="12.718" height="11.856" transform="translate(344.253 185.168)"/><rect class="b" width="12.718" height="11.856" transform="translate(361.283 185.168)"/><rect class="b" width="12.718" height="12.287" transform="translate(344.253 201.335)"/><rect class="b" width="12.718" height="12.287" transform="translate(361.283 201.335)"/><rect class="b" width="9.953" height="9.279" transform="translate(179.348 119.712)"/><rect class="b" width="9.953" height="9.279" transform="translate(192.675 119.712)"/><rect class="b" width="9.953" height="9.616" transform="translate(179.348 132.365)"/><rect class="b" width="9.953" height="9.616" transform="translate(192.675 132.365)"/><rect class="b" width="9.953" height="9.279" transform="translate(253.933 119.712)"/><rect class="b" width="9.953" height="9.279" transform="translate(267.26 119.712)"/><rect class="b" width="9.953" height="9.616" transform="translate(253.933 132.365)"/><rect class="b" width="9.953" height="9.616" transform="translate(267.26 132.365)"/><rect class="b" width="9.953" height="9.279" transform="translate(216.856 119.712)"/><rect class="b" width="9.953" height="9.279" transform="translate(230.183 119.712)"/><rect class="b" width="9.953" height="9.616" transform="translate(216.856 132.365)"/><rect class="b" width="9.953" height="9.616" transform="translate(230.183 132.365)"/><rect class="d" width="6.267" height="5.842" transform="translate(295.752 187.211)"/><rect class="d" width="6.267" height="5.842" transform="translate(304.143 187.211)"/><rect class="d" width="6.267" height="6.054" transform="translate(295.752 195.178)"/><rect class="d" width="6.267" height="6.054" transform="translate(304.143 195.178)"/><circle class="d" cx="1.724" cy="1.724" r="1.724" transform="translate(310.841 206.94)"/><rect class="d" width="94.847" height="0.862" transform="translate(178.917 183.228)"/><rect class="d" width="94.847" height="0.862" transform="translate(178.917 187.108)"/><rect class="d" width="94.847" height="0.862" transform="translate(178.917 190.988)"/><rect class="d" width="94.847" height="0.862" transform="translate(178.917 194.868)"/><rect class="d" width="94.847" height="0.862" transform="translate(178.917 198.749)"/><rect class="d" width="94.847" height="0.862" transform="translate(178.917 202.629)"/><rect class="d" width="94.847" height="0.862" transform="translate(178.917 206.509)"/><rect class="d" width="94.847" height="0.862" transform="translate(178.917 210.389)"/><rect class="d" width="94.847" height="0.862" transform="translate(178.917 214.269)"/><rect class="d" width="94.847" height="0.862" transform="translate(178.917 218.149)"/><rect class="d" width="94.847" height="0.862" transform="translate(178.917 222.029)"/><rect class="d" width="50.442" height="0.862" transform="translate(108.859 183.228)"/><rect class="d" width="50.442" height="0.862" transform="translate(108.859 187.108)"/><rect class="d" width="50.442" height="0.862" transform="translate(108.859 190.988)"/><rect class="d" width="50.442" height="0.862" transform="translate(108.859 194.868)"/><rect class="d" width="50.442" height="0.862" transform="translate(108.859 198.749)"/><rect class="d" width="50.442" height="0.862" transform="translate(108.859 202.629)"/><rect class="d" width="50.442" height="0.862" transform="translate(108.859 206.509)"/><rect class="d" width="50.442" height="0.862" transform="translate(108.859 210.389)"/><rect class="d" width="50.442" height="0.862" transform="translate(108.859 214.269)"/><rect class="d" width="50.442" height="0.862" transform="translate(108.859 218.149)"/><rect class="d" width="50.442" height="0.862" transform="translate(108.859 222.029)"/><circle class="c" cx="34.921" cy="34.921" r="34.921" transform="translate(343.176 69.411)"/></g><g transform="translate(881.373 784.901) rotate(7)"><g class="g" transform="translate(180.711 -370.923)"><path class="h" d="M296.631-256.005H346.3v31.918H296.631Z" transform="translate(-299.368 253.269)"/></g><g class="i" transform="translate(204.101 -371.608)"><path class="j" d="M339.367-257.258h26.206v32.793H339.367Z" transform="translate(-342.103 254.522)"/></g><g class="k" transform="translate(214.928 -296.119)"><path class="h" d="M359.148-119.334h18.08V-59.2h-18.08Z" transform="translate(-361.885 116.597)"/></g><g class="l" transform="translate(209.761 -340.937)"><path class="m" d="M349.708-201.219h23.723v89.813H349.708Z" transform="translate(-352.445 198.483)"/></g><g class="n" transform="translate(212.287 -251.297)"><path d="M354.323-37.441h21.74V-21.6h-21.74Z" transform="translate(-357.06 34.704)"/></g><g class="o" transform="translate(221.341 -293.714)"><path class="h" d="M370.866-114.939H401.64v57.554H370.866Z" transform="translate(-373.603 112.202)"/></g><g class="p" transform="translate(217.72 -342.969)"><path class="q" d="M364.251-204.931h30.773v90.742H364.251Z" transform="translate(-366.987 202.195)"/></g><g class="r" transform="translate(235.876 -255.654)"><path d="M397.422-45.4h16.927v21.212H397.422Z" transform="translate(-400.158 42.665)"/></g><g class="s" transform="translate(202.795 -376.865)"><path class="j" d="M336.982-266.864H368.83v42.449H336.982Z" transform="translate(-339.718 264.127)"/></g><g class="t" transform="translate(210.814 -390.55)"><path class="h" d="M351.631-291.866h15.1V-269.4h-15.1Z" transform="translate(-354.368 289.129)"/></g><g class="u" transform="translate(207.994 -348.915)"><path class="j" d="M346.48-215.8h36.485v60.785H346.48Z" transform="translate(-349.216 213.059)"/></g><g class="v" transform="translate(205.583 -402.674)"><path class="w" d="M342.074-314.018H361.95v25.894H342.074Z" transform="translate(-344.81 311.281)"/></g><g class="x" transform="translate(213.008 -338.323)"><path class="h" d="M359.244-200.77,375-195.953l-5.759,18.836-15.755-4.817Z" transform="translate(-357.402 195.665)"/></g><g class="y" transform="translate(217.923 -372.855)"><path class="z" d="M358.9-264.319l24.705,9.982-15.917,39.4-24.705-9.982Z" transform="translate(-357.561 258.965)"/></g><g class="aa" transform="translate(206.382 -405.683)"><g transform="translate(-185.288 -120.129)"><path class="ab" d="M-338.535-219.485H-63.779V66.765H-338.535Z" transform="translate(338.535 219.485)"/></g></g></g></g></svg>