<?xml version="1.0" encoding="UTF-8"?>
<svg xmlns="http://www.w3.org/2000/svg" xmlns:xlink="http://www.w3.org/1999/xlink" width="200px" height="200px" viewBox="0 0 200 142" version="1.1">
<defs>
<filter id="alpha" filterUnits="objectBoundingBox" x="0%" y="0%" width="100%" height="100%">
  <feColorMatrix type="matrix" in="SourceGraphic" values="0 0 0 0 1 0 0 0 0 1 0 0 0 0 1 0 0 0 1 0"/>
</filter>
<mask id="mask0">
  <g filter="url(#alpha)">
<rect x="0" y="0" width="200" height="142" style="fill:rgb(0%,0%,0%);fill-opacity:0.101961;stroke:none;"/>
  </g>
</mask>
<clipPath id="clip1">
  <rect x="0" y="0" width="200" height="142"/>
</clipPath>
<g id="surface5" clip-path="url(#clip1)">
<path style=" stroke:none;fill-rule:nonzero;fill:rgb(0%,0%,0%);fill-opacity:1;" d="M 46.695312 13.929688 L 46.695312 83.042969 C 46.695312 83.042969 14.734375 67.726562 15.015625 27.449219 Z M 46.695312 13.929688 "/>
</g>
</defs>
<g id="surface1">
<path style=" stroke:none;fill-rule:nonzero;fill:rgb(94.509804%,94.509804%,94.509804%);fill-opacity:1;" d="M 182.636719 127.742188 C 184.390625 130.828125 182.90625 141.257812 182.90625 141.257812 C 182.90625 141.257812 173.164062 137.152344 171.410156 134.066406 C 169.660156 130.976562 170.753906 127.0625 173.851562 125.316406 C 176.949219 123.574219 180.882812 124.65625 182.636719 127.742188 Z M 182.636719 127.742188 "/>
<path style=" stroke:none;fill-rule:nonzero;fill:rgb(100%,100%,100%);fill-opacity:1;" d="M 183.046875 141.242188 L 182.839844 141.285156 C 180.84375 131.859375 173.886719 125.464844 173.816406 125.402344 L 173.957031 125.246094 C 174.027344 125.308594 181.039062 131.746094 183.046875 141.242188 Z M 183.046875 141.242188 "/>
<path style=" stroke:none;fill-rule:nonzero;fill:rgb(94.509804%,94.509804%,94.509804%);fill-opacity:1;" d="M 198.578125 131.257812 C 196.195312 135.558594 182.777344 141.382812 182.777344 141.382812 C 182.777344 141.382812 180.5625 126.972656 182.941406 122.671875 C 185.324219 118.375 190.753906 116.8125 195.070312 119.179688 C 199.386719 121.550781 200.957031 126.957031 198.578125 131.257812 Z M 198.578125 131.257812 "/>
<path style=" stroke:none;fill-rule:nonzero;fill:rgb(100%,100%,100%);fill-opacity:1;" d="M 182.894531 141.539062 L 182.691406 141.328125 C 192.402344 132.144531 194.917969 119.335938 194.941406 119.207031 L 195.230469 119.261719 C 195.207031 119.390625 192.675781 132.289062 182.894531 141.539062 Z M 182.894531 141.539062 "/>
<path style=" stroke:none;fill-rule:nonzero;fill:rgb(24.705882%,23.921569%,33.72549%);fill-opacity:1;" d="M 47.023438 98.699219 C 45.488281 98.695312 43.960938 98.496094 42.472656 98.113281 L 42.179688 98.03125 L 41.90625 97.898438 C 32.082031 92.992188 23.789062 86.511719 17.265625 78.636719 C 11.867188 72.082031 7.65625 64.636719 4.824219 56.640625 C 1.4375 47.0625 -0.191406 36.960938 0.015625 26.8125 C 0.0195312 26.601562 0.0234375 26.433594 0.0234375 26.320312 C 0.0234375 21.386719 2.773438 17.058594 7.03125 15.292969 C 10.289062 13.941406 39.863281 1.847656 42 0.972656 C 46.027344 -1.035156 50.320312 0.640625 51.007812 0.933594 C 52.546875 1.5625 79.890625 12.695312 85.796875 15.496094 C 91.886719 18.386719 93.511719 23.570312 93.511719 26.179688 C 93.511719 37.996094 91.457031 49.035156 87.402344 59 C 84.128906 67.0625 79.492188 74.507812 73.6875 81.007812 C 62.492188 93.550781 51.292969 98 51.1875 98.039062 C 49.847656 98.496094 48.441406 98.71875 47.023438 98.699219 Z M 44.390625 92.203125 C 45.363281 92.421875 47.597656 92.746094 49.054688 92.214844 C 50.90625 91.542969 60.277344 86.703125 69.039062 76.890625 C 81.140625 63.332031 87.28125 46.285156 87.289062 26.226562 C 87.265625 25.816406 86.976562 22.917969 83.121094 21.09375 C 77.328125 18.34375 48.910156 6.773438 48.621094 6.65625 L 48.542969 6.625 C 47.949219 6.375 46.054688 5.851562 44.746094 6.535156 L 44.484375 6.65625 C 44.167969 6.785156 12.773438 19.625 9.421875 21.015625 C 7.082031 21.984375 6.246094 24.394531 6.246094 26.320312 C 6.246094 26.464844 6.242188 26.667969 6.238281 26.933594 C 5.96875 40.65625 9.160156 74.429688 44.390625 92.203125 Z M 44.390625 92.203125 "/>
<path style=" stroke:none;fill-rule:nonzero;fill:rgb(7.843137%,36.862745%,30.588235%);fill-opacity:1;" d="M 43.300781 3.789062 C 43.300781 3.789062 11.621094 16.746094 8.226562 18.152344 C 4.832031 19.5625 3.136719 22.941406 3.136719 26.320312 C 3.136719 29.703125 0.589844 73.804688 43.300781 95.128906 C 43.300781 95.128906 47.179688 96.195312 50.121094 95.128906 C 53.0625 94.058594 90.398438 76.035156 90.398438 26.179688 C 90.398438 26.179688 90.398438 21.113281 84.460938 18.292969 C 78.519531 15.476562 49.800781 3.789062 49.800781 3.789062 C 49.800781 3.789062 46.273438 2.242188 43.300781 3.789062 Z M 43.300781 3.789062 "/>
<use xlink:href="#surface5" mask="url(#mask0)"/>
<path style=" stroke:none;fill-rule:nonzero;fill:rgb(100%,100%,100%);fill-opacity:1;" d="M 47.113281 63.605469 L 36.929688 50.566406 L 42.851562 45.980469 L 47.675781 52.15625 L 63.960938 35.035156 L 69.40625 40.171875 Z M 47.113281 63.605469 "/>
<path style=" stroke:none;fill-rule:nonzero;fill:rgb(79.215686%,79.215686%,79.215686%);fill-opacity:1;" d="M 199.773438 142 L 106.734375 142 C 106.597656 142 106.488281 141.890625 106.488281 141.757812 C 106.488281 141.621094 106.597656 141.515625 106.734375 141.515625 L 199.773438 141.515625 C 199.90625 141.515625 200.015625 141.621094 200.015625 141.757812 C 200.015625 141.890625 199.90625 142 199.773438 142 Z M 199.773438 142 "/>
<path style=" stroke:none;fill-rule:nonzero;fill:rgb(100%,72.156863%,72.156863%);fill-opacity:1;" d="M 133.628906 138.167969 L 137.40625 138.167969 L 139.203125 123.664062 L 133.628906 123.664062 Z M 133.628906 138.167969 "/>
<path style=" stroke:none;fill-rule:nonzero;fill:rgb(18.431373%,18.039216%,25.490196%);fill-opacity:1;" d="M 132.664062 136.9375 L 140.101562 136.9375 C 142.71875 136.9375 144.84375 139.050781 144.84375 141.660156 L 144.84375 141.8125 L 132.664062 141.8125 Z M 132.664062 136.9375 "/>
<path style=" stroke:none;fill-rule:nonzero;fill:rgb(100%,72.156863%,72.156863%);fill-opacity:1;" d="M 146.328125 138.167969 L 150.101562 138.167969 L 151.898438 123.664062 L 146.324219 123.664062 Z M 146.328125 138.167969 "/>
<path style=" stroke:none;fill-rule:nonzero;fill:rgb(18.431373%,18.039216%,25.490196%);fill-opacity:1;" d="M 145.363281 136.9375 L 152.800781 136.9375 C 155.417969 136.9375 157.539062 139.050781 157.539062 141.660156 L 157.539062 141.8125 L 145.363281 141.8125 Z M 145.363281 136.9375 "/>
<path style=" stroke:none;fill-rule:nonzero;fill:rgb(18.431373%,18.039216%,25.490196%);fill-opacity:1;" d="M 139.5625 87.230469 L 140.46875 133.246094 L 133.140625 132.792969 L 128.058594 103.484375 L 126.449219 83.5 Z M 139.5625 87.230469 "/>
<path style=" stroke:none;fill-rule:nonzero;fill:rgb(18.431373%,18.039216%,25.490196%);fill-opacity:1;" d="M 152.140625 79.503906 L 153.167969 133.976562 L 144.621094 133.734375 L 142.773438 101.351562 L 139.5625 89.628906 L 126.453125 83.5 L 128.59375 68.84375 L 147.859375 68.578125 Z M 152.140625 79.503906 "/>
<path style=" stroke:none;fill-rule:nonzero;fill:rgb(100%,72.156863%,72.156863%);fill-opacity:1;" d="M 143.960938 24.214844 C 143.960938 27.820312 141.023438 30.742188 137.40625 30.742188 C 133.785156 30.742188 130.851562 27.820312 130.851562 24.214844 C 130.851562 20.613281 133.785156 17.691406 137.40625 17.691406 C 141.023438 17.691406 143.960938 20.613281 143.960938 24.214844 Z M 143.960938 24.214844 "/>
<path style=" stroke:none;fill-rule:nonzero;fill:rgb(80%,80%,80%);fill-opacity:1;" d="M 142.839844 33.492188 L 143.84375 35.003906 L 146.523438 42.464844 L 144.378906 71.507812 L 131.804688 71.777344 L 130.199219 38.46875 L 133.5625 34.28125 Z M 142.839844 33.492188 "/>
<path style=" stroke:none;fill-rule:nonzero;fill:rgb(18.431373%,18.039216%,25.490196%);fill-opacity:1;" d="M 125.113281 39.269531 L 122.972656 39.003906 C 122.972656 39.003906 122.4375 39.269531 122.167969 41.132812 C 121.902344 43 118.691406 59.519531 118.691406 59.519531 L 122.972656 79.769531 L 127.789062 73.375 L 124.84375 62.183594 L 127.789062 50.992188 Z M 125.113281 39.269531 "/>
<path style=" stroke:none;fill-rule:nonzero;fill:rgb(18.431373%,18.039216%,25.490196%);fill-opacity:1;" d="M 152.410156 39.003906 L 154.015625 39.003906 L 158.027344 60.585938 L 154.28125 77.371094 L 150.535156 71.242188 L 151.605469 64.582031 L 151.070312 58.71875 L 149.199219 55.253906 Z M 152.410156 39.003906 "/>
<path style=" stroke:none;fill-rule:nonzero;fill:rgb(18.431373%,18.039216%,25.490196%);fill-opacity:1;" d="M 141.277344 24.214844 L 140.085938 23.917969 C 140.085938 23.917969 139.191406 18.878906 137.109375 19.46875 C 135.023438 20.0625 129.660156 20.65625 129.660156 18.285156 C 129.660156 15.910156 134.722656 13.835938 137.703125 14.132812 C 140.683594 14.425781 144.488281 15.410156 145.449219 19.765625 C 146.992188 26.75 142.269531 28.511719 142.269531 28.511719 L 142.347656 28.257812 C 142.792969 26.816406 142.378906 25.25 141.277344 24.214844 Z M 141.277344 24.214844 "/>
<path style=" stroke:none;fill-rule:nonzero;fill:rgb(18.431373%,18.039216%,25.490196%);fill-opacity:1;" d="M 123.238281 39.003906 L 131.804688 35.539062 L 133.808594 34.074219 L 139.832031 60.585938 L 142.640625 33.273438 L 153.746094 39.003906 L 150 57.121094 L 149.464844 64.050781 L 151.070312 69.644531 C 151.070312 69.644531 156.691406 73.640625 154.816406 77.90625 C 152.945312 82.167969 150.804688 82.433594 150.804688 82.433594 C 150.804688 82.433594 141.703125 73.90625 141.167969 71.777344 C 140.632812 69.644531 139.832031 65.914062 139.832031 65.914062 C 139.832031 65.914062 135.28125 82.96875 129.929688 82.699219 C 124.578125 82.433594 124.578125 76.839844 124.578125 76.839844 L 125.917969 70.976562 L 128.058594 64.847656 L 126.988281 54.722656 Z M 123.238281 39.003906 "/>
</g>
</svg>
