<svg xmlns="http://www.w3.org/2000/svg" xmlns:xlink="http://www.w3.org/1999/xlink" width="254.23" height="354.28" viewBox="0 0 254.23 354.28">
  <defs>
    <linearGradient id="linear-gradient" x1="0.002" y1="0.5" x2="1" y2="0.5" gradientUnits="objectBoundingBox">
      <stop offset="0.087" stop-color="#cecd8e"/>
      <stop offset="0.721" stop-color="#cecd8e"/>
    </linearGradient>
    <linearGradient id="linear-gradient-2" x1="0.001" y1="0.5" x2="1" y2="0.5" xlink:href="#linear-gradient"/>
    <linearGradient id="linear-gradient-3" x1="0" y1="0.5" x2="1" y2="0.5" xlink:href="#linear-gradient"/>
    <linearGradient id="linear-gradient-4" x1="0" y1="0.5" x2="1" y2="0.5" xlink:href="#linear-gradient"/>
    <linearGradient id="linear-gradient-5" x1="-0.001" y1="0.499" x2="1" y2="0.499" xlink:href="#linear-gradient"/>
    <linearGradient id="linear-gradient-6" x1="0.064" y1="0.5" x2="1.258" y2="0.5" gradientUnits="objectBoundingBox">
      <stop offset="0.087" stop-color="#cecd8e"/>
      <stop offset="0.5" stop-color="#eaeeca"/>
      <stop offset="0.721" stop-color="#cecd8e"/>
    </linearGradient>
    <linearGradient id="linear-gradient-7" x1="2.602" y1="-92.569" x2="-1.31" y2="80.678" xlink:href="#linear-gradient"/>
    <linearGradient id="linear-gradient-8" x1="5.575" y1="-5.03" x2="-9.399" y2="11.295" xlink:href="#linear-gradient-6"/>
    <linearGradient id="linear-gradient-9" x1="4.344" y1="-3.688" x2="-10.63" y2="12.637" xlink:href="#linear-gradient-6"/>
    <linearGradient id="linear-gradient-10" x1="4.851" y1="-4.241" x2="-10.123" y2="12.085" xlink:href="#linear-gradient-6"/>
    <linearGradient id="linear-gradient-11" x1="2.903" y1="-0.905" x2="-3.173" y2="2.769" xlink:href="#linear-gradient"/>
    <linearGradient id="linear-gradient-12" x1="3.144" y1="-1.024" x2="-2.937" y2="2.593" xlink:href="#linear-gradient"/>
    <linearGradient id="linear-gradient-13" x1="2.331" y1="-0.937" x2="-1.593" y2="2.042" xlink:href="#linear-gradient"/>
  </defs>
  <g id="logo" transform="translate(-457.091 -216)">
    <g id="Group_3" data-name="Group 3" transform="translate(-32.489 133.87)">
      <path id="Path_57" data-name="Path 57" d="M575.11,418.62c0,.21-.1.32-.3.32-.34,0-1.7-.08-4.07-.24-.06,2.7-.08,4.58-.08,5.65,0,1.26.04,3.15.13,5.68s.13,4.42.13,5.68c0,.2-.04.33-.12.38a1.376,1.376,0,0,1-.38.08,17.164,17.164,0,0,1-2.38.13,15.2,15.2,0,0,1-2.45-.13.452.452,0,0,1-.38-.5c0-1.26.04-3.14.13-5.66s.13-4.4.13-5.66c0-.83-.04-2.69-.11-5.57a39.437,39.437,0,0,1-4.31.32c-.15,0-.22-.05-.22-.16a9.978,9.978,0,0,1,.19-1.23c.15-.75.23-1.2.24-1.36.03-.5.06-1,.1-1.5.06-.8.17-1.2.32-1.2.02,0,.08,0,.19.01a46.657,46.657,0,0,0,6.47.34c.81,0,2.3-.1,4.49-.3,1.17-.11,1.76-.16,1.77-.16.18,0,.28.01.31.04a.621.621,0,0,1,.06.31q0,.435-.03,1.2c-.02.57-.03.96-.03,1.2a11.152,11.152,0,0,0,.09,1.18A7.749,7.749,0,0,1,575.11,418.62Z" fill="url(#linear-gradient)"/>
      <path id="Path_58" data-name="Path 58" d="M599.91,435.77a.409.409,0,0,1-.34.4,13.6,13.6,0,0,1-2.52.13,14.005,14.005,0,0,1-2.49-.13.807.807,0,0,1-.58-.72,6.979,6.979,0,0,0-.71-2.46,26.325,26.325,0,0,0-3.62-.11,9.541,9.541,0,0,0-2.45.14,4.792,4.792,0,0,0-.51,1.71c-.17.88-.38,1.36-.62,1.44a19.714,19.714,0,0,1-3.08.13c-1.38,0-2.07-.15-2.07-.46q0-.42,3.05-10.22,3.315-10.605,3.6-11.66c.11-.41.23-.61.38-.61.24,0,.62.03,1.13.08s.89.08,1.14.08.6-.02,1.07-.06.83-.06,1.06-.06c.17,0,.33.18.47.53q.66,1.68,3.87,11.52Q599.915,435.325,599.91,435.77Zm-9.58-14.58q-.285.705-.96,3.06a18.379,18.379,0,0,0-.73,2.93c0,.19.27.3.81.32q.42.03,1.38.03c.59,0,.93-.08.99-.26a.646.646,0,0,0,.03-.22,18.512,18.512,0,0,0-.62-2.91A25.877,25.877,0,0,0,590.33,421.19Z" fill="url(#linear-gradient-2)"/>
      <path id="Path_59" data-name="Path 59" d="M622.93,436.01c0,.07-.09.13-.27.16a20.181,20.181,0,0,1-2.58.1,17.9,17.9,0,0,1-2.4-.1,1.22,1.22,0,0,1-.34-.08c-.06-.03-.12-.14-.19-.32-.13-.42-.33-1.03-.59-1.86q-.525-1.605-1.65-4.72a1.17,1.17,0,0,0-1.12-.69c.27.02-.19.03-1.39.03-.13,0-.2.27-.2.82,0,.72.06,1.81.17,3.25s.17,2.52.17,3.25c0,.18-.04.29-.12.32l-.38.03q-.8.06-2.49.06a14.272,14.272,0,0,1-2.33-.1.464.464,0,0,1-.39-.5c0-1.17.05-2.94.14-5.31s.14-4.14.14-5.33q0-6.765-.25-10.55l-.01-.22c-.01-.18.13-.3.42-.37s1.67-.13,4.13-.19q2.5-.06,3.99-.06a7.479,7.479,0,0,1,5.02,1.65,6.608,6.608,0,0,1,2.2,5.36,10.044,10.044,0,0,1-.57,3.73,7.221,7.221,0,0,1-2.09,2.7.671.671,0,0,0-.31.48c0-.01.55,1.33,1.65,4.01A30.719,30.719,0,0,1,622.93,436.01Zm-5.68-14.35a3.062,3.062,0,0,0-1.08-2.7,4.727,4.727,0,0,0-2.62-.58c-.86,0-1.31.16-1.36.46-.05.36-.08,1.41-.08,3.13,0,.24.01.61.01,1.09s.01.84.01,1.07c0,.05.14.11.43.16a9.7,9.7,0,0,0,1.73.14C616.27,424.44,617.25,423.51,617.25,421.66Z" fill="url(#linear-gradient-3)"/>
      <path id="Path_60" data-name="Path 60" d="M647.81,435.77a.409.409,0,0,1-.34.4,13.6,13.6,0,0,1-2.52.13,14.005,14.005,0,0,1-2.49-.13.807.807,0,0,1-.58-.72,6.979,6.979,0,0,0-.71-2.46,26.325,26.325,0,0,0-3.62-.11,9.541,9.541,0,0,0-2.45.14,4.792,4.792,0,0,0-.51,1.71c-.17.88-.38,1.36-.62,1.44a19.714,19.714,0,0,1-3.08.13c-1.38,0-2.07-.15-2.07-.46q0-.42,3.05-10.22,3.315-10.605,3.6-11.66c.11-.41.23-.61.38-.61.24,0,.62.03,1.13.08s.89.08,1.14.08.6-.02,1.07-.06.83-.06,1.06-.06c.17,0,.33.18.47.53q.66,1.68,3.87,11.52Q647.815,435.325,647.81,435.77Zm-9.58-14.58q-.285.705-.96,3.06a18.379,18.379,0,0,0-.73,2.93c0,.19.27.3.81.32q.42.03,1.38.03c.59,0,.93-.08.99-.26a.646.646,0,0,0,.03-.22,18.512,18.512,0,0,0-.62-2.91A28.23,28.23,0,0,0,638.23,421.19Z" fill="url(#linear-gradient-4)"/>
      <path id="Path_61" data-name="Path 61" d="M668.67,418.94q0,.18-.27.18c-.68,0-1.7-.07-3.07-.21s-2.4-.21-3.09-.21a5.507,5.507,0,0,0-1.51.11c-.33.18-.5.69-.5,1.54,0,1.01.22,1.59.65,1.73a3.329,3.329,0,0,0,.83.08q.93,0,2.79-.12t2.79-.12q.45,0,.45,2.82a13.88,13.88,0,0,1-.15,2.85.364.364,0,0,1-.37.29,3.751,3.751,0,0,0-.85-.11,42.4,42.4,0,0,0-4.37-.16c-.63,0-.99.01-1.07.02q-.69.12-.69.69c0,1.51.05,3.26.16,5.23.09,1.78.13,2.57.13,2.38,0,.28-.28.44-.85.48a8.959,8.959,0,0,0-1.2-.02,15.3,15.3,0,0,1-3.26-.21.477.477,0,0,1-.39-.5c0-1.18.04-2.96.1-5.33s.1-4.15.1-5.33c0-1.41-.06-3.18-.16-5.31-.16-3.3-.25-5.06-.25-5.31l-.01-.19c-.01-.27.13-.4.4-.4.67,0,1.67.02,3.02.05s2.36.05,3.03.05c.72,0,1.8-.06,3.25-.19s2.53-.19,3.25-.19a.685.685,0,0,1,.76.66c0,.46.02,1.15.05,2.06.02.24.08.69.18,1.36A10.032,10.032,0,0,1,668.67,418.94Z" fill="url(#linear-gradient-5)"/>
    </g>
    <path id="Path_62" data-name="Path 62" d="M725.84,142.97s-18.63-4.5-19.28,10.28c0,0-1.93,4.71,5.78,9.85,0,0-3.86,20.99-24.42,15.42,0,0-14.6-6.18-11.37-22.88a14.076,14.076,0,0,0,1.73.17,13.781,13.781,0,1,0-9.4-3.77c-4.08,4.69-16.09,16.53-28.94,10.62,0,0-9.85,0-14.14-20.99,0,0,15.42,2.14,15.42-16.28,0,0-2.14-16.28-16.28-14.56,0,0,1.71-20.13-9.42-28.7a57.849,57.849,0,0,0-8.57,28.27s-15.42.43-15.85,15.42c0,0-3,15.85,16.28,16.28,0,0-5.14,23.56-20.99,24.42a30.335,30.335,0,0,1-23.06-12.76,13.642,13.642,0,1,0-7.14,2.06c.27,0,.51-.06.77-.08.65,4.14,2.93,24.62-15.55,25.78,0,0-11.99,2.14-20.99-11.99,0,0,12.42-6.85,3-19.28,0,0-5.57-8.57-14.56-2.14,0,0-9-10.28-19.28-3.86l35.77,66.18s87.38-46.91,186.98-3.86l31.48-66.82C743.83,139.76,732.27,133.97,725.84,142.97Z" transform="translate(-32.489 133.87)" fill="url(#linear-gradient-6)"/>
    <rect id="Rectangle_1" data-name="Rectangle 1" width="114.37" height="2.83" transform="translate(523.721 538.71)" fill="url(#linear-gradient-7)"/>
    <path id="Path_63" data-name="Path 63" d="M596.91,198.23l-14.78,14.78,15.1,15.1,14.78-14.78S596.91,196.3,596.91,198.23Z" transform="translate(-32.489 133.87)" fill="url(#linear-gradient-8)"/>
    <path id="Path_64" data-name="Path 64" d="M682.63,202.58l-14.78,14.78,15.1,15.1,14.78-14.78S682.63,200.65,682.63,202.58Z" transform="translate(-32.489 133.87)" fill="url(#linear-gradient-9)"/>
    <path id="Path_65" data-name="Path 65" d="M680.77,231.29l-14.78,14.78,15.1,15.1,14.78-14.78S680.77,229.36,680.77,231.29Z" transform="translate(-32.489 133.87)" fill="url(#linear-gradient-10)"/>
    <path id="Path_66" data-name="Path 66" d="M691.41,272.64l10.12-9.84,10.06,9.84s2.87,11.7-.55,34.3a146.046,146.046,0,0,1-41.7,82.15c-1.92,1.89-3.85,3.67-5.73,5.27a7.888,7.888,0,0,1-9.67.41c-3.99-2.84-9.47-7.07-12.5-10.85l-2.36-14.07,15.2-1.04,3.54,4.29C657.83,373.09,698.48,338.82,691.41,272.64Z" transform="translate(-32.489 133.87)" fill="url(#linear-gradient-11)"/>
    <path id="Path_67" data-name="Path 67" d="M652.81,270.83l10.07-10.14,10,10.09s.89,13.56-2.53,36.16a146.045,146.045,0,0,1-41.7,82.15c-1.92,1.89-3.85,3.67-5.73,5.27a7.888,7.888,0,0,1-9.67.41c-3.99-2.84-9.47-7.07-12.5-10.85l-1.34-13.61,14.62-1.74,3.77,4.7C617.81,373.27,659.87,337.02,652.81,270.83Z" transform="translate(-32.489 133.87)" fill="url(#linear-gradient-12)"/>
    <path id="Path_68" data-name="Path 68" d="M632.14,272.87l-35.87-39.3-30.84,39.19s-2.43,52.69,24.98,86.28a104.052,104.052,0,0,1-13.36,15.51c-37.23-32.39-38.29-101.5-38.29-101.5L528.61,262.9l-9.98,10.15c-3.86,74.11,41.86,112.8,41.86,112.8,3.03,3.78,8.5,8.01,12.5,10.85a7.888,7.888,0,0,0,9.67-.41c1.88-1.59,3.81-3.37,5.73-5.27a146.108,146.108,0,0,0,41.7-82.15C633.51,286.27,632.14,272.87,632.14,272.87ZM600.12,338.3c-18.63-24.42-13.11-65.43-13.11-65.43l12.46-12.96,12.36,12.84C616.34,307.45,600.12,338.3,600.12,338.3Z" transform="translate(-32.489 133.87)" fill="url(#linear-gradient-13)"/>
  </g>
</svg>
