<svg xmlns="http://www.w3.org/2000/svg" width="766" height="561" viewBox="0 0 766 561">
  <g id="mail" transform="translate(-2082 -124)">
    <g id="mail-2" data-name="mail" transform="translate(2209 149)">
      <g id="Group_2" data-name="Group 2">
        <path id="Path_4" data-name="Path 4" d="M467,76H45A45.067,45.067,0,0,0,0,121V391a45.068,45.068,0,0,0,45,45H467a45.052,45.052,0,0,0,45-45V121A45.044,45.044,0,0,0,467,76Zm-6.3,30L287.82,277.967a45,45,0,0,1-63.668-.028L51.3,106ZM30,384.894V127.125L159.638,256.08ZM51.321,406,180.908,277.237l22.059,21.943a75,75,0,0,0,106.038.028l22.087-21.971L460.679,406ZM482,384.894,352.362,256.08,482,127.125Z" fill="#e8e7c9"/>
      </g>
    </g>
    <g id="Rectangle_3" data-name="Rectangle 3" transform="translate(2082 124)" fill="none" stroke="rgba(112,112,112,0)" stroke-width="1">
      <rect width="766" height="561" stroke="none"/>
      <rect x="0.5" y="0.5" width="765" height="560" fill="none"/>
    </g>
  </g>
</svg>
