<svg xmlns="http://www.w3.org/2000/svg" width="64" height="64" viewBox="0 0 64 64">
  <g id="ser-2" transform="translate(-2042 2125)">
    <g id="computer" transform="translate(2024.095 -2118)">
      <g id="Group_8" data-name="Group 8" transform="translate(47.697 26.069)">
        <path id="Path_18" data-name="Path 18" d="M233.931,271.86h2.924a.723.723,0,0,0,0-1.446h-2.924a.723.723,0,0,0,0,1.446Z" transform="translate(-233.208 -270.414)" fill="#10164e"/>
      </g>
      <g id="Group_9" data-name="Group 9" transform="translate(27.905 0)">
        <path id="Path_19" data-name="Path 19" d="M140.06,92.421a.723.723,0,0,0-1.019.08l-7.509,8.791a.723.723,0,0,0,1.1.939l7.509-8.791A.723.723,0,0,0,140.06,92.421Z" transform="translate(-121.386 -83.355)" fill="#10164e"/>
        <path id="Path_20" data-name="Path 20" d="M131.6,115.276a.723.723,0,0,0,1.021-.06l2.03-2.283a.723.723,0,1,0-1.081-.961l-2.03,2.283A.723.723,0,0,0,131.6,115.276Z" transform="translate(-121.385 -100.958)" fill="#10164e"/>
        <path id="Path_21" data-name="Path 21" d="M84.4,409.009a1.482,1.482,0,0,0-1.418-1.038H58.52a.723.723,0,0,0,0,1.446H82.981a.041.041,0,0,1,.039.029l2.228,7.029a.041.041,0,0,1-.039.054H47.778a.041.041,0,0,1-.039-.054l2.228-7.029a.041.041,0,0,1,.039-.029h5.251a.723.723,0,0,0,0-1.446H50.006a1.482,1.482,0,0,0-1.418,1.038l-2.228,7.029a1.487,1.487,0,0,0,1.418,1.937H85.209a1.487,1.487,0,0,0,1.418-1.937Z" transform="translate(-44.517 -368.641)" fill="#10164e"/>
        <path id="Path_22" data-name="Path 22" d="M68.967,0H30.8A2.9,2.9,0,0,0,27.9,2.891V27.379A2.9,2.9,0,0,0,30.8,30.271h14.2a33.905,33.905,0,0,1-.5,5.214H41.378a.723.723,0,0,0,0,1.446H58.386a.723.723,0,1,0,0-1.446H55.274a33.9,33.9,0,0,1-.5-5.214h14.2a2.9,2.9,0,0,0,2.891-2.891V2.891A2.9,2.9,0,0,0,68.967,0Zm-23,35.485a38.288,38.288,0,0,0,.474-5.214h6.883a38.287,38.287,0,0,0,.474,5.214Zm24.446-8.106a1.447,1.447,0,0,1-1.445,1.445H30.8a1.447,1.447,0,0,1-1.445-1.445v-2.62H70.412v2.62Zm0-4.066h-1.9V12.64a.723.723,0,1,0-1.446,0V23.313H32.7V4.9a.191.191,0,0,1,.191-.191H66.876a.191.191,0,0,1,.191.191V9.332a.723.723,0,0,0,1.446,0V4.9a1.639,1.639,0,0,0-1.637-1.637H32.887A1.639,1.639,0,0,0,31.25,4.9V23.313h-1.9V2.891A1.447,1.447,0,0,1,30.8,1.446h38.17a1.447,1.447,0,0,1,1.445,1.445Z" transform="translate(-27.905 0)" fill="#10164e"/>
        <path id="Path_23" data-name="Path 23" d="M123.336,438.935h-.981a.723.723,0,1,0,0,1.446h.981a.723.723,0,1,0,0-1.446Z" transform="translate(-112.596 -396.62)" fill="#10164e"/>
        <path id="Path_24" data-name="Path 24" d="M163.063,440.381h.981a.723.723,0,1,0,0-1.446h-.981a.723.723,0,1,0,0,1.446Z" transform="translate(-149.38 -396.62)" fill="#10164e"/>
        <path id="Path_25" data-name="Path 25" d="M203.771,440.381h.981a.723.723,0,1,0,0-1.446h-.981a.723.723,0,1,0,0,1.446Z" transform="translate(-186.164 -396.62)" fill="#10164e"/>
        <path id="Path_26" data-name="Path 26" d="M244.48,440.381h.981a.723.723,0,1,0,0-1.446h-.981a.723.723,0,1,0,0,1.446Z" transform="translate(-222.948 -396.62)" fill="#10164e"/>
        <path id="Path_27" data-name="Path 27" d="M285.188,440.381h.981a.723.723,0,0,0,0-1.446h-.981a.723.723,0,1,0,0,1.446Z" transform="translate(-259.732 -396.62)" fill="#10164e"/>
        <path id="Path_28" data-name="Path 28" d="M325.9,440.381h.981a.723.723,0,1,0,0-1.446H325.9a.723.723,0,1,0,0,1.446Z" transform="translate(-296.516 -396.62)" fill="#10164e"/>
        <path id="Path_29" data-name="Path 29" d="M365.656,440.381h.981a.723.723,0,0,0,0-1.446h-.981a.723.723,0,1,0,0,1.446Z" transform="translate(-332.442 -396.62)" fill="#10164e"/>
        <path id="Path_30" data-name="Path 30" d="M123.336,465.778h-.981a.723.723,0,1,0,0,1.446h.981a.723.723,0,1,0,0-1.446Z" transform="translate(-112.596 -420.876)" fill="#10164e"/>
        <path id="Path_31" data-name="Path 31" d="M163.063,467.224h.981a.723.723,0,1,0,0-1.446h-.981a.723.723,0,1,0,0,1.446Z" transform="translate(-149.38 -420.876)" fill="#10164e"/>
        <path id="Path_32" data-name="Path 32" d="M203.771,467.224h.981a.723.723,0,1,0,0-1.446h-.981a.723.723,0,1,0,0,1.446Z" transform="translate(-186.164 -420.876)" fill="#10164e"/>
        <path id="Path_33" data-name="Path 33" d="M244.48,467.224h.981a.723.723,0,1,0,0-1.446h-.981a.723.723,0,1,0,0,1.446Z" transform="translate(-222.948 -420.876)" fill="#10164e"/>
        <path id="Path_34" data-name="Path 34" d="M285.188,467.224h.981a.723.723,0,1,0,0-1.446h-.981a.723.723,0,1,0,0,1.446Z" transform="translate(-259.732 -420.876)" fill="#10164e"/>
        <path id="Path_35" data-name="Path 35" d="M325.9,467.224h.981a.723.723,0,1,0,0-1.446H325.9a.723.723,0,1,0,0,1.446Z" transform="translate(-296.516 -420.876)" fill="#10164e"/>
        <path id="Path_36" data-name="Path 36" d="M365.656,467.224h.981a.723.723,0,1,0,0-1.446h-.981a.723.723,0,1,0,0,1.446Z" transform="translate(-332.442 -420.876)" fill="#10164e"/>
      </g>
    </g>
    <g id="Rectangle_11" data-name="Rectangle 11" transform="translate(2042 -2125)" fill="none" stroke="rgba(112,112,112,0)" stroke-width="1">
      <rect width="64" height="64" stroke="none"/>
      <rect x="0.5" y="0.5" width="63" height="63" fill="none"/>
    </g>
  </g>
</svg>
