<svg xmlns="http://www.w3.org/2000/svg" width="64" height="64" viewBox="0 0 64 64">
  <g id="ser-3" transform="translate(-2162 2125)">
    <g id="Rectangle_9" data-name="Rectangle 9" transform="translate(2162 -2125)" fill="none" stroke="rgba(112,112,112,0)" stroke-width="1">
      <rect width="64" height="64" stroke="none"/>
      <rect x="0.5" y="0.5" width="63" height="63" fill="none"/>
    </g>
    <g id="headphones" transform="translate(2144.52 -2119)">
      <g id="Group_7" data-name="Group 7" transform="translate(26.48)">
        <path id="Path_7" data-name="Path 7" d="M67,17.788a17.788,17.788,0,1,0-35.576,0c-2.54.316-4.941,1.976-4.941,5.83v9.289c0,4.348,3.044,5.929,5.929,5.929h2.866a.988.988,0,0,0,.988-.988V18.717a.988.988,0,0,0-.988-.988H33.4a15.811,15.811,0,0,1,31.623,0H63.143a.988.988,0,0,0-.988.988v19.1a.988.988,0,0,0,.988.988H65.02c-.277,6.789-3.538,8.38-10.05,8.667v-.662a1.976,1.976,0,0,0-1.976-1.976H46.778A1.976,1.976,0,0,0,44.8,46.812v3.212A1.976,1.976,0,0,0,46.778,52h6.236a1.976,1.976,0,0,0,1.976-1.976V49.45c6.265-.287,11.681-1.581,12.007-10.7,2.54-.316,4.941-1.976,4.941-5.83V23.628C71.938,19.754,69.547,18.1,67,17.788Zm-32.71,1.848V36.831H32.36c-1.463,0-3.953-.514-3.953-3.953V23.589c0-3.409,2.461-3.953,3.953-3.953Zm18.727,28.9v1.5H46.778V46.822h6.236ZM69.962,32.908c0,3.409-2.461,3.953-3.953,3.953H64.131V19.705h1.927c1.463,0,3.953.514,3.953,3.953Z" transform="translate(-26.48)" fill="#10164e"/>
      </g>
    </g>
  </g>
</svg>
