<svg xmlns="http://www.w3.org/2000/svg" width="64" height="64" viewBox="0 0 64 64">
  <g id="ser-1" transform="translate(-1922 2131)">
    <g id="Rectangle_10" data-name="Rectangle 10" transform="translate(1922 -2131)" fill="none" stroke="rgba(112,112,112,0)" stroke-width="1">
      <rect width="64" height="64" stroke="none"/>
      <rect x="0.5" y="0.5" width="63" height="63" fill="none"/>
    </g>
    <g id="test" transform="translate(1877 -2125)">
      <path id="Path_8" data-name="Path 8" d="M93.287,4.149H86.6V4.1a1.609,1.609,0,0,0-1.608-1.608h-4.2V2.437A2.44,2.44,0,0,0,78.351,0H75.032a2.44,2.44,0,0,0-2.437,2.437v.052h-4.2A1.609,1.609,0,0,0,66.787,4.1v.052H60.1a4.1,4.1,0,0,0-4.1,4.1V48.9A4.1,4.1,0,0,0,60.1,53h33.19a4.1,4.1,0,0,0,4.1-4.1V8.246A4.1,4.1,0,0,0,93.287,4.149ZM85.819,9.023h6.638a.052.052,0,0,1,.052.052v39a.052.052,0,0,1-.052.052H60.927a.052.052,0,0,1-.052-.052v-39a.052.052,0,0,1,.052-.052h6.665a4.093,4.093,0,0,0,3.292,1.661H82.5a4.093,4.093,0,0,0,3.292-1.661ZM74.151,2.437a.883.883,0,0,1,.882-.882h3.319a.883.883,0,0,1,.882.882v.052H74.151ZM68.342,4.1a.052.052,0,0,1,.052-.052H84.989a.052.052,0,0,1,.052.052v.824s0,0,0,.006,0,0,0,.006V6.586A2.544,2.544,0,0,1,82.5,9.127H70.884a2.544,2.544,0,0,1-2.541-2.541ZM95.828,48.9a2.544,2.544,0,0,1-2.541,2.541H60.1A2.544,2.544,0,0,1,57.556,48.9V8.246A2.544,2.544,0,0,1,60.1,5.7h6.69v.882a4.1,4.1,0,0,0,.1.882H60.927a1.609,1.609,0,0,0-1.608,1.608v39a1.609,1.609,0,0,0,1.608,1.608h31.53a1.609,1.609,0,0,0,1.608-1.608v-39a1.609,1.609,0,0,0-1.608-1.608H86.5a4.09,4.09,0,0,0,.1-.882V5.7h6.69a2.544,2.544,0,0,1,2.541,2.541Z" fill="#10164e"/>
      <path id="Path_9" data-name="Path 9" d="M136.882,144.194h6.431a.883.883,0,0,0,.882-.882v-6.431a.883.883,0,0,0-.882-.882h-6.431a.883.883,0,0,0-.882.882v6.431A.883.883,0,0,0,136.882,144.194Zm.674-6.638h5.082v5.082h-5.082Z" transform="translate(-71.703 -121.894)" fill="#10164e"/>
      <path id="Path_10" data-name="Path 10" d="M143.312,344h-6.431a.883.883,0,0,0-.882.882v6.431a.883.883,0,0,0,.882.882h6.431a.883.883,0,0,0,.882-.882v-6.431A.883.883,0,0,0,143.312,344Zm-.674,6.638h-5.082v-5.082h5.082Z" transform="translate(-71.703 -308.321)" fill="#10164e"/>
      <path id="Path_11" data-name="Path 11" d="M144.525,240.228l-.559.559a1.607,1.607,0,0,0-1.38-.787h-4.978A1.609,1.609,0,0,0,136,241.608v4.978a1.609,1.609,0,0,0,1.608,1.608h4.978a1.609,1.609,0,0,0,1.608-1.608v-.83a.778.778,0,1,0-1.556,0v.83a.052.052,0,0,1-.052.052h-4.978a.052.052,0,0,1-.052-.052v-4.978a.052.052,0,0,1,.052-.052h4.978a.052.052,0,0,1,.052.052v.508l-1.711,1.711-1.109-1.109a.778.778,0,1,0-1.1,1.1l1.66,1.659a.778.778,0,0,0,1.1,0l2.489-2.489h0l1.659-1.659a.778.778,0,0,0-1.1-1.1Z" transform="translate(-71.703 -215.108)" fill="#10164e"/>
      <path id="Path_12" data-name="Path 12" d="M232.778,145.556h2.489a.778.778,0,0,0,0-1.556h-2.489a.778.778,0,0,0,0,1.556Z" transform="translate(-157.746 -129.065)" fill="#10164e"/>
      <path id="Path_13" data-name="Path 13" d="M232,176.778a.778.778,0,0,0,.778.778h12.446a.778.778,0,1,0,0-1.556H232.778A.778.778,0,0,0,232,176.778Z" transform="translate(-157.746 -157.746)" fill="#10164e"/>
      <path id="Path_14" data-name="Path 14" d="M232.778,257.556h8.3a.778.778,0,1,0,0-1.556h-8.3a.778.778,0,0,0,0,1.556Z" transform="translate(-157.746 -229.448)" fill="#10164e"/>
      <path id="Path_15" data-name="Path 15" d="M245.224,288H232.778a.778.778,0,0,0,0,1.556h12.446a.778.778,0,1,0,0-1.556Z" transform="translate(-157.746 -258.129)" fill="#10164e"/>
      <path id="Path_16" data-name="Path 16" d="M232.778,361.556H236.1a.778.778,0,0,0,0-1.556h-3.319a.778.778,0,0,0,0,1.556Z" transform="translate(-157.746 -322.661)" fill="#10164e"/>
      <path id="Path_17" data-name="Path 17" d="M245.224,392H232.778a.778.778,0,0,0,0,1.556h12.446a.778.778,0,1,0,0-1.556Z" transform="translate(-157.746 -351.342)" fill="#10164e"/>
    </g>
  </g>
</svg>
