<svg xmlns="http://www.w3.org/2000/svg" width="94.812" height="145.761" viewBox="0 0 94.812 145.761">
  <g id="noun_age_4139718" transform="translate(150.1 129.2)">
    <path id="Path_3410" data-name="Path 3410" d="M105.409,48.133c2.868-4.892,4.555-13.5,5.567-20.582h.675a4.9,4.9,0,0,0,4.892-4.892V11.692A4.9,4.9,0,0,0,111.651,6.8H26.961a4.9,4.9,0,0,0-4.892,4.892v10.8a4.9,4.9,0,0,0,4.892,4.892h.675C28.648,34.468,30.5,43.24,33.2,47.964c4.049,6.917,19.907,17.883,23.956,24.293,3.374,5.4,3.374,9.11,0,14.509C53.11,93.345,37.252,104.311,33.2,111.228c-2.868,4.892-4.555,13.5-5.567,20.582H25.611a3.744,3.744,0,0,0-3.711,3.712v13.328a3.744,3.744,0,0,0,3.711,3.711H113a3.744,3.744,0,0,0,3.711-3.711V135.521A3.744,3.744,0,0,0,113,131.81h-2.024c-1.012-7.086-2.868-15.858-5.567-20.582h0C101.36,104.311,85.5,93.345,81.453,86.935c-3.374-5.4-3.374-9.11,0-14.509C85.5,66.015,101.36,55.049,105.409,48.133ZM26.792,22.49v-10.8h85.027v10.8a.165.165,0,0,1-.169.169c-10.291,0-75.748,0-84.858-.169Zm85.027,125.179H26.792V136.7h85.027ZM77.4,89.465c4.555,7.254,20.245,18.22,23.787,24.293,1.856,3.205,3.543,9.616,4.892,18.22H32.528c1.35-8.6,3.037-15.015,4.892-18.22,3.543-6.073,19.232-17.039,23.787-24.293,4.386-6.917,4.386-12.653,0-19.57C56.653,62.641,40.795,51.675,37.421,45.6c-1.856-3.205-3.543-9.616-4.892-18.22h73.724c-1.35,8.6-3.037,15.015-4.892,18.22C97.817,51.675,82.127,62.641,77.572,69.9,73.017,76.812,73.017,82.548,77.4,89.465Z" transform="translate(-172 -136)" fill="#125d50"/>
    <path id="Path_3411" data-name="Path 3411" d="M73.5,49.068C86.66,39.115,92.734,31.86,92.734,26.462A2.306,2.306,0,0,0,90.372,24.1H34.362A2.306,2.306,0,0,0,32,26.462c0,5.4,6.073,12.653,19.232,22.606,5.23,3.88,9.11,10.291,9.11,10.291a2.368,2.368,0,0,0,4.049,0S68.44,52.948,73.5,49.068ZM62.367,53.792a43.079,43.079,0,0,0-8.267-8.6C43.134,36.922,38.917,31.86,37.567,28.824h49.6c-1.35,2.868-5.567,7.929-16.533,16.364A48.093,48.093,0,0,0,62.367,53.792Z" transform="translate(-165.061 -124.114)" fill="#e9e7c8"/>
    <path id="Path_3412" data-name="Path 3412" d="M57.2,64.2c-.844.337-19.4,10.122-19.4,22.269a2.306,2.306,0,0,0,2.362,2.362h36.1a2.306,2.306,0,0,0,2.362-2.362c0-12.147-18.557-21.932-19.4-22.269A2.123,2.123,0,0,0,57.2,64.2ZM73.565,84.11H43.2C45.054,77.868,53.827,71.795,58.382,69.1,62.937,71.795,71.71,77.868,73.565,84.11Z" transform="translate(-161.076 -96.735)" fill="#e9e7c8"/>
    <path id="Path_3413" data-name="Path 3413" d="M53.392,55.871V50.979c0-3.205-4.892-3.205-4.892,0v4.892C48.669,59.077,53.392,59.077,53.392,55.871Z" transform="translate(-153.725 -107.299)" fill="#e9e7c8"/>
    <path id="Path_3414" data-name="Path 3414" d="M48.6,63.771c0,3.205,4.892,3.205,4.892,0V58.879c0-3.205-4.892-3.205-4.892,0Z" transform="translate(-153.656 -101.871)" fill="#e9e7c8"/>
  </g>
</svg>
