<svg id="noun_selection_3528902" xmlns="http://www.w3.org/2000/svg" width="108.503" height="108.479" viewBox="0 0 108.503 108.479">
  <path id="Path_1039" data-name="Path 1039" d="M57.184,91.792A2.418,2.418,0,0,1,54.773,94.2H44.442a2.411,2.411,0,0,1,0-4.822H54.773A2.418,2.418,0,0,1,57.184,91.792ZM34.1,89.381H23.769a2.411,2.411,0,0,0,0,4.822H34.1a2.411,2.411,0,1,0,0-4.822Zm-20.661,0H9.822V85.765a2.411,2.411,0,0,0-4.822,0v6.027A2.418,2.418,0,0,0,7.411,94.2h6.027a2.411,2.411,0,0,0,0-4.822ZM7.411,77.845a2.418,2.418,0,0,0,2.411-2.411V65.1A2.411,2.411,0,0,0,5,65.1V75.434A2.418,2.418,0,0,0,7.411,77.845Zm0-41.335A2.418,2.418,0,0,0,9.822,34.1V23.769a2.411,2.411,0,0,0-4.822,0V34.1A2.41,2.41,0,0,0,7.411,36.51Zm0,20.673a2.418,2.418,0,0,0,2.411-2.411V44.442a2.411,2.411,0,0,0-4.822,0V54.773A2.418,2.418,0,0,0,7.411,57.184ZM13.438,5H7.411A2.418,2.418,0,0,0,5,7.411v6.027a2.411,2.411,0,0,0,4.822,0V9.822h3.616a2.411,2.411,0,0,0,0-4.822ZM44.43,9.822H54.761a2.411,2.411,0,1,0,0-4.822H44.43a2.411,2.411,0,0,0,0,4.822Zm-20.661,0H34.1A2.411,2.411,0,1,0,34.1,5H23.769a2.411,2.411,0,0,0,0,4.822Zm41.335,0H75.434a2.411,2.411,0,0,0,0-4.822H65.1a2.411,2.411,0,0,0,0,4.822Zm20.661,0h3.616v3.616a2.411,2.411,0,0,0,4.822,0V7.411A2.418,2.418,0,0,0,91.792,5H85.765a2.411,2.411,0,0,0,0,4.822ZM94.2,23.769a2.411,2.411,0,0,0-4.822,0V34.1a2.411,2.411,0,1,0,4.822,0Zm-2.411,18.25a2.418,2.418,0,0,0-2.411,2.411V54.761a2.411,2.411,0,1,0,4.822,0V44.43A2.418,2.418,0,0,0,91.792,42.019ZM112.02,68.407,42.1,38.933a2.388,2.388,0,0,0-2.64.518,2.414,2.414,0,0,0-.518,2.64l29.473,69.916a2.407,2.407,0,0,0,2.218,1.471h.048a2.4,2.4,0,0,0,2.206-1.555l10.753-28.3,28.3-10.753a2.4,2.4,0,0,0,.072-4.46Z" transform="translate(-5 -5)" fill="#79254a"/>
</svg>
