<svg id="Layer_2" data-name="Layer 2" xmlns="http://www.w3.org/2000/svg" width="123.999" height="124" viewBox="0 0 123.999 124">
  <g id="Ñëîé_1" data-name="Ñëîé 1" transform="translate(0)">
    <path id="Path_3527" data-name="Path 3527" d="M124,62a61.8,61.8,0,0,1-18.24,43.917q-1.859,1.854-3.872,3.548h0a61.941,61.941,0,0,1-11.506,7.67c-.244.126-.489.251-.736.374a61.463,61.463,0,0,1-12.458,4.615q-.558.14-1.119.271-2.592.6-5.265.984l-.626.085a62.8,62.8,0,0,1-14.676.2q-.783-.081-1.56-.183a61.059,61.059,0,0,1-7.117-1.353c-.335-.084-.67-.171-1-.261a61.481,61.481,0,0,1-9.347-3.347q-.6-.275-1.2-.56c-.088-.039-.174-.08-.26-.124l-.057-.028A62.009,62.009,0,0,1,20.436,108q-.955-.863-1.873-1.765A62,62,0,1,1,124,62Z" transform="translate(0)" fill="#dde4e8"/>
    <path id="Path_3528" data-name="Path 3528" d="M505.862,305.823a47.778,47.778,0,0,0-3.331-13.468,34.1,34.1,0,0,0-3.72-6.651c-4.894-6.776-13.106-11.636-21.581-11.083-7.5.495-14.285,5.129-18.537,11.176a33.455,33.455,0,0,0-2.45,4.1.094.094,0,0,0,0-.013l-.028.072c-1.7,3.364-3.663,6.987-4.457,10.694-1.981,6.728-3.041,15.183-2.04,20.983,1.9,11.048,6.2,12.424,6.2,12.424s-4.409-6.082-3.331-13.183c.094.258.191.515.3.77.078.188.161.373.245.558a16.963,16.963,0,0,0,2.5,7.363h0s2.349,6.625,4.634,7.272l40.078-.29s5.092-11.772,5.3-21.247h0A32,32,0,0,0,505.862,305.823Z" transform="translate(-416.799 -254.696)" fill="#112530"/>
    <path id="Path_3529" data-name="Path 3529" d="M770.132,907.071v13.3a7.169,7.169,0,1,1-14.332,0v-13.3a7.265,7.265,0,0,1,7.168-7.371,7.031,7.031,0,0,1,5.064,2.16,7.444,7.444,0,0,1,2.1,5.21Z" transform="translate(-701.074 -834.554)" fill="#efcaa6"/>
    <path id="Path_3530" data-name="Path 3530" d="M770.132,907.071v5.186a11.4,11.4,0,0,1-14.332,0v-5.186a7.265,7.265,0,0,1,7.168-7.371,7.031,7.031,0,0,1,5.064,2.16,7.444,7.444,0,0,1,2.1,5.21Z" transform="translate(-701.074 -834.554)" fill="#e84e1b" opacity="0.2"/>
    <path id="Path_3531" data-name="Path 3531" d="M615.772,486h0l-.805,1.407a29.424,29.424,0,0,1-18.281,10.178,12.473,12.473,0,0,0-11.006,9.324c.671,12.027,9.136,21.537,19.478,21.537,10.789,0,19.529-10.33,19.529-23.075a27.564,27.564,0,0,0-.2-3.275C615.672,498.561,615.771,486.134,615.772,486Z" transform="translate(-543.272 -450.809)" fill="#efcaa6"/>
    <path id="Path_3532" data-name="Path 3532" d="M606.909,499.83a31.22,31.22,0,0,0,19.244-10.179l.847-1.407c-.847,1.407-.848,1.406-.847,1.407,0,.135.751,10.958,9.816,14.6q-.046-1.093-.173-2.158c-8.846-3.533-8.748-15.96-8.746-16.094h0l-.807,1.407A29.529,29.529,0,0,1,607.9,497.585a12.312,12.312,0,0,0-10.065,6.841A13.326,13.326,0,0,1,606.909,499.83Z" transform="translate(-554.551 -450.809)" fill="#e84e1b" opacity="0.2"/>
    <path id="Path_3533" data-name="Path 3533" d="M784.006,946.347c3.186,0,5.772-1.727,5.772-3.857H778.23C778.23,944.62,780.815,946.347,784.006,946.347Z" transform="translate(-721.879 -874.245)" fill="#fff"/>
    <path id="Path_3534" data-name="Path 3534" d="M678.636,677.543a.5.5,0,0,1-.248-.167.457.457,0,0,1,.1-.661c.166-.118,4.224-3.137,7.6-1.086.232.14.172.706.025.926a.514.514,0,0,1-.687.145c-2.795-1.7-6.306.75-6.342.775A.519.519,0,0,1,678.636,677.543Z" transform="translate(-629.175 -626.047)" fill="#112530"/>
    <path id="Path_3535" data-name="Path 3535" d="M941.706,677.543a.493.493,0,0,0,.248-.167.457.457,0,0,0-.1-.661c-.166-.118-4.224-3.137-7.6-1.086-.232.14-.173.706-.025.926a.514.514,0,0,0,.687.145c2.8-1.7,6.306.75,6.342.775A.52.52,0,0,0,941.706,677.543Z" transform="translate(-866.46 -626.047)" fill="#112530"/>
    <path id="Path_3536" data-name="Path 3536" d="M713.663,729.621a2.05,2.05,0,1,1-4.094,0,2.2,2.2,0,0,1,.242-1.019,2.14,2.14,0,0,1,.484-.631,1.967,1.967,0,0,1,1.321-.511A2.105,2.105,0,0,1,713.663,729.621Z" transform="translate(-658.19 -674.785)" fill="#161412"/>
    <path id="Path_3537" data-name="Path 3537" d="M714.715,735.853l-1.805-.7a2.14,2.14,0,0,1,.484-.631Z" transform="translate(-661.289 -681.334)" fill="#fff"/>
    <path id="Path_3538" data-name="Path 3538" d="M960.253,729.621a2.05,2.05,0,1,1-4.094,0,2.2,2.2,0,0,1,.242-1.019,2.124,2.124,0,0,1,.484-.631,1.965,1.965,0,0,1,1.321-.511A2.105,2.105,0,0,1,960.253,729.621Z" transform="translate(-886.925 -674.786)" fill="#161412"/>
    <path id="Path_3539" data-name="Path 3539" d="M961.305,735.853l-1.805-.7a2.127,2.127,0,0,1,.484-.631Z" transform="translate(-890.024 -681.334)" fill="#fff"/>
    <path id="Path_3540" data-name="Path 3540" d="M518.292,1145.917a2.232,2.232,0,0,1-.011.267l-1.588,18.886a61.461,61.461,0,0,1-12.454,4.616q-.558.14-1.119.271-2.592.6-5.265.984l-.626.085a62.794,62.794,0,0,1-14.676.2q-.783-.081-1.56-.183a61.052,61.052,0,0,1-7.117-1.353c-.335-.084-.67-.171-1-.261a61.463,61.463,0,0,1-9.347-3.347q-.6-.275-1.2-.56c-.088-.039-.174-.08-.26-.124l-.057-.028-1.61-19.186a6.034,6.034,0,0,1-.011-.636,7.147,7.147,0,0,1,4.329-6.258l.593-.266,8.117-3.628,2.462-1.1,1.188-.531.057-.026,4.974-2.229,2.694-1.209a11.177,11.177,0,0,1,9.069,0l2.2.985,5.024,2.251.507.227,1.188.531,10.582,4.736.59.262A7.122,7.122,0,0,1,518.292,1145.917Z" transform="translate(-427.051 -1047.561)" fill="#efcaa6"/>
    <path id="Path_3541" data-name="Path 3541" d="M663.046,1247.564q-2.592.6-5.265.984-.313.044-.626.085a62.808,62.808,0,0,1-14.676.2q-.784-.081-1.56-.183a61.084,61.084,0,0,1-7.117-1.353c-.335-.084-.67-.171-1-.261l.559-34.032a27.776,27.776,0,0,0,4.224,3.345,23.23,23.23,0,0,0,9.268,3.7,15.9,15.9,0,0,0,4.194.043,16.742,16.742,0,0,0,9.55-4.808,26.4,26.4,0,0,0,2.124-2.283Z" transform="translate(-586.98 -1125.168)" fill="#fff"/>
    <path id="Path_3542" data-name="Path 3542" d="M315.734,1220.226a61.081,61.081,0,0,1-7.117-1.353c-.335-.084-.67-.171-1-.261a61.476,61.476,0,0,1-9.347-3.347q-.6-.275-1.2-.56c-.088-.039-.174-.08-.26-.124l-.057-.028a62.011,62.011,0,0,1-14.523-9.8l3.387-10.882a9.13,9.13,0,0,1,2.806-3.449,9.7,9.7,0,0,1,3.727-1.715l19.675-6.346.057.557.516,5Z" transform="translate(-261.794 -1096.747)" fill="#203547"/>
    <path id="Path_3543" data-name="Path 3543" d="M1000.889,1206.249a61.955,61.955,0,0,1-11.506,7.67q-.366.189-.736.374a61.455,61.455,0,0,1-12.457,4.616q-.558.14-1.119.271-2.592.6-5.265.984-.313.044-.626.085l3.443-33.353.427-4.142.036-.355,16.853,5.23a9.6,9.6,0,0,1,1.219.362c.067.024.132.053.2.078l.027.007h0c.054.02.11.041.164.064l.012.006a9.211,9.211,0,0,1,4.657,4.3Z" transform="translate(-899.003 -1096.784)" fill="#203547"/>
    <path id="Path_3544" data-name="Path 3544" d="M984.8,876.609h-.29l.01-.832c5.186.085,8.952-2.182,11.2-6.743a19.573,19.573,0,0,0,1.847-6.983l.724.037a20.131,20.131,0,0,1-1.927,7.33,13.033,13.033,0,0,1-4.132,5.015A12.624,12.624,0,0,1,984.8,876.609Z" transform="translate(-913.223 -799.63)" fill="#2b41e2"/>
    <path id="Path_3545" data-name="Path 3545" d="M919.521,1034.522h-4.5a1.817,1.817,0,0,1-1.676-1.931h0a1.817,1.817,0,0,1,1.676-1.931h4.5a1.817,1.817,0,0,1,1.676,1.931h0A1.816,1.816,0,0,1,919.521,1034.522Z" transform="translate(-847.215 -956.031)" fill="#2b41e2"/>
    <path id="Path_3546" data-name="Path 3546" d="M569.92,357.648a56.67,56.67,0,0,0-1.627-14.1c-1.263-4.587-3.578-8.953-7.1-11.854a22.3,22.3,0,0,0-11.813-4.513c-7.26-.825-15.186.825-20.3,6.444-5.591,6.143-6.656,15.5-6.734,24.107.028-2.9-.6-5.73-.39-8.689a36.834,36.834,0,0,1,1.883-9.346,20.89,20.89,0,0,1,9.775-11.842,26.426,26.426,0,0,1,12.609-2.9c6.038.012,12.3,1.743,16.784,6.1a24.578,24.578,0,0,1,6.494,12.359,42.912,42.912,0,0,1,.427,14.337Z" transform="translate(-484.115 -301.42)" fill="#2b41e2"/>
    <path id="Path_3547" data-name="Path 3547" d="M507.6,740.406l-.858.067a1.652,1.652,0,0,1-1.912-1.376l-.37-6.6a1.749,1.749,0,0,1,1.738-1.67l.857-.069a1.653,1.653,0,0,1,1.912,1.376l.369,6.6A1.74,1.74,0,0,1,507.6,740.406Z" transform="translate(-467.935 -677.84)" fill="#2b41e2"/>
    <path id="Path_3548" data-name="Path 3548" d="M543.9,697.53l-.6-10.265a2.468,2.468,0,0,0-2.451-2.531l-.962.08a.517.517,0,0,0-.066.007c-.022,0-.044,0-.066,0l-.615.051a2.463,2.463,0,0,0-2.013,2.745l.618,10.572a2.331,2.331,0,0,0,2.317,2.389l.615-.051a.516.516,0,0,0,.066-.007c.022,0,.043,0,.066,0l.962-.079A2.615,2.615,0,0,0,543.9,697.53Z" transform="translate(-498.228 -635.148)" fill="#2b41e2"/>
    <path id="Path_3549" data-name="Path 3549" d="M518.545,754.572h0a.579.579,0,0,1-.605-.552l-.279-4.214a.586.586,0,0,1,.526-.634h0a.579.579,0,0,1,.605.552l.279,4.214A.585.585,0,0,1,518.545,754.572Z" transform="translate(-480.176 -694.925)" fill="#fff" opacity="0.2"/>
    <path id="Path_3550" data-name="Path 3550" d="M1145.536,737.971l.776.063a1.554,1.554,0,0,0,1.742-1.39l.375-6.6a1.642,1.642,0,0,0-1.569-1.657l-.776-.062a1.554,1.554,0,0,0-1.743,1.389l-.373,6.6A1.64,1.64,0,0,0,1145.536,737.971Z" transform="translate(-1061.133 -675.584)" fill="#2b41e2"/>
    <path id="Path_3551" data-name="Path 3551" d="M1086.949,682.412l-.614-.051h-.067l-.066-.008-.962-.079a2.468,2.468,0,0,0-2.451,2.531l-.6,10.26a2.615,2.615,0,0,0,2.133,2.909l.961.079.067,0,.066.007.614.051a2.334,2.334,0,0,0,2.317-2.39l.618-10.572A2.47,2.47,0,0,0,1086.949,682.412Z" transform="translate(-1003.824 -632.866)" fill="#2b41e2"/>
    <path id="Path_3552" data-name="Path 3552" d="M1175.308,749.6h0a.579.579,0,0,0,.6-.552l.28-4.214a.586.586,0,0,0-.526-.634h0a.579.579,0,0,0-.605.552l-.28,4.214A.586.586,0,0,0,1175.308,749.6Z" transform="translate(-1089.714 -690.315)" fill="#fff" opacity="0.2"/>
  </g>
</svg>
