<svg xmlns="http://www.w3.org/2000/svg" width="328" height="137" viewBox="0 0 328 137">
  <g id="Group_25" data-name="Group 25" transform="translate(1561.401 180.162) rotate(90)">
    <ellipse id="Ellipse_13" data-name="Ellipse 13" cx="4" cy="3.5" rx="4" ry="3.5" transform="translate(-180.162 1233.401)" fill="#0b332b"/>
    <ellipse id="Ellipse_82" data-name="Ellipse 82" cx="4" cy="3.5" rx="4" ry="3.5" transform="translate(-102.162 1233.401)" fill="#0b332b"/>
    <ellipse id="Ellipse_36" data-name="Ellipse 36" cx="4" cy="3.5" rx="4" ry="3.5" transform="translate(-154.162 1233.401)" fill="#0b332b"/>
    <ellipse id="Ellipse_83" data-name="Ellipse 83" cx="4" cy="3.5" rx="4" ry="3.5" transform="translate(-77.162 1233.401)" fill="#0b332b"/>
    <circle id="Ellipse_48" data-name="Ellipse 48" cx="3.5" cy="3.5" r="3.5" transform="translate(-128.162 1233.401)" fill="#0b332b"/>
    <circle id="Ellipse_84" data-name="Ellipse 84" cx="3.5" cy="3.5" r="3.5" transform="translate(-50.162 1233.401)" fill="#0b332b"/>
    <circle id="Ellipse_24" data-name="Ellipse 24" cx="4" cy="4" r="4" transform="translate(-180.162 1407.401)" fill="#0b332b"/>
    <circle id="Ellipse_64" data-name="Ellipse 64" cx="4" cy="4" r="4" transform="translate(-102.162 1407.401)" fill="#0b332b"/>
    <circle id="Ellipse_30" data-name="Ellipse 30" cx="4" cy="4" r="4" transform="translate(-154.162 1407.401)" fill="#0b332b"/>
    <circle id="Ellipse_65" data-name="Ellipse 65" cx="4" cy="4" r="4" transform="translate(-77.162 1407.401)" fill="#0b332b"/>
    <ellipse id="Ellipse_42" data-name="Ellipse 42" cx="3.5" cy="4" rx="3.5" ry="4" transform="translate(-128.162 1407.401)" fill="#0b332b"/>
    <ellipse id="Ellipse_66" data-name="Ellipse 66" cx="3.5" cy="4" rx="3.5" ry="4" transform="translate(-50.162 1407.401)" fill="#0b332b"/>
    <circle id="Ellipse_18" data-name="Ellipse 18" cx="4" cy="4" r="4" transform="translate(-180.162 1320.401)" fill="#0b332b"/>
    <circle id="Ellipse_73" data-name="Ellipse 73" cx="4" cy="4" r="4" transform="translate(-102.162 1320.401)" fill="#0b332b"/>
    <circle id="Ellipse_33" data-name="Ellipse 33" cx="4" cy="4" r="4" transform="translate(-154.162 1320.401)" fill="#0b332b"/>
    <circle id="Ellipse_74" data-name="Ellipse 74" cx="4" cy="4" r="4" transform="translate(-77.162 1320.401)" fill="#0b332b"/>
    <ellipse id="Ellipse_45" data-name="Ellipse 45" cx="3.5" cy="4" rx="3.5" ry="4" transform="translate(-128.162 1320.401)" fill="#0b332b"/>
    <ellipse id="Ellipse_75" data-name="Ellipse 75" cx="3.5" cy="4" rx="3.5" ry="4" transform="translate(-50.162 1320.401)" fill="#0b332b"/>
    <circle id="Ellipse_21" data-name="Ellipse 21" cx="4" cy="4" r="4" transform="translate(-180.162 1495.401)" fill="#0b332b"/>
    <circle id="Ellipse_55" data-name="Ellipse 55" cx="4" cy="4" r="4" transform="translate(-102.162 1495.401)" fill="#0b332b"/>
    <circle id="Ellipse_25" data-name="Ellipse 25" cx="4" cy="4" r="4" transform="translate(-154.162 1495.401)" fill="#0b332b"/>
    <circle id="Ellipse_56" data-name="Ellipse 56" cx="4" cy="4" r="4" transform="translate(-77.162 1495.401)" fill="#0b332b"/>
    <ellipse id="Ellipse_37" data-name="Ellipse 37" cx="3.5" cy="4" rx="3.5" ry="4" transform="translate(-128.162 1495.401)" fill="#0b332b"/>
    <ellipse id="Ellipse_57" data-name="Ellipse 57" cx="3.5" cy="4" rx="3.5" ry="4" transform="translate(-50.162 1495.401)" fill="#0b332b"/>
    <circle id="Ellipse_14" data-name="Ellipse 14" cx="4" cy="4" r="4" transform="translate(-180.162 1262.401)" fill="#0b332b"/>
    <circle id="Ellipse_79" data-name="Ellipse 79" cx="4" cy="4" r="4" transform="translate(-102.162 1262.401)" fill="#0b332b"/>
    <circle id="Ellipse_35" data-name="Ellipse 35" cx="4" cy="4" r="4" transform="translate(-154.162 1262.401)" fill="#0b332b"/>
    <circle id="Ellipse_80" data-name="Ellipse 80" cx="4" cy="4" r="4" transform="translate(-77.162 1262.401)" fill="#0b332b"/>
    <ellipse id="Ellipse_47" data-name="Ellipse 47" cx="3.5" cy="4" rx="3.5" ry="4" transform="translate(-128.162 1262.401)" fill="#0b332b"/>
    <ellipse id="Ellipse_81" data-name="Ellipse 81" cx="3.5" cy="4" rx="3.5" ry="4" transform="translate(-50.162 1262.401)" fill="#0b332b"/>
    <circle id="Ellipse_22" data-name="Ellipse 22" cx="4" cy="4" r="4" transform="translate(-180.162 1437.401)" fill="#0b332b"/>
    <circle id="Ellipse_61" data-name="Ellipse 61" cx="4" cy="4" r="4" transform="translate(-102.162 1437.401)" fill="#0b332b"/>
    <circle id="Ellipse_29" data-name="Ellipse 29" cx="4" cy="4" r="4" transform="translate(-154.162 1437.401)" fill="#0b332b"/>
    <circle id="Ellipse_62" data-name="Ellipse 62" cx="4" cy="4" r="4" transform="translate(-77.162 1437.401)" fill="#0b332b"/>
    <ellipse id="Ellipse_41" data-name="Ellipse 41" cx="3.5" cy="4" rx="3.5" ry="4" transform="translate(-128.162 1437.401)" fill="#0b332b"/>
    <ellipse id="Ellipse_63" data-name="Ellipse 63" cx="3.5" cy="4" rx="3.5" ry="4" transform="translate(-50.162 1437.401)" fill="#0b332b"/>
    <circle id="Ellipse_17" data-name="Ellipse 17" cx="4" cy="4" r="4" transform="translate(-180.162 1349.401)" fill="#0b332b"/>
    <circle id="Ellipse_70" data-name="Ellipse 70" cx="4" cy="4" r="4" transform="translate(-102.162 1349.401)" fill="#0b332b"/>
    <circle id="Ellipse_32" data-name="Ellipse 32" cx="4" cy="4" r="4" transform="translate(-154.162 1349.401)" fill="#0b332b"/>
    <circle id="Ellipse_71" data-name="Ellipse 71" cx="4" cy="4" r="4" transform="translate(-77.162 1349.401)" fill="#0b332b"/>
    <ellipse id="Ellipse_44" data-name="Ellipse 44" cx="3.5" cy="4" rx="3.5" ry="4" transform="translate(-128.162 1349.401)" fill="#0b332b"/>
    <ellipse id="Ellipse_72" data-name="Ellipse 72" cx="3.5" cy="4" rx="3.5" ry="4" transform="translate(-50.162 1349.401)" fill="#0b332b"/>
    <ellipse id="Ellipse_20" data-name="Ellipse 20" cx="4" cy="3.5" rx="4" ry="3.5" transform="translate(-180.162 1524.401)" fill="#0b332b"/>
    <ellipse id="Ellipse_52" data-name="Ellipse 52" cx="4" cy="3.5" rx="4" ry="3.5" transform="translate(-102.162 1524.401)" fill="#0b332b"/>
    <ellipse id="Ellipse_26" data-name="Ellipse 26" cx="4" cy="3.5" rx="4" ry="3.5" transform="translate(-154.162 1524.401)" fill="#0b332b"/>
    <ellipse id="Ellipse_53" data-name="Ellipse 53" cx="4" cy="3.5" rx="4" ry="3.5" transform="translate(-77.162 1524.401)" fill="#0b332b"/>
    <circle id="Ellipse_38" data-name="Ellipse 38" cx="3.5" cy="3.5" r="3.5" transform="translate(-128.162 1524.401)" fill="#0b332b"/>
    <circle id="Ellipse_54" data-name="Ellipse 54" cx="3.5" cy="3.5" r="3.5" transform="translate(-50.162 1524.401)" fill="#0b332b"/>
    <ellipse id="Ellipse_15" data-name="Ellipse 15" cx="4" cy="3.5" rx="4" ry="3.5" transform="translate(-180.162 1291.401)" fill="#0b332b"/>
    <ellipse id="Ellipse_76" data-name="Ellipse 76" cx="4" cy="3.5" rx="4" ry="3.5" transform="translate(-102.162 1291.401)" fill="#0b332b"/>
    <ellipse id="Ellipse_34" data-name="Ellipse 34" cx="4" cy="3.5" rx="4" ry="3.5" transform="translate(-154.162 1291.401)" fill="#0b332b"/>
    <ellipse id="Ellipse_77" data-name="Ellipse 77" cx="4" cy="3.5" rx="4" ry="3.5" transform="translate(-77.162 1291.401)" fill="#0b332b"/>
    <circle id="Ellipse_46" data-name="Ellipse 46" cx="3.5" cy="3.5" r="3.5" transform="translate(-128.162 1291.401)" fill="#0b332b"/>
    <circle id="Ellipse_78" data-name="Ellipse 78" cx="3.5" cy="3.5" r="3.5" transform="translate(-50.162 1291.401)" fill="#0b332b"/>
    <circle id="Ellipse_23" data-name="Ellipse 23" cx="4" cy="4" r="4" transform="translate(-180.162 1465.401)" fill="#0b332b"/>
    <circle id="Ellipse_58" data-name="Ellipse 58" cx="4" cy="4" r="4" transform="translate(-102.162 1465.401)" fill="#0b332b"/>
    <circle id="Ellipse_28" data-name="Ellipse 28" cx="4" cy="4" r="4" transform="translate(-154.162 1465.401)" fill="#0b332b"/>
    <circle id="Ellipse_59" data-name="Ellipse 59" cx="4" cy="4" r="4" transform="translate(-77.162 1465.401)" fill="#0b332b"/>
    <ellipse id="Ellipse_40" data-name="Ellipse 40" cx="3.5" cy="4" rx="3.5" ry="4" transform="translate(-128.162 1465.401)" fill="#0b332b"/>
    <ellipse id="Ellipse_60" data-name="Ellipse 60" cx="3.5" cy="4" rx="3.5" ry="4" transform="translate(-50.162 1465.401)" fill="#0b332b"/>
    <ellipse id="Ellipse_16" data-name="Ellipse 16" cx="4" cy="3.5" rx="4" ry="3.5" transform="translate(-180.162 1379.401)" fill="#0b332b"/>
    <ellipse id="Ellipse_67" data-name="Ellipse 67" cx="4" cy="3.5" rx="4" ry="3.5" transform="translate(-102.162 1379.401)" fill="#0b332b"/>
    <ellipse id="Ellipse_31" data-name="Ellipse 31" cx="4" cy="3.5" rx="4" ry="3.5" transform="translate(-154.162 1379.401)" fill="#0b332b"/>
    <ellipse id="Ellipse_68" data-name="Ellipse 68" cx="4" cy="3.5" rx="4" ry="3.5" transform="translate(-77.162 1379.401)" fill="#0b332b"/>
    <circle id="Ellipse_43" data-name="Ellipse 43" cx="3.5" cy="3.5" r="3.5" transform="translate(-128.162 1379.401)" fill="#0b332b"/>
    <circle id="Ellipse_69" data-name="Ellipse 69" cx="3.5" cy="3.5" r="3.5" transform="translate(-50.162 1379.401)" fill="#0b332b"/>
    <circle id="Ellipse_19" data-name="Ellipse 19" cx="4" cy="4" r="4" transform="translate(-180.162 1553.401)" fill="#0b332b"/>
    <circle id="Ellipse_51" data-name="Ellipse 51" cx="4" cy="4" r="4" transform="translate(-102.162 1553.401)" fill="#0b332b"/>
    <circle id="Ellipse_27" data-name="Ellipse 27" cx="4" cy="4" r="4" transform="translate(-154.162 1553.401)" fill="#0b332b"/>
    <circle id="Ellipse_49" data-name="Ellipse 49" cx="4" cy="4" r="4" transform="translate(-77.162 1553.401)" fill="#0b332b"/>
    <ellipse id="Ellipse_39" data-name="Ellipse 39" cx="3.5" cy="4" rx="3.5" ry="4" transform="translate(-128.162 1553.401)" fill="#0b332b"/>
    <ellipse id="Ellipse_50" data-name="Ellipse 50" cx="3.5" cy="4" rx="3.5" ry="4" transform="translate(-50.162 1553.401)" fill="#0b332b"/>
  </g>
</svg>
