<svg id="noun_contract_3493167" xmlns="http://www.w3.org/2000/svg" width="104.907" height="111.647" viewBox="0 0 104.907 111.647">
  <g id="Group_214" data-name="Group 214" transform="translate(0 0)">
    <g id="Group_217" data-name="Group 217" transform="translate(0 0)">
      <path id="Path_1040" data-name="Path 1040" d="M78.571,110.065H11.582V42.01l17.7-8.851a8.326,8.326,0,0,0,4.628-7.489V9.582H78.571V51.45h5.582V9.582A5.588,5.588,0,0,0,78.571,4H29.627L6,39.44v70.625a5.588,5.588,0,0,0,5.582,5.582H78.571a5.588,5.588,0,0,0,5.582-5.582V87.736H78.571Zm-51.785-81.9-9.842,4.921L28.33,16.01v9.66A2.777,2.777,0,0,1,26.786,28.166ZM70.2,51.45H19.956V45.868H70.2Zm0,11.165H19.956V57.033H70.2ZM56.241,73.78H19.956V68.2H56.241ZM70.2,34.7H56.241V29.121H70.2Zm39.077,10.009-4.427-4.427a5.591,5.591,0,0,0-7.893,0L56.512,80.724,52.4,97.153l16.429-4.106,40.442-40.442A5.586,5.586,0,0,0,109.274,44.712ZM65.98,88.006l-5.9,1.477,1.474-5.9L92.527,52.606l4.427,4.427ZM100.9,53.086l-4.427-4.427,4.427-4.427,4.427,4.427ZM28.33,98.9V96.109c0-1.929-.86-3.179-2.191-3.179a2.685,2.685,0,0,0-2.04,1.105A7.49,7.49,0,0,0,22.747,98.9H17.165a13.1,13.1,0,0,1,2.6-8.385,8.256,8.256,0,0,1,6.372-3.168,7.645,7.645,0,0,1,7.324,5.6c3.316-2.026,9.462-2.942,16.379,3.977l-3.947,3.947c-6.076-6.074-9.658-3.112-10.048-2.752l-.8.74Z" transform="translate(-6 -4)" fill="#79254a"/>
    </g>
  </g>
</svg>
