<svg xmlns="http://www.w3.org/2000/svg" width="337.42" height="302.832" viewBox="0 0 337.42 302.832">
  <g id="Group_1191" data-name="Group 1191" transform="translate(22441 3661.206)">
    <path id="Path_3022" data-name="Path 3022" d="M381.786,99.723l-10.979,2.831L235.542,137.437l-10.979,2.831a20.788,20.788,0,0,0-14.921,25.291l47.608,184.613a20.787,20.787,0,0,0,25.291,14.921l.028-.007,157.166-40.53.028-.007a20.787,20.787,0,0,0,14.921-25.291L407.077,114.645a20.788,20.788,0,0,0-25.291-14.922Z" transform="translate(-22649.984 -3760.271)" fill="#f2f2f2"/>
    <path id="Path_3023" data-name="Path 3023" d="M391.156,113.388l-13,3.353L246.936,150.58l-13,3.353a14.8,14.8,0,0,0-10.626,18.011l47.608,184.613a14.8,14.8,0,0,0,18.011,10.626l.028-.007,157.166-40.53.029-.007a14.8,14.8,0,0,0,10.626-18.01L409.166,124.014a14.8,14.8,0,0,0-18.01-10.626Z" transform="translate(-22657.859 -3768.148)" fill="#fff"/>
    <path id="Path_3024" data-name="Path 3024" d="M479.728,243.594l-79.507,20.5a3.458,3.458,0,0,1-1.727-6.7L478,236.9a3.458,3.458,0,1,1,1.727,6.7Z" transform="translate(-22756.252 -3838.571)" fill="#f2f2f2"/>
    <path id="Path_3025" data-name="Path 3025" d="M500.294,261.529l-93.318,24.065a3.458,3.458,0,0,1-1.727-6.7l93.318-24.065a3.458,3.458,0,0,1,1.727,6.7Z" transform="translate(-22760.092 -3848.768)" fill="#f2f2f2"/>
    <path id="Path_3026" data-name="Path 3026" d="M510,360.968l-79.507,20.5a3.458,3.458,0,0,1-1.727-6.7l79.507-20.5a3.458,3.458,0,0,1,1.727,6.7Z" transform="translate(-22773.461 -3905.302)" fill="#f2f2f2"/>
    <path id="Path_3027" data-name="Path 3027" d="M530.562,378.9l-93.318,24.065a3.458,3.458,0,0,1-1.727-6.7l93.318-24.065a3.458,3.458,0,0,1,1.727,6.7Z" transform="translate(-22777.303 -3915.5)" fill="#f2f2f2"/>
    <path id="Path_3028" data-name="Path 3028" d="M540.266,478.341l-79.507,20.5a3.458,3.458,0,1,1-1.727-6.7l79.507-20.5a3.458,3.458,0,0,1,1.727,6.7Z" transform="translate(-22790.67 -3972.033)" fill="#f2f2f2"/>
    <path id="Path_3029" data-name="Path 3029" d="M560.831,496.277l-93.318,24.065a3.458,3.458,0,0,1-1.727-6.7L559.1,489.58a3.458,3.458,0,1,1,1.727,6.7Z" transform="translate(-22794.51 -3982.231)" fill="#f2f2f2"/>
    <path id="Path_3030" data-name="Path 3030" d="M326.142,311.506l-28.137,7.256a1.66,1.66,0,0,1-2.02-1.191l-6.459-25.046a1.66,1.66,0,0,1,1.191-2.02l28.137-7.256a1.66,1.66,0,0,1,2.02,1.191l6.459,25.046a1.66,1.66,0,0,1-1.191,2.02Z" transform="translate(-22695.746 -3864.957)" fill="#e6e6e6"/>
    <path id="Path_3031" data-name="Path 3031" d="M356.41,428.879l-28.137,7.256a1.66,1.66,0,0,1-2.02-1.191L319.8,409.9a1.66,1.66,0,0,1,1.192-2.019l28.137-7.256a1.66,1.66,0,0,1,2.02,1.191L357.6,426.86A1.66,1.66,0,0,1,356.41,428.879Z" transform="translate(-22712.955 -3931.688)" fill="#e6e6e6"/>
    <path id="Path_3032" data-name="Path 3032" d="M386.678,546.253l-28.137,7.256a1.66,1.66,0,0,1-2.02-1.191l-6.459-25.046a1.66,1.66,0,0,1,1.191-2.019L379.391,518a1.66,1.66,0,0,1,2.02,1.191l6.459,25.046A1.66,1.66,0,0,1,386.678,546.253Z" transform="translate(-22730.162 -3998.42)" fill="#e6e6e6"/>
    <path id="Path_3033" data-name="Path 3033" d="M622.324,209.052H459.957a20.788,20.788,0,0,0-20.764,20.764V420.469a20.788,20.788,0,0,0,20.764,20.764H622.324a20.788,20.788,0,0,0,20.764-20.764V229.816A20.787,20.787,0,0,0,622.324,209.052Z" transform="translate(-22780.867 -3822.803)" fill="#e6e6e6"/>
    <path id="Path_3034" data-name="Path 3034" d="M630.2,222.906H467.834a14.8,14.8,0,0,0-14.787,14.787V428.345a14.8,14.8,0,0,0,14.787,14.786H630.2a14.8,14.8,0,0,0,14.786-14.786V237.693A14.8,14.8,0,0,0,630.2,222.906Z" transform="translate(-22788.742 -3830.679)" fill="#fff"/>
    <g id="Group_1187" data-name="Group 1187" transform="translate(-22179.389 -3434.182)">
      <circle id="Ellipse_265" data-name="Ellipse 265" cx="37.904" cy="37.904" r="37.904" transform="translate(0 0)" fill="#125d50"/>
      <path id="Path_3035" data-name="Path 3035" d="M890.9,677.743H877.714V664.559a4.944,4.944,0,0,0-9.888,0v13.184H854.641a4.944,4.944,0,1,0,0,9.888h13.184v13.184a4.944,4.944,0,1,0,9.888,0V687.631H890.9a4.944,4.944,0,1,0,0-9.888Z" transform="translate(-834.866 -644.783)" fill="#fff"/>
    </g>
    <path id="Path_3036" data-name="Path 3036" d="M694.251,456.6H612.143a3.458,3.458,0,0,1,0-6.916h82.108a3.458,3.458,0,0,1,0,6.916Z" transform="translate(-22877.229 -3959.614)" fill="#e6e6e6"/>
    <path id="Path_3037" data-name="Path 3037" d="M708.514,483.65H612.143a3.458,3.458,0,0,1,0-6.916h96.371a3.458,3.458,0,0,1,0,6.916Z" transform="translate(-22877.229 -3974.99)" fill="#e6e6e6"/>
    <path id="Path_3038" data-name="Path 3038" d="M694.251,577.816H612.143a3.458,3.458,0,0,1,0-6.916h82.108a3.458,3.458,0,0,1,0,6.916Z" transform="translate(-22877.229 -4028.528)" fill="#e6e6e6"/>
    <path id="Path_3039" data-name="Path 3039" d="M708.514,604.864H612.143a3.458,3.458,0,0,1,0-6.916h96.371a3.458,3.458,0,0,1,0,6.916Z" transform="translate(-22877.229 -4043.906)" fill="#e6e6e6"/>
    <path id="Path_3040" data-name="Path 3040" d="M533.6,466.59H504.539a1.66,1.66,0,0,1-1.658-1.658V439.067a1.66,1.66,0,0,1,1.658-1.658H533.6a1.66,1.66,0,0,1,1.658,1.658v25.865A1.66,1.66,0,0,1,533.6,466.59Z" transform="translate(-22817.076 -3952.632)" fill="#e6e6e6"/>
    <path id="Path_3041" data-name="Path 3041" d="M533.6,587.8H504.539a1.66,1.66,0,0,1-1.658-1.658V560.28a1.66,1.66,0,0,1,1.658-1.658H533.6a1.66,1.66,0,0,1,1.658,1.658v25.865A1.66,1.66,0,0,1,533.6,587.8Z" transform="translate(-22817.076 -4021.547)" fill="#e6e6e6"/>
    <path id="Path_3042" data-name="Path 3042" d="M722.889,321.668H662.354a3.458,3.458,0,0,1,0-6.916h60.535a3.458,3.458,0,1,1,0,6.916Z" transform="translate(-22905.775 -3882.898)" fill="#e9e7c8"/>
    <path id="Path_3043" data-name="Path 3043" d="M737.152,348.716h-74.8a3.458,3.458,0,0,1,0-6.916h74.8a3.458,3.458,0,1,1,0,6.916Z" transform="translate(-22905.775 -3898.275)" fill="#e9e7c8"/>
    <path id="Path_3044" data-name="Path 3044" d="M560.136,328.845H504.328a1.66,1.66,0,0,1-1.658-1.658V283.632a1.66,1.66,0,0,1,1.658-1.658h55.808a1.66,1.66,0,0,1,1.658,1.658v43.555A1.66,1.66,0,0,1,560.136,328.845Z" transform="translate(-22816.955 -3864.262)" fill="#e9e7c8"/>
  </g>
</svg>
