<svg xmlns="http://www.w3.org/2000/svg" width="48.419" height="62" viewBox="0 0 48.419 62">
  <g id="Group_4" data-name="Group 4" transform="translate(-637 -1678)">
    <path id="Path_5" data-name="Path 5" d="M54.619,10.854H46.8V10.8a1.882,1.882,0,0,0-1.881-1.881H40V8.851A2.854,2.854,0,0,0,37.146,6H33.264a2.854,2.854,0,0,0-2.851,2.851v.061H25.5A1.882,1.882,0,0,0,23.619,10.8v.061H15.8a4.8,4.8,0,0,0-4.8,4.8V63.2A4.8,4.8,0,0,0,15.8,68H54.622a4.8,4.8,0,0,0,4.8-4.8V15.646a4.8,4.8,0,0,0-4.8-4.793Zm-8.736,5.7h7.765a.061.061,0,0,1,.061.061V62.239a.061.061,0,0,1-.061.061H16.764a.061.061,0,0,1-.061-.061V16.616a.061.061,0,0,1,.061-.061h7.8A4.788,4.788,0,0,0,28.411,18.5H42a4.788,4.788,0,0,0,3.851-1.943Zm-13.649-7.7a1.033,1.033,0,0,1,1.032-1.032h3.883a1.033,1.033,0,0,1,1.032,1.032v.061H32.233Zm-6.8,1.945a.061.061,0,0,1,.061-.061H44.912a.061.061,0,0,1,.061.061V13.7A2.976,2.976,0,0,1,42,16.677H28.411A2.976,2.976,0,0,1,25.439,13.7ZM57.591,63.2a2.976,2.976,0,0,1-2.972,2.972H15.8A2.976,2.976,0,0,1,12.82,63.2V15.646A2.976,2.976,0,0,1,15.8,12.668h7.826V13.7a4.791,4.791,0,0,0,.117,1.032H16.764a1.882,1.882,0,0,0-1.881,1.881V62.235a1.882,1.882,0,0,0,1.881,1.881H53.648a1.882,1.882,0,0,0,1.881-1.881V16.613a1.882,1.882,0,0,0-1.881-1.881H46.679A4.784,4.784,0,0,0,46.8,13.7V12.668h7.826a2.976,2.976,0,0,1,2.972,2.972Z" transform="translate(626 1672)" fill="#79254a"/>
    <path id="Path_6" data-name="Path 6" d="M20.179,28.3H26.61a.883.883,0,0,0,.882-.882V20.987a.883.883,0,0,0-.882-.882H20.179a.883.883,0,0,0-.882.882v6.431a.883.883,0,0,0,.882.882Zm.674-6.638h5.082v5.082H20.853Z" transform="translate(627.757 1674.833)" fill="#79254a"/>
    <path id="Path_7" data-name="Path 7" d="M26.609,41.679H20.178a.883.883,0,0,0-.882.882v6.431a.883.883,0,0,0,.882.882h6.431a.883.883,0,0,0,.882-.882V42.561a.883.883,0,0,0-.882-.882Zm-.674,6.638H20.853V43.235h5.082Z" transform="translate(627.757 1679.167)" fill="#79254a"/>
    <path id="Path_8" data-name="Path 8" d="M27.822,31.12l-.559.559a1.607,1.607,0,0,0-1.38-.787H20.905A1.609,1.609,0,0,0,19.3,32.5v4.978a1.609,1.609,0,0,0,1.608,1.608h4.978a1.609,1.609,0,0,0,1.608-1.608v-.83a.778.778,0,0,0-1.556,0v.83a.052.052,0,0,1-.052.052H20.905a.052.052,0,0,1-.052-.052V32.5a.052.052,0,0,1,.052-.052h4.978a.052.052,0,0,1,.052.052v.508l-1.711,1.711L23.115,33.61a.778.778,0,1,0-1.1,1.1l1.66,1.659a.778.778,0,0,0,1.1,0l2.489-2.489,1.659-1.659a.778.778,0,0,0-1.1-1.1Z" transform="translate(627.848 1677)" fill="#79254a"/>
    <path id="Path_9" data-name="Path 9" d="M30.032,22.491h2.489a.778.778,0,0,0,0-1.556H30.032a.778.778,0,0,0,0,1.556Z" transform="translate(629.435 1674.613)" fill="#79254a"/>
    <path id="Path_10" data-name="Path 10" d="M29.254,25.032a.778.778,0,0,0,.778.778H42.478a.778.778,0,0,0,0-1.556H30.032a.778.778,0,0,0-.778.778Z" transform="translate(630.684 1675.193)" fill="#79254a"/>
    <path id="Path_11" data-name="Path 11" d="M30.032,34.108h8.3a.778.778,0,0,0,0-1.556h-8.3a.778.778,0,0,0,0,1.556Z" transform="translate(630.069 1676.645)" fill="#79254a"/>
    <path id="Path_12" data-name="Path 12" d="M42.478,35.871H30.032a.778.778,0,0,0,0,1.556H42.478a.778.778,0,0,0,0-1.556Z" transform="translate(630.684 1677.226)" fill="#79254a"/>
    <path id="Path_13" data-name="Path 13" d="M30.032,44.9h3.322a.778.778,0,0,0,0-1.556H30.035a.778.778,0,0,0,0,1.556Z" transform="translate(629.514 1678.532)" fill="#79254a"/>
    <path id="Path_14" data-name="Path 14" d="M42.478,46.658H30.032a.778.778,0,0,0,0,1.556H42.478a.778.778,0,1,0,0-1.556Z" transform="translate(630.684 1679.113)" fill="#79254a"/>
  </g>
</svg>
