<svg xmlns="http://www.w3.org/2000/svg" width="470.21" height="550.832" viewBox="0 0 470.21 550.832">
  <g id="Group_11" data-name="Group 11" transform="translate(1388.047 1080.337) rotate(180)">
    <path id="Path_35" data-name="Path 35" d="M1005.837,640.081a2.965,2.965,0,1,1-2.968,2.965A2.964,2.964,0,0,1,1005.837,640.081Z" transform="translate(147.107 379.835)" fill="#e1aa20"/>
    <path id="Path_36" data-name="Path 36" d="M1005.837,660.04a2.966,2.966,0,1,1-2.968,2.968A2.966,2.966,0,0,1,1005.837,660.04Z" transform="translate(147.107 414.365)" fill="#e1aa20"/>
    <path id="Path_37" data-name="Path 37" d="M988.828,640.081a2.965,2.965,0,1,1-2.965,2.965A2.964,2.964,0,0,1,988.828,640.081Z" transform="translate(117.686 379.835)" fill="#e1aa20"/>
    <path id="Path_38" data-name="Path 38" d="M988.828,660.04a2.966,2.966,0,1,1-2.965,2.968A2.966,2.966,0,0,1,988.828,660.04Z" transform="translate(117.686 414.365)" fill="#e1aa20"/>
    <path id="Path_39" data-name="Path 39" d="M971.824,640.081a2.965,2.965,0,1,1-2.968,2.965A2.964,2.964,0,0,1,971.824,640.081Z" transform="translate(88.264 379.835)" fill="#e1aa20"/>
    <path id="Path_40" data-name="Path 40" d="M971.824,660.04a2.966,2.966,0,1,1-2.968,2.968A2.966,2.966,0,0,1,971.824,660.04Z" transform="translate(88.264 414.365)" fill="#e1aa20"/>
    <path id="Path_41" data-name="Path 41" d="M954.815,640.081a2.965,2.965,0,1,1-2.965,2.965A2.964,2.964,0,0,1,954.815,640.081Z" transform="translate(58.843 379.835)" fill="#e1aa20"/>
    <path id="Path_42" data-name="Path 42" d="M954.815,660.04a2.966,2.966,0,1,1-2.965,2.968A2.966,2.966,0,0,1,954.815,660.04Z" transform="translate(58.843 414.365)" fill="#e1aa20"/>
    <path id="Path_43" data-name="Path 43" d="M937.809,640.081a2.965,2.965,0,1,1-2.965,2.965A2.964,2.964,0,0,1,937.809,640.081Z" transform="translate(29.422 379.835)" fill="#e1aa20"/>
    <path id="Path_44" data-name="Path 44" d="M937.809,660.04a2.966,2.966,0,1,1-2.965,2.968A2.966,2.966,0,0,1,937.809,660.04Z" transform="translate(29.422 414.365)" fill="#e1aa20"/>
    <path id="Path_47" data-name="Path 47" d="M1090.867,460.444a2.966,2.966,0,1,1-2.965,2.968A2.966,2.966,0,0,1,1090.867,460.444Z" transform="translate(294.215 69.06)" fill="#e1aa20"/>
    <path id="Path_48" data-name="Path 48" d="M1090.867,480.4a2.966,2.966,0,1,1-2.965,2.965A2.964,2.964,0,0,1,1090.867,480.4Z" transform="translate(294.215 103.592)" fill="#e1aa20"/>
    <path id="Path_49" data-name="Path 49" d="M1090.867,500.364a2.965,2.965,0,1,1-2.965,2.965A2.964,2.964,0,0,1,1090.867,500.364Z" transform="translate(294.215 138.123)" fill="#e1aa20"/>
    <path id="Path_50" data-name="Path 50" d="M1090.867,520.323a2.966,2.966,0,1,1-2.965,2.965A2.965,2.965,0,0,1,1090.867,520.323Z" transform="translate(294.215 172.652)" fill="#e1aa20"/>
    <path id="Path_51" data-name="Path 51" d="M1090.867,540.283a2.965,2.965,0,1,1-2.965,2.965A2.964,2.964,0,0,1,1090.867,540.283Z" transform="translate(294.215 207.183)" fill="#e1aa20"/>
    <path id="Path_52" data-name="Path 52" d="M1090.867,560.243a2.965,2.965,0,1,1-2.965,2.965A2.964,2.964,0,0,1,1090.867,560.243Z" transform="translate(294.215 241.714)" fill="#e1aa20"/>
    <path id="Path_53" data-name="Path 53" d="M1090.867,580.2a2.965,2.965,0,1,1-2.965,2.965A2.964,2.964,0,0,1,1090.867,580.2Z" transform="translate(294.215 276.244)" fill="#e1aa20"/>
    <path id="Path_54" data-name="Path 54" d="M1090.867,600.162a2.965,2.965,0,1,1-2.965,2.965A2.964,2.964,0,0,1,1090.867,600.162Z" transform="translate(294.215 310.775)" fill="#e1aa20"/>
    <path id="Path_55" data-name="Path 55" d="M1090.867,620.121a2.966,2.966,0,1,1-2.965,2.965A2.966,2.966,0,0,1,1090.867,620.121Z" transform="translate(294.215 345.304)" fill="#e1aa20"/>
    <path id="Path_56" data-name="Path 56" d="M1090.867,640.081a2.965,2.965,0,1,1-2.965,2.965A2.964,2.964,0,0,1,1090.867,640.081Z" transform="translate(294.215 379.835)" fill="#e1aa20"/>
    <path id="Path_57" data-name="Path 57" d="M1090.867,660.04a2.966,2.966,0,1,1-2.965,2.968A2.966,2.966,0,0,1,1090.867,660.04Z" transform="translate(294.215 414.365)" fill="#e1aa20"/>
    <path id="Path_59" data-name="Path 59" d="M1073.86,460.444a2.966,2.966,0,1,1-2.965,2.968A2.969,2.969,0,0,1,1073.86,460.444Z" transform="translate(264.793 69.06)" fill="#e1aa20"/>
    <path id="Path_60" data-name="Path 60" d="M1073.86,480.4a2.966,2.966,0,1,1-2.965,2.965A2.966,2.966,0,0,1,1073.86,480.4Z" transform="translate(264.793 103.592)" fill="#e1aa20"/>
    <circle id="Ellipse_2" data-name="Ellipse 2" cx="2.965" cy="2.965" r="2.965" transform="translate(1335.688 638.486)" fill="#e1aa20"/>
    <circle id="Ellipse_3" data-name="Ellipse 3" cx="2.965" cy="2.965" r="2.965" transform="translate(1335.688 692.976)" fill="#e1aa20"/>
    <circle id="Ellipse_4" data-name="Ellipse 4" cx="2.965" cy="2.965" r="2.965" transform="translate(1335.688 747.466)" fill="#e1aa20"/>
    <circle id="Ellipse_5" data-name="Ellipse 5" cx="2.965" cy="2.965" r="2.965" transform="translate(1335.688 801.956)" fill="#e1aa20"/>
    <circle id="Ellipse_6" data-name="Ellipse 6" cx="2.965" cy="2.965" r="2.965" transform="translate(1335.688 856.446)" fill="#e1aa20"/>
    <circle id="Ellipse_7" data-name="Ellipse 7" cx="2.965" cy="2.965" r="2.965" transform="translate(1335.688 910.936)" fill="#e1aa20"/>
    <circle id="Ellipse_8" data-name="Ellipse 8" cx="2.965" cy="2.965" r="2.965" transform="translate(1335.688 965.426)" fill="#e1aa20"/>
    <path id="Path_61" data-name="Path 61" d="M1073.86,640.081a2.965,2.965,0,1,1-2.965,2.965A2.966,2.966,0,0,1,1073.86,640.081Z" transform="translate(264.793 379.835)" fill="#e1aa20"/>
    <path id="Path_62" data-name="Path 62" d="M1073.86,660.04a2.966,2.966,0,1,1-2.965,2.968A2.969,2.969,0,0,1,1073.86,660.04Z" transform="translate(264.793 414.365)" fill="#e1aa20"/>
    <path id="Path_65" data-name="Path 65" d="M1056.854,460.444a2.966,2.966,0,1,1-2.965,2.968A2.966,2.966,0,0,1,1056.854,460.444Z" transform="translate(235.372 69.06)" fill="#e1aa20"/>
    <path id="Path_66" data-name="Path 66" d="M1056.854,480.4a2.966,2.966,0,1,1-2.965,2.965A2.964,2.964,0,0,1,1056.854,480.4Z" transform="translate(235.372 103.592)" fill="#e1aa20"/>
    <path id="Path_67" data-name="Path 67" d="M1056.854,500.364a2.965,2.965,0,1,1-2.965,2.965A2.964,2.964,0,0,1,1056.854,500.364Z" transform="translate(235.372 138.123)" fill="#e1aa20"/>
    <path id="Path_68" data-name="Path 68" d="M1056.854,520.323a2.966,2.966,0,1,1-2.965,2.965A2.966,2.966,0,0,1,1056.854,520.323Z" transform="translate(235.372 172.652)" fill="#e1aa20"/>
    <path id="Path_69" data-name="Path 69" d="M1056.854,540.283a2.965,2.965,0,1,1-2.965,2.965A2.964,2.964,0,0,1,1056.854,540.283Z" transform="translate(235.372 207.183)" fill="#e1aa20"/>
    <path id="Path_70" data-name="Path 70" d="M1056.854,560.243a2.965,2.965,0,1,1-2.965,2.965A2.964,2.964,0,0,1,1056.854,560.243Z" transform="translate(235.372 241.714)" fill="#e1aa20"/>
    <path id="Path_71" data-name="Path 71" d="M1056.854,580.2a2.965,2.965,0,1,1-2.965,2.965A2.964,2.964,0,0,1,1056.854,580.2Z" transform="translate(235.372 276.244)" fill="#e1aa20"/>
    <path id="Path_72" data-name="Path 72" d="M1056.854,600.162a2.965,2.965,0,1,1-2.965,2.965A2.964,2.964,0,0,1,1056.854,600.162Z" transform="translate(235.372 310.775)" fill="#e1aa20"/>
    <path id="Path_73" data-name="Path 73" d="M1056.854,620.121a2.966,2.966,0,1,1-2.965,2.965A2.966,2.966,0,0,1,1056.854,620.121Z" transform="translate(235.372 345.304)" fill="#e1aa20"/>
    <path id="Path_74" data-name="Path 74" d="M1056.854,640.081a2.965,2.965,0,1,1-2.965,2.965A2.964,2.964,0,0,1,1056.854,640.081Z" transform="translate(235.372 379.835)" fill="#e1aa20"/>
    <path id="Path_75" data-name="Path 75" d="M1056.854,660.04a2.966,2.966,0,1,1-2.965,2.968A2.966,2.966,0,0,1,1056.854,660.04Z" transform="translate(235.372 414.365)" fill="#e1aa20"/>
    <path id="Path_76" data-name="Path 76" d="M1039.85,640.081a2.965,2.965,0,1,1-2.968,2.965A2.966,2.966,0,0,1,1039.85,640.081Z" transform="translate(205.95 379.835)" fill="#e1aa20"/>
    <path id="Path_77" data-name="Path 77" d="M1039.85,660.04a2.966,2.966,0,1,1-2.968,2.968A2.968,2.968,0,0,1,1039.85,660.04Z" transform="translate(205.95 414.365)" fill="#e1aa20"/>
    <path id="Path_78" data-name="Path 78" d="M1022.841,640.081a2.965,2.965,0,1,1-2.965,2.965A2.964,2.964,0,0,1,1022.841,640.081Z" transform="translate(176.529 379.835)" fill="#e1aa20"/>
    <path id="Path_79" data-name="Path 79" d="M1022.841,660.04a2.966,2.966,0,1,1-2.965,2.968A2.966,2.966,0,0,1,1022.841,660.04Z" transform="translate(176.529 414.365)" fill="#e1aa20"/>
    <path id="Path_80" data-name="Path 80" d="M920.8,640.081a2.965,2.965,0,1,1-2.965,2.965A2.966,2.966,0,0,1,920.8,640.081Z" transform="translate(0 379.835)" fill="#e1aa20"/>
    <path id="Path_81" data-name="Path 81" d="M920.8,660.04a2.966,2.966,0,1,1-2.965,2.968A2.969,2.969,0,0,1,920.8,660.04Z" transform="translate(0 414.365)" fill="#e1aa20"/>
  </g>
</svg>
