<svg xmlns="http://www.w3.org/2000/svg" width="104.466" height="104.557" viewBox="0 0 104.466 104.557">
  <g id="noun_payment_1168142" transform="translate(0)">
    <g id="Group_215" data-name="Group 215" transform="translate(0 0)">
      <path id="Path_1041" data-name="Path 1041" d="M-842.659,990.35l-19.471-32.782c-2.31-3.96-6.6-5.06-9.9-3.08L-923.955,985.4a6.693,6.693,0,0,0-2.75,8.471c-4.51,2.86-11.881,31.022-11.881,31.022l-6.38,5.28a4.206,4.206,0,0,0-1.1,4.95l11.221,20.9a3.937,3.937,0,0,0,4.95,1.76,62.212,62.212,0,0,1,14.631-4.51c4.07-.55,9.131-4.51,9.9-5.61,2.64-3.19,29.372-36.082,29.372-36.082a7.393,7.393,0,0,0-1.54-10.671,7.681,7.681,0,0,0-10.121,1.54l-12.651,15.511a4.328,4.328,0,0,1-7.151-.55l-6.6-11.111,55.553-33.112L-847.28,992a2.289,2.289,0,0,1-.77,2.97l-21.231,12.651v.22a7.21,7.21,0,0,1-1.65,4.62l-12.981,15.951.33.55a5.008,5.008,0,0,0,6.82,1.87l.77-.44a5.918,5.918,0,0,0,2.75-6.71,4.278,4.278,0,0,0,1.65.22,5.329,5.329,0,0,0,2.86-.77,5.889,5.889,0,0,0,2.2-7.921h0a4.558,4.558,0,0,0,1.76.22,5.33,5.33,0,0,0,2.86-.77,5.727,5.727,0,0,0,2.42-7.37l13.971-8.251C-842.219,997.17-841.119,992.88-842.659,990.35Zm-76.675,7.04-2.97-4.95a2.182,2.182,0,0,1,.77-2.97l51.923-30.912a2.289,2.289,0,0,1,2.97.77l2.97,4.95Z" transform="translate(946.441 -953.525)" fill="#79254a"/>
      <path id="Path_1042" data-name="Path 1042" d="M-873.115,995.495l9.791-5.831a2.126,2.126,0,0,0,.77-2.86l-3.3-5.61a2.126,2.126,0,0,0-2.86-.77l-9.791,5.83a2.126,2.126,0,0,0-.77,2.86l3.3,5.61A2.127,2.127,0,0,0-873.115,995.495Z" transform="translate(953.135 -950.86)" fill="#f1d7be"/>
    </g>
  </g>
</svg>
