<svg id="undraw_hiring_re_yk5n" xmlns="http://www.w3.org/2000/svg" width="365.084" height="330.301" viewBox="0 0 365.084 330.301">
  <path id="Path_3045" data-name="Path 3045" d="M410.584,454.776H258.253a7.242,7.242,0,0,1-7.234-7.234v-206.8a7.242,7.242,0,0,1,7.234-7.234H410.584a7.242,7.242,0,0,1,7.234,7.234v206.8a7.242,7.242,0,0,1-7.234,7.234Z" transform="translate(-251.019 -181.601)" fill="#fff"/>
  <path id="Path_3046" data-name="Path 3046" d="M345.729,310.6A28.3,28.3,0,0,1,326.2,337.513c-.17.054-.339.108-.512.159-.736.226-1.481.419-2.24.584a27.82,27.82,0,0,1-4.169.579q-.914.062-1.839.062a28.244,28.244,0,0,1-9.355-1.584l-.26-.093A28.3,28.3,0,1,1,345.729,310.6Z" transform="translate(-269.197 -204.873)" fill="#fff"/>
  <ellipse id="Ellipse_266" data-name="Ellipse 266" cx="13.766" cy="13.766" rx="13.766" ry="13.766" transform="translate(33.796 96.946)" fill="#79254a"/>
  <path id="Path_3047" data-name="Path 3047" d="M340.245,352.118l.014-.514a4.255,4.255,0,0,1-2.435-.55,1.581,1.581,0,0,1-.613-1.165.9.9,0,0,1,.3-.744,1.558,1.558,0,0,1,1.592-.014l.426.2-.816-5.965-.51.07.694,5.074a1.816,1.816,0,0,0-1.718.247,1.407,1.407,0,0,0-.479,1.155,2.092,2.092,0,0,0,.823,1.562A4.737,4.737,0,0,0,340.245,352.118Z" transform="translate(-291.88 -233.99)" fill="#2f2e41"/>
  <rect id="Rectangle_891" data-name="Rectangle 891" width="2.771" height="0.514" transform="translate(41.029 109.878)" fill="#2f2e41"/>
  <rect id="Rectangle_892" data-name="Rectangle 892" width="2.771" height="0.514" transform="translate(49.774 109.878)" fill="#2f2e41"/>
  <path id="Path_3048" data-name="Path 3048" d="M337.709,380.017a2.522,2.522,0,0,0,.057-.514,2.447,2.447,0,0,0-2.444-2.443h-3.6a2.446,2.446,0,0,0-2.443,2.443,2.376,2.376,0,0,0,.056.517,13.823,13.823,0,0,0-3.809,1.885c-.226.157-.45.327-.664.5l.26.093a28.241,28.241,0,0,0,9.355,1.584q.926,0,1.839-.062a27.821,27.821,0,0,0,4.169-.579c.759-.165,1.5-.358,2.24-.584A13.94,13.94,0,0,0,337.709,380.017Z" transform="translate(-286.237 -250.062)" fill="#2f2e41"/>
  <path id="Path_3049" data-name="Path 3049" d="M347.689,389.521a1.892,1.892,0,0,0-.931.327,27.813,27.813,0,0,0,4.169-.579Z" transform="translate(-296.68 -255.885)" fill="#2f2e41"/>
  <path id="Path_3050" data-name="Path 3050" d="M343.394,323.773l-23.914-8.748a1.029,1.029,0,0,1-.613-1.32l.081-.382c1.868-5.105,8.058-8.318,13.163-6.45l7.359,2.692c5.105,1.868,7.324,7.913,5.456,13.018l-.213.578A1.029,1.029,0,0,1,343.394,323.773Z" transform="translate(-283.348 -216.332)" fill="#2f2e41"/>
  <path id="Path_3051" data-name="Path 3051" d="M339.779,328.284c-33.331,1.23-36.243-2.958-26.088-9.544l2.155-3.964,24.692,9Z" transform="translate(-278.445 -220.357)" fill="#2f2e41"/>
  <ellipse id="Ellipse_267" data-name="Ellipse 267" cx="1.157" cy="2.186" rx="1.157" ry="2.186" transform="translate(50.278 92.454) rotate(-73.27)" fill="#2f2e41"/>
  <path id="Path_3052" data-name="Path 3052" d="M316.739,338.973a28.993,28.993,0,0,1-9.61-1.628l-.268-.1a29.064,29.064,0,1,1,18.877.3c-.183.058-.355.113-.53.165-.731.225-1.506.427-2.3.6a28.641,28.641,0,0,1-4.285.595C318.006,338.952,317.37,338.973,316.739,338.973Zm0-56.585a27.525,27.525,0,0,0-9.352,53.411l.255.091a27.448,27.448,0,0,0,9.1,1.54c.6,0,1.2-.02,1.787-.06a27.134,27.134,0,0,0,4.058-.563c.749-.162,1.481-.353,2.176-.567.172-.051.336-.1.5-.155a27.525,27.525,0,0,0-8.521-53.7Z" transform="translate(-268.5 -204.178)" fill="#ccc"/>
  <path id="Path_3053" data-name="Path 3053" d="M269.607,502.682" transform="translate(-259.884 -309.975)" fill="#f2f2f2"/>
  <path id="Path_3054" data-name="Path 3054" d="M410.584,454.776H258.253a7.242,7.242,0,0,1-7.234-7.234v-206.8a7.242,7.242,0,0,1,7.234-7.234H410.584a7.242,7.242,0,0,1,7.234,7.234v206.8a7.242,7.242,0,0,1-7.234,7.234ZM258.253,234.364a6.39,6.39,0,0,0-6.383,6.383v206.8a6.39,6.39,0,0,0,6.383,6.383H410.584a6.39,6.39,0,0,0,6.383-6.383v-206.8a6.39,6.39,0,0,0-6.383-6.383Z" transform="translate(-251.019 -181.601)" fill="#ccc"/>
  <path id="Path_3055" data-name="Path 3055" d="M457.284,329.975h-43.1a3.41,3.41,0,0,1,0-6.82h43.1a3.41,3.41,0,0,1,0,6.82Z" transform="translate(-327.208 -224.353)" fill="#f1d7be"/>
  <path id="Path_3056" data-name="Path 3056" d="M471.35,351.977H414.179a3.41,3.41,0,1,1,0-6.82H471.35a3.41,3.41,0,1,1,0,6.82Z" transform="translate(-327.208 -234.847)" fill="#f1d7be"/>
  <path id="Path_3057" data-name="Path 3057" d="M398.58,436.367H291.224a3.41,3.41,0,0,1,0-6.82H398.58a3.41,3.41,0,0,1,0,6.82Z" transform="translate(-268.567 -275.095)" fill="#e6e6e6"/>
  <path id="Path_3058" data-name="Path 3058" d="M412.646,458.369H291.224a3.41,3.41,0,1,1,0-6.82H412.646a3.41,3.41,0,1,1,0,6.82Z" transform="translate(-268.567 -285.588)" fill="#e6e6e6"/>
  <path id="Path_3059" data-name="Path 3059" d="M398.58,508.94H291.224a3.41,3.41,0,1,1,0-6.82H398.58a3.41,3.41,0,0,1,0,6.82Z" transform="translate(-268.567 -309.707)" fill="#e6e6e6"/>
  <path id="Path_3060" data-name="Path 3060" d="M412.646,530.942H291.224a3.41,3.41,0,1,1,0-6.82H412.646a3.41,3.41,0,1,1,0,6.82Z" transform="translate(-268.567 -320.2)" fill="#e6e6e6"/>
  <path id="Path_3061" data-name="Path 3061" d="M398.58,581.513H291.224a3.41,3.41,0,1,1,0-6.82H398.58a3.41,3.41,0,0,1,0,6.82Z" transform="translate(-268.567 -344.319)" fill="#e6e6e6"/>
  <path id="Path_3062" data-name="Path 3062" d="M412.646,603.515H291.224a3.41,3.41,0,1,1,0-6.82H412.646a3.41,3.41,0,1,1,0,6.82Z" transform="translate(-268.567 -354.812)" fill="#e6e6e6"/>
  <path id="Path_3063" data-name="Path 3063" d="M789.663,355.531H637.331A7.242,7.242,0,0,1,630.1,348.3V141.5a7.242,7.242,0,0,1,7.234-7.234H789.663A7.242,7.242,0,0,1,796.9,141.5V348.3a7.242,7.242,0,0,1-7.234,7.234Z" transform="translate(-431.812 -134.268)" fill="#fff"/>
  <path id="Path_3064" data-name="Path 3064" d="M789.663,355.531H637.331A7.242,7.242,0,0,1,630.1,348.3V141.5a7.242,7.242,0,0,1,7.234-7.234H789.663A7.242,7.242,0,0,1,796.9,141.5V348.3a7.242,7.242,0,0,1-7.234,7.234ZM637.331,135.119a6.39,6.39,0,0,0-6.383,6.383V348.3a6.39,6.39,0,0,0,6.383,6.383H789.663a6.39,6.39,0,0,0,6.382-6.383V141.5a6.39,6.39,0,0,0-6.382-6.383Z" transform="translate(-431.812 -134.268)" fill="#ccc"/>
  <path id="Path_3065" data-name="Path 3065" d="M724.954,210.823a28.293,28.293,0,1,1-28.293-28.293A28.293,28.293,0,0,1,724.954,210.823Z" transform="translate(-450.065 -157.286)" fill="#fff"/>
  <path id="Path_3066" data-name="Path 3066" d="M722.356,233.5c-.309,18.095-27.225,18.092-27.531,0C695.133,215.408,722.049,215.411,722.356,233.5Z" transform="translate(-462.682 -175.124)" fill="#79254a"/>
  <path id="Path_3067" data-name="Path 3067" d="M720.084,248.628l-.014-.514c3.545.473,4.309-3.921.733-2.278l.816-5.965.51.07-.694,5.074C725.2,244.454,723.807,249.143,720.084,248.628Z" transform="translate(-474.722 -184.633)" fill="#2f2e41"/>
  <rect id="Rectangle_893" data-name="Rectangle 893" width="2.771" height="0.514" transform="translate(249.927 55.746)" fill="#2f2e41"/>
  <rect id="Rectangle_894" data-name="Rectangle 894" width="2.771" height="0.514" transform="translate(241.181 55.746)" fill="#2f2e41"/>
  <path id="Path_3068" data-name="Path 3068" d="M717.7,279.938c.54-3.645-3.727-2.924-5.985-2.96a2.448,2.448,0,0,0-2.387,2.958,13.384,13.384,0,0,0-4.756,2.624,28.415,28.415,0,0,0,18.115.2A13.316,13.316,0,0,0,717.7,279.938Z" transform="translate(-467.332 -202.313)" fill="#2f2e41"/>
  <path id="Path_3069" data-name="Path 3069" d="M700.39,217.606c2.551-1.474,5.645-.343,8.28.275,5,1.537,12.011-.388,12.619-6.343.633-5.539-6.944-8.626-9.366-3.113l.705-.092c-7.854-11.673-21.517-11.23-21.427,4.818-.029.5.743.494.772,0-.289-9.457,5.969-15.921,14.816-9.844a26.066,26.066,0,0,1,5.173,5.416c.921,1.033,1.122-3.414,5.531-2.25,4.853,1.88,3.27,8.829-1.068,10.355-5.36,2.738-11.165-2.571-16.424.112a.386.386,0,0,0,.39.667Z" transform="translate(-460.954 -165.738)" fill="#2f2e41"/>
  <path id="Path_3070" data-name="Path 3070" d="M696,239.226a29.04,29.04,0,1,1,9-1.422,29.04,29.04,0,0,1-9,1.422Zm0-56.585a27.525,27.525,0,1,0,27.521,27.522A27.526,27.526,0,0,0,696,182.64Z" transform="translate(-449.405 -156.624)" fill="#ccc"/>
  <path id="Path_3071" data-name="Path 3071" d="M836.363,230.731h-43.1a3.41,3.41,0,0,1,0-6.82h43.1a3.41,3.41,0,1,1,0,6.82Z" transform="translate(-508.002 -177.021)" fill="#f1d7be"/>
  <path id="Path_3072" data-name="Path 3072" d="M850.43,252.733H793.259a3.41,3.41,0,1,1,0-6.82H850.43a3.41,3.41,0,0,1,0,6.82Z" transform="translate(-508.002 -187.514)" fill="#f1d7be"/>
  <path id="Path_3073" data-name="Path 3073" d="M777.661,337.122H670.3a3.41,3.41,0,0,1,0-6.82H777.661a3.41,3.41,0,1,1,0,6.82Z" transform="translate(-449.362 -227.762)" fill="#e6e6e6"/>
  <path id="Path_3074" data-name="Path 3074" d="M791.726,359.125H670.3a3.41,3.41,0,1,1,0-6.82H791.726a3.41,3.41,0,1,1,0,6.82Z" transform="translate(-449.361 -238.256)" fill="#e6e6e6"/>
  <path id="Path_3075" data-name="Path 3075" d="M777.661,409.694H670.3a3.41,3.41,0,0,1,0-6.82H777.661a3.41,3.41,0,1,1,0,6.82Z" transform="translate(-449.362 -262.374)" fill="#e6e6e6"/>
  <path id="Path_3076" data-name="Path 3076" d="M791.726,431.7H670.3a3.41,3.41,0,1,1,0-6.82H791.726a3.41,3.41,0,1,1,0,6.82Z" transform="translate(-449.361 -272.868)" fill="#e6e6e6"/>
  <path id="Path_3077" data-name="Path 3077" d="M777.661,482.269H670.3a3.41,3.41,0,0,1,0-6.82H777.661a3.41,3.41,0,1,1,0,6.82Z" transform="translate(-449.362 -296.986)" fill="#e6e6e6"/>
  <path id="Path_3078" data-name="Path 3078" d="M791.726,504.271H670.3a3.41,3.41,0,1,1,0-6.82H791.726a3.41,3.41,0,1,1,0,6.82Z" transform="translate(-449.361 -307.48)" fill="#e6e6e6"/>
  <path id="Path_3079" data-name="Path 3079" d="M613.953,525.549H461.621a7.242,7.242,0,0,1-7.234-7.234v-206.8a7.242,7.242,0,0,1,7.234-7.234H613.953a7.242,7.242,0,0,1,7.234,7.234v206.8A7.242,7.242,0,0,1,613.953,525.549Z" transform="translate(-348.011 -215.354)" fill="#fff"/>
  <path id="Path_3080" data-name="Path 3080" d="M492.506,380.265a28.207,28.207,0,0,0,8.318,20.039c.221.219.448.437.676.651a28.255,28.255,0,0,0,4.491,3.423c.309.19.617.373.934.55a28.13,28.13,0,0,0,5.113,2.245c.306.1.617.2.928.283a28.409,28.409,0,0,0,17.187-.484l.322-.116a28.3,28.3,0,1,0-37.969-26.593Z" transform="translate(-366.191 -238.097)" fill="#fff"/>
  <path id="Path_3081" data-name="Path 3081" d="M524.659,432.236a8.767,8.767,0,0,1-2.264,5.935,6.362,6.362,0,0,1-5.806,2.217,4.119,4.119,0,0,1-3.444-4.29,3.178,3.178,0,0,1,3.927-2.854,2.7,2.7,0,0,1,1.08,4.545c-.382.31-.931-.232-.546-.546a1.927,1.927,0,0,0-.543-3.194,2.422,2.422,0,0,0-3.154,2.141,3.377,3.377,0,0,0,2.933,3.463,5.553,5.553,0,0,0,4.866-1.877,7.962,7.962,0,0,0,2.18-5.541.386.386,0,0,1,.772,0Z" transform="translate(-376.026 -276.2)" fill="#2f2e41"/>
  <ellipse id="Ellipse_268" data-name="Ellipse 268" cx="13.766" cy="13.766" rx="13.766" ry="13.766" transform="translate(142.402 133.41)" fill="#79254a"/>
  <path id="Path_3082" data-name="Path 3082" d="M548.218,418.881l-.014-.514a4.254,4.254,0,0,0,2.435-.55,1.581,1.581,0,0,0,.612-1.165.9.9,0,0,0-.3-.745,1.558,1.558,0,0,0-1.592-.014l-.426.2.816-5.965.51.07-.694,5.074a1.816,1.816,0,0,1,1.718.247,1.407,1.407,0,0,1,.479,1.155,2.092,2.092,0,0,1-.823,1.562A4.739,4.739,0,0,1,548.218,418.881Z" transform="translate(-392.755 -265.832)" fill="#2f2e41"/>
  <rect id="Rectangle_895" data-name="Rectangle 895" width="2.771" height="0.514" transform="translate(160.028 144.8)" fill="#2f2e41"/>
  <rect id="Rectangle_896" data-name="Rectangle 896" width="2.771" height="0.514" transform="translate(151.284 144.8)" fill="#2f2e41"/>
  <path id="Path_3083" data-name="Path 3083" d="M531.622,452.789a28.41,28.41,0,0,0,17.187-.484l.321-.116a13.7,13.7,0,0,0-4.36-2.253,2.194,2.194,0,0,0-.005-1.209,2.433,2.433,0,0,0-2.353-1.708h-3.354a2.424,2.424,0,0,0-2.348,1.705,2.2,2.2,0,0,0-.005,1.211,13.715,13.715,0,0,0-3.889,1.906q-.359.251-.694.525C531.951,452.5,531.784,452.645,531.622,452.789Z" transform="translate(-384.846 -283.428)" fill="#2f2e41"/>
  <path id="Path_3084" data-name="Path 3084" d="M570.193,408.624c0,2.32,1.142,4.244,2.626,4.578a2.12,2.12,0,0,0,.46.051c1.7,0,3.087-2.076,3.087-4.63a5.685,5.685,0,0,0-1.188-3.647,2.978,2.978,0,0,0-.908-.738,2.152,2.152,0,0,0-.99-.244,2.257,2.257,0,0,0-1.314.442A5.153,5.153,0,0,0,570.193,408.624Z" transform="translate(-403.242 -262.908)" fill="#3f3d56"/>
  <path id="Path_3085" data-name="Path 3085" d="M517.577,408.624a4.934,4.934,0,0,0,2.027,4.349,2.2,2.2,0,0,0,1.06.28,2,2,0,0,0,.247-.015c1.585-.188,2.84-2.184,2.84-4.614a5,5,0,0,0-1.942-4.3,2.206,2.206,0,0,0-1.144-.332,2.153,2.153,0,0,0-.99.244,3,3,0,0,0-.911.741A5.7,5.7,0,0,0,517.577,408.624Z" transform="translate(-378.147 -262.908)" fill="#3f3d56"/>
  <path id="Path_3086" data-name="Path 3086" d="M520.734,401.049a.386.386,0,0,0,.366-.509,15.046,15.046,0,1,1,28.984-1.691.386.386,0,1,0,.755.159,15.818,15.818,0,1,0-30.47,1.778.386.386,0,0,0,.366.263Z" transform="translate(-379.085 -251.428)" fill="#3f3d56"/>
  <path id="Path_3087" data-name="Path 3087" d="M551.884,398.434a1.929,1.929,0,0,1-.3,2.388,3.229,3.229,0,0,1-2.974.732c-1.161-.174-2.393-.718-3.568-.351-1,.313-1.717,1.221-2.758,1.449a1.912,1.912,0,0,1-2.351-1.049c-.156-.473.589-.675.744-.205.209.637,1.113.624,1.631.448.83-.283,1.47-.97,2.285-1.3a5,5,0,0,1,2.984.008,4.844,4.844,0,0,0,2.9.128c.68-.287,1.222-1.192.732-1.86C550.923,398.422,551.593,398.037,551.884,398.434Z" transform="translate(-388.801 -260.177)" fill="#2f2e41"/>
  <path id="Path_3088" data-name="Path 3088" d="M520.1,408.635a29.01,29.01,0,0,1-8.046-1.131c-.307-.086-.63-.185-.955-.291a28.988,28.988,0,0,1-5.252-2.306c-.313-.176-.628-.361-.96-.566a29.092,29.092,0,0,1-4.613-3.517c-.234-.218-.465-.442-.692-.665a29.062,29.062,0,1,1,30.457,6.73l-.326.117a29,29,0,0,1-9.614,1.629Zm0-56.585a27.522,27.522,0,0,0-19.43,47.014c.213.211.435.424.658.633a27.547,27.547,0,0,0,4.369,3.33c.315.194.611.369.907.535a27.427,27.427,0,0,0,4.974,2.185c.305.1.607.192.9.274a27.637,27.637,0,0,0,16.723-.469l.312-.112A27.525,27.525,0,0,0,520.1,352.05Z" transform="translate(-365.491 -237.402)" fill="#ccc"/>
  <path id="Path_3089" data-name="Path 3089" d="M613.953,525.549H461.621a7.242,7.242,0,0,1-7.234-7.234v-206.8a7.242,7.242,0,0,1,7.234-7.234H613.953a7.242,7.242,0,0,1,7.234,7.234v206.8A7.242,7.242,0,0,1,613.953,525.549ZM461.621,305.136a6.39,6.39,0,0,0-6.383,6.383v206.8a6.39,6.39,0,0,0,6.383,6.383H613.953a6.39,6.39,0,0,0,6.383-6.383v-206.8a6.39,6.39,0,0,0-6.383-6.383Z" transform="translate(-348.011 -215.354)" fill="#3f3d56"/>
  <path id="Path_3090" data-name="Path 3090" d="M660.653,400.746h-43.1a3.41,3.41,0,1,1,0-6.82h43.1a3.41,3.41,0,1,1,0,6.82Z" transform="translate(-424.2 -258.106)" fill="#f1d7be"/>
  <path id="Path_3091" data-name="Path 3091" d="M674.719,422.75H617.548a3.41,3.41,0,1,1,0-6.82h57.171a3.41,3.41,0,1,1,0,6.82Z" transform="translate(-424.2 -268.6)" fill="#f1d7be"/>
  <path id="Path_3092" data-name="Path 3092" d="M601.949,507.138H494.593a3.41,3.41,0,1,1,0-6.82H601.949a3.41,3.41,0,0,1,0,6.82Z" transform="translate(-365.56 -308.848)" fill="#ccc"/>
  <path id="Path_3093" data-name="Path 3093" d="M616.015,529.141H494.593a3.41,3.41,0,1,1,0-6.82H616.015a3.41,3.41,0,1,1,0,6.82Z" transform="translate(-365.56 -319.342)" fill="#ccc"/>
  <path id="Path_3094" data-name="Path 3094" d="M601.949,579.711H494.593a3.41,3.41,0,1,1,0-6.82H601.949a3.41,3.41,0,0,1,0,6.82Z" transform="translate(-365.56 -343.46)" fill="#ccc"/>
  <path id="Path_3095" data-name="Path 3095" d="M616.015,601.715H494.593a3.41,3.41,0,0,1,0-6.82H616.015a3.41,3.41,0,1,1,0,6.82Z" transform="translate(-365.56 -353.954)" fill="#ccc"/>
  <path id="Path_3096" data-name="Path 3096" d="M601.949,652.285H494.593a3.41,3.41,0,1,1,0-6.82H601.949a3.41,3.41,0,1,1,0,6.82Z" transform="translate(-365.56 -378.072)" fill="#ccc"/>
  <path id="Path_3097" data-name="Path 3097" d="M616.015,674.288H494.593a3.41,3.41,0,1,1,0-6.82H616.015a3.41,3.41,0,1,1,0,6.82Z" transform="translate(-365.56 -388.566)" fill="#ccc"/>
  <path id="Path_3098" data-name="Path 3098" d="M725.428,637.268a33.6,33.6,0,1,0,0,67.2h0a33.6,33.6,0,1,0,0-67.2Z" transform="translate(-461.254 -374.163)" fill="#4cb429"/>
  <path id="f276b720-7c73-4755-84a7-b208d54eb1fc" d="M737.8,700.913a4.078,4.078,0,0,1-2.453-.815l-.044-.033L726.065,693a4.106,4.106,0,1,1,5-6.517l5.985,4.589,14.142-18.449a4.1,4.1,0,0,1,5.754-.76h0l-.088.122.09-.122a4.109,4.109,0,0,1,.759,5.755L741.07,699.307a4.107,4.107,0,0,1-3.266,1.6Z" transform="translate(-476.815 -390.257)" fill="#fff"/>
</svg>
