<svg xmlns="http://www.w3.org/2000/svg" width="112.549" height="69.613" viewBox="0 0 112.549 69.613">
  <g id="noun_shake_hand_1546237" data-name="noun_shake hand_1546237" transform="translate(193 292.307)">
    <g id="Group_1705" data-name="Group 1705" transform="translate(-193 -292.307)">
      <path id="Path_3424" data-name="Path 3424" d="M78.362,30.193c-2.106-.807-6.422-3.832-9.106-5.273a11.947,11.947,0,0,0-10.829-.187c-1.042.48-2.15,1.061-3.291,1.709L53.2,24.533a6.892,6.892,0,0,0-6.94-2.152,22.922,22.922,0,0,0-5.37,2.414A20.121,20.121,0,0,1,36.833,26.7c-.494.136-.957.277-1.392.405-2.217.656-3.554,1.046-5.285.713a17.741,17.741,0,0,1-2.418-.591,1.537,1.537,0,0,0-1.909.705L12.159,53.627a1.528,1.528,0,0,0,.09,1.586,39.589,39.589,0,0,0,4.84,5.768,37.241,37.241,0,0,0,6.2,4.773l.1.07a4.585,4.585,0,0,0,6.841,5.509,4.771,4.771,0,0,0,6.836,6.656l.245-.245a4.786,4.786,0,0,0,7.122,6.375l2.586-2.586a4.405,4.405,0,0,0,6.606,5.8l3.414-3.416,4.892,3.757a5.317,5.317,0,0,0,3.391,1.262,3.029,3.029,0,0,0,.307-.016,6.49,6.49,0,0,0,4.5-2.529A6.978,6.978,0,0,0,71.9,82.1a7.045,7.045,0,0,0,2.618.552,6.1,6.1,0,0,0,4.342-1.91,5.773,5.773,0,0,0,1.836-3.9,7.409,7.409,0,0,0,3.156.725,7.622,7.622,0,0,0,4.072-1.22,6.973,6.973,0,0,0,3.505-4.38c.593-2.3-.938-4.989-1.96-6.449a39.569,39.569,0,0,0,3.56-3.313A29.868,29.868,0,0,0,98.1,55.014L84.3,28.756S80.853,31.152,78.362,30.193ZM88.6,71a5.3,5.3,0,0,1-2.3,2.74,4.264,4.264,0,0,1-5.243-.274l-4.7-4.6-.011.011-6.267-6.671a1.533,1.533,0,0,0-2.237,2.1L76.7,73.73c.3.415,1.952,2.944.022,4.816-1.571,1.517-2.845,1.114-4.233.473a11.611,11.611,0,0,1-2.142-1.773L62.134,68.5A1.536,1.536,0,0,0,59.9,70.6l7.093,7.542a1.371,1.371,0,0,0,.088.146c.17.185.625.666,1.2,1.221l.059.062-.07.046a4.064,4.064,0,0,1-.456,4.773c-1.962,2.274-3.429,1.343-3.83,1l-4.942-3.831a4.392,4.392,0,0,0-6.627-5.421l1.567-1.566a4.8,4.8,0,1,0-6.785-6.783L44.9,70.078a4.767,4.767,0,0,0-7.1-6.335L35.332,66.21a4.58,4.58,0,0,0-7.4-5.154l-2.567,2.359-.606-.357A35.457,35.457,0,0,1,19.135,58.7a32.712,32.712,0,0,1-3.824-4.474L27.952,30.479c.428.108.966.229,1.627.355,2.462.472,4.346-.084,6.729-.788.426-.125.874-.256,1.354-.389a22.6,22.6,0,0,0,4.721-2.186,20.841,20.841,0,0,1,4.639-2.122,3.849,3.849,0,0,1,3.8,1.122L52.373,28.1A174.941,174.941,0,0,0,36.96,39.3s-4.123,2.873-1.823,6.135c2.392,3.387,5.752,1.05,5.752,1.05l14.374-7.858a10.972,10.972,0,0,1,3.642-.767A4.781,4.781,0,0,1,61.684,39.2l24.7,27.407C87.755,68.053,88.786,70.217,88.6,71Z" transform="translate(0.63 -19.328)" fill="#125d50"/>
      <path id="Path_3425" data-name="Path 3425" d="M101.941,50.258,86.722,21.887a1.535,1.535,0,0,0-2.078-.628L78.76,24.365a1.537,1.537,0,0,0-.627,2.078L93.357,54.816a1.536,1.536,0,0,0,2.078.631l5.882-3.108A1.537,1.537,0,0,0,101.941,50.258Z" transform="translate(10.424 -19.487)" fill="#e9e7c8"/>
      <path id="Path_3426" data-name="Path 3426" d="M24.136,23.013l-5.865-3.144a1.539,1.539,0,0,0-2.073.642L1.178,48.993a1.537,1.537,0,0,0,.64,2.074l5.865,3.142a1.534,1.534,0,0,0,2.072-.645L24.775,25.087A1.534,1.534,0,0,0,24.136,23.013Z" transform="translate(-1 -19.693)" fill="#e9e7c8"/>
    </g>
  </g>
</svg>
