<svg xmlns="http://www.w3.org/2000/svg" width="69.85" height="69.85" viewBox="0 0 69.85 69.85">
  <g id="noun_done_1276375" transform="translate(160 325.85)">
    <g id="Group_1704" data-name="Group 1704" transform="translate(-168 -332.85)">
      <path id="Path_3422" data-name="Path 3422" d="M59.444,34.689,40.195,53.938,31.5,45.247a3.274,3.274,0,1,0-4.63,4.63L37.839,60.842a3.141,3.141,0,0,0,4.548,0L63.911,39.318a3.236,3.236,0,0,0,0-4.63A3.186,3.186,0,0,0,59.444,34.689Z" transform="translate(-3.362 -5.028)" fill="#e9e7c8"/>
      <path id="Path_3423" data-name="Path 3423" d="M42.925,7a34.925,34.925,0,1,0,33.3,45.565,3.237,3.237,0,1,0-6.173-1.949,28.594,28.594,0,1,1,1.3-8.691,3.249,3.249,0,1,0,6.5,0A34.975,34.975,0,0,0,42.925,7Z" fill="#125d50"/>
    </g>
  </g>
</svg>
