<svg xmlns="http://www.w3.org/2000/svg" width="61.716" height="71.215" viewBox="0 0 61.716 71.215">
  <g id="noun_stopwach_3138517" transform="translate(120.57 66.352)">
    <g id="icon_copy" data-name="icon copy" transform="translate(-120.57 -66.352)">
      <path id="Path_3418" data-name="Path 3418" d="M36.858,67.716A30.858,30.858,0,1,1,67.716,36.858,30.858,30.858,0,0,1,36.858,67.716Zm0-56.968A26.111,26.111,0,1,0,62.968,36.858,26.111,26.111,0,0,0,36.858,10.747Z" transform="translate(-6 3.499)" fill="#125d50"/>
      <path id="Path_3419" data-name="Path 3419" d="M24.586,15.285a2.374,2.374,0,0,1-1.757-.807,36.033,36.033,0,0,0-5.08-4.6,2.374,2.374,0,0,1,2.848-3.8,40.447,40.447,0,0,1,5.744,5.27,2.374,2.374,0,0,1-1.757,3.94Z" transform="translate(34.471 2)" fill="#125d50"/>
      <path id="Path_3420" data-name="Path 3420" d="M13.05,9.463a2.383,2.383,0,0,1-.427-4.747,40.875,40.875,0,0,1,15.239,0,2.416,2.416,0,0,1-.9,4.747,36.08,36.08,0,0,0-13.435,0Z" transform="translate(10.687 -3.999)" fill="#125d50"/>
      <path id="Path_3421" data-name="Path 3421" d="M14.374,27.989A2.374,2.374,0,0,1,12,25.616V11.374a2.374,2.374,0,1,1,4.747,0V25.616A2.374,2.374,0,0,1,14.374,27.989Z" transform="translate(16.484 14.741)" fill="#e9e7c8"/>
    </g>
  </g>
</svg>
