<svg id="Layer_2" data-name="Layer 2" xmlns="http://www.w3.org/2000/svg" xmlns:xlink="http://www.w3.org/1999/xlink" width="188.047" height="146.692" viewBox="0 0 188.047 146.692">
  <defs>
    <linearGradient id="linear-gradient" x1="0.5" y1="0.029" x2="0.455" y2="1" gradientUnits="objectBoundingBox">
      <stop offset="0" stop-color="#e9e7c8"/>
      <stop offset="1" stop-color="#195b3b"/>
    </linearGradient>
  </defs>
  <g id="Layer_1" data-name="Layer 1" transform="translate(0 0)">
    <path id="Path_3002" data-name="Path 3002" d="M188,108.037h-8.479a1.947,1.947,0,0,1-2.22-1.669c-3.772-12.384-7.661-24.752-11.5-37.136-1.018-3.338-1.986-6.559-2.971-9.814,3.221-2.17,4.273-4.456,3.338-7.194a5.758,5.758,0,0,0-5.942-3.622c-2.8.2-4.022,1.836-4.907,6.793a52.541,52.541,0,0,1-16.44-.317C126.63,52.508,117.4,45.4,110.156,35.5S98.607,14.621,95.352,3a21.7,21.7,0,0,0-1.469-3c-.417,1.252-.651,1.853-.835,2.47-3.154,11.049-7.21,21.7-13.786,31.278-5.641,8.212-12.6,14.9-21.948,18.81a46.733,46.733,0,0,1-24.251,2.821c-.768-4.74-2-6.376-5.007-6.776A5.591,5.591,0,0,0,22.3,51.74c-1.218,2.787-.517,4.607,3.088,7.878L22.265,69.632C18.46,81.95,14.637,94.267,10.882,106.585A1.669,1.669,0,0,1,8.9,108.037H0c.451,6.459,4.256,10.348,9.347,13.119a38.889,38.889,0,0,0,24.418,3.739,29.508,29.508,0,0,0,14.821-5.942c3.338-2.721,6.059-5.925,5.892-10.865H44.229L29.208,59.535a7.561,7.561,0,0,0,1.669-1.4c1.018-1.669,2.353-1.319,3.805-.835A49.153,49.153,0,0,0,51.74,59.384a49.971,49.971,0,0,0,21.814-5.641c.551-.284,1.135-.5,2.02-.885v93.833a55.959,55.959,0,0,1,4.323-5.908,7.928,7.928,0,0,0,1.969-5.975q0-42.16,0-84.32A3.889,3.889,0,0,1,82.45,48.1c2.587-2.9,5.341-5.691,8.345-8.863v90.545c1.769-1.252,3.171-2.353,4.673-3.338a3.956,3.956,0,0,0,2.053-3.889q-.1-40.558,0-81.115a18,18,0,0,1,.1-2.237c2.487,2.654,4.74,5.157,7.093,7.544a4.74,4.74,0,0,1,1.552,3.672v69.833a35.963,35.963,0,0,1,4.306-1.669c1.936-.484,2.37-1.669,2.37-3.455q-.1-29.742,0-59.484a22.133,22.133,0,0,1,.117-2.687l1.569.668a81.33,81.33,0,0,0,9.764,3.956,51.173,51.173,0,0,0,28.374,0c2.1-.634,3.939-1,5.324,1.085a3.338,3.338,0,0,1,.467,2.07c-.684,2.637-1.569,5.224-2.37,7.811q-5.758,18.6-11.416,37.186c-.534,1.8-1.319,2.47-3.2,2.353-2.62-.184-5.274,0-8.145,0a16.69,16.69,0,0,0,6.676,11.266c5.207,3.839,11.45,5.007,17.742,5.875a33.881,33.881,0,0,0,13.352-1.3c5.591-1.5,11.032-3.572,14.587-8.646a9.847,9.847,0,0,0,2.22-7.244ZM41.375,107.87H13.235c4.607-14.938,9.2-29.759,13.77-44.6h.567c4.573,14.771,9.146,29.575,13.8,44.6Zm105.45,0q7.01-22.532,13.886-44.83h.434c4.59,14.838,9.163,29.659,13.853,44.8Z" transform="translate(0 0)" fill="url(#linear-gradient)"/>
  </g>
</svg>
