<svg xmlns="http://www.w3.org/2000/svg" width="361.148" height="330.301" viewBox="0 0 361.148 330.301">
  <g id="Uploading-pana" transform="translate(-20.801 -57.187)">
    <g id="freepik--background-simple--inject-4" transform="translate(79.774 57.187)">
      <path id="Path_3099" data-name="Path 3099" d="M328.539,90.76,327.082,88.4c-12.314-20.327-34.587-32.57-58.057-31.089a60.752,60.752,0,0,0-8.989,1.237c-21.343,4.57-39.92,20.713-47.618,41.378-4.53,12.164-5.791,26.157-14.386,35.808-11.18,12.558-30.167,12.952-46.853,12.432s-35.69-.071-46.814,12.535c-6.972,7.878-9.186,19.129-8.627,29.7,1.489,28,21,53.038,45.813,65.478s54.023,13.559,81.148,8.083c38.037-7.666,74.215-28.725,95.96-61.255S345.943,125.866,328.539,90.76Z" transform="translate(-95.655 -57.187)" fill="#f1d7be"/>
    </g>
    <g id="freepik--Character--inject-4" transform="translate(140.571 111.627)">
      <path id="Path_3100" data-name="Path 3100" d="M228.62,195.13l4.822-1.465,20.941-.615,4.727,1.284-.615,11.518L247.8,212.667l-10.368-.2-6.516-5.94-1.442-5.885Z" transform="translate(-184.66 -140.45)" fill="#ffbe9d"/>
      <path id="Path_3101" data-name="Path 3101" d="M279.378,213.252a70.31,70.31,0,0,0-4.247-7.642,18.979,18.979,0,0,0-10.935-7.957l-17.088-4.633s-.882,17.073-12.606,17.073-14.039-16-14.039-16l-19.775,7.878c-.678.26-5.271,1.851-10.6,13.291-5.082,10.9-7.3,16.474-7.3,16.474l20.374,5.877,1.268,18.325-.717,23.73h62.24l-.827-25.156.583-18.546.788,1.245,20.571-8.249S284.381,223.557,279.378,213.252Z" transform="translate(-174.935 -140.444)" fill="#79254a"/>
      <path id="Path_3102" data-name="Path 3102" d="M208.988,292.93a71.822,71.822,0,0,1-2.277,7.469,2.915,2.915,0,0,0,0,1.576c.244.512,1.268.323,1.828.213,5.137-1,10.817-.173,15.836,1.324,5.216,1.576,10.242,4.459,15.655,4.365,3.663-.063,7.146-1.489,10.667-2.521a51.336,51.336,0,0,1,20.145-1.741,2.033,2.033,0,0,0,1.355-.165c.6-.41.552-1.284.433-2-.26-1.694-2.048-6.35-2.482-8.028" transform="translate(-179.989 -161.64)" fill="#79254a"/>
      <path id="Path_3103" data-name="Path 3103" d="M205.216,218.23c.118,0,.788,5.641,1.458,12.606s1.158,12.669,1.048,12.676-.788-5.641-1.458-12.606S205.105,218.238,205.216,218.23Z" transform="translate(-179.692 -145.792)" fill="#263238"/>
      <path id="Path_3104" data-name="Path 3104" d="M289.014,221.43c.11,0-.063,5.271-.394,11.755s-.693,11.739-.788,11.731.063-5.271.394-11.755S288.9,221.422,289.014,221.43Z" transform="translate(-197.216 -146.471)" fill="#263238"/>
      <path id="Path_3105" data-name="Path 3105" d="M260.087,194.13a2.183,2.183,0,0,1-.079.544c-.071.394-.173.906-.3,1.576a50.353,50.353,0,0,1-1.481,5.617,21.476,21.476,0,0,1-4.168,7.524,14.37,14.37,0,0,1-4,3.151,11.321,11.321,0,0,1-5.334,1.308,14.906,14.906,0,0,1-9.7-3.868,20.113,20.113,0,0,1-4.932-7.035,29.519,29.519,0,0,1-1.757-5.515c-.142-.67-.236-1.19-.284-1.576a2.56,2.56,0,0,1-.063-.544,2.637,2.637,0,0,1,.142.528l.362,1.536a32.547,32.547,0,0,0,1.859,5.452,20.146,20.146,0,0,0,4.924,6.87,14.67,14.67,0,0,0,9.454,3.742,11.03,11.03,0,0,0,5.145-1.253,14.1,14.1,0,0,0,3.939-3.081,21.586,21.586,0,0,0,4.176-7.374c.788-2.293,1.261-4.223,1.576-5.515l.378-1.528a4.159,4.159,0,0,1,.142-.559Z" transform="translate(-184.526 -140.679)" fill="#263238"/>
      <path id="Path_3106" data-name="Path 3106" d="M236.916,209.705c.071.095-.347.5-.922.906s-1.1.654-1.166.559.347-.5.93-.9S236.853,209.619,236.916,209.705Z" transform="translate(-185.976 -143.98)" fill="#263238"/>
      <path id="Path_3107" data-name="Path 3107" d="M246.353,217.978a3.443,3.443,0,0,1,0-1.662,3.561,3.561,0,0,1,.4-1.576c.118,0,.118.788,0,1.662A3.522,3.522,0,0,1,246.353,217.978Z" transform="translate(-188.4 -145.052)" fill="#263238"/>
      <path id="Path_3108" data-name="Path 3108" d="M258.83,214.455c-.079.079-.733-.41-1.458-1.1s-1.245-1.308-1.174-1.395.733.41,1.458,1.1S258.908,214.352,258.83,214.455Z" transform="translate(-190.509 -144.459)" fill="#263238"/>
      <path id="Path_3109" data-name="Path 3109" d="M264.283,206.009c-.063.095-.654-.181-1.371-.512s-1.324-.591-1.292-.709.709,0,1.458.339S264.346,205.915,264.283,206.009Z" transform="translate(-191.661 -142.931)" fill="#263238"/>
      <path id="Path_3110" data-name="Path 3110" d="M231.46,200.6c.039.1-.378.355-.93.559s-1.032.292-1.071.181.378-.355.93-.559S231.46,200.5,231.46,200.6Z" transform="translate(-184.838 -142.042)" fill="#263238"/>
      <g id="Group_1194" data-name="Group 1194" transform="translate(90.75 78.095)" opacity="0.3">
        <path id="Path_3111" data-name="Path 3111" d="M288.9,225.41l2.064,17.829-2.182.875-.772-1.245Z" transform="translate(-288.01 -225.41)"/>
      </g>
      <path id="Path_3112" data-name="Path 3112" d="M198.984,218.465a4.656,4.656,0,0,1-2.08-.93c-1.064-.693-1.765-1.458-1.686-1.576q1.936,1.15,3.766,2.466Z" transform="translate(-177.573 -145.311)" fill="#fff"/>
      <path id="Path_3113" data-name="Path 3113" d="M219.317,222.211a14.63,14.63,0,0,1-3.419-.126,14.291,14.291,0,0,1-3.388-.528,14.7,14.7,0,0,1,3.427.126A13.715,13.715,0,0,1,219.317,222.211Z" transform="translate(-181.242 -146.488)" fill="#fff"/>
      <path id="Path_3114" data-name="Path 3114" d="M242.233,226.372a18.452,18.452,0,0,1-3.4-.3,19.847,19.847,0,0,1-3.38-.5,11.542,11.542,0,0,1,3.427.087A11.755,11.755,0,0,1,242.233,226.372Z" transform="translate(-186.109 -147.332)" fill="#fff"/>
      <path id="Path_3115" data-name="Path 3115" d="M271.024,223.64a19.855,19.855,0,0,1-3.939.859,20.088,20.088,0,0,1-3.994.457,39.778,39.778,0,0,1,7.926-1.316Z" transform="translate(-191.973 -146.94)" fill="#fff"/>
      <path id="Path_3116" data-name="Path 3116" d="M289.878,216.87a4.263,4.263,0,0,1-1.891,1.387,4.183,4.183,0,0,1-2.277.559,17.191,17.191,0,0,1,2.1-.93,16.747,16.747,0,0,1,2.064-1.016Z" transform="translate(-196.772 -145.504)" fill="#fff"/>
      <path id="Path_3117" data-name="Path 3117" d="M299.929,214.23a7.311,7.311,0,0,1-2.513,1.3,7.09,7.09,0,0,1-2.765.638,16.286,16.286,0,0,1,2.639-1.016,14.181,14.181,0,0,1,2.639-.922Z" transform="translate(-198.668 -144.943)" fill="#fff"/>
      <path id="Path_3118" data-name="Path 3118" d="M278.3,212.84a32.923,32.923,0,0,1-7.091,1.67,32.563,32.563,0,0,1,7.091-1.67Z" transform="translate(-193.696 -144.649)" fill="#fff"/>
      <path id="Path_3119" data-name="Path 3119" d="M293.1,206.38a13.393,13.393,0,0,1-2.852,1.647,13.583,13.583,0,0,1-3.041,1.276,26.566,26.566,0,0,1,5.893-2.923Z" transform="translate(-197.09 -143.278)" fill="#fff"/>
      <path id="Path_3120" data-name="Path 3120" d="M277.691,204.519a15.205,15.205,0,0,1-4.861,1.1,7.626,7.626,0,0,1,2.364-.748A7.823,7.823,0,0,1,277.691,204.519Z" transform="translate(-194.039 -142.883)" fill="#fff"/>
      <path id="Path_3121" data-name="Path 3121" d="M288.013,201.511c.047.11-.449.41-1.1.678s-1.213.394-1.261.292.457-.41,1.111-.67S287.973,201.409,288.013,201.511Z" transform="translate(-196.758 -142.238)" fill="#fff"/>
      <path id="Path_3122" data-name="Path 3122" d="M249.071,221.813a10.006,10.006,0,0,1-3.514.095,9.872,9.872,0,0,1-3.427-.788,30.479,30.479,0,0,1,3.467.347,30.884,30.884,0,0,1,3.474.347Z" transform="translate(-187.526 -146.405)" fill="#fff"/>
      <path id="Path_3123" data-name="Path 3123" d="M264.749,217.917a3.406,3.406,0,0,1-1.473.615c-.843.228-1.576.323-1.576.213a3.517,3.517,0,0,1,1.473-.615C264.016,217.894,264.717,217.807,264.749,217.917Z" transform="translate(-191.678 -145.716)" fill="#fff"/>
      <path id="Path_3124" data-name="Path 3124" d="M229.714,217.552a9.549,9.549,0,0,1-2.8-.071,9.454,9.454,0,0,1-2.757-.488,9.706,9.706,0,0,1,2.8.079,10,10,0,0,1,2.757.481Z" transform="translate(-183.714 -145.516)" fill="#fff"/>
      <path id="Path_3125" data-name="Path 3125" d="M213.9,213.618a11.51,11.51,0,0,1-3.033-.41,11.29,11.29,0,0,1-2.947-.788,11.51,11.51,0,0,1,3.033.41A11.66,11.66,0,0,1,213.9,213.618Z" transform="translate(-180.269 -144.56)" fill="#fff"/>
      <path id="Path_3126" data-name="Path 3126" d="M215.345,205.07a6.665,6.665,0,0,1-2.308,0,6.532,6.532,0,0,1-2.277-.418,6.719,6.719,0,0,1,2.316,0,6.515,6.515,0,0,1,2.269.418Z" transform="translate(-180.871 -142.89)" fill="#fff"/>
      <path id="Path_3127" data-name="Path 3127" d="M226.064,208.754a3.4,3.4,0,0,1-2.1.134,3.293,3.293,0,0,1-1.938-.788,17.44,17.44,0,0,1,2.009.394,14.131,14.131,0,0,1,2.025.26Z" transform="translate(-183.262 -143.643)" fill="#fff"/>
      <path id="Path_3128" data-name="Path 3128" d="M224.872,201.23a5.168,5.168,0,0,1-2-.362,5.231,5.231,0,0,1-1.891-.788,5.074,5.074,0,0,1,2,.355,5.16,5.16,0,0,1,1.891.8Z" transform="translate(-183.039 -141.941)" fill="#fff"/>
      <path id="Path_3129" data-name="Path 3129" d="M274.985,197.989c0,.11-.473.355-1.119.551s-1.205.26-1.237.15.465-.355,1.119-.544S274.954,197.9,274.985,197.989Z" transform="translate(-193.996 -141.49)" fill="#fff"/>
      <path id="Path_3130" data-name="Path 3130" d="M199.357,228.216a15.473,15.473,0,0,1-4.506-2.1A14.969,14.969,0,0,1,199.357,228.216Z" transform="translate(-177.496 -147.466)" fill="#fff"/>
      <path id="Path_3131" data-name="Path 3131" d="M190.744,237.307a7.17,7.17,0,0,1-2.364-.228,7.248,7.248,0,0,1-2.3-.638,13.677,13.677,0,0,1,4.68.867Z" transform="translate(-175.635 -149.655)" fill="#fff"/>
      <path id="Path_3132" data-name="Path 3132" d="M202.34,241.253a20.485,20.485,0,0,1-2.86-.859,21.4,21.4,0,0,1-2.86-.875,11.258,11.258,0,0,1,5.72,1.733Z" transform="translate(-177.871 -150.309)" fill="#fff"/>
      <path id="Path_3133" data-name="Path 3133" d="M214.646,231.945a15.52,15.52,0,0,1-5.026,0,15.52,15.52,0,0,1,5.026,0Z" transform="translate(-180.629 -148.658)" fill="#fff"/>
      <path id="Path_3134" data-name="Path 3134" d="M219.273,244.815a31.231,31.231,0,0,1-3.2-.788,32.507,32.507,0,0,1-3.214-.788A12.605,12.605,0,0,1,219.273,244.815Z" transform="translate(-181.317 -151.097)" fill="#fff"/>
      <path id="Path_3135" data-name="Path 3135" d="M241.523,239.006a5.72,5.72,0,0,1-1.631,0,36.465,36.465,0,0,1-3.939-.481,37.3,37.3,0,0,1-3.837-.882,5.742,5.742,0,0,1-1.536-.567c0-.118,2.434.52,5.444,1.048S241.531,238.888,241.523,239.006Z" transform="translate(-185.076 -149.787)" fill="#fff"/>
      <path id="Path_3136" data-name="Path 3136" d="M242.676,247.935a15.757,15.757,0,0,1-3.569,0,14.8,14.8,0,0,1-3.537-.4,16.238,16.238,0,0,1,3.561,0,16.04,16.04,0,0,1,3.545.4Z" transform="translate(-186.134 -151.988)" fill="#fff"/>
      <path id="Path_3137" data-name="Path 3137" d="M257.463,233.356a29.434,29.434,0,0,1-6.933.173,29.435,29.435,0,0,1,6.933-.173Z" transform="translate(-189.308 -148.974)" fill="#fff"/>
      <path id="Path_3138" data-name="Path 3138" d="M269.163,244.389a30.089,30.089,0,0,1-5,.741,32.229,32.229,0,0,1-5.05.331,62.059,62.059,0,0,1,10.053-1.072Z" transform="translate(-191.129 -151.341)" fill="#fff"/>
      <path id="Path_3139" data-name="Path 3139" d="M279.48,232.07a28.734,28.734,0,0,1-4.633,1.324,28.023,28.023,0,0,1-4.727.938A28.237,28.237,0,0,1,274.753,233,28.6,28.6,0,0,1,279.48,232.07Z" transform="translate(-193.464 -148.728)" fill="#fff"/>
      <path id="Path_3140" data-name="Path 3140" d="M282.047,240.16a3.522,3.522,0,0,1-1.765,1.024,3.585,3.585,0,0,1-2.033.26,10.182,10.182,0,0,1,1.9-.646A9.657,9.657,0,0,1,282.047,240.16Z" transform="translate(-195.189 -150.445)" fill="#fff"/>
      <path id="Path_3141" data-name="Path 3141" d="M296.471,223.89a8.313,8.313,0,0,1-2.45.914,8.178,8.178,0,0,1-2.561.52,8.581,8.581,0,0,1,2.45-.914,8.794,8.794,0,0,1,2.56-.52Z" transform="translate(-197.992 -146.993)" fill="#fff"/>
      <path id="Path_3142" data-name="Path 3142" d="M303.084,233.19a45.5,45.5,0,0,1-8.3,2.143,22.327,22.327,0,0,1,4.1-1.268,21.9,21.9,0,0,1,4.207-.874Z" transform="translate(-198.696 -148.966)" fill="#fff"/>
      <path id="Path_3143" data-name="Path 3143" d="M306.353,225.44a12.441,12.441,0,0,1-2.868,1.4,12.605,12.605,0,0,1-3.025,1.024,25.258,25.258,0,0,1,5.893-2.427Z" transform="translate(-199.901 -147.322)" fill="#fff"/>
      <path id="Path_3144" data-name="Path 3144" d="M298.98,241.28a17.1,17.1,0,0,1-4.68,2.427,17.1,17.1,0,0,1,4.68-2.427Z" transform="translate(-198.594 -150.682)" fill="#fff"/>
      <path id="Path_3145" data-name="Path 3145" d="M222.566,261.64a13.725,13.725,0,0,1-3.309-.055,13.519,13.519,0,0,1-3.277-.465,13.725,13.725,0,0,1,3.309.055,13.518,13.518,0,0,1,3.277.465Z" transform="translate(-181.978 -154.875)" fill="#fff"/>
      <path id="Path_3146" data-name="Path 3146" d="M229.461,255.866a32.412,32.412,0,0,1-7.091-1.576,30.137,30.137,0,0,1,7.091,1.576Z" transform="translate(-183.334 -153.442)" fill="#fff"/>
      <path id="Path_3147" data-name="Path 3147" d="M255.313,256.185a21.272,21.272,0,0,1-5.893,0A21.273,21.273,0,0,1,255.313,256.185Z" transform="translate(-189.073 -153.801)" fill="#fff"/>
      <path id="Path_3148" data-name="Path 3148" d="M249.9,264.9a5.145,5.145,0,0,1-1.576.189,26.007,26.007,0,0,1-3.75-.134,24.777,24.777,0,0,1-3.7-.678,5.176,5.176,0,0,1-1.465-.512c0-.118,2.316.481,5.208.788S249.888,264.774,249.9,264.9Z" transform="translate(-186.949 -155.449)" fill="#fff"/>
      <path id="Path_3149" data-name="Path 3149" d="M278.186,258.859a17.12,17.12,0,0,1-4.585.52,17.372,17.372,0,0,1-4.6-.315c0-.118,2.064-.039,4.593-.095S278.171,258.741,278.186,258.859Z" transform="translate(-193.227 -154.403)" fill="#fff"/>
      <path id="Path_3150" data-name="Path 3150" d="M278.54,250.74a24.092,24.092,0,0,1-6.24,1.04,24.241,24.241,0,0,1,6.24-1.04Z" transform="translate(-193.927 -152.689)" fill="#fff"/>
      <path id="Path_3151" data-name="Path 3151" d="M219.346,298.77a34.769,34.769,0,0,1-3.553-.118,34.745,34.745,0,0,1-3.553-.055,10.3,10.3,0,0,1,3.569-.355A10.147,10.147,0,0,1,219.346,298.77Z" transform="translate(-181.185 -162.76)" fill="#fff"/>
      <path id="Path_3152" data-name="Path 3152" d="M235.206,303.524a22.527,22.527,0,0,1-4.349-.221,23.749,23.749,0,0,1-4.317-.63,22.605,22.605,0,0,1,4.357.221A23.44,23.44,0,0,1,235.206,303.524Z" transform="translate(-184.219 -163.702)" fill="#fff"/>
      <path id="Path_3153" data-name="Path 3153" d="M251.046,307.493a14.97,14.97,0,0,1-4.294.788,15.158,15.158,0,0,1-4.373-.079c0-.118,1.954-.134,4.341-.323S251.023,307.375,251.046,307.493Z" transform="translate(-187.579 -164.724)" fill="#fff"/>
      <path id="Path_3154" data-name="Path 3154" d="M249.983,300.061a15.6,15.6,0,0,1-3.459.378,15.082,15.082,0,0,1-3.474,0,14.378,14.378,0,0,1,3.451-.378,14.18,14.18,0,0,1,3.482,0Z" transform="translate(-187.721 -163.13)" fill="#fff"/>
      <path id="Path_3155" data-name="Path 3155" d="M236.081,295.615a28.058,28.058,0,0,1-4.727.292,28.458,28.458,0,0,1-4.774-.118,28.3,28.3,0,0,1,4.766-.291A28.271,28.271,0,0,1,236.081,295.615Z" transform="translate(-184.227 -162.174)" fill="#fff"/>
      <path id="Path_3156" data-name="Path 3156" d="M266.966,295.359a26.056,26.056,0,0,1-4.577.552,25.7,25.7,0,0,1-4.609.142,26.982,26.982,0,0,1,4.577-.551,26.61,26.61,0,0,1,4.609-.142Z" transform="translate(-190.846 -162.146)" fill="#fff"/>
      <path id="Path_3157" data-name="Path 3157" d="M268.151,301.351c0,.126-2.041.284-4.483.882s-4.341,1.387-4.388,1.276a12.857,12.857,0,0,1,4.294-1.678,13.244,13.244,0,0,1,4.577-.481Z" transform="translate(-191.165 -163.419)" fill="#fff"/>
      <path id="Path_3158" data-name="Path 3158" d="M284.6,297.983a5.634,5.634,0,0,1-2.064.433,5.389,5.389,0,0,1-2.1,0,10.776,10.776,0,0,1,4.168-.457Z" transform="translate(-195.652 -162.698)" fill="#fff"/>
      <path id="Path_3159" data-name="Path 3159" d="M266.791,198.1c-.047.1-.685-.126-1.473-.394s-1.434-.457-1.418-.575a2.5,2.5,0,0,1,1.576.189C266.271,197.591,266.846,198,266.791,198.1Z" transform="translate(-192.145 -141.304)" fill="#263238"/>
      <path id="Path_3160" data-name="Path 3160" d="M223.792,274.375a22.6,22.6,0,0,1-4.31-.244,22.988,22.988,0,0,1-4.262-.646,21.791,21.791,0,0,1,4.3.244,23.156,23.156,0,0,1,4.27.646Z" transform="translate(-181.817 -157.51)" fill="#fff"/>
      <path id="Path_3161" data-name="Path 3161" d="M241.048,272.171a12.606,12.606,0,0,1-3.27,0,13.552,13.552,0,0,1-3.238-.41,12.6,12.6,0,0,1,3.27,0A13.549,13.549,0,0,1,241.048,272.171Z" transform="translate(-185.916 -157.126)" fill="#fff"/>
      <path id="Path_3162" data-name="Path 3162" d="M267.02,270.395c0,.118-1.867.1-4.144.307s-4.113.528-4.136.41a13.322,13.322,0,0,1,4.1-.788A13.118,13.118,0,0,1,267.02,270.395Z" transform="translate(-191.05 -156.815)" fill="#fff"/>
      <path id="Path_3163" data-name="Path 3163" d="M278.146,279.747a40.556,40.556,0,0,1-5.767.126,41.132,41.132,0,0,1-5.759-.292,39.2,39.2,0,0,1,5.767-.126A41.132,41.132,0,0,1,278.146,279.747Z" transform="translate(-192.722 -158.77)" fill="#fff"/>
      <path id="Path_3164" data-name="Path 3164" d="M281.036,267.81a6.61,6.61,0,0,1-4.286.741,9.856,9.856,0,0,1,2.135-.41,10.115,10.115,0,0,1,2.151-.331Z" transform="translate(-194.871 -156.311)" fill="#fff"/>
      <path id="Path_3165" data-name="Path 3165" d="M251.3,279.525a7.572,7.572,0,0,1-3.356.488,7.7,7.7,0,0,1-3.34-.63c0-.118,1.5.189,3.348.221S251.273,279.406,251.3,279.525Z" transform="translate(-188.05 -158.76)" fill="#fff"/>
      <path id="Path_3166" data-name="Path 3166" d="M235.98,281.265a25.882,25.882,0,0,1-6.5,0,25.882,25.882,0,0,1,6.5,0Z" transform="translate(-184.842 -159.122)" fill="#fff"/>
      <path id="Path_3167" data-name="Path 3167" d="M225.268,287.051a16.741,16.741,0,0,1-5.168-.15,8.156,8.156,0,0,1,2.592-.134A7.981,7.981,0,0,1,225.268,287.051Z" transform="translate(-182.853 -160.322)" fill="#fff"/>
      <path id="Path_3168" data-name="Path 3168" d="M248.07,289.117a20.6,20.6,0,0,1-4.144.063,21.54,21.54,0,0,1-4.136-.347,41.94,41.94,0,0,1,8.28.284Z" transform="translate(-187.03 -160.742)" fill="#fff"/>
      <path id="Path_3169" data-name="Path 3169" d="M268.98,286.066a30.72,30.72,0,0,1-3.616-.087,31.584,31.584,0,0,1-3.624-.11,10.888,10.888,0,0,1,3.632-.3A11.093,11.093,0,0,1,268.98,286.066Z" transform="translate(-191.686 -160.07)" fill="#fff"/>
      <path id="Path_3170" data-name="Path 3170" d="M283.76,290.455a31.13,31.13,0,0,1-3.687.236,30.584,30.584,0,0,1-3.7.2A17.561,17.561,0,0,1,283.76,290.455Z" transform="translate(-194.79 -161.071)" fill="#fff"/>
      <path id="Path_3171" data-name="Path 3171" d="M214.245,281.674c0,.11-.591.3-1.371.418s-1.418.134-1.434,0,.6-.3,1.371-.425S214.245,281.556,214.245,281.674Z" transform="translate(-181.015 -159.232)" fill="#fff"/>
      <path id="Path_3172" data-name="Path 3172" d="M215.806,251.468a3.613,3.613,0,0,1-1.678.355,3.7,3.7,0,0,1-1.717-.055,7.162,7.162,0,0,1,3.4-.3Z" transform="translate(-181.221 -152.826)" fill="#fff"/>
      <path id="Path_3173" data-name="Path 3173" d="M229.7,229.366a3.774,3.774,0,0,1-1.725,0c-.938-.126-1.686-.315-1.67-.433a3.774,3.774,0,0,1,1.725,0C228.963,229.059,229.711,229.248,229.7,229.366Z" transform="translate(-184.168 -148.042)" fill="#fff"/>
      <path id="Path_3174" data-name="Path 3174" d="M280.689,227.33a18.906,18.906,0,0,1-3.813.859,18.609,18.609,0,0,1-3.876.457,19.177,19.177,0,0,1,3.813-.867,18.264,18.264,0,0,1,3.876-.449Z" transform="translate(-194.075 -147.723)" fill="#fff"/>
      <g id="Group_1195" data-name="Group 1195" transform="translate(28.573 131.645)" opacity="0.3">
        <path id="Path_3175" data-name="Path 3175" d="M209.09,293.388c1.15,1.914,3.553,2.7,5.791,2.828s4.483-.26,6.7,0c3.482.425,6.586,2.411,10,3.27,7.76,1.938,15.757-2.2,23.73-2.23,2.718,0,5.42.457,8.138.567a14.4,14.4,0,0,0,7.879-1.528l-.2-2.915Z" transform="translate(-209.09 -293.38)"/>
      </g>
      <rect id="Rectangle_897" data-name="Rectangle 897" width="46.105" height="11.085" transform="translate(37.988 172.763)" fill="#455a64"/>
      <path id="Path_3176" data-name="Path 3176" d="M219.29,359.64l-23.47,91.044h5.058l25.739-91.044Z" transform="translate(-177.702 -175.792)" fill="#455a64"/>
      <path id="Path_3177" data-name="Path 3177" d="M271.447,359.64l23.643,91.044h-5.058L264.12,359.64Z" transform="translate(-192.191 -175.792)" fill="#455a64"/>
      <path id="Path_3178" data-name="Path 3178" d="M255.954,360c.071.087-6.736,6.2-15.213,13.653S225.331,387.086,225.26,387s6.736-6.193,15.213-13.653S255.876,359.921,255.954,360Z" transform="translate(-183.947 -175.868)" fill="#263238"/>
      <path id="Path_3179" data-name="Path 3179" d="M269.238,387.188c-.071.095-8.052-6.043-17.829-13.693s-17.64-13.921-17.569-14.016,8.044,6.043,17.821,13.693S269.3,387.1,269.238,387.188Z" transform="translate(-185.767 -175.758)" fill="#263238"/>
      <path id="Path_3180" data-name="Path 3180" d="M267.17,359.593c0,.11-10.069.2-22.485.2s-22.485-.095-22.485-.2,10.069-.213,22.485-.213S267.17,359.475,267.17,359.593Z" transform="translate(-183.298 -175.737)" fill="#263238"/>
      <path id="Path_3181" data-name="Path 3181" d="M251.814,434l-9.454,15.119,28.788,18.121c1.576-2.852-9.848-17.758-9.848-17.758l4.57-6.713Z" transform="translate(-187.575 -191.568)" fill="#79254a"/>
      <g id="Group_1196" data-name="Group 1196" transform="translate(54.761 242.432)" opacity="0.3">
        <path id="Path_3182" data-name="Path 3182" d="M251.745,434l-9.415,15.119,28.8,18.121c1.576-2.852-9.856-17.758-9.856-17.758l4.57-6.713Z" transform="translate(-242.33 -434)"/>
      </g>
      <path id="Path_3183" data-name="Path 3183" d="M255.614,444.987a1.387,1.387,0,0,0-1.631.788,1.339,1.339,0,0,0,.788,1.654,1.473,1.473,0,0,0,1.749-.89,1.379,1.379,0,0,0-1.04-1.552" transform="translate(-190.027 -193.889)" fill="#fff"/>
      <path id="Path_3184" data-name="Path 3184" d="M242.4,452.454l1.45-2.364,27.023,18.5s.922,1.371.2,2.174Z" transform="translate(-187.583 -194.981)" fill="#fff"/>
      <path id="Path_3185" data-name="Path 3185" d="M266.1,453.67c-.095.134-.835-.244-1.812-.228s-1.717.378-1.812.236.63-.788,1.812-.788S266.212,453.56,266.1,453.67Z" transform="translate(-191.841 -195.575)" fill="#263238"/>
      <path id="Path_3186" data-name="Path 3186" d="M269.054,457.781c-.055.15-.788,0-1.67.3s-1.387.843-1.521.748.276-.953,1.339-1.292S269.117,457.639,269.054,457.781Z" transform="translate(-192.556 -196.535)" fill="#263238"/>
      <path id="Path_3187" data-name="Path 3187" d="M269.19,463.339c-.142-.047.1-.875.945-1.418s1.7-.433,1.686-.276-.678.307-1.371.788S269.34,463.418,269.19,463.339Z" transform="translate(-193.259 -197.405)" fill="#263238"/>
      <path id="Path_3188" data-name="Path 3188" d="M268.645,448.87c-.142.087-.662-.512-1.489-.961s-1.576-.583-1.576-.748.914-.3,1.883.244S268.787,448.8,268.645,448.87Z" transform="translate(-192.501 -194.329)" fill="#263238"/>
      <path id="Path_3189" data-name="Path 3189" d="M251.942,434.24l9.383,14.607-28.536,18.538c-1.576-2.836,9.6-17.9,9.6-17.9l-4.412-6.3Z" transform="translate(-185.512 -191.619)" fill="#79254a"/>
      <g id="Group_1197" data-name="Group 1197" transform="translate(63.988 250.843)" opacity="0.6">
        <path id="Path_3190" data-name="Path 3190" d="M254.954,444.734a1.379,1.379,0,0,1,1.67.788,1.339,1.339,0,0,1-.788,1.662,1.465,1.465,0,0,1-1.765-.867,1.394,1.394,0,0,1,1.008-1.639" transform="translate(-254.041 -444.675)" fill="#fff"/>
      </g>
      <g id="Group_1198" data-name="Group 1198" transform="translate(47.049 254.77)" opacity="0.6">
        <path id="Path_3191" data-name="Path 3191" d="M261.265,452.024l-1.481-2.364L233,468.568s-.9,1.387-.173,2.182Z" transform="translate(-232.541 -449.66)" fill="#fff"/>
      </g>
      <path id="Path_3192" data-name="Path 3192" d="M244.307,453.567c.095.134.835-.252,1.812-.252s1.717.355,1.812.213-.638-.788-1.82-.788S244.2,453.457,244.307,453.567Z" transform="translate(-187.986 -195.544)" fill="#263238"/>
      <path id="Path_3193" data-name="Path 3193" d="M241.529,457.726c.055.158.788,0,1.67.284s1.4.788,1.536.717-.292-.938-1.363-1.268S241.45,457.593,241.529,457.726Z" transform="translate(-187.398 -196.52)" fill="#263238"/>
      <path id="Path_3194" data-name="Path 3194" d="M241.615,463.3c.15-.055-.11-.874-.969-1.41s-1.7-.41-1.686-.252.685.3,1.379.748S241.465,463.367,241.615,463.3Z" transform="translate(-186.854 -197.401)" fill="#263238"/>
      <path id="Path_3195" data-name="Path 3195" d="M241.852,448.8c.142.095.654-.52,1.473-.977s1.576-.607,1.576-.788-.914-.284-1.875.276S241.71,448.733,241.852,448.8Z" transform="translate(-187.461 -194.302)" fill="#263238"/>
      <path id="Path_3196" data-name="Path 3196" d="M203.237,302.72s-25.022,24.715-19.791,42.4c4.168,13.976,40.393,72.592,40.393,72.592l21.753-14.229-28.307-52.723a42.717,42.717,0,0,0-1.576-7.611l1.576-2.1s9.383-4.443,17.262-3.939l.7-34.145Z" transform="translate(-174.924 -163.717)" fill="#263238"/>
      <path id="Path_3197" data-name="Path 3197" d="M248.254,337.187s14.654,3.632,17.727,3.632c1.938,0,.874,5.8,1.922,8.162v.512l-20.563,54.48,21.217,12.519s16.033-40.362,19.452-47.184,8.911-22.7,11.03-27.417-.788-12.881-4.459-19.972S279.35,303.01,279.35,303.01h-30.4Z" transform="translate(-188.632 -163.778)" fill="#263238"/>
      <path id="Path_3198" data-name="Path 3198" d="M296.383,334.366a27.057,27.057,0,0,0-3.939-.969,16.246,16.246,0,0,0-16.435,7.815,27.574,27.574,0,0,0-1.71,3.632,4.348,4.348,0,0,1,.26-1.056,14.078,14.078,0,0,1,1.205-2.726,15.954,15.954,0,0,1,16.726-7.949,14.271,14.271,0,0,1,2.868.788A4.869,4.869,0,0,1,296.383,334.366Z" transform="translate(-194.351 -170.113)" fill="#455a64"/>
      <path id="Path_3199" data-name="Path 3199" d="M283.912,351a14.721,14.721,0,0,1-1.788,1.056,35.158,35.158,0,0,0-4.12,2.781,34.424,34.424,0,0,0-3.671,3.348,16.472,16.472,0,0,1-1.442,1.489,7.88,7.88,0,0,1,1.229-1.686,25.734,25.734,0,0,1,3.632-3.474,25.214,25.214,0,0,1,4.231-2.71,8.32,8.32,0,0,1,1.93-.8Z" transform="translate(-194.052 -173.959)" fill="#455a64"/>
      <path id="Path_3200" data-name="Path 3200" d="M221.191,348.818c-.071.047-.788-1.079-2.214-2.6a20.386,20.386,0,0,0-2.789-2.427,20.98,20.98,0,0,0-8.217-3.6,22.062,22.062,0,0,0-3.671-.441c-2.1-.071-3.411.126-3.419.047a3.451,3.451,0,0,1,.906-.181,8.836,8.836,0,0,1,1.079-.11c.425,0,.906-.071,1.442-.047a20.485,20.485,0,0,1,3.734.355,22.187,22.187,0,0,1,4.4,1.363,21.55,21.55,0,0,1,3.939,2.308,19.469,19.469,0,0,1,2.773,2.529c.37.386.646.788.914,1.119a8.034,8.034,0,0,1,.63.882,4.147,4.147,0,0,1,.5.8Z" transform="translate(-178.775 -171.51)" fill="#455a64"/>
      <path id="Path_3201" data-name="Path 3201" d="M225.209,348.243a17.479,17.479,0,0,1-.433-1.836,22.6,22.6,0,0,0-1.576-4.231,44.061,44.061,0,0,0-3.38-5.436,6.768,6.768,0,0,1,1.308,1.371,20.484,20.484,0,0,1,2.442,3.884,17.569,17.569,0,0,1,1.458,4.357,5.658,5.658,0,0,1,.181,1.891Z" transform="translate(-182.793 -170.934)" fill="#455a64"/>
      <path id="Path_3202" data-name="Path 3202" d="M230.947,426.835l.095-.079.284-.2,1.142-.788,4.357-2.907,15.592-10.281-.055.229L240.354,390.09c-6.256-11.912-11.944-22.761-16.182-30.821v-.039q-.788-3.853-1.458-6.862h0a11.093,11.093,0,0,0-4.254-5.476,12.993,12.993,0,0,0-1.647-.914l-.441-.189c-.095-.047-.15-.071-.142-.079a8.744,8.744,0,0,1,2.293,1.079,11.03,11.03,0,0,1,4.412,5.515h0l1.513,6.846v-.039l16.277,30.766,11.96,22.745.071.142-.134.087-15.678,10.163-4.412,2.828-1.166.733-.3.181Z" transform="translate(-182.031 -172.837)" fill="#455a64"/>
      <path id="Path_3203" data-name="Path 3203" d="M242.8,335.219c0,.079-1.135,0-2.954.1a34.76,34.76,0,0,0-7.012,1.158,29.323,29.323,0,0,0-6.594,2.624c-1.576.89-2.45,1.631-2.5,1.576a3.237,3.237,0,0,1,.575-.552,6.772,6.772,0,0,1,.741-.583,10.841,10.841,0,0,1,1.04-.685,25.211,25.211,0,0,1,6.626-2.765,29.936,29.936,0,0,1,7.091-1.056,16.944,16.944,0,0,1,2.182.071,3.018,3.018,0,0,1,.8.11Z" transform="translate(-183.625 -170.571)" fill="#455a64"/>
      <path id="Path_3204" data-name="Path 3204" d="M243.733,325.838a2.86,2.86,0,0,1-.41-.741l-.985-2.072a31.939,31.939,0,0,0-3.868-6.429,14.5,14.5,0,0,0-5.933-4.412,17.169,17.169,0,0,0-3.017-.733,2.844,2.844,0,0,1,.851,0,9.288,9.288,0,0,1,2.269.473,13.96,13.96,0,0,1,6.145,4.428,27.756,27.756,0,0,1,3.821,6.571c.386.89.678,1.623.867,2.127A3.876,3.876,0,0,1,243.733,325.838Z" transform="translate(-184.851 -165.562)" fill="#455a64"/>
      <path id="Path_3205" data-name="Path 3205" d="M266.842,314.235c0,.087-1.15.142-2.939.622a19.146,19.146,0,0,0-3.033,1.127,18.8,18.8,0,0,0-6.24,4.79,18.61,18.61,0,0,0-1.867,2.631c-.93,1.576-1.284,2.7-1.363,2.679a3.324,3.324,0,0,1,.221-.788,5.989,5.989,0,0,1,.339-.89c.158-.339.315-.733.551-1.142a16.915,16.915,0,0,1,1.836-2.734,17.491,17.491,0,0,1,6.366-4.885,16.453,16.453,0,0,1,3.151-1.064,11.674,11.674,0,0,1,1.245-.236,5.806,5.806,0,0,1,.945-.1A3.466,3.466,0,0,1,266.842,314.235Z" transform="translate(-189.493 -166.156)" fill="#455a64"/>
      <path id="Path_3206" data-name="Path 3206" d="M270.316,342.044c-.063.055-.835-.788-2.364-1.8a28.535,28.535,0,0,0-6.531-3.017,33.879,33.879,0,0,0-7.035-1.576l-1.237-.087h-.961a3.363,3.363,0,0,1-.788,0,2.827,2.827,0,0,1,.788-.189c.26,0,.583-.047.953-.071H254.4a29.762,29.762,0,0,1,7.146,1.481,25.485,25.485,0,0,1,6.563,3.151,9.667,9.667,0,0,1,1,.788,5.753,5.753,0,0,1,.693.646A3.491,3.491,0,0,1,270.316,342.044Z" transform="translate(-189.493 -170.629)" fill="#455a64"/>
      <path id="Path_3207" data-name="Path 3207" d="M275.848,350.864c0,.039-.284-.11-.567-.473a3.4,3.4,0,0,1-.362-3.419c.2-.418.418-.607.457-.583a6.941,6.941,0,0,0-.331,2.3A6.7,6.7,0,0,0,275.848,350.864Z" transform="translate(-194.418 -172.981)" fill="#455a64"/>
      <path id="Path_3208" data-name="Path 3208" d="M274.721,356.576c-.047,0-.221-.173-.386-.567a3.474,3.474,0,0,1,.41-3.151c.252-.339.481-.488.512-.449a9.455,9.455,0,0,0-.7,2.033,9.281,9.281,0,0,0,.165,2.135Z" transform="translate(-194.315 -174.257)" fill="#455a64"/>
      <path id="Path_3209" data-name="Path 3209" d="M248.627,329.28a54.881,54.881,0,0,1,.118,6.768,55.519,55.519,0,0,1-.3,6.76,56.011,56.011,0,0,1-.11-6.768,56.45,56.45,0,0,1,.292-6.76Z" transform="translate(-188.831 -169.351)" fill="#455a64"/>
      <path id="Path_3210" data-name="Path 3210" d="M263.792,157.346a2.094,2.094,0,0,1-2.726-1.19,4.8,4.8,0,0,1,.095-3.277,13.663,13.663,0,0,0,.875-3.222,4.727,4.727,0,0,0-3.191-4.672,4.451,4.451,0,0,0,.307-6.405,17.5,17.5,0,0,0-2.844-1.828,9.773,9.773,0,0,1-1.5-1.229,6.09,6.09,0,0,0,2.584.087,4.183,4.183,0,0,0,3.033-2.663,3.79,3.79,0,0,0-.914-3.884,3.466,3.466,0,0,0-3.939-.575,6.537,6.537,0,0,0-2.49,3.23c-.189.386-.37.788-.552,1.158-1.725-2.285-3.348-4.64-6.011-5.444-2.411-.733-5,.079-7.516-.1-1.828-.134-3.585-.788-5.413-.993s-3.939.189-4.971,1.678c-.638.867-.835,2-1.473,2.868-1.324,1.788-4.168,2.033-5.255,3.939-.882,1.576-.2,3.569-.583,5.342-.41,1.922-1.993,3.325-3.293,4.8s-2.427,3.506-1.7,5.334c.638,1.576,2.513,2.474,3.151,4.089.441,1.182.118,2.5.095,3.758s.488,2.757,1.717,3.041l13.984,3.7c4.822,1.962,9.793,3.939,14.969,3.939s10.746-2.5,12.8-7.28a2.986,2.986,0,0,1-2.009-.9,5.026,5.026,0,0,0,2.773-3.293Z" transform="translate(-182 -126.286)" fill="#263238"/>
      <path id="Path_3211" data-name="Path 3211" d="M261.456,164.313a64.438,64.438,0,0,0,2.82-10.817,22.619,22.619,0,0,0-.89-11.03c-.2-.528-1.875-4.081-2.434-4.026-.4.039.63,3.356.425,3.7a19.245,19.245,0,0,0-2.159,11.2,50.885,50.885,0,0,0,2.237,10.991" transform="translate(-191.134 -128.864)" fill="#263238"/>
      <path id="Path_3212" data-name="Path 3212" d="M241.433,193.778c5.783-.126,12.346-12.763,12.346-12.763l.378-32.483c.307-9.352-4.885-17.333-14.244-17.372l-.867.047a16.734,16.734,0,0,0-15.828,16.253c-.221,8.107-.355,17.073-.071,21.4.591,8.958,9.635,9.872,9.635,9.872s.047,2.08.079,4.727c.063,5.917,6.256,10.526,8.572,10.329Z" transform="translate(-183.465 -127.32)" fill="#ffbe9d"/>
      <path id="Path_3213" data-name="Path 3213" d="M235.42,190.443a21.658,21.658,0,0,0,11.487-4.073s-2.5,6.673-11.487,6.3Z" transform="translate(-186.103 -139.033)" fill="#eb996e"/>
      <path id="Path_3214" data-name="Path 3214" d="M228.19,160.451a1.292,1.292,0,0,0,1.308,1.229,1.229,1.229,0,0,0,1.253-1.229,1.268,1.268,0,0,0-1.3-1.221,1.229,1.229,0,0,0-1.261,1.221Z" transform="translate(-184.569 -133.275)" fill="#263238"/>
      <path id="Path_3215" data-name="Path 3215" d="M225.989,156.041c.165.165,1.1-.607,2.474-.678s2.427.567,2.568.386-.11-.37-.567-.67a3.506,3.506,0,0,0-2.064-.512,3.34,3.34,0,0,0-1.962.788C225.989,155.695,225.879,155.97,225.989,156.041Z" transform="translate(-184.094 -132.285)" fill="#263238"/>
      <path id="Path_3216" data-name="Path 3216" d="M244,160.031a1.276,1.276,0,0,0,1.3,1.229,1.229,1.229,0,0,0,1.261-1.229,1.284,1.284,0,0,0-1.3-1.221A1.221,1.221,0,0,0,244,160.031Z" transform="translate(-187.923 -133.186)" fill="#263238"/>
      <path id="Path_3217" data-name="Path 3217" d="M243.122,155.831c.173.158,1.1-.607,2.482-.678s2.427.559,2.568.386-.11-.37-.567-.67a3.506,3.506,0,0,0-2.064-.512,3.341,3.341,0,0,0-1.962.748C243.169,155.453,243.019,155.76,243.122,155.831Z" transform="translate(-187.73 -132.24)" fill="#263238"/>
      <path id="Path_3218" data-name="Path 3218" d="M236.617,166.9a9.084,9.084,0,0,0-2.261-.284c-.347,0-.685-.071-.788-.307a1.725,1.725,0,0,1,.173-1.056c.292-.867.583-1.781.9-2.734a45.523,45.523,0,0,0,1.962-7.138,46.129,46.129,0,0,0-2.529,6.965q-.449,1.434-.851,2.742a2.08,2.08,0,0,0-.11,1.395.875.875,0,0,0,.607.481,2.088,2.088,0,0,0,.6.055,8.981,8.981,0,0,0,2.3-.118Z" transform="translate(-185.597 -132.458)" fill="#263238"/>
      <path id="Path_3219" data-name="Path 3219" d="M241.661,170.94c-.221,0-.142,1.5-1.371,2.624s-2.82,1.056-2.82,1.261.37.276,1.04.26a3.782,3.782,0,0,0,2.364-.969,3.238,3.238,0,0,0,1.056-2.2C241.953,171.287,241.764,170.924,241.661,170.94Z" transform="translate(-186.538 -135.759)" fill="#263238"/>
      <path id="Path_3220" data-name="Path 3220" d="M242.847,148.811c.158.37,1.521.118,3.151.228s2.954.473,3.151.126c.087-.165-.158-.5-.7-.835a5.192,5.192,0,0,0-2.364-.693,5.279,5.279,0,0,0-2.434.418C243.06,148.33,242.776,148.637,242.847,148.811Z" transform="translate(-187.676 -130.813)" fill="#263238"/>
      <path id="Path_3221" data-name="Path 3221" d="M226.368,150.171c.26.3,1.19-.071,2.364-.15s2.119.095,2.324-.244c.087-.165-.079-.465-.52-.741a3.4,3.4,0,0,0-3.75.315C226.368,149.706,226.25,150.029,226.368,150.171Z" transform="translate(-184.173 -131.023)" fill="#263238"/>
      <path id="Path_3222" data-name="Path 3222" d="M262.07,161.583c.15-.079,6.066-2.151,6.2,3.987s-6.059,5-6.074,4.83S262.07,161.583,262.07,161.583Z" transform="translate(-191.756 -133.69)" fill="#ffbe9d"/>
      <path id="Path_3223" data-name="Path 3223" d="M264.539,168.58a2.248,2.248,0,0,0,.292.15,1.071,1.071,0,0,0,.788,0,2.621,2.621,0,0,0,1.174-2.364,3.593,3.593,0,0,0-.331-1.521,1.253,1.253,0,0,0-.827-.788.552.552,0,0,0-.622.307c-.079.173-.039.3-.071.307s-.134-.095-.087-.355a.669.669,0,0,1,.228-.386.788.788,0,0,1,.591-.173,1.5,1.5,0,0,1,1.135.93,3.529,3.529,0,0,1,.457,1.623,2.761,2.761,0,0,1-1.5,2.687,1.119,1.119,0,0,1-.977-.142C264.555,168.73,264.523,168.588,264.539,168.58Z" transform="translate(-192.28 -134.235)" fill="#eb996e"/>
      <path id="Path_3224" data-name="Path 3224" d="M228.106,136.941c-1-.536,1.938-3.79,4.365-4.932,3.671-1.717,9.3-2.82,12.716-1.9,4.113,1.111,7.54,3.1,9.643,6.807a24.1,24.1,0,0,1,2.868,12.3,7.287,7.287,0,0,1-.788,3.758c-.843,1.371-2.482,2.245-2.364,4.12a2.576,2.576,0,0,1-.615,1.883c-1.111,1.205-2.5.1-3.151-1.016-1.379-2.364-1.576-5.255-1.725-8.012a17.955,17.955,0,0,1,.315-5.846c.284-1.024.788-2,.985-3.041a3.64,3.64,0,0,0-.473-3.057,3.349,3.349,0,0,0-.5-.5,6.405,6.405,0,0,0-6.366-1.134c-3.443,1.268-9.328,3.151-10.888,2.017a9.4,9.4,0,0,1-2.781-2.75Z" transform="translate(-184.508 -127.027)" fill="#263238"/>
      <path id="Path_3225" data-name="Path 3225" d="M245.6,128.947a13.472,13.472,0,0,0-10.36.709,7.02,7.02,0,0,0-3.656,4.12,3.988,3.988,0,0,0,2.08,4.727l.118.079c2.631.843,4.333.473,6.933-.465,2.19-.788,4.12-2.174,6.3-2.947a12.393,12.393,0,0,1,7.3-.307,20.3,20.3,0,0,0-8.714-5.917Z" transform="translate(-185.259 -126.699)" fill="#263238"/>
      <path id="Path_3226" data-name="Path 3226" d="M261.094,136.03c-.055.047-.551-.544-1.576-1.229a8.942,8.942,0,0,0-1.867-1,5.735,5.735,0,0,0-2.5-.418,8.375,8.375,0,0,0-4.278,1.765c-.953.788-1.395,1.387-1.45,1.339s.063-.189.268-.473a6.6,6.6,0,0,1,.993-1.087,7.957,7.957,0,0,1,4.467-1.93,5.822,5.822,0,0,1,2.671.473,8.326,8.326,0,0,1,1.9,1.1A4.727,4.727,0,0,1,261.094,136.03Z" transform="translate(-189.071 -127.708)" fill="#455a64"/>
      <path id="Path_3227" data-name="Path 3227" d="M262.878,139.61a4.971,4.971,0,0,1-.465,1.757,12.724,12.724,0,0,1-5.728,6.452A5.224,5.224,0,0,1,255,148.5,15.836,15.836,0,0,0,262.878,139.61Z" transform="translate(-190.257 -129.113)" fill="#455a64"/>
      <path id="Path_3228" data-name="Path 3228" d="M265.288,140.88a2.261,2.261,0,0,1,0,.693,11.821,11.821,0,0,1-.268,1.891,12.834,12.834,0,0,1-7.981,9.155,11.5,11.5,0,0,1-1.836.52,2.183,2.183,0,0,1-.693.071c0-.071.961-.244,2.419-.867a13.5,13.5,0,0,0,7.808-8.95C265.177,141.865,265.209,140.872,265.288,140.88Z" transform="translate(-190.153 -129.382)" fill="#455a64"/>
      <path id="Path_3229" data-name="Path 3229" d="M238.11,128.43a15.068,15.068,0,0,1-1.631.615,13.708,13.708,0,0,0-3.553,2.1,13.393,13.393,0,0,0-2.742,3.088c-.583.9-.851,1.5-.914,1.481a4.609,4.609,0,0,1,.662-1.631,11.55,11.55,0,0,1,2.734-3.254,11.424,11.424,0,0,1,3.719-2.056,4.893,4.893,0,0,1,1.725-.347Z" transform="translate(-184.798 -126.741)" fill="#455a64"/>
      <path id="Path_3230" data-name="Path 3230" d="M269.372,129.41a5.862,5.862,0,0,1-1.576,3.419,5.925,5.925,0,0,1-3.1,2.127,17.46,17.46,0,0,0,2.789-2.364,16.838,16.838,0,0,0,1.883-3.183Z" transform="translate(-192.314 -126.949)" fill="#455a64"/>
      <path id="Path_3231" data-name="Path 3231" d="M182.417,242.85l-8.32,16.663a12.157,12.157,0,0,0-1.261,6h0a12.125,12.125,0,0,0,12.109,11.534l23.754-1.379,1.04-10.841-18.073-4.357,6.846-12.952Z" transform="translate(-172.823 -151.015)" fill="#ffbe9d"/>
      <path id="Path_3232" data-name="Path 3232" d="M213.109,269.761h4.648s10.494-3.79,12.653-3.427c1.946.323,9.06,5.05,10.455,5.988a.93.93,0,0,1,.339.433h0a1.528,1.528,0,0,1-.851,1.938l-.15.055.063.213a2.553,2.553,0,0,1,.11.851,1.024,1.024,0,0,1-1.907.441l.268.481a1.2,1.2,0,0,1,.15.638v.433a1.166,1.166,0,0,1-.788,1.04h0a1.158,1.158,0,0,1-1.221-.315c-.906-.993-2.852-2.986-4.176-3.207a31.465,31.465,0,0,0-4.3-.213,1.442,1.442,0,0,0-1.355.93h0c.788.055,6.232,2.9,8.162,3.939a2.04,2.04,0,0,1,1.119,1.576c.071.6-.228,1.237-1.426.953a53.006,53.006,0,0,1-7.177-2.718s-2.364-.678-3.939.41c-2.167,1.528-3.151,2.088-5.026,1.473a15.993,15.993,0,0,1-3.23-1.5l-3.671-.362S208.367,271.092,213.109,269.761Z" transform="translate(-180.841 -155.992)" fill="#ffbe9d"/>
      <path id="Path_3233" data-name="Path 3233" d="M231.37,272.819a19.84,19.84,0,0,1,1.97-.276,10.2,10.2,0,0,1,8.485,3.624c.788.938,1.127,1.631,1.166,1.615a2.973,2.973,0,0,0-.236-.488,8.357,8.357,0,0,0-.788-1.213,9.84,9.84,0,0,0-8.6-3.671,8.1,8.1,0,0,0-1.45.244A2.361,2.361,0,0,0,231.37,272.819Z" transform="translate(-185.243 -157.277)" fill="#eb996e"/>
      <path id="Path_3234" data-name="Path 3234" d="M232.78,269.573a8.243,8.243,0,0,1,2.048-.362,8.927,8.927,0,0,1,4.774,1.355,19.254,19.254,0,0,1,3.845,3.254l1.056,1.119a2.527,2.527,0,0,0,.4.394,3.308,3.308,0,0,0-.347-.449c-.228-.276-.567-.678-1.008-1.158a17.64,17.64,0,0,0-3.845-3.333,8.792,8.792,0,0,0-4.885-1.324,5.871,5.871,0,0,0-1.521.284c-.173.047-.3.118-.394.15S232.772,269.565,232.78,269.573Z" transform="translate(-185.542 -156.577)" fill="#eb996e"/>
      <path id="Path_3235" data-name="Path 3235" d="M193.178,265.061c0,.071-.827-.063-2.135-.055a16.546,16.546,0,0,0-5.011.89,15.072,15.072,0,0,0-4.491,2.364c-1.024.788-1.513,1.473-1.576,1.434s.087-.2.3-.5a7.547,7.547,0,0,1,1.087-1.15,13.488,13.488,0,0,1,4.538-2.553,14.394,14.394,0,0,1,5.145-.788,10.156,10.156,0,0,1,1.576.181,1.955,1.955,0,0,1,.567.181Z" transform="translate(-174.335 -155.649)" fill="#eb996e"/>
      <path id="Path_3236" data-name="Path 3236" d="M306.313,239.21s5.192,14.969,10.794,28.827a6.485,6.485,0,0,1,.268.867,6.082,6.082,0,0,1-6.027,7.272H278.62V265.642l20.153-4.278-7.3-16.2Z" transform="translate(-195.268 -150.243)" fill="#ffbe9d"/>
      <path id="Path_3237" data-name="Path 3237" d="M279.679,270.181h-4.648s-10.494-3.79-12.653-3.427c-1.946.323-9.06,5.05-10.455,5.988a.859.859,0,0,0-.339.425h0a1.528,1.528,0,0,0,.851,1.938l.15.063-.071.213a2.529,2.529,0,0,0-.1.851,1.024,1.024,0,0,0,1.907.441l-.268.473a1.142,1.142,0,0,0-.15.638v.433a1.166,1.166,0,0,0,.788,1.048h0a1.166,1.166,0,0,0,1.221-.323c.906-.993,2.852-2.978,4.168-3.2a30.321,30.321,0,0,1,4.31-.213,1.457,1.457,0,0,1,1.355.93h0c-.788.055-6.232,2.9-8.162,3.939a2.064,2.064,0,0,0-1.127,1.576c-.071.607.236,1.237,1.434.961a53.006,53.006,0,0,0,7.177-2.718s2.364-.685,3.939.4c2.174,1.536,3.151,2.1,5.026,1.473a15.686,15.686,0,0,0,3.238-1.5l3.671-.37S284.422,271.512,279.679,270.181Z" transform="translate(-189.512 -156.081)" fill="#ffbe9d"/>
      <path id="Path_3238" data-name="Path 3238" d="M266.551,273.229a19.84,19.84,0,0,0-1.97-.276,10.171,10.171,0,0,0-8.485,3.624c-.788.938-1.127,1.631-1.166,1.576a2.363,2.363,0,0,1,.236-.481,8.614,8.614,0,0,1,.788-1.221,9.919,9.919,0,0,1,8.6-3.671,8.748,8.748,0,0,1,1.45.252A2.041,2.041,0,0,1,266.551,273.229Z" transform="translate(-190.242 -157.357)" fill="#eb996e"/>
      <path id="Path_3239" data-name="Path 3239" d="M265.005,269.985a8.664,8.664,0,0,0-2.056-.355,8.974,8.974,0,0,0-4.766,1.347,19.334,19.334,0,0,0-3.853,3.254l-1.048,1.127a4,4,0,0,1-.4.394,2.781,2.781,0,0,1,.339-.449c.236-.276.575-.678,1.008-1.166a17.7,17.7,0,0,1,3.853-3.325,8.714,8.714,0,0,1,4.877-1.324,5.617,5.617,0,0,1,1.528.284,2.366,2.366,0,0,1,.386.15Z" transform="translate(-189.807 -156.666)" fill="#eb996e"/>
      <path id="Path_3240" data-name="Path 3240" d="M316.819,270.268c-.039.055-.678-.449-1.8-1.087a16.742,16.742,0,0,0-9.667-2.19c-1.292.095-2.08.276-2.1.2a1.647,1.647,0,0,1,.536-.2,10.866,10.866,0,0,1,1.528-.3,14.843,14.843,0,0,1,9.848,2.23,10.517,10.517,0,0,1,1.253.93C316.693,270.1,316.843,270.244,316.819,270.268Z" transform="translate(-200.495 -156.051)" fill="#eb996e"/>
    </g>
    <g id="freepik--Desk--inject-4" transform="translate(62.288 199.136)">
      <rect id="Rectangle_898" data-name="Rectangle 898" width="277.938" height="5.302" transform="translate(0 38.833)" fill="#455a64"/>
      <path id="Path_3241" data-name="Path 3241" d="M86.765,436.6H82.96V292.93H91.1Z" transform="translate(-75.475 -249.149)" fill="#455a64"/>
      <path id="Path_3242" data-name="Path 3242" d="M148.9,436.559h-3.8V293.06h8.138Z" transform="translate(-88.658 -249.177)" fill="#263238"/>
      <path id="Path_3243" data-name="Path 3243" d="M351.315,436.406H347.51V293.08h8.138Z" transform="translate(-131.6 -249.181)" fill="#263238"/>
      <path id="Path_3244" data-name="Path 3244" d="M403.325,436.546H399.52V293h8.138Z" transform="translate(-142.634 -249.164)" fill="#455a64"/>
      <path id="Path_3245" data-name="Path 3245" d="M264.644,276.138H215.837a2.6,2.6,0,0,1-2.592-2.474l-1.465-33.6a2.592,2.592,0,0,1,2.592-2.7h51.644a2.6,2.6,0,0,1,2.592,2.694l-1.371,33.6A2.584,2.584,0,0,1,264.644,276.138Z" transform="translate(-102.804 -237.36)" fill="#e0e0e0"/>
      <path id="Path_3246" data-name="Path 3246" d="M249.792,262a2.671,2.671,0,1,1-2.671-2.671A2.671,2.671,0,0,1,249.792,262Z" transform="translate(-109.736 -242.021)" fill="#fff"/>
    </g>
    <g id="freepik--Lamp--inject-4" transform="translate(237.238 128.49)">
      <path id="Path_3247" data-name="Path 3247" d="M393.866,210.731a2.025,2.025,0,1,1,4,.607L389,265.5H384.94Z" transform="translate(-314.49 -160.687)" fill="#263238"/>
      <path id="Path_3248" data-name="Path 3248" d="M389.888,201.24,353.3,161.06l-.268.441-1.773,2.939,35.627,39.534a2.025,2.025,0,1,0,3-2.718Z" transform="translate(-307.345 -150.526)" fill="#263238"/>
      <path id="Path_3249" data-name="Path 3249" d="M396.867,213.073a.386.386,0,0,1-.047-.252.922.922,0,0,1,.331-.622,1.087,1.087,0,0,1,1.064-.2,1.135,1.135,0,0,1,0,2.151,1.111,1.111,0,0,1-1.064-.2.922.922,0,0,1-.331-.622c0-.165,0-.252.047-.252a1.424,1.424,0,0,0,.465.646.785.785,0,1,0,0-1.292C396.961,212.7,396.961,213.089,396.867,213.073Z" transform="translate(-317.01 -161.32)" fill="#455a64"/>
      <path id="Path_3250" data-name="Path 3250" d="M397.183,209.09a5.263,5.263,0,0,1,1.1,1.008,15.146,15.146,0,0,1,1.1,1.213,2.529,2.529,0,0,1,.575,1.993,2.041,2.041,0,0,1-1.489,1.465,2.2,2.2,0,0,1-1.686-.236,2.584,2.584,0,0,1-1.079-1.056c.047-.063.433.394,1.221.788a1.914,1.914,0,0,0,1.434.134,1.694,1.694,0,0,0,1.2-1.19,2.261,2.261,0,0,0-.481-1.686c-.339-.473-.725-.882-1.008-1.237a5.461,5.461,0,0,1-.89-1.2Z" transform="translate(-316.775 -160.716)" fill="#455a64"/>
      <path id="Path_3251" data-name="Path 3251" d="M364.56,285.372h33.31s-4.254-5.3-15.339-5.3C372.2,280.07,366.049,283.1,364.56,285.372Z" transform="translate(-310.166 -175.774)" fill="#263238"/>
      <path id="Path_3252" data-name="Path 3252" d="M353.528,151.842l1.694-2.545-2.1-1.607-1.8,2.561Z" transform="translate(-307.36 -147.69)" fill="#263238"/>
      <path id="Path_3253" data-name="Path 3253" d="M349.325,153.476l-7.3-5.286-7,8.422C322.893,158.566,318,166.2,318,166.2l21.729,16.639c7.437-8.217,3.939-19.964,3.939-19.964Z" transform="translate(-300.289 -147.796)" fill="#79254a"/>
      <path id="Path_3254" data-name="Path 3254" d="M348.231,165.143a34.974,34.974,0,0,1-4.428-2.962,35.687,35.687,0,0,1-4.183-3.3,34.971,34.971,0,0,1,4.428,2.962,33.978,33.978,0,0,1,4.183,3.3Z" transform="translate(-304.875 -150.064)" fill="#263238"/>
      <path id="Path_3255" data-name="Path 3255" d="M312.3,178.4c.047.1-3.671,1.93-8.3,4.081s-8.43,3.805-8.477,3.7,3.671-1.93,8.3-4.081S312.254,178.3,312.3,178.4Z" transform="translate(-295.519 -154.204)" fill="#263238"/>
      <path id="Path_3256" data-name="Path 3256" d="M323.938,187.6c.087.079-2.781,3.151-6.389,6.862s-6.61,6.657-6.689,6.579,2.781-3.151,6.389-6.862S323.859,187.521,323.938,187.6Z" transform="translate(-298.773 -156.157)" fill="#263238"/>
      <path id="Path_3257" data-name="Path 3257" d="M334.473,210.73c-.11,0,.118-3.734.52-8.32a75.276,75.276,0,0,1,.93-8.28,82.284,82.284,0,0,1-.52,8.32C335,207.035,334.583,210.738,334.473,210.73Z" transform="translate(-303.777 -157.542)" fill="#263238"/>
    </g>
    <g id="freepik--Floor--inject-4" transform="translate(20.8 386.313)">
      <path id="Path_3258" data-name="Path 3258" d="M381.95,475.145c0,.118-80.849.2-180.567.2s-180.583-.087-180.583-.2,80.833-.2,180.583-.2S381.95,475.035,381.95,475.145Z" transform="translate(-20.8 -474.94)" fill="#263238"/>
    </g>
    <g id="freepik--Files--inject-4" transform="translate(55.01 64.508)">
      <rect id="Rectangle_899" data-name="Rectangle 899" width="21.162" height="16.915" transform="translate(66.562 0.643) rotate(-1.69)" fill="#ebebeb"/>
      <path id="Path_3259" data-name="Path 3259" d="M169.843,66.5h-.4l-1.15.047-4.325.142-15.276.473.055-.055c.15,5.034.323,10.8.512,16.907h0l-.063-.055,21.146-.615-.047.055c-.142-5.1-.26-9.32-.339-12.267,0-1.481-.063-2.639-.087-3.427v-.024c0,.788.063,1.946.11,3.419.095,2.954.228,7.185.394,12.29v.047h-.055l-21.146.63h-.063V84h0c-.181-6.106-.347-11.881-.5-16.907v-.055h.055l15.308-.418,4.317-.118h1.528Z" transform="translate(-82.125 -66.48)" fill="#263238"/>
      <rect id="Rectangle_900" data-name="Rectangle 900" width="19.673" height="14.788" transform="translate(67.326 1.693) rotate(-1.69)" fill="#79254a"/>
      <g id="Group_1199" data-name="Group 1199" transform="translate(67.761 7.075)" opacity="0.3">
        <path id="Path_3260" data-name="Path 3260" d="M150.23,84.851l6.6-9.391,4.42,5.625,2.8-3.159,5.846,6.342Z" transform="translate(-150.23 -75.46)"/>
      </g>
      <g id="Group_1200" data-name="Group 1200" transform="translate(77.239 4.193)" opacity="0.3">
        <path id="Path_3261" data-name="Path 3261" d="M165.411,73.376a1.576,1.576,0,1,1-.99-1.461A1.576,1.576,0,0,1,165.411,73.376Z" transform="translate(-162.26 -71.802)"/>
      </g>
      <rect id="Rectangle_901" data-name="Rectangle 901" width="31.971" height="25.558" transform="translate(46.65 16.786) rotate(-9.93)" fill="#ebebeb"/>
      <path id="Path_3262" data-name="Path 3262" d="M154.907,80.765h-.15l-.441.079-1.71.307-6.445,1.15-22.737,4.026.071-.095c1.316,7.492,2.821,16.08,4.42,25.172h0l-.11-.079,31.514-5.515-.063.087c-1.308-7.587-2.364-13.866-3.151-18.27-.378-2.2-.67-3.939-.875-5.105-.1-.583-.173-1.04-.228-1.347l-.071-.465a1.83,1.83,0,0,0,.087.449c.087.3.134.788.244,1.331.2,1.174.512,2.891.906,5.082l3.246,18.3v.071h-.079l-31.514,5.515h-.087v-.087h0c-1.576-9.092-3.1-17.679-4.4-25.172v-.087h.087l22.8-3.939,6.429-1.1,1.7-.292.433-.071Z" transform="translate(-76.762 -69.499)" fill="#263238"/>
      <rect id="Rectangle_902" data-name="Rectangle 902" width="29.726" height="22.343" transform="translate(48.007 18.187) rotate(-9.93)" fill="#79254a"/>
      <g id="Group_1201" data-name="Group 1201" transform="translate(51.87 24.707)" opacity="0.4">
        <path id="Path_3263" data-name="Path 3263" d="M130.06,113.313l7.831-15.473,7.831,7.453,3.5-5.326,10.116,8.217Z" transform="translate(-130.06 -97.84)"/>
      </g>
      <g id="Group_1202" data-name="Group 1202" transform="translate(63.744 19.522)" opacity="0.4">
        <path id="Path_3264" data-name="Path 3264" d="M149.818,93.19a2.364,2.364,0,1,1-2.71-1.9A2.364,2.364,0,0,1,149.818,93.19Z" transform="translate(-145.131 -91.259)"/>
      </g>
      <path id="Path_3265" data-name="Path 3265" d="M80.549,136.721l4.916,18.853a1.308,1.308,0,0,0,1.521.961l34.358-6.728a1.308,1.308,0,0,0,1.032-1.536L119.5,133.4a1.324,1.324,0,0,0-1.576-1.032l-21.1,4.27a1.316,1.316,0,0,1-.985-.189l-4.38-2.9a1.339,1.339,0,0,0-.977-.2l-8.911,1.749a1.308,1.308,0,0,0-1.024,1.615Z" transform="translate(-67.677 -80.453)" fill="#79254a"/>
      <rect id="Rectangle_903" data-name="Rectangle 903" width="38.25" height="22.856" transform="matrix(0.981, -0.192, 0.192, 0.981, 13.566, 56.75)" fill="#f5f5f5"/>
      <path id="Path_3266" data-name="Path 3266" d="M78.129,139.348,85.575,162.2a.859.859,0,0,0,.969.567l36.58-7.162a.843.843,0,0,0,.678-.93l-2.734-23.754a.843.843,0,0,0-1-.733l-41.26,8.068a.851.851,0,0,0-.678,1.1Z" transform="translate(-67.164 -79.992)" fill="#79254a"/>
      <g id="Group_1203" data-name="Group 1203" transform="translate(10.926 50.178)" opacity="0.3">
        <path id="Path_3267" data-name="Path 3267" d="M78.129,139.348,85.575,162.2a.859.859,0,0,0,.969.567l36.58-7.162a.843.843,0,0,0,.678-.93l-2.734-23.754a.843.843,0,0,0-1-.733l-41.26,8.068a.851.851,0,0,0-.678,1.1Z" transform="translate(-78.09 -130.17)"/>
      </g>
      <path id="Path_3269" data-name="Path 3269" d="M89.676,107.469a1.859,1.859,0,0,0,.961,0,1.749,1.749,0,0,0,.93-.67,2.837,2.837,0,0,0,.307-.678c.1-.252.2-.528.307-.788.875-2.316,2.127-5.633,3.663-9.73.394-1.032.788-2.1,1.221-3.222l.654-1.718a5.609,5.609,0,0,0,.292-.867,1.576,1.576,0,0,0-.118-.859,1.442,1.442,0,0,0-.583-.662,7.358,7.358,0,0,0-.9-.355l-1.907-.693-3.987-1.458L72.784,79.288a1.576,1.576,0,0,0-1.891.788l-.882,2.285-1.725,4.507c-1.087,2.97-2.222,5.814-3.262,8.525-.134.339-.26.678-.386,1.008a1.576,1.576,0,0,0-.11.961,1.45,1.45,0,0,0,.473.788,2.49,2.49,0,0,0,.882.425l3.75,1.387,6.736,2.482,9.738,3.656,2.647,1,.678.268a1.411,1.411,0,0,1,.236.1.891.891,0,0,1-.244-.071l-.693-.236-2.624-.945-9.777-3.522-6.768-2.45L65.8,98.882a2.789,2.789,0,0,1-.969-.481,1.749,1.749,0,0,1-.567-.969,1.891,1.891,0,0,1,.095-1.127c.126-.339.252-.678.386-1.016l3.238-8.517c.559-1.473,1.135-2.978,1.718-4.5.292-.788.591-1.576.89-2.308a1.859,1.859,0,0,1,2.3-.993l17.727,6.5,3.939,1.465,1.907.7a7.232,7.232,0,0,1,.945.386,1.733,1.733,0,0,1,.685.788,1.883,1.883,0,0,1,.134,1.016,5.65,5.65,0,0,1-.307.914c-.228.583-.449,1.15-.662,1.71-.433,1.119-.843,2.19-1.245,3.214l-3.758,9.691c-.11.292-.221.559-.315.788a2.986,2.986,0,0,1-.339.693,1.836,1.836,0,0,1-.993.678,1.631,1.631,0,0,1-.741,0A.694.694,0,0,1,89.676,107.469Z" transform="translate(-64.222 -69.109)" fill="#79254a"/>
    </g>
    <g id="freepik--Cloud--inject-4" transform="translate(57.585 140.867)">
      <ellipse id="Ellipse_269" data-name="Ellipse 269" cx="0.205" cy="0.985" rx="0.205" ry="0.985" transform="translate(35.508 69.512)" fill="#263238"/>
      <path id="Path_3271" data-name="Path 3271" d="M112.765,264.213a12.149,12.149,0,0,1,0-4.443,12.148,12.148,0,0,1,0,4.443Z" transform="translate(-77.052 -183.845)" fill="#263238"/>
      <path id="Path_3272" data-name="Path 3272" d="M114.734,273.011a4.972,4.972,0,0,1-1.97.2l-.2-.2h0v-1.426c.039-.355.095-.575.15-.575s.1.221.142.575a3.089,3.089,0,0,0,.047.63v.741h0l-.2-.2A4.814,4.814,0,0,1,114.734,273.011Z" transform="translate(-77.052 -186.23)" fill="#263238"/>
      <path id="Path_3273" data-name="Path 3273" d="M124.295,273.488a9.647,9.647,0,0,1-3.955,0,9.646,9.646,0,0,1,3.955,0Z" transform="translate(-78.702 -186.706)" fill="#263238"/>
      <path id="Path_3274" data-name="Path 3274" d="M134.349,273.5a9.652,9.652,0,0,1-3.939,0A9.651,9.651,0,0,1,134.349,273.5Z" transform="translate(-80.839 -186.714)" fill="#263238"/>
      <path id="Path_3275" data-name="Path 3275" d="M144.389,273.5a9.652,9.652,0,0,1-3.939,0A9.651,9.651,0,0,1,144.389,273.5Z" transform="translate(-82.968 -186.714)" fill="#263238"/>
      <path id="Path_3276" data-name="Path 3276" d="M154.439,273.5a9.652,9.652,0,0,1-3.939,0A9.651,9.651,0,0,1,154.439,273.5Z" transform="translate(-85.101 -186.714)" fill="#263238"/>
      <path id="Path_3277" data-name="Path 3277" d="M164.489,273.5a9.683,9.683,0,0,1-3.939,0A9.682,9.682,0,0,1,164.489,273.5Z" transform="translate(-87.233 -186.714)" fill="#263238"/>
      <path id="Path_3278" data-name="Path 3278" d="M174.529,273.5a9.652,9.652,0,0,1-3.939,0A9.651,9.651,0,0,1,174.529,273.5Z" transform="translate(-89.363 -186.714)" fill="#263238"/>
      <path id="Path_3279" data-name="Path 3279" d="M184.579,273.5a9.652,9.652,0,0,1-3.939,0A9.651,9.651,0,0,1,184.579,273.5Z" transform="translate(-91.495 -186.714)" fill="#263238"/>
      <path id="Path_3280" data-name="Path 3280" d="M194.619,273.5a9.652,9.652,0,0,1-3.939,0A9.651,9.651,0,0,1,194.619,273.5Z" transform="translate(-93.625 -186.714)" fill="#263238"/>
      <path id="Path_3281" data-name="Path 3281" d="M204.669,273.5a9.652,9.652,0,0,1-3.939,0A9.651,9.651,0,0,1,204.669,273.5Z" transform="translate(-95.757 -186.714)" fill="#263238"/>
      <path id="Path_3282" data-name="Path 3282" d="M212.72,273.495c0,.11-.441.2-.985.2s-.985-.095-.985-.2.441-.2.985-.2S212.72,273.377,212.72,273.495Z" transform="translate(-97.883 -186.713)" fill="#263238"/>
      <rect id="Rectangle_904" data-name="Rectangle 904" width="66.975" height="66.975" rx="6.79" transform="translate(0)" fill="#79254a"/>
      <path id="Path_3283" data-name="Path 3283" d="M117.726,217.16a7.22,7.22,0,1,0-3.86-13.913c.575-5.586-4.507-11.077-10.124-10.927s-10.407,5.9-9.525,11.455a6.61,6.61,0,0,0-.473,13.212Z" transform="translate(-71.707 -169.535)" fill="#fff"/>
    </g>
  </g>
</svg>
