<svg xmlns="http://www.w3.org/2000/svg" xmlns:xlink="http://www.w3.org/1999/xlink" width="276" height="155" viewBox="0 0 276 155">
  <defs>
    <clipPath id="clip-path">
      <rect id="Rectangle_667" data-name="Rectangle 667" width="276" height="155" transform="translate(-0.116 -0.142)" fill="#fff" stroke="#707070" stroke-width="1"/>
    </clipPath>
  </defs>
  <g id="Mask_Group_4" data-name="Mask Group 4" transform="translate(0.116 0.142)" clip-path="url(#clip-path)">
    <g id="logo.c419e12d" transform="translate(-0.006 32.274)">
      <path id="Path_438" data-name="Path 438" d="M1178.35,140.414l1.914,1.7V64.292l-1.914-.638Z" transform="translate(-1009.097 -54.512)" fill="#3aaad1"/>
      <path id="Path_439" data-name="Path 439" d="M1814.9,362.683Z" transform="translate(-1554.212 -310.589)" fill="none"/>
      <path id="Path_440" data-name="Path 440" d="M458.13,179.5c0-3.615.213-7.229,0-10.632a5.769,5.769,0,0,0-5.1-5.741c-2.339-.213-4.89,0-7.442,0V179.5Zm-39.974-19.987h3.827V179.5h19.349V159.516c5.1.213,9.994-.638,14.672.638a7.7,7.7,0,0,1,5.528,6.8c.425,5.316,0,10.631,0,15.947H376.055c-7.017,0-8.93-1.914-8.93-8.93V148.034h3.827v27c0,3.615.85,4.465,4.465,4.465h17.648V161.217h3.827V179.5h8.718V161.217h4.04V179.5h8.505Z" transform="translate(-314.392 -126.771)" fill="#424c50"/>
      <path id="Path_441" data-name="Path 441" d="M21.263,247.009h20.2V227.021H45.29v23.389H0v-3.4H17.648a124.355,124.355,0,0,0-.851-12.758c-.425-2.552-2.764-3.827-6.166-4.04H3.615v-3.189a88.662,88.662,0,0,1,10.632,0c4.253.638,6.592,3.827,6.8,8.293.213,2.977,0,6.166,0,9.143a11.235,11.235,0,0,1,.213,2.552" transform="translate(0 -194.276)" fill="#424c50"/>
      <path id="Path_442" data-name="Path 442" d="M23.169,433.923v20.838H20.617V436.9H20.4c-.213.425-.425.638-.425,1.063-1.914,5.316-3.827,10.419-5.741,15.735a1.244,1.244,0,0,1-1.7,1.063H11.474c-.638.213-1.063-.213-1.276-.851-1.914-5.316-4.04-10.844-5.954-16.16a1.612,1.612,0,0,0-.425-.851v17.861H1.48V433.923H5.52l6.592,18.286a20.072,20.072,0,0,1,.638-1.914c1.914-5.1,3.827-10.206,5.741-15.522a1.416,1.416,0,0,1,1.488-1.063,16.093,16.093,0,0,0,3.189.213m66.128,0h2.552c.425,0,.638.425.851.851,3.4,5.1,6.592,10.206,9.994,15.309a3.734,3.734,0,0,0,.851,1.063v-17.01h2.339v20.838H103.33c-.213,0-.638-.425-.851-.638-3.4-5.1-6.8-10.206-9.994-15.522a13.025,13.025,0,0,0-.851-1.276v17.436H89.3Zm44.227,2.126v16.585h5.741c3.827-.213,5.954-1.7,6.379-4.891a34.116,34.116,0,0,0,0-6.592,4.98,4.98,0,0,0-4.253-4.678C138.839,436.262,136.288,436.262,133.524,436.05Zm-2.552-1.914c3.615,0,7.017-.213,10.419,0a7.463,7.463,0,0,1,6.8,6.379,18.571,18.571,0,0,1,0,7.655,7.733,7.733,0,0,1-8.08,6.591c-2.977.213-5.954,0-9.143,0ZM28.91,433.923h2.552v12.758c0,4.465,1.488,5.954,5.954,5.954h5.1V433.923h2.552v20.625a.213.213,0,0,1-.213.213c-3.189,0-6.379.213-9.356,0a6.026,6.026,0,0,1-6.379-6.379c-.425-4.678-.213-9.568-.213-14.459m47.629,2.764h-.213L72.5,447.107h8.08l-4.04-10.419m-9.781,18.286,8.08-20.838h.213c2.764-.213,2.764-.213,3.615,2.339,2.339,5.741,4.465,11.482,6.8,17.436a8.868,8.868,0,0,1,.425,1.276H83.555a.959.959,0,0,1-.638-.638c-.425-1.276-1.063-2.552-1.488-4.04-.213-.638-.425-.851-1.276-.851H72.286a1.165,1.165,0,0,0-1.276.851,24.455,24.455,0,0,0-1.276,3.615c-.213.851-.638,1.063-1.488,1.063-.213-.425-.851-.213-1.488-.213m-2.764-20.838v2.126H55.276a2.977,2.977,0,0,0-2.764,3.4,3.121,3.121,0,0,0,2.764,3.4H58.89c5.1.213,6.379,3.189,5.741,7.229a4.678,4.678,0,0,1-4.678,4.465c-3.189.213-6.592,0-9.781,0v-2.126h8.08c2.764,0,3.827-1.276,3.827-4.04a2.909,2.909,0,0,0-3.189-3.189H55.276c-4.465-.213-5.954-2.977-5.528-6.8a4.465,4.465,0,0,1,4.89-4.465c3.189-.213,6.379,0,9.356,0M127.57,452.21H113.749v-6.166h12.545v-2.764H113.962V436.9h12.545v-2.552h-15.1v20.838h16.372Z" transform="translate(-1.268 -371.41)" fill="#424c50"/>
      <path id="Path_443" data-name="Path 443" d="M1355.991,165.642h7.442V155.436l-7.442,3.189Z" transform="translate(-1161.222 -133.109)" fill="none"/>
      <path id="Path_444" data-name="Path 444" d="M288.879,176.16c-.213,0-.213,0-.213.213v3.615c0,.213,0,.213.213.213h3.189c.213,0,.213,0,.213-.213v-3.615c0-.213,0-.213-.213-.213Z" transform="translate(-247.203 -150.857)" fill="#424c50"/>
      <path id="Path_445" data-name="Path 445" d="M1421.063,76.181h-18.5l-7.442,7.655h0v17.01h-33.17V46.413l27.429-12.12,5.1-2.126-9.143-4.04-30.831,13.4.213,59.324,7.229,7.442h0v-.213l.213.213h32.958l7.655,5.954v-5.954h18.286v-7.442h-18.286V83.835h18.286v24.452h0l7.655-7.442V83.623Z" transform="translate(-1159.954 -24.086)" fill="#58abc8"/>
      <path id="Path_446" data-name="Path 446" d="M1575.555,0h0L1566.2,4.04l43.164,18.711h0V32.958h7.655V18.286h0Z" transform="translate(-1341.236)" fill="#b3b2b3"/>
    </g>
  </g>
</svg>
