<svg id="noun_tracking_3105569" xmlns="http://www.w3.org/2000/svg" width="107.878" height="107.878" viewBox="0 0 107.878 107.878">
  <g id="Group_216" data-name="Group 216" transform="translate(0 0)">
    <path id="Path_1043" data-name="Path 1043" d="M52.277,33.2A19.077,19.077,0,1,0,71.355,52.277,19.119,19.119,0,0,0,52.277,33.2Zm0,28.5A9.425,9.425,0,1,1,61.7,52.277,9.4,9.4,0,0,1,52.277,61.7Z" transform="translate(1.662 1.662)" fill="#f1d7be"/>
    <path id="Path_1044" data-name="Path 1044" d="M105.5,51.556H95.048A39.042,39.042,0,0,0,61.322,17.83V7.383a4.883,4.883,0,1,0-9.766,0V17.83A39.042,39.042,0,0,0,17.83,51.556H7.383a4.883,4.883,0,1,0,0,9.766H17.83A39.042,39.042,0,0,0,51.556,95.048V105.5a4.883,4.883,0,1,0,9.766,0V95.048A39.042,39.042,0,0,0,95.048,61.322H105.5a4.883,4.883,0,1,0,0-9.766ZM56.439,85.623A29.184,29.184,0,1,1,85.623,56.439,29.175,29.175,0,0,1,56.439,85.623Z" transform="translate(-2.5 -2.5)" fill="#79254a"/>
  </g>
</svg>
