<svg xmlns="http://www.w3.org/2000/svg" width="147.521" height="145.759" viewBox="0 0 147.521 145.759">
  <g id="noun_Couple_1833851" transform="translate(0.011 -1.492)">
    <path id="Path_3415" data-name="Path 3415" d="M112.052,66.776a12.848,12.848,0,0,1-5.907-2.627A55.393,55.393,0,0,0,115.653,58s14.99-54.638-29.644-56.49c0,0-.246-.014-.695-.014-3.991,0-24.02,1.15-29.567,23.829,1.018.4,2.566.953,4.317,1.506a28.715,28.715,0,0,1,5.476-11.72C70.7,8.738,77.915,6.851,82.16,6.3c.9.861,3.06,3.737,1.857,10.745l.2.034a35.69,35.69,0,0,1-11.223,13.5c.082,0,.164-.013.247-.013a4.307,4.307,0,0,1,4.053,2.48,40.417,40.417,0,0,0,9.366-10.8c4.854,7.23,12.1,12.465,17.9,15.81a4.527,4.527,0,0,1,2.161,4.856c-5.461,26.262-18.9,26.955-19.7,26.972h-.054l-.111,0c-.136,0-.269,0-.4,0a15.247,15.247,0,0,1-11.783-5.618q-.766,2.454-1.738,4.8a19.129,19.129,0,0,0,13.521,5.4c.168,0,.335,0,.5-.006h.045c.633,0,7.829-.2,14.565-8.29l.068-.028a16.846,16.846,0,0,0,5.492,3.875L86.677,93.773A38.4,38.4,0,0,1,90.543,96.3L111.953,71.42c3.6.753,21.345,5.166,22.469,19.166-.13,1.919-.847,12.289-1.747,22.1a3.841,3.841,0,0,1-3.679,3.3H101.611c.052.575.191,2.218.314,4.58H129a8.426,8.426,0,0,0,8.24-7.465c1.009-10.986,1.777-22.523,1.777-22.523C137.757,70.908,112.052,66.776,112.052,66.776ZM111.2,43.842a9.127,9.127,0,0,0-4.355-9.755c-5.551-3.2-13.867-9.091-18.153-17.414a18.576,18.576,0,0,0-1.17-10.488c9.151.7,15.715,3.915,20.028,9.808,9.218,12.595,5.308,33.713,4.036,39.366a51.076,51.076,0,0,1-5.362,3.525A62.256,62.256,0,0,0,111.2,43.842Z" transform="translate(8.498 0)" fill="#f1d7be"/>
    <path id="Path_3416" data-name="Path 3416" d="M65.717,70.172l7.846,9a52.605,52.605,0,0,1,9.043,3.406L68.2,66.056C67.428,67.485,66.595,68.856,65.717,70.172Z" transform="translate(10.018 9.84)" fill="#f1d7be"/>
    <path id="Path_3417" data-name="Path 3417" d="M8.891,143.739H97.407c4.133,0,7.843-3.851,8.22-7.944a131.623,131.623,0,0,0-.1-21.965c-1.252-19.515-26.9-23.615-26.9-23.615-6.545-1.169-9.22-6.791-10.28-10.433A50.594,50.594,0,0,0,78.861,59.749,31.688,31.688,0,0,0,80,51.405a26.863,26.863,0,0,0-.278-3.811A23.71,23.71,0,0,0,81.1,32.2a1.979,1.979,0,0,0-2.041-1.332,2.863,2.863,0,0,0-.295.015,10.779,10.779,0,0,1-1.1.053c-5.855,0-15.535-3.889-15.535-3.889a33.548,33.548,0,0,0-11.392-2.512l-1.045.022A23.051,23.051,0,0,0,32.66,33.525c-5.9,1.975-6.9,9.577-6.549,16.233-.033.546-.063,1.093-.063,1.648A46.722,46.722,0,0,0,36.921,80.442c.193.22.407.412.606.623-1.287,3.558-4.048,8.111-9.862,9.149,0,0-25.646,4.1-26.9,23.615A93.424,93.424,0,0,0,.52,135.812C.955,139.9,4.759,143.739,8.891,143.739ZM30.854,51.726c-.587-6.182-.1-12.734,3.26-13.858a4.48,4.48,0,0,0,2.305-1.727A18.277,18.277,0,0,1,50.548,29.1a26.711,26.711,0,0,1,9.77,2.158l.1.043c1.042.419,10.114,3.992,16.637,4.209.5,4.1.367,12.946-9.006,16.878a31.035,31.035,0,0,1-6.467.662c-4.613,0-11.175-1.019-16.24-5.877a4.58,4.58,0,0,0-7.715,2.743l-.063.506-.007,0a4.58,4.58,0,0,0-5.522.188,11.5,11.5,0,0,0-1.184,1.121Zm.848,8.123a10.3,10.3,0,0,1,3.222-5.688l5.007,3.526a1.273,1.273,0,0,0,.761.332c.406,0,.677-.364.677-1.026l.807-6.514c6.091,5.841,13.756,7.151,19.41,7.151a33.793,33.793,0,0,0,7.875-.869,20.819,20.819,0,0,0,5.9-3.514,27.4,27.4,0,0,1-.911,5.291C72,67.454,67.3,75.28,61.543,80.01c-.207.171-.424.324-.639.481-.449.146-1.063.7-1.51.812a14.374,14.374,0,0,1-6.246,1.45,22.778,22.778,0,0,1-6.634-1.092,11.935,11.935,0,0,1-4.58-2.68,17.616,17.616,0,0,1-1.568-1.557A41.973,41.973,0,0,1,31.7,59.849ZM41.244,84.2a20.663,20.663,0,0,0,11.418,3.568A18.374,18.374,0,0,0,63.046,84.6c.63-.227,1.25-.47,1.851-.744a19.605,19.605,0,0,0,5.009,7.1c-5.775,4.34-11.686,6.4-17.636,6.106a27.837,27.837,0,0,1-15.623-6.329,19.569,19.569,0,0,0,4.6-6.526ZM5.3,114.516l.042-.393c1-15.589,22.839-19.351,23.05-19.386l.041-.007.041-.007a16.673,16.673,0,0,0,4.2-1.335c3.333,2.906,10.2,7.773,19.322,8.237q.7.037,1.4.036c7.057,0,13.971-2.722,20.608-8.1a16.788,16.788,0,0,0,3.826,1.161l.041.007.032.005c.22.036,22.059,3.8,23.059,19.387l0,.073.007.072a127.961,127.961,0,0,1,.1,21.107c-.159,1.73-1.869,3.785-3.659,3.785H8.891c-1.814,0-3.634-2.108-3.817-3.833a89.82,89.82,0,0,1,.223-20.81Z" transform="translate(0 3.513)" fill="#79254a"/>
  </g>
</svg>
