<svg xmlns="http://www.w3.org/2000/svg" width="80.548" height="81.349" viewBox="0 0 80.548 81.349">
  <g id="Group_46" data-name="Group 46" transform="translate(-2704.868 -6624.012)">
    <path id="Path_94" data-name="Path 94" d="M23.747,56.929A18.465,18.465,0,0,0,53.956,46.1c.024-.136.048-.271.069-.408a18.291,18.291,0,0,0,.1-4.882c-.021-.186-.044-.371-.071-.557a18.735,18.735,0,0,0-.486-2.386,18.331,18.331,0,0,0-.828-2.3c-.058-.135-.11-.271-.17-.4a18.347,18.347,0,0,0-1.013-1.891c-.131-.217-.265-.431-.405-.643a18.477,18.477,0,0,0-1.141-1.539c-.205-.249-.422-.487-.64-.725-.362-.393-.737-.772-1.13-1.132-.134-.122-.245-.264-.383-.383-.044-.038-.1-.048-.151-.081a18.478,18.478,0,0,0-28.1,5.025,18.692,18.692,0,0,0-1.481,3.375c0,.008-.01.013-.012.021-.023.07-.03.143-.052.213a18.308,18.308,0,0,0-.511,2.1c-.037.2-.072.4-.1.6a18.247,18.247,0,0,0-.218,2.38c0,.019,0,.037,0,.055a18.377,18.377,0,0,0,.13,2.345c.022.2.047.392.075.588a18.752,18.752,0,0,0,.485,2.381,18.322,18.322,0,0,0,.831,2.3c.054.127.1.255.16.38a18.357,18.357,0,0,0,1.043,1.945c.112.183.225.365.343.544A18.524,18.524,0,0,0,21.534,54.7c.155.186.319.365.482.545a18.642,18.642,0,0,0,1.462,1.462c.054.048.1.105.153.153C23.665,56.891,23.71,56.9,23.747,56.929Zm-1.488-7.991a14.664,14.664,0,0,1-.772-2.073,15.069,15.069,0,0,1-.341-1.535c-.027-.158-.039-.316-.06-.474-.049-.356-.094-.713-.117-1.07-.013-.2-.012-.391-.017-.587-.008-.318-.011-.636,0-.953.009-.216.027-.432.045-.647.025-.292.057-.583.1-.872.017-.115.039-.23.059-.345a21.961,21.961,0,0,0,2.962.929,19.08,19.08,0,0,0,2.512,8.942A22.326,22.326,0,0,0,24.6,52.544a14.74,14.74,0,0,1-2.142-3.183C22.389,49.221,22.322,49.081,22.259,48.938Zm26.78-12.55c.063.13.124.26.184.392A14.669,14.669,0,0,1,50,38.867a14.952,14.952,0,0,1,.342,1.543c.022.132.032.265.051.4.055.388.1.776.126,1.166.01.154.009.308.013.462.011.37.014.74,0,1.109-.007.159-.021.318-.033.477-.028.363-.069.725-.124,1.086-.012.081-.027.161-.041.242a22.7,22.7,0,0,0-2.961-.914,19.08,19.08,0,0,0-2.506-8.943,21.963,21.963,0,0,0,2.024-2.3A14.737,14.737,0,0,1,49.039,36.388Zm-9.088-1.6A18.57,18.57,0,0,1,36,36.92l-1.88-6.7A16.689,16.689,0,0,1,39.951,34.787Zm-.9,13.035c.329-.056.646-.126.994-.164a14.445,14.445,0,0,1,2.854-.119c.218.006.423.031.636.044a16.691,16.691,0,0,1-2.606,6.936ZM43.1,40.8a16.548,16.548,0,0,1,.526,3.077c-.191-.011-.389-.036-.575-.04a18.857,18.857,0,0,0-3.452.143c-.509.055-1.03.161-1.55.26L37,40.505a22.146,22.146,0,0,0,4.953-2.593A16.559,16.559,0,0,1,43.1,40.8Zm-7.611,8.019,1.877,6.694a16.688,16.688,0,0,1-5.83-4.567c.187-.131.351-.261.558-.4a15.148,15.148,0,0,1,2.5-1.376C34.879,49.047,35.194,48.94,35.491,48.822ZM33.366,57.48a14.765,14.765,0,0,1-5.972-2.443,19.18,19.18,0,0,1,1.343-1.656A20.4,20.4,0,0,0,33.366,57.48Zm9.377-25.134a20.4,20.4,0,0,0-4.623-4.093,14.769,14.769,0,0,1,6,2.459A18.145,18.145,0,0,1,42.743,32.346ZM32.434,37.922a18.458,18.458,0,0,1-4.487.227,16.69,16.69,0,0,1,2.606-6.935Zm1,3.581,1.048,3.736c-.483.183-.976.362-1.415.567a18.589,18.589,0,0,0-3.028,1.667c-.177.115-.336.242-.507.36a15,15,0,0,1-1.677-5.966A22.084,22.084,0,0,0,33.438,41.5Zm11.944,12.59A20.39,20.39,0,0,0,47.2,48.2a19.664,19.664,0,0,1,2.056.715c-.183.407-.379.809-.6,1.2A14.8,14.8,0,0,1,45.383,54.093ZM26.1,31.641a20.391,20.391,0,0,0-1.809,5.875,18.164,18.164,0,0,1-2.063-.694c.184-.409.382-.813.6-1.209A14.8,14.8,0,0,1,26.1,31.641Z" transform="translate(2703.141 6621.572)" fill="#79254a"/>
    <path id="Path_95" data-name="Path 95" d="M78.935,11.581,51.854,8.068,49.969,1.35A1.853,1.853,0,0,0,47.686.068l-46.336,13A1.851,1.851,0,0,0,.069,15.346l18,64.156a1.848,1.848,0,0,0,2.283,1.282l14.305-4.012,35.255,4.561a1.771,1.771,0,0,0,.239.015,1.853,1.853,0,0,0,1.835-1.613l8.551-66.081A1.853,1.853,0,0,0,78.935,11.581Zm-74.8,4.548,42.772-12L63.9,64.719,37.321,72.178,21.128,76.72Zm64.413,61.3L43.759,74.218l22.924-6.43a1.873,1.873,0,0,0,1.289-2.29L52.948,11.943l23.675,3.071Z" transform="translate(2704.868 6624.012)" fill="#79254a"/>
  </g>
</svg>
