<svg xmlns="http://www.w3.org/2000/svg" width="40.83" height="40.83" viewBox="0 0 40.83 40.83">
  <g id="Group_1805" data-name="Group 1805" transform="translate(1.5 1.5)">
    <path id="Path_3513" data-name="Path 3513" d="M39.773,32.888A4.814,4.814,0,0,1,39.3,34.95a7.8,7.8,0,0,1-1.286,1.929,8.528,8.528,0,0,1-3.1,2.232,9.5,9.5,0,0,1-3.688.719,15.763,15.763,0,0,1-6.166-1.381A33.223,33.223,0,0,1,18.551,34.7a54.382,54.382,0,0,1-6.2-5.3,53.745,53.745,0,0,1-5.277-6.185,33.722,33.722,0,0,1-3.707-6.45A15.932,15.932,0,0,1,2,10.587a9.785,9.785,0,0,1,.681-3.651A8.706,8.706,0,0,1,4.856,3.778,5.542,5.542,0,0,1,8.791,2a3.555,3.555,0,0,1,1.532.34A3.083,3.083,0,0,1,11.59,3.4l4.388,6.185a6.474,6.474,0,0,1,.757,1.324A2.99,2.99,0,0,1,17,12.063a2.568,2.568,0,0,1-.4,1.343,6.434,6.434,0,0,1-1.059,1.343l-1.438,1.494a1.012,1.012,0,0,0-.3.757,1.717,1.717,0,0,0,.057.435c.057.151.113.265.151.378a15.7,15.7,0,0,0,1.759,2.421c.851.984,1.759,1.986,2.743,2.989,1.021,1,2,1.929,3.007,2.781a14.517,14.517,0,0,0,2.44,1.74c.095.038.208.095.34.151a1.306,1.306,0,0,0,.473.076,1.041,1.041,0,0,0,.776-.322l1.438-1.419a5.8,5.8,0,0,1,1.362-1.059,2.519,2.519,0,0,1,1.343-.4,3.019,3.019,0,0,1,1.154.246,7.316,7.316,0,0,1,1.324.738L38.43,30.2a2.869,2.869,0,0,1,1.04,1.211A3.881,3.881,0,0,1,39.773,32.888Z" transform="translate(-2 -2)" fill="none" stroke="#60acee" stroke-width="3"/>
    <path id="Path_3514" data-name="Path 3514" d="M21.62,12.12a7.5,7.5,0,0,0-2.213-4.294A6.461,6.461,0,0,0,15,5.5" transform="translate(9.59 1.12)" fill="none" stroke="#60acee" stroke-linecap="round" stroke-linejoin="round" stroke-width="3"/>
    <path id="Path_3515" data-name="Path 3515" d="M28.241,15.241A13.231,13.231,0,0,0,15,2" transform="translate(9.59 -2)" fill="none" stroke="#60acee" stroke-linecap="round" stroke-linejoin="round" stroke-width="3"/>
  </g>
</svg>
