<svg xmlns="http://www.w3.org/2000/svg" width="55.253" height="62" viewBox="0 0 55.253 62">
  <g id="Group_5" data-name="Group 5" transform="translate(-936.995 -1679)">
    <path id="Path_15" data-name="Path 15" d="M331.515,34.515h2.924a.723.723,0,0,0,0-1.446h-2.924a.723.723,0,0,0,0,1.446Z" transform="translate(631.644 1678.895)" fill="#79254a"/>
    <path id="Path_16" data-name="Path 16" d="M329.674,16.066a.723.723,0,0,0-1.019.08l-7.509,8.791a.723.723,0,1,0,1.1.939l7.509-8.791a.724.724,0,0,0-.081-1.019Z" transform="translate(629.217 1674.881)" fill="#79254a"/>
    <path id="Path_17" data-name="Path 17" d="M321.215,21.318a.723.723,0,0,0,1.021-.06l2.03-2.283a.723.723,0,1,0-1.081-.961l-2.03,2.283a.724.724,0,0,0-.143.243.737.737,0,0,0-.039.28.73.73,0,0,0,.242.5Z" transform="translate(628.781 1674.992)" fill="#79254a"/>
    <path id="Path_18" data-name="Path 18" d="M361.529,47.368a1.559,1.559,0,0,0-.69-.752,2.269,2.269,0,0,0-1.125-.286h-31.3a1.067,1.067,0,0,0-.654.212.617.617,0,0,0,0,1.022,1.067,1.067,0,0,0,.654.212h31.294a.061.061,0,0,1,.031.008.047.047,0,0,1,.019.021l2.85,7.029a.033.033,0,0,1,0,.019.037.037,0,0,1-.01.018.062.062,0,0,1-.018.013.072.072,0,0,1-.024,0H314.677a.066.066,0,0,1-.024,0,.039.039,0,0,1-.018-.013.037.037,0,0,1-.01-.018.033.033,0,0,1,0-.019l2.85-7.029a.041.041,0,0,1,.019-.021.061.061,0,0,1,.031-.008h6.718a1.067,1.067,0,0,0,.654-.212.617.617,0,0,0,0-1.022,1.067,1.067,0,0,0-.654-.212h-6.718a2.278,2.278,0,0,0-1.126.286,1.556,1.556,0,0,0-.688.752l-2.85,7.029a1.174,1.174,0,0,0-.064.69,1.33,1.33,0,0,0,.342.638,1.855,1.855,0,0,0,.676.448,2.341,2.341,0,0,0,.861.161h47.887a2.346,2.346,0,0,0,.861-.161,1.85,1.85,0,0,0,.674-.448,1.332,1.332,0,0,0,.343-.638,1.173,1.173,0,0,0-.064-.69Z" transform="translate(626 1684.666)" fill="#79254a"/>
    <path id="Path_19" data-name="Path 19" d="M362.606,7H314.64a3.531,3.531,0,0,0-2.574,1.136,4.034,4.034,0,0,0-1.071,2.746V43.769a4.03,4.03,0,0,0,1.071,2.747,3.53,3.53,0,0,0,2.574,1.137h17.846a48.551,48.551,0,0,1-.628,7h-3.924a.878.878,0,0,0-.642.284,1.018,1.018,0,0,0,0,1.373.878.878,0,0,0,.642.284h21.375a.862.862,0,0,0,.348-.074.913.913,0,0,0,.294-.211.974.974,0,0,0,.2-.315,1.033,1.033,0,0,0,0-.743.974.974,0,0,0-.2-.315.913.913,0,0,0-.294-.211.862.862,0,0,0-.348-.074H345.4a48.551,48.551,0,0,1-.628-7h17.846a3.527,3.527,0,0,0,2.565-1.141,4.036,4.036,0,0,0,1.068-2.742V10.883a4.038,4.038,0,0,0-1.071-2.745A3.53,3.53,0,0,0,362.606,7ZM333.7,54.655a54.839,54.839,0,0,0,.6-7h8.65a54.839,54.839,0,0,0,.6,7Zm30.722-10.886a2.015,2.015,0,0,1-.533,1.371,1.761,1.761,0,0,1-1.283.569H314.64a1.761,1.761,0,0,1-1.283-.569,2.009,2.009,0,0,1-.533-1.371V40.25h51.6v3.519Zm0-5.46h-2.388V23.975a1,1,0,0,0-.266-.687.867.867,0,0,0-1.284,0,1,1,0,0,0-.266.687V38.309h-43.19V13.581a.265.265,0,0,1,.07-.181.232.232,0,0,1,.17-.075h42.71a.232.232,0,0,1,.17.075.265.265,0,0,1,.07.181v5.952a1,1,0,0,0,.266.687.867.867,0,0,0,1.284,0,1,1,0,0,0,.266-.687V13.581a2.281,2.281,0,0,0-.6-1.554,2,2,0,0,0-1.454-.645H317.262a2,2,0,0,0-1.454.645,2.276,2.276,0,0,0-.6,1.554V38.309h-2.388V10.883a2.053,2.053,0,0,1,.139-.744,1.968,1.968,0,0,1,.395-.63,1.821,1.821,0,0,1,.592-.42,1.713,1.713,0,0,1,.7-.147h47.97a1.761,1.761,0,0,1,1.283.569,2.015,2.015,0,0,1,.533,1.371Z" transform="translate(626 1672)" fill="#79254a"/>
    <path id="Path_20" data-name="Path 20" d="M321.74,49.315h-.981a.723.723,0,0,0,0,1.446h.981a.723.723,0,0,0,0-1.446Z" transform="translate(628.457 1684.666)" fill="#79254a"/>
    <path id="Path_21" data-name="Path 21" d="M324.683,50.761h.981a.723.723,0,0,0,0-1.446h-.981a.723.723,0,0,0,0,1.446Z" transform="translate(629.523 1684.666)" fill="#79254a"/>
    <path id="Path_22" data-name="Path 22" d="M328.607,50.761h.981a.723.723,0,0,0,0-1.446h-.981a.723.723,0,0,0,0,1.446Z" transform="translate(630.589 1684.666)" fill="#79254a"/>
    <path id="Path_23" data-name="Path 23" d="M332.532,50.761h.981a.723.723,0,0,0,0-1.446h-.981a.723.723,0,0,0,0,1.446Z" transform="translate(631.656 1684.666)" fill="#79254a"/>
    <path id="Path_24" data-name="Path 24" d="M336.456,50.761h.981a.723.723,0,0,0,0-1.446h-.981a.723.723,0,0,0,0,1.446Z" transform="translate(632.722 1684.666)" fill="#79254a"/>
    <path id="Path_25" data-name="Path 25" d="M340.384,50.761h.981a.723.723,0,0,0,0-1.446h-.981a.723.723,0,0,0,0,1.446Z" transform="translate(633.79 1684.666)" fill="#79254a"/>
    <path id="Path_26" data-name="Path 26" d="M344.214,50.761h.981a.723.723,0,0,0,0-1.446h-.981a.723.723,0,0,0,0,1.446Z" transform="translate(634.831 1684.666)" fill="#79254a"/>
    <path id="Path_27" data-name="Path 27" d="M321.74,51.9h-.981a.723.723,0,0,0,0,1.446h.981a.723.723,0,0,0,0-1.446Z" transform="translate(628.457 1684.666)" fill="#79254a"/>
    <path id="Path_28" data-name="Path 28" d="M324.683,53.348h.981a.723.723,0,0,0,0-1.446h-.981a.723.723,0,0,0,0,1.446Z" transform="translate(629.523 1684.666)" fill="#79254a"/>
    <path id="Path_29" data-name="Path 29" d="M328.607,53.348h.981a.723.723,0,0,0,0-1.446h-.981a.723.723,0,0,0,0,1.446Z" transform="translate(630.589 1684.666)" fill="#79254a"/>
    <path id="Path_30" data-name="Path 30" d="M332.532,53.348h.981a.723.723,0,0,0,0-1.446h-.981a.723.723,0,0,0,0,1.446Z" transform="translate(631.656 1684.666)" fill="#79254a"/>
    <path id="Path_31" data-name="Path 31" d="M336.456,53.348h.981a.723.723,0,0,0,0-1.446h-.981a.723.723,0,0,0,0,1.446Z" transform="translate(632.722 1684.666)" fill="#79254a"/>
    <path id="Path_32" data-name="Path 32" d="M340.384,53.348h.981a.723.723,0,0,0,0-1.446h-.981a.723.723,0,0,0,0,1.446Z" transform="translate(633.79 1684.666)" fill="#79254a"/>
    <path id="Path_33" data-name="Path 33" d="M344.214,53.348h.981a.723.723,0,0,0,0-1.446h-.981a.723.723,0,0,0,0,1.446Z" transform="translate(634.831 1684.666)" fill="#79254a"/>
  </g>
</svg>
