<svg xmlns="http://www.w3.org/2000/svg" width="697.879" height="693.138" viewBox="0 0 697.879 693.138">
  <g id="Group_219" data-name="Group 219" transform="translate(348.939 -5333.431)">
    <path id="Path_968" data-name="Path 968" d="M672.154,259.892a9.416,9.416,0,0,1-8.5-5.213,52.529,52.529,0,0,0-30.724-24.962,9.552,9.552,0,0,1,5.212-18.379,70.812,70.812,0,0,1,42.518,34.289,9.581,9.581,0,0,1-4.114,12.893A9.107,9.107,0,0,1,672.154,259.892Z" transform="translate(-352.692 5332.166)" fill="rgba(241,215,190,0.29)"/>
    <path id="Path_972" data-name="Path 972" d="M284.365,203.488a9.052,9.052,0,0,1-8.229-4.937,9.542,9.542,0,0,1,3.565-13.168,505.362,505.362,0,0,1,117.68-48,9.648,9.648,0,1,1,4.938,18.654A477.4,477.4,0,0,0,289.3,202.117,8.468,8.468,0,0,1,284.365,203.488Z" transform="translate(-350.587 5332.609)" fill="rgba(241,215,190,0.29)"/>
    <path id="Path_975" data-name="Path 975" d="M396.889,69.9a9.65,9.65,0,0,1-9.327-7.407L375.768,11.745A9.581,9.581,0,1,1,394.42,7.356l11.8,50.748a9.539,9.539,0,0,1-7.132,11.521C398.535,69.625,397.712,69.9,396.889,69.9Z" transform="translate(-351.191 5333.431)" fill="rgba(241,215,190,0.29)"/>
    <path id="Path_977" data-name="Path 977" d="M530.108,100.476a9.64,9.64,0,0,1-7.955-4.114,179.829,179.829,0,0,0-65.835-56.783,9.938,9.938,0,0,1-4.389-12.893A9.937,9.937,0,0,1,464.822,22.3a196.74,196.74,0,0,1,72.967,62.818,9.677,9.677,0,0,1-2.468,13.441A7.24,7.24,0,0,1,530.108,100.476Z" transform="translate(-351.644 5333.302)" fill="rgba(241,215,190,0.29)"/>
    <path id="Path_979" data-name="Path 979" d="M485.474,242.787a9.611,9.611,0,0,1-9.6-9.052,361.7,361.7,0,0,0-11.522-72.693A9.648,9.648,0,1,1,483,156.1a361.874,361.874,0,0,1,12.344,76.807,9.736,9.736,0,0,1-9.052,10.15C485.747,242.787,485.747,242.787,485.474,242.787Z" transform="translate(-351.722 5332.538)" fill="rgba(241,215,190,0.29)"/>
    <path id="Path_980" data-name="Path 980" d="M536.322,260.305a14.156,14.156,0,0,1-3.018-.549A9.661,9.661,0,0,1,527,247.687l16.459-52.394a9.63,9.63,0,1,1,18.378,5.761l-16.459,52.393A9.074,9.074,0,0,1,536.322,260.305Z" transform="translate(-352.097 5332.3)" fill="rgba(241,215,190,0.29)"/>
    <path id="Path_986" data-name="Path 986" d="M424.784,267.252a9.591,9.591,0,0,1-6.035-2.194l-53.765-44.713a9.554,9.554,0,0,1,12.069-14.813l53.765,44.712a9.563,9.563,0,0,1,1.372,13.442A9.2,9.2,0,0,1,424.784,267.252Z" transform="translate(-351.106 5332.211)" fill="rgba(241,215,190,0.29)"/>
    <path id="Path_987" data-name="Path 987" d="M548.19,151.932a10.19,10.19,0,0,1-6.035-2.195,9.6,9.6,0,0,1-1.646-13.441,190.035,190.035,0,0,1,45.262-41.147,9.51,9.51,0,1,1,10.423,15.91,169.693,169.693,0,0,0-40.872,37.032A8.621,8.621,0,0,1,548.19,151.932Z" transform="translate(-352.168 5332.87)" fill="rgba(241,215,190,0.29)"/>
    <path id="Path_988" data-name="Path 988" d="M614.364,393.083a9.65,9.65,0,0,1-8.229-4.663,245.038,245.038,0,0,0-97.106-88.329,9.63,9.63,0,0,1,8.5-17.282A258.675,258.675,0,0,1,622.593,378a9.682,9.682,0,0,1-3.017,13.167A8.771,8.771,0,0,1,614.364,393.083Z" transform="translate(-351.96 5331.741)" fill="rgba(241,215,190,0.29)"/>
    <path id="Path_989" data-name="Path 989" d="M636.962,359.725a9.541,9.541,0,0,1-9.6-9.6A270.588,270.588,0,0,0,613.1,266.458a9.542,9.542,0,0,1,18.1-6.035,283.9,283.9,0,0,1,15.362,89.7,9.373,9.373,0,0,1-9.6,9.6Z" transform="translate(-352.612 5331.908)" fill="rgba(241,215,190,0.29)"/>
    <path id="Path_990" data-name="Path 990" d="M295.679,328.465a10.451,10.451,0,0,1-7.132-3.018,9.528,9.528,0,0,1,.549-13.441,312.548,312.548,0,0,1,83.391-55.137,9.581,9.581,0,0,1,7.681,17.556A292.278,292.278,0,0,0,301.713,326,8.063,8.063,0,0,1,295.679,328.465Z" transform="translate(-350.654 5331.896)" fill="rgba(241,215,190,0.29)"/>
    <path id="Path_991" data-name="Path 991" d="M406.617,108.818a9.958,9.958,0,0,1-9.6-8.229,9.8,9.8,0,0,1,8.229-10.973A399,399,0,0,1,486.169,86.6a9.617,9.617,0,0,1-1.1,19.2,378.251,378.251,0,0,0-76.808,2.743A4.827,4.827,0,0,1,406.617,108.818Z" transform="translate(-351.319 5332.917)" fill="rgba(241,215,190,0.29)"/>
    <path id="Path_992" data-name="Path 992" d="M545.712,454.7a8.828,8.828,0,0,1-7.681-4.115,435.709,435.709,0,0,1-45.811-80.922,9.581,9.581,0,1,1,17.556-7.681,406.879,406.879,0,0,0,43.89,77.355,9.624,9.624,0,0,1-2.195,13.442A11.108,11.108,0,0,1,545.712,454.7Z" transform="translate(-351.886 5331.295)" fill="rgba(241,215,190,0.29)"/>
    <path id="Path_994" data-name="Path 994" d="M472.02,418.873a11.665,11.665,0,0,1-3.018-.549,150.831,150.831,0,0,1-49.376-27.43,9.554,9.554,0,1,1,12.07-14.813,135.353,135.353,0,0,0,43.066,23.865,9.626,9.626,0,0,1,6.036,12.069C479.975,416.4,476.134,418.873,472.02,418.873Z" transform="translate(-351.435 5331.188)" fill="rgba(241,215,190,0.29)"/>
    <path id="Path_995" data-name="Path 995" d="M538.53,557.048a8.915,8.915,0,0,1-6.583-2.742,9.282,9.282,0,0,1-.275-13.442,185.138,185.138,0,0,0,44.713-81.2,9.648,9.648,0,1,1,18.652,4.938,203.8,203.8,0,0,1-49.376,89.7A9.712,9.712,0,0,1,538.53,557.048Z" transform="translate(-352.11 5330.718)" fill="rgba(241,215,190,0.29)"/>
    <path id="Path_997" data-name="Path 997" d="M347.837,465.1a9.541,9.541,0,0,1-9.6-9.6,385.9,385.9,0,0,1,13.991-96.832,9.528,9.528,0,0,1,11.795-6.584,9.212,9.212,0,0,1,6.583,11.8,359.243,359.243,0,0,0-13.167,91.895A9.668,9.668,0,0,1,347.837,465.1Z" transform="translate(-350.968 5331.322)" fill="rgba(241,215,190,0.29)"/>
    <path id="Path_998" data-name="Path 998" d="M361.36,525.478a9.646,9.646,0,0,1-8.229-4.663,9.46,9.46,0,0,1,3.291-13.167l95.736-57.88a9.6,9.6,0,0,1,9.875,16.459L366.3,524.106A11.175,11.175,0,0,1,361.36,525.478Z" transform="translate(-351.049 5330.743)" fill="rgba(241,215,190,0.29)"/>
    <path id="Path_999" data-name="Path 999" d="M596.208,230.393a5.347,5.347,0,0,1-2.195-.274,9.671,9.671,0,0,1-7.132-11.521l17.007-70.5a9.581,9.581,0,0,1,18.654,4.389l-17.007,70.5A9.649,9.649,0,0,1,596.208,230.393Z" transform="translate(-352.457 5332.587)" fill="rgba(241,215,190,0.29)"/>
    <path id="Path_1001" data-name="Path 1001" d="M357.241,605.975c-21.123,0-42.244-12.345-51.022-32.1a9.581,9.581,0,0,1,17.556-7.681c7.406,16.459,29.9,25.237,46.358,18.1a9.581,9.581,0,1,1,7.681,17.556A52.968,52.968,0,0,1,357.241,605.975Z" transform="translate(-350.771 5330.071)" fill="rgba(241,215,190,0.29)"/>
    <path id="Path_1002" data-name="Path 1002" d="M460.708,585.633a5.356,5.356,0,0,1-1.92-.274,9.834,9.834,0,0,1-7.681-11.247,182.472,182.472,0,0,1,24.139-62c2.743-4.389,8.778-6.035,13.167-3.017,4.39,2.742,6.036,8.778,3.018,13.166a162.536,162.536,0,0,0-21.671,55.685A9.149,9.149,0,0,1,460.708,585.633Z" transform="translate(-351.644 5330.388)" fill="rgba(241,215,190,0.29)"/>
    <path id="Path_1006" data-name="Path 1006" d="M571.161,611.35h-.549l-80.647-4.389a9.617,9.617,0,1,1,1.1-19.2l80.649,4.39a9.608,9.608,0,0,1-.549,19.2Z" transform="translate(-351.822 5329.907)" fill="rgba(241,215,190,0.29)"/>
    <path id="Path_1007" data-name="Path 1007" d="M376.262,651.756a9.2,9.2,0,0,1-7.406-3.566,9.562,9.562,0,0,1,1.372-13.441A267.4,267.4,0,0,1,421.25,602.38c4.663-2.469,10.423-.274,12.892,4.389s.274,10.424-4.389,12.893A252.638,252.638,0,0,0,382.3,649.836,9.87,9.87,0,0,1,376.262,651.756Z" transform="translate(-351.139 5329.825)" fill="rgba(241,215,190,0.29)"/>
    <path id="Path_1009" data-name="Path 1009" d="M621.6,553.108a3.481,3.481,0,0,1-1.646-.274,9.485,9.485,0,0,1-7.681-11.246l9.327-52.12a9.63,9.63,0,1,1,18.928,3.566L631.2,545.153A9.46,9.46,0,0,1,621.6,553.108Z" transform="translate(-352.609 5330.543)" fill="rgba(241,215,190,0.29)"/>
    <path id="Path_1010" data-name="Path 1010" d="M424.281,681.594a9.564,9.564,0,0,1-8.778-5.76,9.442,9.442,0,0,1,4.938-12.619L478.6,637.7a9.581,9.581,0,0,1,7.681,17.556l-58.154,25.511A9.68,9.68,0,0,1,424.281,681.594Z" transform="translate(-351.426 5329.612)" fill="rgba(241,215,190,0.29)"/>
    <path id="Path_1011" data-name="Path 1011" d="M389.784,348.155a9.609,9.609,0,0,1-7.681-3.84,9.407,9.407,0,0,1,1.919-13.442,324.693,324.693,0,0,1,66.109-38.4,9.581,9.581,0,1,1,7.681,17.556,300.016,300.016,0,0,0-62.268,36.21A9.117,9.117,0,0,1,389.784,348.155Z" transform="translate(-351.219 5331.682)" fill="rgba(241,215,190,0.29)"/>
    <path id="Path_1013" data-name="Path 1013" d="M615.213,436.9a52.84,52.84,0,0,1-6.583-.274,9.616,9.616,0,1,1,1.1-19.2,122.4,122.4,0,0,0,54.039-10.15,9.581,9.581,0,0,1,7.681,17.556A137.261,137.261,0,0,1,615.213,436.9Z" transform="translate(-352.534 5330.994)" fill="rgba(241,215,190,0.29)"/>
    <path id="Path_1014" data-name="Path 1014" d="M692.224,367.031a9.426,9.426,0,0,1-9.327-7.955l-3.565-19.2a9.63,9.63,0,1,1,18.927-3.565l3.566,19.2a9.834,9.834,0,0,1-7.681,11.247A5.355,5.355,0,0,1,692.224,367.031Z" transform="translate(-353.012 5331.461)" fill="rgba(241,215,190,0.29)"/>
    <path id="Path_1018" data-name="Path 1018" d="M503.757,154.811a14.149,14.149,0,0,1-3.017-.549,9.662,9.662,0,0,1-6.31-12.07l6.036-19.2a9.63,9.63,0,1,1,18.378,5.761l-6.035,19.2A9.383,9.383,0,0,1,503.757,154.811Z" transform="translate(-351.901 5332.734)" fill="rgba(241,215,190,0.29)"/>
    <path id="Path_1020" data-name="Path 1020" d="M648.359,196.307a9.86,9.86,0,0,1-8.778-5.76l-1.1-2.469A9.581,9.581,0,1,1,656.04,180.4l1.1,2.468a9.442,9.442,0,0,1-4.937,12.619A8.764,8.764,0,0,1,648.359,196.307Z" transform="translate(-352.763 5332.384)" fill="rgba(241,215,190,0.29)"/>
    <path id="Path_1023" data-name="Path 1023" d="M369.892,697.159a9.418,9.418,0,0,1-8.5-5.212l-3.841-7.407a9.63,9.63,0,0,1,17.282-8.5l3.841,7.406a9.456,9.456,0,0,1-4.389,12.893A20.778,20.778,0,0,1,369.892,697.159Z" transform="translate(-351.077 5329.41)" fill="rgba(241,215,190,0.29)"/>
    <path id="Path_969" data-name="Path 969" d="M96.983,322.742a12.3,12.3,0,0,1-5.212-1.372A9.682,9.682,0,0,1,88.754,308.2a636.077,636.077,0,0,1,66.933-88.6,9.512,9.512,0,1,1,13.99,12.892,619.216,619.216,0,0,0-65.012,85.86A8.757,8.757,0,0,1,96.983,322.742Z" transform="translate(-349.463 5332.132)" fill="rgba(241,215,190,0.29)"/>
    <path id="Path_970" data-name="Path 970" d="M257.323,156.283a9.287,9.287,0,0,1-8.778-5.761A93.07,93.07,0,0,0,207.4,105.261a9.7,9.7,0,1,1,9.327-17.008A113.776,113.776,0,0,1,266.1,142.841a9.622,9.622,0,0,1-8.778,13.442Z" transform="translate(-350.153 5332.908)" fill="rgba(241,215,190,0.29)"/>
    <path id="Path_971" data-name="Path 971" d="M228.753,254.651a9.424,9.424,0,0,1-9.327-7.955,282.129,282.129,0,0,0-23.042-72.418,9.695,9.695,0,0,1,17.556-8.229,316.044,316.044,0,0,1,24.688,77.082,9.836,9.836,0,0,1-7.681,11.247A7.711,7.711,0,0,1,228.753,254.651Z" transform="translate(-350.111 5332.468)" fill="rgba(241,215,190,0.29)"/>
    <path id="Path_973" data-name="Path 973" d="M335.208,49.747h-.823l-80.648-6.035a9.428,9.428,0,0,1-8.778-10.424,9.427,9.427,0,0,1,10.423-8.778l80.648,6.035a9.429,9.429,0,0,1,8.778,10.424A9.778,9.778,0,0,1,335.208,49.747Z" transform="translate(-350.408 5333.284)" fill="rgba(241,215,190,0.29)"/>
    <path id="Path_974" data-name="Path 974" d="M51.35,287.9a9.382,9.382,0,0,1-9.052-6.858L25.839,228.65a9.63,9.63,0,0,1,18.379-5.76l16.459,52.394a9.557,9.557,0,0,1-6.309,12.069A6.43,6.43,0,0,1,51.35,287.9Z" transform="translate(-349.092 5332.135)" fill="rgba(241,215,190,0.29)"/>
    <path id="Path_976" data-name="Path 976" d="M305.614,128.591a9.713,9.713,0,0,1-4.937-18.1l34.288-19.476a9.543,9.543,0,0,1,13.168,3.566,9.784,9.784,0,0,1-3.566,13.167l-34.289,19.477A8.2,8.2,0,0,1,305.614,128.591Z" transform="translate(-350.714 5332.893)" fill="rgba(241,215,190,0.29)"/>
    <path id="Path_978" data-name="Path 978" d="M184.742,325.864a9.157,9.157,0,0,1-6.309-2.468,9.547,9.547,0,0,1-.823-13.442,91.455,91.455,0,0,1,59.252-30.174,9.636,9.636,0,0,1,1.646,19.2,72.438,72.438,0,0,0-46.634,23.591A9.234,9.234,0,0,1,184.742,325.864Z" transform="translate(-349.99 5331.753)" fill="rgba(241,215,190,0.29)"/>
    <path id="Path_981" data-name="Path 981" d="M166.563,386.9a11.006,11.006,0,0,1-4.114-.823L122.674,367.15a9.695,9.695,0,1,1,8.229-17.556l39.775,18.928a9.871,9.871,0,0,1,4.663,12.892A10.09,10.09,0,0,1,166.563,386.9Z" transform="translate(-349.642 5331.34)" fill="rgba(241,215,190,0.29)"/>
    <path id="Path_982" data-name="Path 982" d="M78.521,477.268a12.3,12.3,0,0,1-5.212-1.372,128.054,128.054,0,0,1-44.438-47.73A9.512,9.512,0,1,1,45.6,419.114a107.639,107.639,0,0,0,37.855,40.6,9.682,9.682,0,0,1,3.018,13.167A9.205,9.205,0,0,1,78.521,477.268Z" transform="translate(-349.105 5330.948)" fill="rgba(241,215,190,0.29)"/>
    <path id="Path_983" data-name="Path 983" d="M147.761,91.194a9.893,9.893,0,0,1-5.486-1.646,9.678,9.678,0,0,1-2.469-13.441A125.088,125.088,0,0,1,202.9,29.2a9.542,9.542,0,0,1,6.035,18.1,107.288,107.288,0,0,0-53.491,39.775A9.49,9.49,0,0,1,147.761,91.194Z" transform="translate(-349.768 5333.258)" fill="rgba(241,215,190,0.29)"/>
    <path id="Path_984" data-name="Path 984" d="M53.932,184.3a9.859,9.859,0,0,1-8.778-5.76,9.442,9.442,0,0,1,4.938-12.619,314.3,314.3,0,0,1,111.646-26.883,9.617,9.617,0,0,1,1.1,19.2A294.956,294.956,0,0,0,58.047,183.475,11.006,11.006,0,0,1,53.932,184.3Z" transform="translate(-349.205 5332.597)" fill="rgba(241,215,190,0.29)"/>
    <path id="Path_985" data-name="Path 985" d="M9.5,400.731a7.6,7.6,0,0,1-2.469-.274,9.213,9.213,0,0,1-6.584-11.8,257.114,257.114,0,0,1,26.334-62,9.6,9.6,0,0,1,16.459,9.875,234.359,234.359,0,0,0-24.414,57.331A10.351,10.351,0,0,1,9.5,400.731Z" transform="translate(-348.939 5331.5)" fill="rgba(241,215,190,0.29)"/>
    <path id="Path_993" data-name="Path 993" d="M219.788,389.456a9.779,9.779,0,0,1-9.6-8.778,9.551,9.551,0,0,1,8.778-10.424l76.259-7.132a9.636,9.636,0,1,1,1.646,19.2l-76.259,7.133Z" transform="translate(-350.199 5331.254)" fill="rgba(241,215,190,0.29)"/>
    <path id="Path_996" data-name="Path 996" d="M210.792,493.332a11.008,11.008,0,0,1-4.115-.823L133.435,458.22a9.695,9.695,0,1,1,8.229-17.556l73.241,34.289a9.633,9.633,0,0,1,4.663,12.892A10.089,10.089,0,0,1,210.792,493.332Z" transform="translate(-349.706 5330.794)" fill="rgba(241,215,190,0.29)"/>
    <path id="Path_1000" data-name="Path 1000" d="M252.63,554.835a9.113,9.113,0,0,1-5.761-1.92,9.908,9.908,0,0,1-1.919-13.442c16.459-21.945,22.768-51.844,16.184-78.453a9.581,9.581,0,1,1,18.653-4.39,114.093,114.093,0,0,1-19.476,94.638A9.725,9.725,0,0,1,252.63,554.835Z" transform="translate(-350.397 5330.738)" fill="rgba(241,215,190,0.29)"/>
    <path id="Path_1003" data-name="Path 1003" d="M128.555,624.522a8.51,8.51,0,0,1-6.584-2.743,102.846,102.846,0,0,1-30.448-69.127c-.274-5.212,4.115-9.6,9.327-9.875a9.913,9.913,0,0,1,9.875,9.327,81.657,81.657,0,0,0,24.688,55.96,9.527,9.527,0,0,1,.274,13.441A10.989,10.989,0,0,1,128.555,624.522Z" transform="translate(-349.488 5330.176)" fill="rgba(241,215,190,0.29)"/>
    <path id="Path_1004" data-name="Path 1004" d="M93.26,522.128h-.549a179.01,179.01,0,0,1-72.144-19.477,9.57,9.57,0,0,1,8.778-17.007,159.981,159.981,0,0,0,64.463,17.282,9.738,9.738,0,0,1,9.053,10.15A9.623,9.623,0,0,1,93.26,522.128Z" transform="translate(-349.031 5330.525)" fill="rgba(241,215,190,0.29)"/>
    <path id="Path_1005" data-name="Path 1005" d="M200.449,628.945a9.7,9.7,0,0,1-9.6-8.229,304.14,304.14,0,0,1-3.018-63.092,9.568,9.568,0,0,1,10.15-9.052,9.737,9.737,0,0,1,9.052,10.149,285.355,285.355,0,0,0,3.017,59.252,9.6,9.6,0,0,1-7.955,10.973Z" transform="translate(-350.063 5330.142)" fill="rgba(241,215,190,0.29)"/>
    <path id="Path_1008" data-name="Path 1008" d="M313.588,690.188a265.883,265.883,0,0,1-100.124-19.75,9.654,9.654,0,1,1,7.406-17.83,246.874,246.874,0,0,0,100.4,18.1,9.546,9.546,0,0,1,9.874,9.327c.274,5.213-4.114,9.6-9.326,9.875C319.074,690.188,316.331,690.188,313.588,690.188Z" transform="translate(-350.184 5329.522)" fill="rgba(241,215,190,0.29)"/>
    <path id="Path_1012" data-name="Path 1012" d="M133.412,561.522a9.155,9.155,0,0,1-6.309-2.468,9.546,9.546,0,0,1-.823-13.441l26.882-29.9a9.522,9.522,0,0,1,14.265,12.618l-26.883,29.9A9.655,9.655,0,0,1,133.412,561.522Z" transform="translate(-349.683 5330.358)" fill="rgba(241,215,190,0.29)"/>
    <path id="Path_1015" data-name="Path 1015" d="M93.4,229.1a9.2,9.2,0,0,1-7.406-3.566,9.563,9.563,0,0,1,1.372-13.441l13.167-10.7A9.554,9.554,0,0,1,112.6,216.2L99.431,226.9A9.14,9.14,0,0,1,93.4,229.1Z" transform="translate(-349.442 5332.236)" fill="rgba(241,215,190,0.29)"/>
    <path id="Path_1016" data-name="Path 1016" d="M96.631,428.245a9.539,9.539,0,0,1-9.6-8.5,37.829,37.829,0,0,0-10.15-22.22,9.512,9.512,0,0,1,13.99-12.892,56.2,56.2,0,0,1,15.088,33.192,9.53,9.53,0,0,1-8.5,10.424Z" transform="translate(-349.386 5331.143)" fill="rgba(241,215,190,0.29)"/>
    <path id="Path_1017" data-name="Path 1017" d="M304.7,261.351a9.235,9.235,0,0,1-7.132-3.291L283.027,241.6a9.523,9.523,0,1,1,14.265-12.619l14.538,16.459a9.294,9.294,0,0,1-.823,13.442A9.662,9.662,0,0,1,304.7,261.351Z" transform="translate(-350.621 5332.078)" fill="rgba(241,215,190,0.29)"/>
    <path id="Path_1019" data-name="Path 1019" d="M285.194,641.916h-1.372a9.6,9.6,0,0,1-7.955-10.973l2.468-15.636a9.583,9.583,0,1,1,18.928,3.018l-2.469,15.635A9.979,9.979,0,0,1,285.194,641.916Z" transform="translate(-350.593 5329.79)" fill="rgba(241,215,190,0.29)"/>
    <path id="Path_1021" data-name="Path 1021" d="M86.772,124.482a11,11,0,0,1-4.115-.822,9.871,9.871,0,0,1-4.663-12.893A44.408,44.408,0,0,1,95.276,91.839a9.6,9.6,0,1,1,9.875,16.459A26.557,26.557,0,0,0,95.276,119,9.37,9.37,0,0,1,86.772,124.482Z" transform="translate(-349.402 5332.888)" fill="rgba(241,215,190,0.29)"/>
    <path id="Path_1022" data-name="Path 1022" d="M65.8,563.052a9.719,9.719,0,0,1-9.6-9.6v-4.937a9.6,9.6,0,1,1,19.2,0v4.937A9.719,9.719,0,0,1,65.8,563.052Z" transform="translate(-349.276 5330.2)" fill="rgba(241,215,190,0.29)"/>
  </g>
</svg>
