<svg xmlns="http://www.w3.org/2000/svg" width="258" height="187.205" viewBox="0 0 258 187.205">
  <g id="Group_991" data-name="Group 991" transform="translate(-545 -569.795)">
    <text id="اضغط_لتصفح_الملفات_او_اسحب_الملف_الى_هنا" data-name="اضغط لتصفح الملفات او اسحب الملف الى هنا" transform="translate(545 667)" fill="#0a0f33" font-size="24" font-family="Cairo-SemiBold, Cairo" font-weight="600"><tspan x="-120" y="31">اضغط لتصفح الملفات او</tspan><tspan y="31"> </tspan><tspan x="-105" y="76">اسحب الملف الى هنا</tspan></text>
    <path id="Icon_awesome-cloud-upload-alt" data-name="Icon awesome-cloud-upload-alt" d="M88.691,34.354A15.856,15.856,0,0,0,73.909,12.808a15.757,15.757,0,0,0-8.793,2.673A26.4,26.4,0,0,0,15.838,28.646c0,.445.016.891.033,1.336a23.763,23.763,0,0,0,7.886,46.176H84.467a21.116,21.116,0,0,0,4.223-41.8ZM64.9,44.484H54.112V62.961a2.647,2.647,0,0,1-2.64,2.64H43.553a2.647,2.647,0,0,1-2.64-2.64V44.484H30.124a2.635,2.635,0,0,1-1.864-4.5L45.649,22.591a2.649,2.649,0,0,1,3.728,0L66.765,39.98a2.638,2.638,0,0,1-1.864,4.5Z" transform="translate(627.605 567.545)" fill="rgba(112,112,112,0.32)"/>
  </g>
</svg>
