<svg id="noun_verified_541491" xmlns="http://www.w3.org/2000/svg" width="124.563" height="140.504" viewBox="0 0 124.563 140.504">
  <g id="Group_787" data-name="Group 787" transform="translate(0 0)">
    <path id="Path_2951" data-name="Path 2951" d="M62.912,111.862a67.392,67.392,0,0,0,20.808-3.256,29.667,29.667,0,0,1-7.644-19.675,30.835,30.835,0,0,1,2.973-13.022,29.218,29.218,0,0,1-5.237,2.265,33.218,33.218,0,0,1-11.182,1.982,32.291,32.291,0,0,1-11.041-1.84A38.217,38.217,0,0,1,34.319,66,252.49,252.49,0,0,0,7,83.269,68.817,68.817,0,0,0,62.912,111.862Z" transform="translate(-7 28.5)" fill="#79254a"/>
    <path id="Path_2952" data-name="Path 2952" d="M60.4,88.972A23.072,23.072,0,1,0,83.472,65.9,23.077,23.077,0,0,0,60.4,88.972Zm15.853-3.68L80.5,89.539,90.691,79.347l4.388,4.388L84.888,93.927,80.5,98.315l-4.388-4.388L71.865,89.68Z" transform="translate(18.018 28.459)" fill="#79254a"/>
    <path id="Path_2953" data-name="Path 2953" d="M21.191,63.076c.849,2.831,2.265,8.21,5.662,11.324,2.548,9.342,9.908,20.242,21.8,24.488a25.91,25.91,0,0,0,17.694,0c11.89-4.246,19.251-15,21.8-24.488,3.4-3.114,4.813-8.493,5.662-11.324,1.274-4.53,2.548-10.9-.849-15.429a1.954,1.954,0,0,1-.425-.566c.283-1.557.425-3.114.566-4.53,3.963-26.611-10.758-28.31-12.456-28.31-.142,0-.142-.142-.283-.142C78.659,7.164,68.751-.055,59.409,1.785,50.067,3.767,30.816,1.5,30.816,1.5c-.142,4.1,3.4,6.936,3.4,6.936C17.935,18.347,20.907,39.579,22.465,47.223a1.954,1.954,0,0,0-.425.566C18.643,52.177,19.917,58.688,21.191,63.076ZM29.684,50.62h.425v-.142c-.425-1.415-2.406-9.484,4.671-14.438,5.662,1.274,14.3,1.557,25.9-3.4,22.223-9.484,24.2,17.977,24.2,17.977h.425c2.265,0,4.671,1.84,2.123,10.616-1.982,6.936-3.822,8.918-5.237,8.918-1.274,8.21-7.644,18.684-18.118,22.365a20.109,20.109,0,0,1-13.306,0C40.441,88.838,33.93,78.363,32.656,70.154c-1.415-.142-3.256-2.123-5.237-8.918C25.154,52.46,27.419,50.62,29.684,50.62Z" transform="translate(-1.657 -1.494)" fill="#79254a"/>
  </g>
</svg>
