<svg xmlns="http://www.w3.org/2000/svg" width="361.01" height="330.801" viewBox="0 0 361.01 330.801">
  <g id="Group_1204" data-name="Group 1204" transform="translate(21396 3445)">
    <g id="freepik--background-simple--inject-4" transform="translate(-21389.592 -3445)">
      <path id="Path_3284" data-name="Path 3284" d="M364.093,219.489c-11.234,30.091-34.189,62.663-66.494,72.3-48.842,14.576-54.642,53.924-142.069,50.277a176.552,176.552,0,0,1-37.807-5.548A145.262,145.262,0,0,1,99.95,330.6C48.872,309.923,22.26,264.393,20.017,216.749c-2.923-62.655,40.8-92.517,69.21-110.009S151.882,21.5,237.859,24.412a170.618,170.618,0,0,1,38.86,5.67c28.931,7.83,58.336,25.184,75.423,50.467q1.923,2.847,3.678,5.831C378.692,125.179,379.417,178.462,364.093,219.489Z" transform="translate(-19.877 -24.32)" fill="none"/>
      <path id="Path_3285" data-name="Path 3285" d="M364.093,219.489c-11.234,30.091-34.189,62.663-66.494,72.3-48.842,14.576-54.642,53.924-142.069,50.277a176.552,176.552,0,0,1-37.807-5.548A145.262,145.262,0,0,1,99.95,330.6C48.872,309.923,22.26,264.393,20.017,216.749c-2.923-62.655,40.8-92.517,69.21-110.009S151.882,21.5,237.859,24.412a170.618,170.618,0,0,1,38.86,5.67c28.931,7.83,58.336,25.184,75.423,50.467q1.923,2.847,3.678,5.831C378.692,125.179,379.417,178.462,364.093,219.489Z" transform="translate(-19.877 -24.32)" fill="#f1d7be"/>
    </g>
    <g id="freepik--Characters--inject-4" transform="translate(-21325.225 -3350.608)">
      <path id="Path_3286" data-name="Path 3286" d="M349,176s.237-8.616,5.2-11.058,5.25,5.624,5.25,5.624,11.363-7.219,13.828-1.748-.977,8.12-.977,8.12,10.089-.351,10.791,5.182-4.51,8.242-4.51,8.242,6.235,5.09,4.045,7.441-6.983,2.518-6.983,2.518,2.717,5.457-2.022,7.395-10.158-1.671-10.158-1.671.839,2.5-2.717,1.87a11.558,11.558,0,0,1-9.356-7.509C349.188,195.181,346.341,180.4,349,176Z" transform="translate(-161.94 -151.907)" fill="#263238" stroke="#263238" stroke-linecap="round" stroke-linejoin="round" stroke-width="1"/>
      <path id="Path_3287" data-name="Path 3287" d="M279.588,397.62s-2.831,10.806-2.785,12-.939,3.915-.107,4.686a39.935,39.935,0,0,0,4.938,3.442,3.732,3.732,0,0,0,1.984-.6,1.862,1.862,0,0,0,.618-1.358,18.927,18.927,0,0,0-1.29-2.5c-.153-.4,2.083-5.563,2.931-8.135a45.789,45.789,0,0,0,1.358-7.006Z" transform="translate(-144.991 -207.126)" fill="#bdbdbd" stroke="#263238" stroke-width="1"/>
      <path id="Path_3288" data-name="Path 3288" d="M283.458,407.48s-1.61,3.816-1.717,4.472-2.289,2.488-2,3.953,3.511,1.076,5.1-3.259" transform="translate(-145.785 -209.462)" fill="#bdbdbd" stroke="#263238" stroke-width="1"/>
      <path id="Path_3289" data-name="Path 3289" d="M290.463,320.7s-1.351,22.04-1.862,23.986-6.647,19.72-8,25.184a74.144,74.144,0,0,0-1.763,10.287l8.234,1.732,4.625-20.315s6.044-18.514,4.815-27.191A25.947,25.947,0,0,0,290.463,320.7Z" transform="translate(-145.578 -188.908)" fill="#79254a" stroke="#263238" stroke-width="1"/>
      <path id="Path_3290" data-name="Path 3290" d="M334.388,441.081c.1-4.793.3-11.257.763-14.958.763-6.4,3.5-10.348,6.3-18.316s3.053-18.438,3.053-18.438l-50.292,1.755s-5.831,21.62-9.364,37.524a64.553,64.553,0,0,0-1.671,12.432" transform="translate(-146.606 -205.172)" fill="#79254a" stroke="#263238" stroke-width="1"/>
      <path id="Path_3291" data-name="Path 3291" d="M306.27,401.651l41.844,1.175L349,399.59Z" transform="translate(-152.075 -207.593)" fill="#263238" stroke="#263238" stroke-linecap="round" stroke-linejoin="round" stroke-width="1"/>
      <path id="Path_3292" data-name="Path 3292" d="M303.237,443.6s-.824-26.169-.847-40.371" transform="translate(-151.156 -208.455)" fill="#fff" stroke="#263238" stroke-width="1"/>
      <path id="Path_3293" data-name="Path 3293" d="M332.3,248.026l6.105,4.106s7.227,6.456,9.005,11.8.488,37.066-1.3,47.316,2.686,23.017,4.281,30.221,2.289,20.605,2.289,20.605,1.129,1.572-18.468,2.251-33.266,1.7-34.869,2.022a19.606,19.606,0,0,1-2.938.374l-.763-6.96-1.9,5.731-4.068-.931s2.526-12.455,3.159-17.308,4.632-21.368,4.686-27.58-5.136-16.209-6.151-22.36,1.03-16.7,6.105-24.665,8.479-11.05,18.4-19.186S332.3,248.026,332.3,248.026Z" transform="translate(-148.143 -171.594)" fill="#79254a" stroke="#263238" stroke-width="1"/>
      <path id="Path_3294" data-name="Path 3294" d="M324.69,368.726l20.475,2.32-1.152-5.357-12.775-1.1" transform="translate(-156.437 -199.303)" fill="none" stroke="#263238" stroke-width="1"/>
      <path id="Path_3295" data-name="Path 3295" d="M314.988,364.2l-1.038,3.51,5.136.58" transform="translate(-153.894 -199.211)" fill="none" stroke="#263238" stroke-width="1"/>
      <path id="Path_3296" data-name="Path 3296" d="M324.561,317.328a22.745,22.745,0,0,1-2.641-2.908" transform="translate(-155.781 -187.421)" fill="none" stroke="#263238" stroke-width="1"/>
      <path id="Path_3297" data-name="Path 3297" d="M333.306,324.973s-2.16-1.633-4.526-3.663" transform="translate(-157.406 -189.053)" fill="none" stroke="#263238" stroke-width="1"/>
      <path id="Path_3298" data-name="Path 3298" d="M332.868,248.026s-6.51-2.709-16.431,5.434-13.317,11.234-18.415,19.186a43.08,43.08,0,0,0-5.953,16.11c.122.6.252,1.2.4,1.816,2.839,12,6,17.8,6,17.8s5.495-27.336,15.057-38.417,25.444-17.82,25.444-17.82Z" transform="translate(-148.711 -171.593)" fill="#79254a" stroke="#263238" stroke-width="1"/>
      <path id="Path_3299" data-name="Path 3299" d="M309.956,177.183s-7.166,6.693-7.7,11.966-1.091,9.822-1.984,11.524-5.4,2.816-3.869,5.388,2.953,2.518,2.953,2.518,2.289,11.379,4.029,12.974,7.9.679,7.9.679l1.908,13.8s-12.813,11.363-15.309,27.2.359,24.871.359,24.871,1.671-24.948,7.441-34.289,19.17-18.186,21.147-19.781,6.99-3.541,6.99-3.541-2.381-5.342-2.7-7.754-.214-5.96.237-6.929,8.456-3.877,11.447-13.05-1.412-20-6.105-24.612S315.955,171.246,309.956,177.183Z" transform="translate(-149.663 -154.072)" fill="#bdbdbd" stroke="#263238" stroke-width="1"/>
      <path id="Path_3300" data-name="Path 3300" d="M346.836,202.774c3.053-9.158-1.412-20-6.105-24.612s-20.765-6.914-26.764-.977c0,0-.382.359-.977.977a16.553,16.553,0,0,1,6.968-.229c4.8.763,4.693,4.579,3.388,8.234s-.321,4.3,2.129,6.105-.061,5.258,1.664,6.632,3.129-6.105,6.868-.717,1.229,7.83-1.107,9.341a17.5,17.5,0,0,1-4.22,2.061s3.533,4.144,7.021,5.853C337.373,214.2,344.119,211.016,346.836,202.774Z" transform="translate(-153.666 -154.074)" fill="#263238" stroke="#263238" stroke-linecap="round" stroke-linejoin="round" stroke-width="1"/>
      <path id="Path_3301" data-name="Path 3301" d="M305.46,221.251s5-.412,7.311-2.641" transform="translate(-151.883 -164.728)" fill="none" stroke="#263238" stroke-width="1"/>
      <path id="Path_3302" data-name="Path 3302" d="M308.951,205.946c.038,1.183-.412,2.16-1,2.183s-1.107-.923-1.152-2.106.412-2.16,1-2.183S308.905,204.763,308.951,205.946Z" transform="translate(-152.199 -161.23)" fill="#263238"/>
      <path id="Path_3303" data-name="Path 3303" d="M306.8,200s1.61-2.167,3.915.389" transform="translate(-152.2 -160.119)" fill="none" stroke="#263238" stroke-width="1"/>
      <path id="Path_3304" data-name="Path 3304" d="M316,236.644l5.96-2.244-4.152,7.456Z" transform="translate(-154.379 -168.468)" fill="#263238" stroke="#263238" stroke-width="1"/>
      <path id="Path_3305" data-name="Path 3305" d="M291.085,380.87l-7.815,32.915,7.013,1.633,3.862-24.07Z" transform="translate(-146.627 -203.159)" fill="#fff" stroke="#263238" stroke-width="1"/>
      <path id="Path_3306" data-name="Path 3306" d="M301.267,277.61a40.355,40.355,0,0,0-3.144,10.264c-2.5,15.828.359,24.871.359,24.871s1.656-24.612,7.326-34.09A20.5,20.5,0,0,1,301.267,277.61Z" transform="translate(-149.903 -178.702)" fill="#fff" stroke="#263238" stroke-width="1"/>
      <path id="Path_3307" data-name="Path 3307" d="M318.864,283.728l-.534,27.931-48.88,8.059,1.068,13.164s27.13.534,39.753-.542,23.658-1.877,25.245-3.221,6.189-27.306,8.067-45.568-1.877-24.421-9.394-23.368" transform="translate(-143.354 -174.548)" fill="#79254a" stroke="#263238" stroke-width="1"/>
      <path id="Path_3308" data-name="Path 3308" d="M229.915,336.292,226,348.167l3.816,2.076s4.846,3.755,7.5,5.785,4.693,2.03,6.105,1.4,7.815-9.692,8.593-11.409-2.969-6.868-6.716-9.066-6.868-2.183-9.066-1.526A40.587,40.587,0,0,1,229.915,336.292Z" transform="translate(-133.063 -192.305)" fill="#fff" stroke="#263238" stroke-width="1"/>
      <path id="Path_3309" data-name="Path 3309" d="M260.2,337.73l-6.182-.534a40.065,40.065,0,0,0-5.907-1.076c-1.61,0-3.762,1.61-4.838,2.419s-12.89,13.7-12.89,13.7,1.076,2.144,2.686,1.61,4.579-1.885,4.579-1.885-3.221,3.228-1.61,4.838a6.811,6.811,0,0,0,4.3,1.61l1.885-1.076a7.425,7.425,0,0,0,2.679,1.343,8.693,8.693,0,0,0,5.342-1.343c1.847-1.076,6.647-6.678,6.647-6.678l4.121-1.6Z" transform="translate(-134.1 -192.56)" fill="#bdbdbd" stroke="#263238" stroke-width="1"/>
      <path id="Path_3310" data-name="Path 3310" d="M233.92,336.264s7.815-4.533,11.249-3.282,7.975,8.906,6.723,10-3.282.618-4.373-.473a18.2,18.2,0,0,0-2.969-2.19,14.714,14.714,0,0,1-6.723,1.877" transform="translate(-134.939 -191.765)" fill="#fff" stroke="#263238" stroke-width="1"/>
      <path id="Path_3311" data-name="Path 3311" d="M263.407,359.184l-2.48-1.328a1.717,1.717,0,0,1-.71-2.328h0a1.717,1.717,0,0,1,2.328-.7l2.48,1.32a1.725,1.725,0,0,1,.71,2.328h0a1.725,1.725,0,0,1-2.328.71Z" transform="translate(-141.119 -196.942)" fill="#fff" stroke="#263238" stroke-width="1"/>
      <path id="Path_3312" data-name="Path 3312" d="M260.542,362.681l-2.48-1.328a1.725,1.725,0,0,1-.71-2.289h0a1.725,1.725,0,0,1,2.289-.7l2.48,1.32a1.717,1.717,0,0,1,.71,2.289h0a1.717,1.717,0,0,1-2.289.71Z" transform="translate(-140.445 -197.784)" fill="#fff" stroke="#263238" stroke-width="1"/>
      <path id="Path_3313" data-name="Path 3313" d="M257.258,365.734l-2.48-1.328a1.709,1.709,0,0,1-.7-2.328h0a1.717,1.717,0,0,1,2.328-.7l2.48,1.328a1.717,1.717,0,0,1,.7,2.328h0a1.717,1.717,0,0,1-2.328.7Z" transform="translate(-139.663 -198.493)" fill="#fff" stroke="#263238" stroke-width="1"/>
      <path id="Path_3314" data-name="Path 3314" d="M250.925,366.188l-.649-.343a1.717,1.717,0,0,1-.71-2.328h0a1.725,1.725,0,0,1,2.328-.71l.649.351a1.717,1.717,0,0,1,.71,2.328h0a1.717,1.717,0,0,1-2.328.7Z" transform="translate(-138.597 -198.833)" fill="#fff" stroke="#263238" stroke-width="1"/>
      <path id="Path_3315" data-name="Path 3315" d="M220.95,332.377l-32.8-13.867,1.213,21.727,27.084,6.2Z" transform="translate(-124.098 -188.389)" fill="#263238" stroke="#263238" stroke-linecap="round" stroke-linejoin="round" stroke-width="1"/>
      <path id="Path_3316" data-name="Path 3316" d="M223.873,350.115l4.5-14.065-4.587-2.03-.092.466-4.2,14.569Z" transform="translate(-131.524 -192.063)" fill="#fff" stroke="#263238" stroke-width="1"/>
      <path id="Path_3317" data-name="Path 3317" d="M164,222.8l8.395,3.9s3.526,9.99,2.35,10.28-9.99-6.754-9.99-6.754Z" transform="translate(-118.379 -165.721)" fill="#fff" stroke="#263238" stroke-linecap="round" stroke-linejoin="round" stroke-width="1"/>
      <path id="Path_3318" data-name="Path 3318" d="M161.795,203.086l.588-3.366s7.784.534,10.9.511,5.831-.42,5.808-3.724-1.839-14.576-1.839-14.576,3.5-.8,4.846-2.366-.6-3.5-2.366-5.823-3.343-4.838-3.549-7.563-4.938-11.638-4.938-11.638.763-1.366-1.778-4.266-15.576-3.4-23.917.763-10.242,10.18-10.2,16.789,3.816,15.927,3.816,15.927-2.465,10.127-2.656,10.684-2.4,4.9-2.4,4.9,10.432,7.273,14.24,10.539,12.409,8.853,12.462,5.831.4-9.845.4-9.845Z" transform="translate(-111.297 -148.006)" fill="#fff" stroke="#263238" stroke-linecap="round" stroke-linejoin="round" stroke-width="1"/>
      <path id="Path_3319" data-name="Path 3319" d="M185.04,178.2c.046,1.129-.214,2.053-.588,2.068s-.725-.878-.763-2.007.206-2.053.588-2.068S184.986,177.068,185.04,178.2Z" transform="translate(-123.041 -154.681)" fill="#263238"/>
      <path id="Path_3320" data-name="Path 3320" d="M178.29,173.387s1.732-2.931,6.22-1.206" transform="translate(-121.763 -153.603)" fill="none" stroke="#263238" stroke-linecap="round" stroke-linejoin="round" stroke-width="2"/>
      <path id="Path_3321" data-name="Path 3321" d="M179.474,196.508c0-3.312-1.839-14.576-1.839-14.576s-2.144-1.152-6.227-.16-5.2,7.632-5.976,8.395-5.853-3.816-7.822-6.952a29.726,29.726,0,0,1-3.572-11.638c-.214-3.137,7.166-4.716,8.318-7.632s-4.289-6.021-2.389-7.967,5.831-1.2,7.777-.824a6.868,6.868,0,0,0,3.884-.611s.763-1.366-1.778-4.266-15.576-3.4-23.917.763-10.242,10.18-10.2,16.789c.038,5.342,2.511,12.485,3.442,15a6.319,6.319,0,0,0,2.5.519c.763-.2,1.343-2.534,1.717-4.877s6-5.09,6-5.09,1.015,7,1.023,8.357-.763,8.173,2.992,11.447a70.024,70.024,0,0,0,9.372,6.555s7.784.534,10.9.511S179.5,199.812,179.474,196.508Z" transform="translate(-111.683 -148.006)" fill="#263238" stroke="#263238" stroke-linecap="round" stroke-linejoin="round" stroke-width="1"/>
      <path id="Path_3322" data-name="Path 3322" d="M152.793,184.807s-1.618-9.326-4.335-8.921-4.258,3.915-2.869,8.395,4.113,4.06,5.663,3.663" transform="translate(-113.895 -154.606)" fill="#fff" stroke="#263238" stroke-linecap="round" stroke-linejoin="round" stroke-width="1"/>
      <path id="Path_3323" data-name="Path 3323" d="M180.22,196.85s1.564,1.938,5.647,1.916" transform="translate(-122.22 -159.575)" fill="none" stroke="#fff" stroke-linecap="round" stroke-linejoin="round" stroke-width="1"/>
      <path id="Path_3324" data-name="Path 3324" d="M121.044,437.363h41.21c.137-2.167,1.74-10.5,1.74-15.965,0-6.311,4.342-47.026,4.342-47.026l-53.6-.7,1.755,24.917Z" transform="translate(-106.712 -201.454)" fill="#263238" stroke="#263238" stroke-linecap="round" stroke-linejoin="round" stroke-width="1"/>
      <path id="Path_3325" data-name="Path 3325" d="M123.894,217.13s-9.394,12.05-12.043,18.8-4.7,7.929-4.113,16.446,4.709,42.592,4.709,42.592l-8.227,44.362a90.136,90.136,0,0,0,30.259,5.281c17.034,0,24.421-1.465,25.558-2.053s11.447-3.228,11.447-3.228,0-50.231-3.236-67.562-7.342-30.526-8.807-33.785-6.174-13.805-6.174-13.805Z" transform="translate(-104.22 -164.378)" fill="#263238" stroke="#263238" stroke-linecap="round" stroke-linejoin="round" stroke-width="1"/>
      <path id="Path_3326" data-name="Path 3326" d="M164.209,237.987c-1.473-3.228-6.174-13.805-6.174-13.805l-29.4-7.052s-1.984,2.549-4.388,5.96c6.4,3.717,22.254,12.9,23.192,13.134,1.175.3,7.052-.29,7.052-.29l-2.625,3.228s7.052,5.586,9.4,7.929c1.236,1.236,4.823,4.5,7.952,7.326A127.516,127.516,0,0,0,164.209,237.987Z" transform="translate(-108.964 -164.378)" fill="#263238" stroke="#263238" stroke-linecap="round" stroke-linejoin="round" stroke-width="1"/>
      <path id="Path_3327" data-name="Path 3327" d="M158.9,233.291l9.99,7.929,8.219,14.691-5.281-21.445L160.961,228.3Z" transform="translate(-117.171 -167.024)" fill="#fff" stroke="#263238" stroke-linecap="round" stroke-linejoin="round" stroke-width="1"/>
      <path id="Path_3328" data-name="Path 3328" d="M131.361,209.82l30.755,13.859v10.867L126.95,216.574Z" transform="translate(-109.604 -162.647)" fill="#fff" stroke="#263238" stroke-linecap="round" stroke-linejoin="round" stroke-width="1"/>
      <rect id="Rectangle_905" data-name="Rectangle 905" width="53.146" height="43.004" transform="translate(9.28 158.342)" fill="#f9f3ec" stroke="#263238" stroke-width="1"/>
      <path id="Path_3329" data-name="Path 3329" d="M151.676,382.35s3.953,5.151,5.5,5.67a6.105,6.105,0,0,1,3.053,2.747c.687,1.03,1.526,8.761,2.061,9.28s.519,1.717-1.374.855-3.053-3.816-3.053-3.816l.687,6.868s1.526.343.343,1.206-2.236,2.06-3.266,1.526a16.429,16.429,0,0,1-2.572-1.893,8.258,8.258,0,0,1-3.816.343c-1.885-.343-1.526.343-3.259-.862s-1.725.176-2.579-2.061A105.662,105.662,0,0,1,140.137,390c-.343-2.236-.687-5.342-.687-5.342Z" transform="translate(-112.564 -203.51)" fill="#fff" stroke="#263238" stroke-linecap="round" stroke-linejoin="round" stroke-width="1"/>
      <path id="Path_3330" data-name="Path 3330" d="M151.953,378.07l1.2,5.327-14.775,2.061-.687-5.327Z" transform="translate(-112.147 -202.496)" fill="#fff" stroke="#263238" stroke-linecap="round" stroke-linejoin="round" stroke-width="1"/>
      <path id="Path_3331" data-name="Path 3331" d="M127.484,231s-10.28,3.228-10.57,7.929-3.7,61.716-2.228,65.532,15.919,42.485,15.919,42.485l16.744-2.053s-8.578-44.843-8.853-45.728,5.754-50.841,5.754-50.841" transform="translate(-106.612 -167.663)" fill="#263238" stroke="#263238" stroke-linecap="round" stroke-linejoin="round" stroke-width="1"/>
      <path id="Path_3332" data-name="Path 3332" d="M149.755,272.5l-3.785,36.494,3.61,22.673" transform="translate(-114.108 -177.492)" fill="none" stroke="#878787" stroke-linecap="round" stroke-linejoin="round" stroke-width="1"/>
      <line id="Line_93" data-name="Line 93" x1="0.198" y2="1.938" transform="translate(36.029 89.422)" fill="none" stroke="#878787" stroke-linecap="round" stroke-linejoin="round" stroke-width="1"/>
      <line id="Line_94" data-name="Line 94" x1="1.129" y2="34.266" transform="translate(7.99 83.774)" fill="none" stroke="#878787" stroke-linecap="round" stroke-linejoin="round" stroke-width="1"/>
      <path id="Path_3333" data-name="Path 3333" d="M164.5,342.062l11.295-.412,1.015,4.068-18.713,1.2" transform="translate(-116.981 -193.87)" fill="none" stroke="#878787" stroke-linecap="round" stroke-linejoin="round" stroke-width="1"/>
      <line id="Line_95" data-name="Line 95" y1="0.214" x2="6.014" transform="translate(38.112 148.314)" fill="none" stroke="#878787" stroke-linecap="round" stroke-linejoin="round" stroke-width="1"/>
      <path id="Path_3334" data-name="Path 3334" d="M127.52,226.21l20.72,12.165,7.052-.29-2.648,3.228L166.3,252.188" transform="translate(-109.739 -166.529)" fill="none" stroke="#878787" stroke-linecap="round" stroke-linejoin="round" stroke-width="1"/>
    </g>
    <g id="freepik--Table--inject-4" transform="translate(-21396 -3114.699)">
      <line id="Line_96" data-name="Line 96" x2="348.372" transform="translate(0)" fill="none" stroke="#263238" stroke-width="1"/>
    </g>
  </g>
</svg>
