<svg xmlns="http://www.w3.org/2000/svg" width="687.557" height="320.523" viewBox="0 0 687.557 320.523">
  <g id="Layer_2" data-name="Layer 2" transform="translate(-82.672)">
    <g id="Front" transform="translate(-34.27)">
      <path id="Path_3335" data-name="Path 3335" d="M339.661,166.85A120.7,120.7,0,0,0,220.229,63.66c-61.661,0-113.256,43.542-120.559,103.224" transform="translate(240.44 153.571)" fill="#febb48"/>
      <path id="Path_3336" data-name="Path 3336" d="M278.1,41.25A204.025,204.025,0,0,0,75.68,220.3c134.959.99,269.917.614,404.876,0A203.991,203.991,0,0,0,278.1,41.25Z" transform="translate(182.567 99.51)" fill="#febb48" opacity="0.6"/>
      <path id="Path_3337" data-name="Path 3337" d="M244.545,55.05A156.968,156.968,0,0,0,89.59,187.313q154.955.819,309.944,0A156.968,156.968,0,0,0,244.545,55.05Z" transform="translate(216.123 132.8)" fill="#febb48" opacity="0.8"/>
      <g id="Group_1207" data-name="Group 1207">
        <path id="Path_3338" data-name="Path 3338" d="M378,0C197.886-.051,48.108,138.59,34.27,318.168c229.174,3.583,458.382,2.048,687.556.956C708.459,139.128,558.487-.067,378,0Z" transform="translate(82.671 0)" fill="#febb48" opacity="0.2"/>
        <path id="Path_3339" data-name="Path 3339" d="M321.594,23.32c-136.532,0-250.768,103.7-263.943,239.622,175.972,1.9,351.948,1.188,527.957.335A265.242,265.242,0,0,0,321.594,23.32Z" transform="translate(139.074 56.256)" fill="#febb48" opacity="0.4"/>
      </g>
      <path id="Path_3340" data-name="Path 3340" d="M608.357,151.83l-149.086,12.8a1.263,1.263,0,0,0-1.16,1.263v.751a2.8,2.8,0,0,1-2.8,2.8h-.819a2.8,2.8,0,0,1-2.8-2.8h0a1.3,1.3,0,0,0-1.365-1.263h-1.638a1.228,1.228,0,0,0-1.16,1.263v.887a1.98,1.98,0,0,1-.2.887,17.949,17.949,0,1,1-3.412,0,1.98,1.98,0,0,1-.2-.887v-.341a1.263,1.263,0,0,0-1.4-1.263l-39.89,3.412h0L365.26,177.73a1.3,1.3,0,0,0-.955.921,13.649,13.649,0,0,1-13.069,9.9H314.143a13.649,13.649,0,0,1-13.035-9.9,1.3,1.3,0,0,0-.955-.921l-37.229-8.394h0l-40.744-3.412a1.3,1.3,0,0,0-1.365,1.3v.41a1.74,1.74,0,0,1-.2.853,18.12,18.12,0,1,1-3.412,0,2.013,2.013,0,0,1-.239-.887v-.955a1.263,1.263,0,0,0-1.16-1.3H214.6a1.3,1.3,0,0,0-1.365,1.3v.307a2.8,2.8,0,0,1-2.8,2.8h-.785a2.8,2.8,0,0,1-2.8-2.8v-1.092a1.3,1.3,0,0,0-1.16-1.263L56.886,151.83h-.341c-2.935-1.126-4.88-2.218-2.15-3.412a1.024,1.024,0,0,1,.546,0l244.837,16.311a1.467,1.467,0,0,1,.785.341l2.252,2.047h0l-1.5-1.331a1.228,1.228,0,0,1,0-1.843l.853-.887a1.3,1.3,0,0,1,2.082.409h0a30.984,30.984,0,0,1-.955-7.61v-.409a29.685,29.685,0,0,1,1.024-8.224,1.262,1.262,0,0,0-1.058-1.57l-66.677-9.725c-2.184-.307-1.843-1.536-.375-1.467,0,0,61.764,4.982,70.26,5.426a1.228,1.228,0,0,0,1.16-.614,29.21,29.21,0,0,1,21.259-14.332h-.955l3.617-84.626a1.263,1.263,0,0,1,1.911-1.058l.409.239a1.365,1.365,0,0,1,.648,1.058l2.252,83.466a1.263,1.263,0,0,0,1.024,1.228,29.141,29.141,0,0,1,19.723,14.025,1.229,1.229,0,0,0,1.16.614c9.452-.512,70.5-5.392,70.5-5.392,1.467,0,1.809,1.16-.375,1.467l-66.848,10a1.263,1.263,0,0,0-1.058,1.536,30.712,30.712,0,0,1,1.058,7.337v.444a30.71,30.71,0,0,1-1.194,8.906l.444-.99a1.263,1.263,0,0,1,2.047-.409l1.843,1.843h0l245.246-16.345a1.5,1.5,0,0,1,.546,0c2.764,1.126.785,2.218-2.116,3.412Z" transform="translate(128.064 94.269)" fill="#79254a"/>
    </g>
  </g>
</svg>
