<svg xmlns="http://www.w3.org/2000/svg" width="393.289" height="337.154" viewBox="0 0 393.289 337.154">
  <g id="Group_1756" data-name="Group 1756" transform="translate(-454.99 -295.259)">
    <g id="Work_time-pana" data-name="Work time-pana" transform="translate(454.99 295.259)">
      <g id="freepik--background-simple--inject-8" transform="translate(31.283 0)">
        <path id="Path_3432" data-name="Path 3432" d="M381.519,129l-1.96-3.181c-15.825-25.752-44.12-41.622-74.33-40.6a82.861,82.861,0,0,0-14.3,1.732c-28.213,5.962-52.762,27.028-62.9,54.02-5.98,15.87-7.648,34.138-19.006,46.736-14.786,16.408-39.881,16.91-61.941,16.226s-47.174-.1-61.887,16.408c-9.207,10.31-12.142,24.968-11.395,38.769,2,36.481,27.739,69.179,60.538,85.424s71.413,17.694,107.31,10.556c50.282-10.027,98.1-37.5,126.855-79.963S404.518,174.823,381.519,129Z" transform="translate(-73.688 -85.169)" fill="#ebebeb"/>
      </g>
      <g id="freepik--Floor--inject-8" transform="translate(0 335.98)">
        <path id="Path_3433" data-name="Path 3433" d="M432.659,453.977c0,.128-88.049.237-196.635.237s-196.654-.091-196.654-.237,88.031-.237,196.654-.237S432.659,453.868,432.659,453.977Z" transform="translate(-39.37 -453.74)" fill="#263238"/>
      </g>
      <g id="freepik--Hourglass--inject-8" transform="translate(89.395 11.45)">
        <path id="Path_3434" data-name="Path 3434" d="M154.539,110.239c-14.631,23.008-13.674,54.913,2.315,77,10.656,14.731,26.636,24.612,39.325,37.612s22.334,32.188,15.633,49.088c-6.819,17.2-26.791,24.193-41.741,35.1A78.888,78.888,0,0,0,151.039,416.8h155.35s27.293-52.005-7.794-91.65-53.929-40.282-52.634-66.28,19.489-34.43,29.891-44.184,61.075-32.479,31.185-104.457Z" transform="translate(-137.453 -98.835)" fill="#fafafa"/>
        <path id="Path_3435" data-name="Path 3435" d="M154.523,110.232h40.866l111.631-.082h.118v.109a143.112,143.112,0,0,1,5.834,16.727,97.287,97.287,0,0,1,3.3,18.231,72.225,72.225,0,0,1-.984,19.3,62.052,62.052,0,0,1-7.019,18.76,67.233,67.233,0,0,1-5.852,8.487,77.543,77.543,0,0,1-7.156,7.657,103.68,103.68,0,0,1-8.122,6.882c-2.826,2.188-5.779,4.248-8.66,6.436-1.44,1.085-2.735,2.306-4.138,3.528s-2.8,2.361-4.239,3.51c-2.871,2.3-5.77,4.558-8.5,7.1a45.488,45.488,0,0,0-12.762,18.3,44.664,44.664,0,0,0-2.407,11.231c-.082.912-.21,1.914-.246,2.881a25.644,25.644,0,0,0,0,2.9,32.352,32.352,0,0,0,.583,5.779,26.371,26.371,0,0,0,4.613,10.684,58.647,58.647,0,0,0,8.049,8.724c5.9,5.387,12.16,10.538,18.149,16.1s11.85,11.358,17.5,17.493a103.711,103.711,0,0,1,8.077,9.608,66.924,66.924,0,0,1,6.518,10.857,71.413,71.413,0,0,1,6.691,24.612,90.328,90.328,0,0,1-1.513,25.889,106.36,106.36,0,0,1-3.336,12.707,93.445,93.445,0,0,1-4.922,12.261l-.064.128H150.894l-.064-.1a80.082,80.082,0,0,1-13.008-36.673,77.32,77.32,0,0,1,5.378-37.01,80.584,80.584,0,0,1,20.529-29.334,93.489,93.489,0,0,1,14.02-10.228c4.85-3.008,9.745-5.8,14.366-8.842a66.037,66.037,0,0,0,12.653-10.283A34.7,34.7,0,0,0,212.59,271a33.819,33.819,0,0,0,.62-15.141,49.563,49.563,0,0,0-4.8-13.92,67.931,67.931,0,0,0-7.821-11.85,93.618,93.618,0,0,0-9.462-9.872c-6.572-6.053-13.309-11.349-19.362-16.791-3.036-2.735-5.907-5.469-8.56-8.268a78.164,78.164,0,0,1-7.092-8.742,66.983,66.983,0,0,1-8.888-18.423,69.107,69.107,0,0,1-3.026-17.457c-.128-1.349-.073-2.68-.073-3.984s0-2.571.119-3.8.182-2.434.273-3.646.337-2.3.492-3.4a64.886,64.886,0,0,1,6.089-19.307,24.417,24.417,0,0,1,1.4-2.735l1.121-1.905c.593-1.012.912-1.522.912-1.522l-.912,1.55-1.085,1.878a27.479,27.479,0,0,0-1.386,2.735,65.2,65.2,0,0,0-6.016,19.334c-.155,1.094-.337,2.224-.474,3.382s-.182,2.37-.273,3.6-.091,2.5-.1,3.792a38.875,38.875,0,0,0,.082,3.974,68.541,68.541,0,0,0,3.054,17.393,66.544,66.544,0,0,0,8.879,18.35,76.666,76.666,0,0,0,7.083,8.7c2.644,2.808,5.515,5.542,8.551,8.2,6.053,5.469,12.762,10.711,19.38,16.773a94.219,94.219,0,0,1,9.535,9.945,68.6,68.6,0,0,1,7.867,11.932,49.754,49.754,0,0,1,4.85,14.011,34.157,34.157,0,0,1-.62,15.305,34.913,34.913,0,0,1-7.894,13.719,66.893,66.893,0,0,1-12.707,10.355c-4.64,3.054-9.535,5.843-14.376,8.851A93.7,93.7,0,0,0,164,314.206a80.273,80.273,0,0,0-20.41,29.17,76.872,76.872,0,0,0-5.333,36.818A79.726,79.726,0,0,0,151.2,416.658l-.182-.1h155.35l-.21.128a92.074,92.074,0,0,0,4.9-12.233,105.878,105.878,0,0,0,3.318-12.653,89.77,89.77,0,0,0,1.5-25.761,70.665,70.665,0,0,0-6.645-24.476,67.018,67.018,0,0,0-6.463-10.784,106.321,106.321,0,0,0-8.04-9.572q-8.432-9.18-17.475-17.466c-5.98-5.551-12.224-10.693-18.14-16.107A59.723,59.723,0,0,1,251,278.846a26.9,26.9,0,0,1-4.731-10.82,34.346,34.346,0,0,1-.592-5.861c-.046-.975,0-1.951,0-2.926s.164-1.942.237-2.908a45.287,45.287,0,0,1,2.461-11.294,45.807,45.807,0,0,1,12.881-18.459c2.735-2.534,5.661-4.831,8.532-7.119,1.44-1.149,2.853-2.306,4.23-3.491s2.735-2.461,4.157-3.555c2.9-2.188,5.843-4.248,8.66-6.427a104.978,104.978,0,0,0,8.1-6.846,78.836,78.836,0,0,0,7.119-7.612,69.189,69.189,0,0,0,5.825-8.441,61.632,61.632,0,0,0,6.983-18.633,71.776,71.776,0,0,0,.994-19.143,97.442,97.442,0,0,0-3.273-18.231,144.671,144.671,0,0,0-5.761-16.782l.155.1-111.567-.082H157.184Z" transform="translate(-137.437 -98.828)" fill="#263238"/>
        <path id="Path_3436" data-name="Path 3436" d="M302.246,155.22c22.88,3.765-13.19,44.293-33.619,60.282-11.85,9.252-24.521,19.3-30.137,33.227-6.381,15.807-1.65,33.564-4.731,49.462a2.206,2.206,0,0,1-4.376-.465,175.865,175.865,0,0,0-1.823-31.139c-2.452-14.585-8.049-28.979-18.231-39.653-8.341-8.724-19.271-14.512-28.159-22.662-12.981-11.9-26.317-27.238-27.621-44.795,0,0,24.922-20.055,38.76-17.548,16.171,2.963,32.087,27.912,57.137,25.059C266.877,164.992,275.71,150.862,302.246,155.22Z" transform="translate(-138.861 -101.619)" fill="#79254a"/>
        <path id="Path_3437" data-name="Path 3437" d="M303.665,391.87c-.574-5.725-2.106-12.2-7.183-14.9-3.072-1.641-6.819-1.458-10.191-.574s-6.536,2.425-9.872,3.418a32.334,32.334,0,0,1-20.21-.647c-6.208-2.279-11.531-6.381-17.32-9.644s-12.507-5.652-18.924-4.057c-11.066,2.735-16.828,16.08-27.767,19.3-4.868,1.422-10.091.62-15.032-.492s-9.909-2.562-14.968-2.37a16.606,16.606,0,0,0-10.884,4.239h0l-.073.082a10.773,10.773,0,0,0-1.258,1.477c-3.391,4.558-3.938,10.6-2.89,16.126,1.167,6.19,4.057,11.905,7.156,17.384,3.646,6.454,7.8,12.871,13.838,17.174,7.457,5.314,16.819,1.65,25.943,2.37,21.267,1.677,44.147,2.817,65.424,1.176,11.24-.912,21.768.346,30.684-6.554,6.272-4.85,10.355-12.16,12.324-19.836S304.458,399.755,303.665,391.87Z" transform="translate(-138.248 -121.36)" fill="#79254a"/>
        <g id="Group_1752" data-name="Group 1752" transform="translate(121.921 259.553)" opacity="0.24">
          <path id="Path_3438" data-name="Path 3438" d="M274.535,382.46c-1.194,1.823-1.714,4.3-.556,6.162s2.735,3.564,3.227,5.706c.793,3.355-1.231,6.636-2.735,9.745a31.039,31.039,0,0,0-3.017,17.985,24.466,24.466,0,0,0,8.924,15.706c2.16,1.668,4.968,2.963,7.575,2.142,2.452-.766,4.029-3.254,4.558-5.779s.082-5.123-.237-7.666a119.088,119.088,0,0,1,.912-35.624c.346-1.96.675-4.2-.565-5.761a6.672,6.672,0,0,0-3.273-1.823c-4.74-1.577-9.854.173-14.767-.757" transform="translate(-271.184 -382.46)"/>
        </g>
        <path id="Path_3439" data-name="Path 3439" d="M139.83,453.2s-.428-7.128,8.87-11.1H312.1s8.523,4.321,9.572,10.939Z" transform="translate(-137.648 -128.181)" fill="#263238"/>
        <path id="Path_3440" data-name="Path 3440" d="M309.722,110l-.264.119-153.646-.984s-.547-.346-1.358-.994A5.825,5.825,0,0,1,158.1,97.73l149.133,1.2C313.368,98.988,315.3,107.374,309.722,110Z" transform="translate(-138.744 -97.73)" fill="#263238"/>
        <g id="Group_1753" data-name="Group 1753" transform="translate(44.533 68.946)" opacity="0.24">
          <path id="Path_3441" data-name="Path 3441" d="M288.122,175.3c.31.592-.848,1.823-3.045,3.829s-5.469,4.64-9.535,7.949a125.157,125.157,0,0,1-15.5,10.939,62.176,62.176,0,0,1-10.611,4.877,50.249,50.249,0,0,1-6.1,1.686,41.605,41.605,0,0,1-6.591.857,35.186,35.186,0,0,1-13.245-1.823,47.726,47.726,0,0,1-10.647-5.469c-3.063-2.024-5.7-4.029-8.2-5.953s-4.74-3.774-6.764-5.524c-8.067-6.992-12.315-12.133-11.495-13.127s6.563,2.242,15.5,7.712l7.293,4.467c2.616,1.586,5.415,3.345,8.277,4.968a46.346,46.346,0,0,0,8.979,4.056,28.833,28.833,0,0,0,9.881,1.167c7-.365,13.792-2.826,19.672-5.67s11.2-6.162,15.816-8.751a79.685,79.685,0,0,1,11.413-5.561C286.107,174.919,287.857,174.728,288.122,175.3Z" transform="translate(-186.29 -173.364)"/>
        </g>
        <path id="Path_3442" data-name="Path 3442" d="M236.7,334.242a2.643,2.643,0,1,1-.128.055" transform="translate(-146.067 -118.627)" fill="#79254a"/>
        <path id="Path_3443" data-name="Path 3443" d="M174.483,196.643a3.948,3.948,0,0,1-.547-.547l-1.486-1.623c-.629-.72-1.459-1.559-2.306-2.625l-2.9-3.646c-.994-1.4-2.115-2.917-3.245-4.558l-1.668-2.653c-.283-.456-.583-.912-.857-1.395l-.8-1.477a61.622,61.622,0,0,1-5.661-13.628,57.43,57.43,0,0,1-2.151-14.585c0-1.14.064-2.243.082-3.327a11.419,11.419,0,0,1,.073-1.586c.073-.52.109-1.03.164-1.531.119-1,.191-1.978.328-2.908s.328-1.823.483-2.653c.255-1.7.711-3.191,1.03-4.558.173-.656.31-1.276.483-1.823L156,130l.7-2.088a3.883,3.883,0,0,1,.273-.72,4.149,4.149,0,0,1-.182.747c-.155.529-.356,1.231-.62,2.115l-.456,1.522c-.155.556-.283,1.176-.447,1.823a39.759,39.759,0,0,0-.912,4.558c-.146.839-.292,1.723-.447,2.644s-.191,1.887-.3,2.89a14.844,14.844,0,0,1-.155,1.522c-.055.52,0,1.048-.055,1.577,0,1.076-.073,2.17-.064,3.3a57.739,57.739,0,0,0,2.124,14.5,62.736,62.736,0,0,0,5.588,13.546c.264.492.529.984.784,1.477s.574.912.848,1.386l1.641,2.653c1.112,1.677,2.215,3.191,3.181,4.558l2.844,3.646c.82,1.085,1.632,1.933,2.233,2.68l1.422,1.686A6.2,6.2,0,0,1,174.483,196.643Z" transform="translate(-138.8 -100.335)" fill="#263238"/>
        <path id="Path_3444" data-name="Path 3444" d="M167.09,341.718a1.824,1.824,0,0,1,.164-.3l.547-.857c.246-.383.547-.839.912-1.386l.574-.912c.228-.3.492-.6.757-.912l1.823-2.188c.7-.757,1.5-1.541,2.352-2.4a61.694,61.694,0,0,1,6.253-5.269c4.84-3.646,11.085-7.293,17.849-11.568a102.084,102.084,0,0,0,10.237-7.211,47.759,47.759,0,0,0,9.18-9.7,45.916,45.916,0,0,0,7.429-24.458,57.858,57.858,0,0,0-3.5-20.784,77.574,77.574,0,0,0-6.035-12.944c-.848-1.468-1.541-2.58-2.015-3.336l-.538-.857c-.118-.191-.173-.3-.173-.3a1.348,1.348,0,0,1,.21.273l.583.839c.5.729,1.222,1.823,2.087,3.291a73.983,73.983,0,0,1,6.2,12.926,57.8,57.8,0,0,1,3.646,20.9,49.224,49.224,0,0,1-.5,6.144,44.9,44.9,0,0,1-1.34,6.3,42.679,42.679,0,0,1-5.734,12.279,48.067,48.067,0,0,1-9.28,9.8,103.405,103.405,0,0,1-10.292,7.22c-6.791,4.239-13.045,7.849-17.885,11.468a64.2,64.2,0,0,0-6.272,5.187c-.848.848-1.659,1.613-2.37,2.361l-1.823,2.142c-.273.328-.538.629-.766.912l-.593.866-.912,1.358-.583.83A2.131,2.131,0,0,1,167.09,341.718Z" transform="translate(-140.059 -109.987)" fill="#263238"/>
        <path id="Path_3445" data-name="Path 3445" d="M157.038,369.61a2.88,2.88,0,0,1-.2.428l-.656,1.158c-.292.492-.638,1.112-.994,1.823s-.811,1.55-1.194,2.507c-.2.474-.419.966-.638,1.477s-.4,1.076-.62,1.641c-.438,1.13-.784,2.37-1.185,3.646a49.535,49.535,0,0,0-1.613,17.575c.155,1.349.264,2.644.5,3.829.1.593.182,1.176.3,1.723s.246,1.076.365,1.577c.2,1.012.5,1.9.72,2.68s.438,1.458.638,2.005l.428,1.258a1.56,1.56,0,0,1,.119.447,1.732,1.732,0,0,1-.21-.41c-.137-.337-.3-.738-.51-1.231a19.649,19.649,0,0,1-.72-1.987c-.246-.784-.565-1.668-.793-2.68-.128-.5-.255-1.03-.392-1.577s-.219-1.14-.337-1.732c-.255-1.2-.383-2.5-.547-3.856a47.712,47.712,0,0,1,1.623-17.684c.41-1.313.775-2.562,1.24-3.692.228-.565.41-1.121.647-1.641l.675-1.486c.4-.911.912-1.759,1.267-2.489a18.906,18.906,0,0,1,1.066-1.823l.729-1.121C156.928,369.728,157.019,369.6,157.038,369.61Z" transform="translate(-138.484 -121.771)" fill="#263238"/>
        <path id="Path_3446" data-name="Path 3446" d="M273.226,393.65l-.182.128-.565.355-2.215,1.331-1.6.912c-.6.337-1.267.647-1.978,1-1.44.693-3.026,1.577-4.9,2.288l-2.917,1.194c-1.012.4-2.115.72-3.227,1.1-2.215.811-4.676,1.395-7.238,2.06a84.859,84.859,0,0,1-34.284.912c-2.607-.529-5.087-.984-7.347-1.677-1.13-.328-2.242-.583-3.282-.912l-2.972-1.085c-1.905-.611-3.546-1.4-5.014-2.024-.729-.319-1.413-.6-2.024-.912l-1.659-.866-2.279-1.212-.583-.328-.191-.119a.481.481,0,0,1,.219.082l.6.283,2.315,1.13,1.668.82c.62.292,1.313.556,2.042.866,1.468.583,3.108,1.358,5.023,1.942l2.935,1.067c1.039.346,2.151.592,3.282.912,2.252.675,4.722,1.1,7.293,1.623a86.652,86.652,0,0,0,34.111-.912c2.552-.656,5-1.212,7.22-2.005,1.112-.374,2.206-.675,3.218-1.076l2.917-1.158c1.878-.693,3.473-1.55,4.913-2.215.711-.346,1.386-.647,1.987-.912l1.623-.912,2.252-1.258.593-.31C273.153,393.668,273.226,393.641,273.226,393.65Z" transform="translate(-141.975 -123.897)" fill="#263238"/>
        <path id="Path_3447" data-name="Path 3447" d="M283.267,182a.969.969,0,0,1-.191.173l-.6.492c-.556.447-1.331,1.076-2.324,1.823-2.024,1.6-4.959,3.929-8.669,6.7a125.341,125.341,0,0,1-13.555,9.043,61.079,61.079,0,0,1-8.733,4.02,39.809,39.809,0,0,1-10.082,2.242,38.286,38.286,0,0,1-19.362-4.029,65.686,65.686,0,0,1-7.484-4.448c-2.224-1.568-4.257-3.09-6.053-4.558-3.646-2.9-6.436-5.351-8.4-7.028l-2.252-1.951-.574-.51-.191-.191s.082,0,.219.146l.611.483,2.306,1.878c2.005,1.641,4.868,4.047,8.5,6.91,1.823,1.431,3.838,2.935,6.071,4.485a66.549,66.549,0,0,0,7.448,4.376A38.149,38.149,0,0,0,239.083,206a39.525,39.525,0,0,0,9.964-2.206,61.14,61.14,0,0,0,8.678-3.965,131.089,131.089,0,0,0,13.573-8.851c3.719-2.735,6.682-5.014,8.751-6.572l2.379-1.823.629-.456A.82.82,0,0,1,283.267,182Z" transform="translate(-142.508 -105.181)" fill="#263238"/>
        <g id="Group_1754" data-name="Group 1754" transform="translate(58.544 274.397)" opacity="0.24">
          <path id="Path_3448" data-name="Path 3448" d="M201.66,401.758c4.321-3.336,10.392-2.534,15.734-1.4s10.72,2.944,16.126,2.188c4.075-.574,7.812-2.571,11.85-3.446s8.9-.228,11.13,3.227a86.6,86.6,0,0,1-54.813-.565" transform="translate(-201.66 -398.745)"/>
        </g>
      </g>
      <g id="freepik--Character--inject-8" transform="translate(212.652 141.567)">
        <path id="Path_3449" data-name="Path 3449" d="M359.3,368.475,339.7,346.5l-.2,26.718,5.907,17.138-58.724,10.182L284.193,354.2l-4.23-35.551a9.663,9.663,0,0,1,6.053-10.128l16.162-6.381,22.789,4.175,9.161,3.482a25.151,25.151,0,0,1,9.973,6.937l27.566,31.522" transform="translate(-273.291 -245.922)" fill="#79254a"/>
        <path id="Path_3450" data-name="Path 3450" d="M344,343.671a28.709,28.709,0,0,0,3.309-.237,13.428,13.428,0,0,0,11.039-10.173,30.47,30.47,0,0,0,.5-3.291,2.99,2.99,0,0,1,.082.912,11.111,11.111,0,0,1-.255,2.461,13.163,13.163,0,0,1-11.313,10.438,11.624,11.624,0,0,1-2.47.055A2.835,2.835,0,0,1,344,343.671Z" transform="translate(-278.959 -248.383)" fill="#fff"/>
        <path id="Path_3451" data-name="Path 3451" d="M345.824,374.85c.137,0,.173-9.262.082-20.674s-.283-20.665-.419-20.665-.173,9.252-.082,20.674S345.688,374.85,345.824,374.85Z" transform="translate(-279.079 -248.696)" fill="#263238"/>
        <path id="Path_3452" data-name="Path 3452" d="M337.244,379.483,301.766,365.2a8.113,8.113,0,0,1-5.059-6.9l-2.6-34.02s.31-14.476-8.733-15.178l-5.114,2.024c-6.645,3.528-8.286,13.209-7.384,20.674,1.285,10.611,1.823,25.633,3.254,34.84,1.185,7.539,5.469,14.166,12.871,16.107l43.7,9.462Z" transform="translate(-272.65 -246.537)" fill="#79254a"/>
        <path id="Path_3453" data-name="Path 3453" d="M296.75,331.44a4.411,4.411,0,0,1,.109.775c.055.556.137,1.3.228,2.242.182,2,.438,4.8.747,8.25s.656,7.648,1.057,12.242c.091,1.158.191,2.334.292,3.537a27.479,27.479,0,0,0,.456,3.646,6.026,6.026,0,0,0,1.768,3.181,11.849,11.849,0,0,0,3.273,2.042c9.781,4.23,18.8,7.73,25.342,10.182L337.8,380.4l2.115.775a5.1,5.1,0,0,1,.72.3,4.376,4.376,0,0,1-.757-.21l-2.142-.693c-1.823-.62-4.558-1.541-7.821-2.735-6.591-2.37-15.615-5.816-25.433-10.027a12.4,12.4,0,0,1-3.4-2.133,6.5,6.5,0,0,1-1.9-3.427,26.582,26.582,0,0,1-.447-3.7c-.1-1.212-.191-2.388-.283-3.546-.355-4.558-.684-8.751-.912-12.252s-.456-6.262-.6-8.259c-.064-.912-.109-1.7-.137-2.252a4.637,4.637,0,0,1-.055-.8Z" transform="translate(-274.781 -248.513)" fill="#263238"/>
        <path id="Path_3454" data-name="Path 3454" d="M274.447,351.73a2.277,2.277,0,0,1,.064.456l.119,1.313c.109,1.212.246,2.844.419,4.831s.447,4.458.8,7.138a69.042,69.042,0,0,0,1.6,8.614,12.971,12.971,0,0,0,1.732,4.111,25.085,25.085,0,0,0,2.653,3.254,22.79,22.79,0,0,0,5.679,4.257,21.422,21.422,0,0,0,6.235,2.042,1.818,1.818,0,0,1-.465,0,10.227,10.227,0,0,1-1.313-.173,17.238,17.238,0,0,1-4.613-1.559,22.231,22.231,0,0,1-5.834-4.248,24.168,24.168,0,0,1-2.735-3.309,13.236,13.236,0,0,1-1.823-4.239,64.49,64.49,0,0,1-1.577-8.687c-.328-2.735-.547-5.123-.693-7.165s-.228-3.7-.274-4.85v-1.322A1.469,1.469,0,0,1,274.447,351.73Z" transform="translate(-272.806 -250.307)" fill="#263238"/>
        <path id="Path_3455" data-name="Path 3455" d="M291.09,377.027a5.251,5.251,0,0,1,.647-1.887,12.234,12.234,0,0,1,7.2-6.153,5.151,5.151,0,0,1,1.969-.337q-.895.373-1.823.656a13.948,13.948,0,0,0-4.02,2.4,14.122,14.122,0,0,0-3,3.592C291.427,376.343,291.163,377.055,291.09,377.027Z" transform="translate(-274.281 -251.803)" fill="#263238"/>
        <path id="Path_3456" data-name="Path 3456" d="M298.75,346.049a.838.838,0,0,1,.219.1l.638.337a23.143,23.143,0,0,0,2.534,1.067,20.054,20.054,0,0,0,9.945.857,19.635,19.635,0,0,0,12.361-7.685,16.326,16.326,0,0,0,3.236-8.04,10.939,10.939,0,0,0-.474-4.558,9.3,9.3,0,0,0-2.552-3.911,7.83,7.83,0,0,0-4.166-2.024,4.968,4.968,0,0,0-4.175,1.176,2.735,2.735,0,0,0-.82,1.887,3.3,3.3,0,0,0,.693,1.951,5.324,5.324,0,0,0,3.646,1.887,14.611,14.611,0,0,0,15.925-10.246,15.869,15.869,0,0,0,.674-4.275,16.3,16.3,0,0,0-.2-2.735c-.055-.283-.1-.52-.128-.7a1.285,1.285,0,0,1,0-.246,11.531,11.531,0,0,1,.547,3.646,15.315,15.315,0,0,1-.6,4.348,15,15,0,0,1-16.253,10.6,5.734,5.734,0,0,1-3.9-2.042,3.729,3.729,0,0,1-.784-2.224,3.154,3.154,0,0,1,.912-2.215,5.469,5.469,0,0,1,4.558-1.313A8.2,8.2,0,0,1,325,323.834a9.608,9.608,0,0,1,2.68,4.111,11.4,11.4,0,0,1,.492,4.74,16.691,16.691,0,0,1-3.346,8.2,19.59,19.59,0,0,1-22.725,6.746,14.109,14.109,0,0,1-3.355-1.586Z" transform="translate(-274.958 -246.696)" fill="#fff"/>
        <path id="Path_3457" data-name="Path 3457" d="M273.25,339a2.908,2.908,0,0,1,.583-.729,13.1,13.1,0,0,1,1.914-1.668,16.1,16.1,0,0,1,7.849-2.78,15.169,15.169,0,0,1,4.631.191,14.092,14.092,0,0,1,3.564,1.258,16.412,16.412,0,0,1,2.169,1.313,3.063,3.063,0,0,1,.711.6c-.055.073-1.112-.729-3.026-1.613a14.86,14.86,0,0,0-7.995-1.276,16.828,16.828,0,0,0-7.712,2.58C274.18,338.05,273.314,339.062,273.25,339Z" transform="translate(-272.703 -248.715)" fill="#fff"/>
        <path id="Path_3458" data-name="Path 3458" d="M279.48,312.135a14.031,14.031,0,0,0,2.871,2.088A10.23,10.23,0,0,0,286,315.3a9.718,9.718,0,0,0,4.558-.638,9.572,9.572,0,0,0,3.646-2.735,10.482,10.482,0,0,0,1.823-3.346,14.586,14.586,0,0,0,.556-3.51,3.192,3.192,0,0,1,.119.966,8.879,8.879,0,0,1-.356,2.644,10.191,10.191,0,0,1-1.823,3.519,9.316,9.316,0,0,1-8.66,3.573,10.116,10.116,0,0,1-3.765-1.2,8.777,8.777,0,0,1-2.115-1.623,2.607,2.607,0,0,1-.5-.811Z" transform="translate(-273.254 -246.181)" fill="#fff"/>
        <path id="Path_3459" data-name="Path 3459" d="M313.4,372.881a3.384,3.384,0,0,1,.073-.675,7.242,7.242,0,0,1,.629-1.823,10.1,10.1,0,0,1,5.305-4.613,15.543,15.543,0,0,1,10.438-.374c1.878.556,4.029,1.249,5.469,3.081a3.273,3.273,0,0,1,.4,3.336,5.288,5.288,0,0,1-2.525,2.379,8.114,8.114,0,0,1-3.364.839,4.932,4.932,0,0,1-3.227-1,4.12,4.12,0,0,1-1.44-2.926,7.356,7.356,0,0,1,.483-3.072,13.8,13.8,0,0,1,7.293-7.4,14.4,14.4,0,0,1,6.983-1.2,9.93,9.93,0,0,1,2.552.538c0,.064-.912-.237-2.571-.356a14.585,14.585,0,0,0-10.829,3.984,12.763,12.763,0,0,0-3.054,4.558,6.9,6.9,0,0,0-.447,2.89,3.647,3.647,0,0,0,1.294,2.6,4.43,4.43,0,0,0,2.917.912,7.53,7.53,0,0,0,3.154-.784,4.868,4.868,0,0,0,2.315-2.16,2.835,2.835,0,0,0-.346-2.871,6.572,6.572,0,0,0-2.379-1.878,17.048,17.048,0,0,0-2.8-1.048,15.333,15.333,0,0,0-10.191.264,10.082,10.082,0,0,0-5.269,4.385,9.744,9.744,0,0,0-.866,2.425Z" transform="translate(-276.253 -250.984)" fill="#fff"/>
        <path id="Path_3460" data-name="Path 3460" d="M287.48,386.643c0-.091,1.349-.2,3.4-.912a17,17,0,0,0,10.884-12.069c.52-2.115.5-3.491.593-3.482a3.151,3.151,0,0,1,.046.957,13.819,13.819,0,0,1-.31,2.6,16.354,16.354,0,0,1-11.1,12.279,14.024,14.024,0,0,1-2.552.574,3.328,3.328,0,0,1-.957.055Z" transform="translate(-273.961 -251.938)" fill="#fff"/>
        <path id="Path_3461" data-name="Path 3461" d="M274.86,359a1.823,1.823,0,0,1,.428-.173c.292-.091.711-.219,1.267-.365a15.657,15.657,0,0,1,4.84-.492,10.172,10.172,0,0,1,3.282.811,7.612,7.612,0,0,1,3.063,2.407,6.289,6.289,0,0,1,1.194,4.139,5.086,5.086,0,0,1-.7,2.224,3.519,3.519,0,0,1-1.823,1.55,2.443,2.443,0,0,1-2.4-.474,3.2,3.2,0,0,1-.829-2.206,9.5,9.5,0,0,1,.839-4.221,9.253,9.253,0,0,1,10.027-5.387,7.445,7.445,0,0,1,1.285.319c.283.109.428.173.419.191a14.645,14.645,0,0,0-1.732-.328,9.59,9.59,0,0,0-4.676.6,8.961,8.961,0,0,0-4.9,4.777,9.207,9.207,0,0,0-.775,4.02,2.735,2.735,0,0,0,.693,1.9,1.978,1.978,0,0,0,1.923.365,3.1,3.1,0,0,0,1.6-1.349,4.7,4.7,0,0,0,.638-2.014,5.916,5.916,0,0,0-1.085-3.847,7.137,7.137,0,0,0-2.871-2.3,9.854,9.854,0,0,0-3.154-.839,16.481,16.481,0,0,0-4.758.337C275.489,358.877,274.878,359.041,274.86,359Z" transform="translate(-272.845 -250.745)" fill="#fff"/>
        <g id="Group_1755" data-name="Group 1755" transform="translate(23.127 93.046)" opacity="0.3">
          <path id="Path_3462" data-name="Path 3462" d="M329.287,378.383c-3.792-2.142-7.5-3.792-11.468-5.588s-7.858-4.12-10.456-7.621c-4.9-6.6-4.339-16.126-9.344-22.634q.492,6.563.975,13.136c.3,4.011-.31,7.985,2.27,10.711,2.179,2.3,6.427,4.056,9.435,5.05,6.044,2,12.552,4.959,18.587,6.946" transform="translate(-298.02 -342.54)"/>
        </g>
        <path id="Path_3463" data-name="Path 3463" d="M399.333,436.71s29.69,8.2,30.884,8.642c1.823.629,1.486,7.183-1.294,7.074-1.322-.046-22.789.8-25.524.638s-10.939-3.4-10.939-3.4Z" transform="translate(-283.244 -257.821)" fill="#79254a"/>
        <path id="Path_3464" data-name="Path 3464" d="M413.53,448.565a26.157,26.157,0,0,1,1.313-3.19,26.607,26.607,0,0,1,2.1-2.735,6.563,6.563,0,0,0-3.409,5.916Z" transform="translate(-285.107 -258.346)" fill="#263238"/>
        <path id="Path_3465" data-name="Path 3465" d="M410.13,447.051c.146,0,.447-1.376,1.24-2.926s1.723-2.634,1.623-2.735a7.429,7.429,0,0,0-2.862,5.67Z" transform="translate(-284.807 -258.235)" fill="#263238"/>
        <path id="Path_3466" data-name="Path 3466" d="M406.985,446.176a19.8,19.8,0,0,1,.693-3.136,20.841,20.841,0,0,1,1.613-2.78,5.57,5.57,0,0,0-2.306,5.916Z" transform="translate(-284.515 -258.135)" fill="#263238"/>
        <path id="Path_3467" data-name="Path 3467" d="M407.3,441.871a5.3,5.3,0,0,0,.319-2.206,10.935,10.935,0,0,0-.3-2.425,9.656,9.656,0,0,0-.447-1.377,1.568,1.568,0,0,0-.474-.729.8.8,0,0,0-1.021.055,1.285,1.285,0,0,0-.392.839,4.556,4.556,0,0,0,0,.784,6.122,6.122,0,0,0,.182,1.449,8.839,8.839,0,0,0,.912,2.27,6.108,6.108,0,0,0,1.331,1.823c.073,0-.428-.738-1.021-1.951a9.7,9.7,0,0,1-.775-2.206,6.526,6.526,0,0,1-.146-1.358c0-.456,0-1.021.273-1.24a.292.292,0,0,1,.392,0,1.34,1.34,0,0,1,.328.52,11.745,11.745,0,0,1,.447,1.313,11.585,11.585,0,0,1,.392,2.315C407.358,441.023,407.222,441.862,407.3,441.871Z" transform="translate(-284.351 -257.668)" fill="#263238"/>
        <path id="Path_3468" data-name="Path 3468" d="M406.915,442.179a4.166,4.166,0,0,0-1.914-.31,8.791,8.791,0,0,0-2.106.255,5.112,5.112,0,0,0-1.221.447,1.258,1.258,0,0,0-.665,1.358A1.5,1.5,0,0,0,402.074,445a2.734,2.734,0,0,0,1.331,0,4.978,4.978,0,0,0,1.933-.912,5.163,5.163,0,0,0,1.376-1.358,14.564,14.564,0,0,0-1.577,1.067,5.233,5.233,0,0,1-1.823.793,2.261,2.261,0,0,1-1.1,0,1,1,0,0,1-.72-.7.775.775,0,0,1,.438-.83,4.392,4.392,0,0,1,1.076-.419,9.556,9.556,0,0,1,2.006-.346C406.167,442.142,406.9,442.261,406.915,442.179Z" transform="translate(-283.998 -258.277)" fill="#263238"/>
        <path id="Path_3469" data-name="Path 3469" d="M418.512,449a17.564,17.564,0,0,1,.593-2.68A16.211,16.211,0,0,1,420.554,444,4.275,4.275,0,0,0,418.512,449Z" transform="translate(-285.531 -258.466)" fill="#263238"/>
        <path id="Path_3470" data-name="Path 3470" d="M395.81,451a5.325,5.325,0,0,0,1.149.547,27.535,27.535,0,0,0,3.3,1.021,47.5,47.5,0,0,0,11.34,1.076c4.449-.055,8.459-.255,11.367-.374l3.437-.182a7.5,7.5,0,0,0,1.258-.128,6.018,6.018,0,0,0-1.267-.064h-3.437l-11.358.219a53.153,53.153,0,0,1-11.258-.911C397.5,451.628,395.846,450.9,395.81,451Z" transform="translate(-283.541 -259.084)" fill="#263238"/>
        <path id="Path_3471" data-name="Path 3471" d="M394.85,451.5c0,.064.848-.41,2.224-1.012a10.283,10.283,0,0,1,5.615-.912,8.934,8.934,0,0,1,4.859,2.881,17.483,17.483,0,0,0,1.7,1.75,9.114,9.114,0,0,0-1.449-1.987,11.852,11.852,0,0,0-1.969-1.823,7.056,7.056,0,0,0-3.072-1.294,9.836,9.836,0,0,0-5.843,1.1A7.593,7.593,0,0,0,394.85,451.5Z" transform="translate(-283.456 -258.911)" fill="#263238"/>
        <path id="Path_3472" data-name="Path 3472" d="M362.513,427.72s-28.095,18.4-29.1,19.143c-1.513,1.14.219,6.582,2.844,5.643,1.24-.447,24.813-7.01,27.347-7.994S372.968,438,372.968,438Z" transform="translate(-277.973 -257.026)" fill="#79254a"/>
        <path id="Path_3473" data-name="Path 3473" d="M355.75,443.233a6.572,6.572,0,0,0-5.05-4.6,25.82,25.82,0,0,1,2.835,1.969A27.579,27.579,0,0,1,355.75,443.233Z" transform="translate(-279.552 -257.991)" fill="#263238"/>
        <path id="Path_3474" data-name="Path 3474" d="M358.569,440.738a7.448,7.448,0,0,0-4.439-4.558c-.073.128,1.158.912,2.37,2.115S358.441,440.811,358.569,440.738Z" transform="translate(-279.855 -257.774)" fill="#263238"/>
        <path id="Path_3475" data-name="Path 3475" d="M361.4,438.923a5.535,5.535,0,0,0-3.956-4.913,21.628,21.628,0,0,1,2.379,2.16A19.981,19.981,0,0,1,361.4,438.923Z" transform="translate(-280.148 -257.583)" fill="#263238"/>
        <path id="Path_3476" data-name="Path 3476" d="M359.856,434.888c.073,0-.31-.793-.629-2.106a11.446,11.446,0,0,1-.337-2.324,10.241,10.241,0,0,1,0-1.386,1.139,1.139,0,0,1,.155-.592.282.282,0,0,1,.383-.091c.319.128.483.675.638,1.112a7.048,7.048,0,0,1,.273,1.331,9.7,9.7,0,0,1-.073,2.343c-.191,1.331-.456,2.142-.383,2.17a5.907,5.907,0,0,0,.729-2.115,8.7,8.7,0,0,0,.182-2.434,6.869,6.869,0,0,0-.264-1.44,6.056,6.056,0,0,0-.273-.738,1.313,1.313,0,0,0-.638-.684.793.793,0,0,0-.985.264,1.623,1.623,0,0,0-.228.839,10.227,10.227,0,0,0,.438,3.847,5.36,5.36,0,0,0,1.012,2.005Z" transform="translate(-280.23 -257.039)" fill="#263238"/>
        <path id="Path_3477" data-name="Path 3477" d="M359.89,435.12c0,.073.693-.255,1.823-.538a10.162,10.162,0,0,1,2.015-.273,4.45,4.45,0,0,1,1.158.073.793.793,0,0,1,.675.656,1.021,1.021,0,0,1-.483.912,2.307,2.307,0,0,1-1.039.346,5.041,5.041,0,0,1-1.978-.2,13.277,13.277,0,0,0-1.823-.538,5.2,5.2,0,0,0,1.732.912,5,5,0,0,0,2.124.319,2.644,2.644,0,0,0,1.267-.4,1.477,1.477,0,0,0,.7-1.331,1.258,1.258,0,0,0-1.048-1.094,4.878,4.878,0,0,0-1.294-.055,8.959,8.959,0,0,0-2.087.392,4.22,4.22,0,0,0-1.741.82Z" transform="translate(-280.364 -257.572)" fill="#263238"/>
        <path id="Path_3478" data-name="Path 3478" d="M340.222,453.127c0,.046.474-.283.693-1.085a4.211,4.211,0,0,0-.529-3.054,11.714,11.714,0,0,0-.912-1.4,5.462,5.462,0,0,0-.957-1.021,1.658,1.658,0,0,0-.912-.374c-.237,0-.356.046-.356.073a2.059,2.059,0,0,1,1.021.574,6.034,6.034,0,0,1,.811,1.021,16.075,16.075,0,0,1,.912,1.367,4.339,4.339,0,0,1,.62,2.735A10.178,10.178,0,0,1,340.222,453.127Z" transform="translate(-278.362 -258.66)" fill="#263238"/>
        <path id="Path_3479" data-name="Path 3479" d="M351.244,445.128a3.437,3.437,0,0,0-.994-2.689,3.382,3.382,0,0,0-2.47-1.449,16.006,16.006,0,0,1,2.088,1.768A16.279,16.279,0,0,1,351.244,445.128Z" transform="translate(-279.293 -258.2)" fill="#263238"/>
        <path id="Path_3480" data-name="Path 3480" d="M370.247,440.07a8.617,8.617,0,0,0-1.24.839,35.744,35.744,0,0,1-3.464,2.124,45.323,45.323,0,0,1-5.469,2.452c-2.133.793-4.558,1.541-7.037,2.27-5.059,1.459-9.635,2.789-12.935,3.783l-3.929,1.231a8.6,8.6,0,0,0-1.413.51,9.515,9.515,0,0,0,1.468-.319l3.947-1.1c3.327-.912,7.912-2.188,12.972-3.646,2.525-.738,4.922-1.5,7.056-2.324a41.768,41.768,0,0,0,5.515-2.571,27.8,27.8,0,0,0,3.409-2.279,8.911,8.911,0,0,0,1.121-.966Z" transform="translate(-278.142 -258.118)" fill="#263238"/>
        <path id="Path_3481" data-name="Path 3481" d="M373.581,440.4a8.094,8.094,0,0,0-2.379-.638,9.882,9.882,0,0,0-5.907.729,6.974,6.974,0,0,0-2.5,2.206,11.852,11.852,0,0,0-1.322,2.352,8.855,8.855,0,0,0-.775,2.334,18.425,18.425,0,0,0,1.094-2.188,8.925,8.925,0,0,1,3.756-4.23,10.311,10.311,0,0,1,5.634-.811C372.642,440.274,373.562,440.475,373.581,440.4Z" transform="translate(-280.436 -258.077)" fill="#263238"/>
        <path id="Path_3482" data-name="Path 3482" d="M421.686,378.364s8.432,3.008,8.459,12.461c.073,18.095-36.572,38.049-36.572,38.049L344.8,396.568l-3.054-1.24S407.611,370.606,421.686,378.364Z" transform="translate(-278.76 -252.529)" fill="#263238"/>
        <path id="Path_3483" data-name="Path 3483" d="M372.2,413.918a9.015,9.015,0,0,0,1.276-.857c.793-.583,1.933-1.44,3.327-2.525,2.8-2.151,6.591-5.214,10.684-8.724s7.685-6.8,10.237-9.234c1.276-1.212,2.3-2.215,3-2.917a8.6,8.6,0,0,0,1.039-1.121,8.916,8.916,0,0,0-1.176.984l-3.1,2.8c-2.616,2.361-6.244,5.615-10.328,9.116s-7.84,6.6-10.565,8.824l-3.236,2.644A9.65,9.65,0,0,0,372.2,413.918Z" transform="translate(-281.453 -253.562)" fill="#455a64"/>
        <path id="Path_3484" data-name="Path 3484" d="M413.479,385.923a12.115,12.115,0,0,0-8.879,2.616c.082.137,1.823-1,4.321-1.714S413.479,386.078,413.479,385.923Z" transform="translate(-284.318 -253.325)" fill="#455a64"/>
        <path id="Path_3485" data-name="Path 3485" d="M409.3,382.8a7.457,7.457,0,0,0-4.412,5.469A34.635,34.635,0,0,1,406.8,385.3C408.026,383.794,409.384,382.928,409.3,382.8Z" transform="translate(-284.343 -253.054)" fill="#455a64"/>
        <path id="Path_3486" data-name="Path 3486" d="M432.116,445.675c0-.055-.583-.173-1.258.383a4.484,4.484,0,0,0-1.4,2.826,5.551,5.551,0,0,0,.438,3.127c.346.738.729,1.085.775,1.048a8.8,8.8,0,0,0-.447-1.185,6.3,6.3,0,0,1-.273-2.917,4.886,4.886,0,0,1,1.149-2.644C431.614,445.775,432.125,445.757,432.116,445.675Z" transform="translate(-286.51 -258.61)" fill="#263238"/>
        <path id="Path_3487" data-name="Path 3487" d="M408.057,346.06l-17.365,44.029-74.776,1.221-1.386-4.047,26.208-.948,12.6-39.061Z" transform="translate(-276.353 -249.805)" fill="#455a64"/>
        <path id="Path_3488" data-name="Path 3488" d="M378.681,366.966a3.336,3.336,0,0,1,3.6.392,2.89,2.89,0,0,1,.7,3.181,3.145,3.145,0,0,1-2.735,1.887,2.844,2.844,0,0,1-2.862-1.887,3.218,3.218,0,0,1,1.258-3.573" transform="translate(-281.899 -251.623)" fill="#ebebeb"/>
        <path id="Path_3489" data-name="Path 3489" d="M393.263,431.478s-68.9-45.2-71.7-46.135-9.644-5.406-16.454-3.528-12.935,7.995-15.989,16.928c-1.75,5.1-2.571,13.81-2.963,20.346a30.219,30.219,0,0,0,7.065,21.513,19.225,19.225,0,0,0,8.587,6.1c.72.228,1.468.419,2.233.583a32.38,32.38,0,0,0,33.728-14.166l1.6-2.443S384.449,447.23,385.15,447Z" transform="translate(-273.838 -252.927)" fill="#263238"/>
        <path id="Path_3490" data-name="Path 3490" d="M310.16,419.327a3.844,3.844,0,0,0,.374.164l1.13.447,4.366,1.686,16.235,6.117c6.891,2.571,15.15,5.634,24.421,9.006s19.535,7.065,30.51,10.775l.191.073.1-.191,5.387-10.283,2.735-5.242.1-.2-.191-.118L342.967,398.2l-15.788-9.954-4.284-2.68-1.121-.684c-.255-.155-.392-.219-.392-.219l.365.264,1.094.72,4.239,2.735,15.752,10.109L395.3,431.98l-.091-.328c-.866,1.668-1.823,3.446-2.735,5.242L387.1,447.176l.3-.118c-10.939-3.7-21.24-7.384-30.519-10.729l-24.457-8.9-16.326-6-4.394-1.6-1.149-.4Z" transform="translate(-275.967 -253.219)" fill="#455a64"/>
        <path id="Path_3491" data-name="Path 3491" d="M316.781,246.094c1.176-3.181,3.774-4.558,7.065-5.351a10.556,10.556,0,0,1,9.453,2.434c1.668,1.522,2.89,3.646,4.95,4.558,3.4,1.541,7.748-.711,10.939,1.176a4.813,4.813,0,0,1-3.1,8.915c2.215,1.039,2.625,4.376,1.1,6.29a6.416,6.416,0,0,1-6.7,1.768,13.527,13.527,0,0,1-5.971-4.111c-1.659-1.823-3.118-3.783-4.922-5.469a10.474,10.474,0,0,0-6.49-3.081c-3.309-.128-6.381,2.106-8.1,4.923s-2.388,6.162-2.871,9.444-.848,6.618-2.115,9.681c-.146.365-.365.757-.738.839-.556.118-.957-.492-1.176-1.012a48.558,48.558,0,0,1-3.883-18.5c-.046-3.646.374-7.138,2.662-10.027s7.566-4.686,9.872-2.516" transform="translate(-275.441 -240.468)" fill="#263238"/>
        <path id="Path_3492" data-name="Path 3492" d="M308.978,261.221,303.91,298.03a11.057,11.057,0,0,0,10.027,12.516h0a11.067,11.067,0,0,0,11.923-9.526c.374-2.735.693-5.077.757-5.36,0,0,9.489.41,11.44-8.769.912-4.439,2.142-13.737,3.136-22.16a17.484,17.484,0,0,0-13.947-19.143l-.912-.173C316.627,244.028,310.063,251.5,308.978,261.221Z" transform="translate(-275.405 -240.891)" fill="#ffbe9d"/>
        <path id="Path_3493" data-name="Path 3493" d="M327.723,299.843A21.877,21.877,0,0,1,316.41,294s1.513,7.183,10.857,8.2Z" transform="translate(-276.52 -245.202)" fill="#eb996e"/>
        <path id="Path_3494" data-name="Path 3494" d="M340.212,272.657a1.331,1.331,0,0,1-1.531,1.067,1.267,1.267,0,0,1-1.112-1.449A1.331,1.331,0,0,1,339.1,271.2a1.276,1.276,0,0,1,1.112,1.458Z" transform="translate(-278.389 -243.184)" fill="#263238"/>
        <path id="Path_3495" data-name="Path 3495" d="M341.1,270.947c-.2.146-1.048-.793-2.461-1.076s-2.6.228-2.735,0,.173-.365.693-.6a3.574,3.574,0,0,1,2.206-.228,3.492,3.492,0,0,1,1.914,1.067C341.112,270.546,341.194,270.893,341.1,270.947Z" transform="translate(-278.241 -242.988)" fill="#263238"/>
        <path id="Path_3496" data-name="Path 3496" d="M324.892,270.137a1.331,1.331,0,0,1-1.531,1.076,1.294,1.294,0,0,1-1.121-1.459,1.358,1.358,0,0,1,1.531-1.076,1.285,1.285,0,0,1,1.121,1.459Z" transform="translate(-277.034 -242.962)" fill="#263238"/>
        <path id="Path_3497" data-name="Path 3497" d="M325.793,268.2c-.2.137-1.048-.8-2.461-1.085s-2.6.228-2.735,0,.173-.365.693-.6a3.682,3.682,0,0,1,4.129.839C325.8,267.841,325.884,268.133,325.793,268.2Z" transform="translate(-276.887 -242.744)" fill="#263238"/>
        <path id="Path_3498" data-name="Path 3498" d="M329.63,279.844a9.162,9.162,0,0,1,2.379.046c.374,0,.729,0,.839-.21a1.823,1.823,0,0,0,0-1.112c-.164-.912-.337-1.933-.52-2.972-.7-4.211-1.13-7.639-.966-7.666s.912,3.364,1.577,7.575c.164,1.039.328,2.024.474,2.972a2.1,2.1,0,0,1-.1,1.459.912.912,0,0,1-.693.4,2.243,2.243,0,0,1-.629,0A9.682,9.682,0,0,1,329.63,279.844Z" transform="translate(-277.689 -242.897)" fill="#263238"/>
        <path id="Path_3499" data-name="Path 3499" d="M324.808,281.18c.237,0-.073,1.568,1.021,2.917s2.735,1.513,2.735,1.732-.419.219-1.112.1a3.929,3.929,0,0,1-2.306-1.349,3.418,3.418,0,0,1-.757-2.434C324.462,281.49,324.708,281.143,324.808,281.18Z" transform="translate(-277.224 -244.068)" fill="#263238"/>
        <path id="Path_3500" data-name="Path 3500" d="M327.272,262.213c-.21.365-1.586-.1-3.291-.237s-3.127.055-3.282-.337c-.064-.182.246-.492.857-.757a5.561,5.561,0,0,1,2.552-.365,5.469,5.469,0,0,1,2.461.8C327.126,261.685,327.354,262.049,327.272,262.213Z" transform="translate(-276.898 -242.239)" fill="#263238"/>
        <path id="Path_3501" data-name="Path 3501" d="M341.468,266.343c-.31.273-1.212-.255-2.388-.51s-2.206-.21-2.361-.593c-.073-.182.146-.474.647-.693a3.382,3.382,0,0,1,2.051-.137,3.29,3.29,0,0,1,1.778,1.03C341.532,265.851,341.614,266.206,341.468,266.343Z" transform="translate(-278.314 -242.577)" fill="#263238"/>
        <path id="Path_3502" data-name="Path 3502" d="M308.119,270.331c-.146-.1-5.953-3.136-7.01,3.2s5.524,6.089,5.561,5.907S308.119,270.331,308.119,270.331Z" transform="translate(-275.156 -243.037)" fill="#ffbe9d"/>
        <path id="Path_3503" data-name="Path 3503" d="M305.293,276.9a1.654,1.654,0,0,1-.319.118,1.14,1.14,0,0,1-.83-.118,2.735,2.735,0,0,1-.857-2.662,3.647,3.647,0,0,1,.574-1.532,1.3,1.3,0,0,1,.939-.738.574.574,0,0,1,.6.419.531.531,0,0,1,0,.319c0,.009.155-.082.146-.346a.72.72,0,0,0-.182-.438.8.8,0,0,0-.583-.264,1.568,1.568,0,0,0-1.313.784,3.847,3.847,0,0,0-.684,1.7,2.883,2.883,0,0,0,1.158,3,1.194,1.194,0,0,0,1.039,0C305.257,277.056,305.312,276.92,305.293,276.9Z" transform="translate(-275.312 -243.227)" fill="#eb996e"/>
        <path id="Path_3504" data-name="Path 3504" d="M343.838,263.125a13.564,13.564,0,0,1-11.276-5.014c-1.823-2.352-3.036-5.424-5.67-6.846a7.648,7.648,0,0,0-5.88-.365,14.85,14.85,0,0,0-5.123,3.118c.839,5.032-1.395,10.027-3.573,14.585a2.543,2.543,0,0,1-1.03,1.3c-.857.428-1.878-.246-2.4-1.057a7.949,7.949,0,0,1-.912-4.439,26.536,26.536,0,0,1,2.1-10.191,17.985,17.985,0,0,1,6.627-7.931A17.037,17.037,0,0,1,329.29,244.2a20.966,20.966,0,0,1,11.039,6.627,12.315,12.315,0,0,1,2.981,5.223" transform="translate(-275.771 -240.762)" fill="#263238"/>
      </g>
    </g>
  </g>
</svg>
