<svg xmlns="http://www.w3.org/2000/svg" width="43.465" height="43.465" viewBox="0 0 43.465 43.465">
  <path id="Icon_ionic-logo-whatsapp" data-name="Icon ionic-logo-whatsapp" d="M24.377,2.25A21.256,21.256,0,0,0,3.039,23.423,20.954,20.954,0,0,0,6.1,34.356L2.25,45.715l11.814-3.753A21.374,21.374,0,0,0,45.715,23.423,21.256,21.256,0,0,0,24.377,2.25Zm10.61,29.214c-.5,1.244-2.772,2.38-3.774,2.433s-1.029.776-6.485-1.594-8.737-8.135-9-8.506-2.113-3.012-2.013-5.671A6.046,6.046,0,0,1,15.8,13.689a2.09,2.09,0,0,1,1.478-.622c.43-.007.708-.013,1.026,0S19.095,13,19.508,14.1s1.4,3.8,1.528,4.074a.989.989,0,0,1,.01.948,3.706,3.706,0,0,1-.578.881c-.285.305-.6.683-.853.917-.283.259-.579.541-.281,1.093a16.328,16.328,0,0,0,2.889,3.855A14.887,14.887,0,0,0,26.5,28.71c.535.291.854.259,1.186-.09s1.42-1.528,1.8-2.054.743-.424,1.236-.226,3.12,1.606,3.655,1.9.892.439,1.02.669A4.481,4.481,0,0,1,34.987,31.464Z" transform="translate(-2.25 -2.25)" fill="#25d366"/>
</svg>
