<svg xmlns="http://www.w3.org/2000/svg" width="29.04" height="20.64" viewBox="0 0 29.04 20.64">
  <g id="Group_57" data-name="Group 57" transform="translate(-1057.82 -1831.62)">
    <g id="Group_56" data-name="Group 56" transform="translate(1057.82 1831.62)">
      <path id="Path_143" data-name="Path 143" d="M1109.038,1849.716a.878.878,0,0,0,.58-.82c.009-1.389,0-2.779,0-4.169a1.19,1.19,0,0,0-.028-.155h-.351c-4.727,0-9.454-.016-14.181.01a2.69,2.69,0,0,1-2.706-1.912.6.6,0,0,1,.275-.8.589.589,0,0,1,.795.275c.1.162.171.337.262.5a1.224,1.224,0,0,0,1.132.714q7.19-.005,14.38,0c.046,0,.093-.008.2-.018a3.058,3.058,0,0,0-.333-.5c-.59-.585-1.175-1.177-1.8-1.727-1.587-1.4-3.176-2.8-4.8-4.159a14.761,14.761,0,0,0-1.96-1.341,6.424,6.424,0,0,0-3.371-.7q-5.388-.012-10.777,0a2.362,2.362,0,0,0-.749.122.965.965,0,0,0-.7,1.017c0,.387,0,.775,0,1.163-.005.422-.234.685-.589.689s-.6-.267-.607-.7c0-.387.009-.776,0-1.163a2.265,2.265,0,0,1,2.021-2.28,4.909,4.909,0,0,1,.763-.048c3.526,0,7.052-.013,10.579.007a14.812,14.812,0,0,1,2.253.2,5.993,5.993,0,0,1,2.759,1.258c1.571,1.241,3.11,2.524,4.635,3.822.914.777,1.783,1.608,2.664,2.423a3.724,3.724,0,0,1,1.285,2.085,10.478,10.478,0,0,1,.149,1.577c.021,1.229.007,2.458,0,3.687a2.189,2.189,0,0,1-1.546,2.169.371.371,0,0,0-.28.329,3.839,3.839,0,1,1-1.307-3.707,3.883,3.883,0,0,1,1.268,2,1.082,1.082,0,0,0,.031.108C1109,1849.678,1109.015,1849.69,1109.038,1849.716Zm-3.79-1.846a2.633,2.633,0,1,0-.013,5.265,2.633,2.633,0,1,0,.013-5.265Z" transform="translate(-1081.793 -1833.699)" fill="#fff"/>
      <path id="Path_144" data-name="Path 144" d="M1085.469,1990.777a11.086,11.086,0,0,1,.781-1.468,3.6,3.6,0,0,1,3.749-1.51,3.663,3.663,0,0,1,3.031,2.822c.081.29.191.353.471.351,1.918-.013,3.836-.007,5.754-.007.094,0,.189,0,.283.005a.595.595,0,0,1,.048,1.188,2.093,2.093,0,0,1-.311.012h-6.146l.066.06a9.849,9.849,0,0,1-.749,1.533,3.65,3.65,0,0,1-3.863,1.559,3.8,3.8,0,0,1-3.038-3.038.427.427,0,0,0-.225-.267,2.187,2.187,0,0,1-1.589-2.308c0-.463,0-.926,0-1.389,0-.436.242-.7.614-.691s.578.263.582.692c0,.52.007,1.04,0,1.559A.948.948,0,0,0,1085.469,1990.777Zm3.847-1.841a2.632,2.632,0,1,0,2.641,2.622A2.651,2.651,0,0,0,1089.316,1988.937Z" transform="translate(-1081.81 -1974.766)" fill="#fff"/>
      <path id="Path_145" data-name="Path 145" d="M1066.3,1899.324h-4.7a2.491,2.491,0,0,1-.311-.01.6.6,0,0,1-.535-.569.605.605,0,0,1,.5-.6,1.178,1.178,0,0,1,.225-.016q4.847,0,9.692,0a.665.665,0,0,1,.666.338.585.585,0,0,1-.485.852,6.086,6.086,0,0,1-.623.01Z" transform="translate(-1060.746 -1892.74)" fill="#fff"/>
      <path id="Path_146" data-name="Path 146" d="M1102.827,1928.558c-.661,0-1.323,0-1.984,0-.434,0-.714-.245-.71-.6s.281-.6.72-.6q1.984,0,3.969,0c.439,0,.7.239.7.606s-.262.589-.712.592C1104.15,1928.561,1103.489,1928.558,1102.827,1928.558Z" transform="translate(-1096.841 -1919.529)" fill="#fff"/>
      <path id="Path_147" data-name="Path 147" d="M1130.865,1957.784c-.358,0-.716,0-1.074,0-.451-.007-.707-.223-.71-.592s.261-.606.7-.609q1.1-.01,2.205,0a.607.607,0,0,1,.657.5.567.567,0,0,1-.318.629,1.046,1.046,0,0,1-.384.07C1131.581,1957.79,1131.223,1957.784,1130.865,1957.784Z" transform="translate(-1123.37 -1946.308)" fill="#fff"/>
      <path id="Path_148" data-name="Path 148" d="M1069.432,1957.949c-.255,0-.51.015-.764,0a.571.571,0,0,1-.542-.552.541.541,0,0,1,.48-.6,13.179,13.179,0,0,1,1.664,0,.53.53,0,0,1,.472.6.565.565,0,0,1-.546.547C1069.943,1957.964,1069.687,1957.949,1069.432,1957.949Z" transform="translate(-1067.508 -1946.484)" fill="#fff"/>
      <path id="Path_149" data-name="Path 149" d="M1144.112,2027.643a.6.6,0,0,0-.594.593.621.621,0,0,0,.6.6.614.614,0,0,0,.594-.6A.6.6,0,0,0,1144.112,2027.643Z" transform="translate(-1136.601 -2011.435)" fill="#fff"/>
      <path id="Path_150" data-name="Path 150" d="M1334.8,2027.659a.6.6,0,0,1,.61.577.6.6,0,1,1-1.191.026A.591.591,0,0,1,1334.8,2027.659Z" transform="translate(-1311.365 -2011.449)" fill="#fff"/>
      <path id="Path_151" data-name="Path 151" d="M1144.112,2027.643a.6.6,0,0,1,.6.59.614.614,0,0,1-.594.6.621.621,0,0,1-.6-.6A.6.6,0,0,1,1144.112,2027.643Z" transform="translate(-1136.601 -2011.435)" fill="#fff"/>
    </g>
  </g>
</svg>
