<svg id="alarm_on_black_24dp" xmlns="http://www.w3.org/2000/svg" width="33.73" height="33.73" viewBox="0 0 33.73 33.73">
  <path id="Path_240" data-name="Path 240" d="M0,0H33.73V33.73H0Z" fill="none"/>
  <path id="Path_241" data-name="Path 241" d="M31.73,7.585,24.892,1.86,22.975,4.129l6.838,5.725ZM10.741,4.129,8.838,1.86,2,7.57,3.918,9.839l6.823-5.71Zm6.124.9A13.348,13.348,0,1,0,30.244,18.382,13.364,13.364,0,0,0,16.865,5.034Zm0,23.73A10.382,10.382,0,1,1,27.271,18.382,10.386,10.386,0,0,1,16.865,28.764Zm-2.17-8.113-3.166-3.159L9.953,19.064,14.68,23.78l8.919-8.9L22.023,13.31l-7.328,7.341Z" fill="#fff"/>
</svg>
