<svg id="highlight_off_black_24dp" xmlns="http://www.w3.org/2000/svg" width="33.735" height="33.735" viewBox="0 0 33.735 33.735">
  <path id="Path_234" data-name="Path 234" d="M0,0H33.735V33.735H0Z" fill="none"/>
  <path id="Path_235" data-name="Path 235" d="M19.7,10.434l-3.641,3.641-3.641-3.641-1.982,1.982,3.641,3.641L10.434,19.7l1.982,1.982,3.641-3.641L19.7,21.679,21.679,19.7l-3.641-3.641,3.641-3.641ZM16.056,2A14.056,14.056,0,1,0,30.112,16.056,14.043,14.043,0,0,0,16.056,2Zm0,25.3A11.245,11.245,0,1,1,27.3,16.056,11.26,11.26,0,0,1,16.056,27.3Z" transform="translate(0.811 0.811)" fill="#fff"/>
</svg>
