<?xml version="1.0" encoding="UTF-8"?>
<svg width="528px" height="724px" viewBox="0 0 528 724" version="1.1" xmlns="http://www.w3.org/2000/svg" xmlns:xlink="http://www.w3.org/1999/xlink">
    <!-- Generator: Sketch 60.1 (88133) - https://sketch.com -->
    <title>Plane</title>
    <desc>Created with Sketch.</desc>
    <defs>
        <polygon id="path-1" points="0.816354473 0.0165983512 13.4938617 0.0165983512 13.4938617 2 0.816354473 2"></polygon>
        <polygon id="path-3" points="0 0.62660882 1.93974574 0.62660882 1.93974574 13.3024707 0 13.3024707"></polygon>
    </defs>
    <g id="Design" stroke="none" stroke-width="1" fill="none" fill-rule="evenodd">
        <g id="Home-" transform="translate(-72.000000, -5207.000000)">
            <g id="Plane" transform="translate(328.000000, 5609.500000) rotate(17.000000) translate(-328.000000, -5609.500000) translate(5.000000, 5280.000000)">
                <path d="M589.4282,432.6272 C590.6802,433.2102 590.3842,433.1662 589.2012,432.8502 C587.8442,432.4872 586.6282,432.0662 585.5852,431.5192 C584.4032,430.8982 582.5472,430.0232 583.2552,429.9542 C584.0112,429.8762 584.3302,429.5742 587.0132,430.3532 C589.8242,431.1692 592.4132,432.1872 594.3332,433.1272 C596.6802,434.2762 593.9382,433.7462 593.3632,433.8492 C592.7092,433.9672 592.5782,433.4242 591.9322,433.1312 C591.2012,432.7972 590.5732,432.5692 589.8622,432.3792 C588.6692,432.0582 588.8442,432.2632 589.4282,432.6272" id="Fill-1" fill="#020F14"></path>
                <path d="M565.3652,424.5174 C566.6452,425.0374 566.3462,425.0074 565.1492,424.7504 C563.7752,424.4564 562.5402,424.0974 561.4712,423.6024 C560.2592,423.0414 558.3622,422.2614 559.0662,422.1554 C559.8172,422.0404 560.1212,421.7234 562.8402,422.3664 C565.6872,423.0414 568.3242,423.9284 570.2892,424.7714 C572.6902,425.8024 569.9252,425.4094 569.3562,425.5414 C568.7092,425.6924 568.5512,425.1564 567.8912,424.8954 C567.1442,424.5984 566.5052,424.4024 565.7852,424.2474 C564.5782,423.9864 564.7632,424.1834 565.3652,424.5174" id="Fill-3" fill="#020F14"></path>
                <path d="M540.9269,417.6185 C542.2309,418.0745 541.9319,418.0595 540.7229,417.8625 C539.3369,417.6375 538.0849,417.3395 536.9929,416.8995 C535.7539,416.3995 533.8209,415.7145 534.5179,415.5745 C535.2629,415.4215 535.5499,415.0895 538.2969,415.5965 C541.1759,416.1285 543.8539,416.8825 545.8569,417.6265 C548.3079,418.5355 545.5259,418.2815 544.9639,418.4415 C544.3259,418.6245 544.1409,418.0975 543.4689,417.8695 C542.7079,417.6105 542.0599,417.4465 541.3339,417.3275 C540.1149,417.1275 540.3089,417.3145 540.9269,417.6185" id="Fill-5" fill="#020F14"></path>
                <path d="M516.1743,411.9534 C517.4993,412.3424 517.2003,412.3434 515.9833,412.2074 C514.5863,412.0524 513.3213,411.8184 512.2083,411.4334 C510.9463,410.9964 508.9813,410.4104 509.6703,410.2344 C510.4063,410.0444 510.6763,409.6994 513.4463,410.0664 C516.3473,410.4524 519.0603,411.0714 521.0993,411.7124 C523.5923,412.4974 520.8003,412.3834 520.2473,412.5724 C519.6193,412.7864 519.4083,412.2694 518.7253,412.0764 C517.9523,411.8554 517.2973,411.7244 516.5653,411.6424 C515.3383,411.5044 515.5423,411.6814 516.1743,411.9534" id="Fill-7" fill="#020F14"></path>
                <path d="M491.1657,407.5564 C492.5097,407.8764 492.2097,407.8924 490.9877,407.8194 C489.5857,407.7374 488.3097,407.5684 487.1787,407.2414 C485.8957,406.8704 483.9027,406.3864 484.5817,406.1754 C485.3067,405.9474 485.5587,405.5884 488.3437,405.8124 C491.2607,406.0484 494.0027,406.5264 496.0717,407.0624 C498.6017,407.7174 495.8077,407.7474 495.2657,407.9644 C494.6487,408.2114 494.4117,407.7054 493.7197,407.5474 C492.9367,407.3674 492.2757,407.2694 491.5407,407.2254 C490.3077,407.1514 490.5197,407.3174 491.1657,407.5564" id="Fill-9" fill="#020F14"></path>
                <path d="M465.9623,404.4759 C467.3213,404.7239 467.0233,404.7559 465.7993,404.7479 C464.3943,404.7409 463.1113,404.6409 461.9643,404.3749 C460.6633,404.0729 458.6473,403.6949 459.3143,403.4489 C460.0253,403.1829 460.2573,402.8099 463.0513,402.8859 C465.9773,402.9649 468.7403,403.2959 470.8353,403.7209 C473.3963,404.2399 470.6083,404.4189 470.0783,404.6639 C469.4753,404.9439 469.2123,404.4519 468.5123,404.3299 C467.7203,404.1929 467.0553,404.1309 466.3193,404.1259 C465.0843,404.1169 465.3053,404.2719 465.9623,404.4759" id="Fill-11" fill="#020F14"></path>
                <path d="M440.6301,402.7791 C442.0001,402.9501 441.7051,402.9991 440.4821,403.0611 C439.0791,403.1321 437.7941,403.1041 436.6331,402.9031 C435.3181,402.6751 433.2831,402.4111 433.9341,402.1281 C434.6301,401.8221 434.8401,401.4371 437.6331,401.3551 C440.5601,401.2701 443.3381,401.4451 445.4531,401.7511 C448.0401,402.1251 445.2651,402.4611 444.7501,402.7361 C444.1641,403.0491 443.8731,402.5721 443.1681,402.4911 C442.3701,402.3971 441.7021,402.3731 440.9661,402.4101 C439.7331,402.4701 439.9631,402.6121 440.6301,402.7791" id="Fill-13" fill="#020F14"></path>
                <path d="M415.2448,402.5564 C416.6228,402.6444 416.3308,402.7114 415.1138,402.8464 C413.7188,403.0024 412.4338,403.0514 411.2638,402.9204 C409.9368,402.7724 407.8898,402.6314 408.5218,402.3094 C409.1978,401.9624 409.3838,401.5654 412.1678,401.3154 C415.0838,401.0544 417.8678,401.0614 419.9978,401.2394 C422.6028,401.4574 419.8518,401.9594 419.3538,402.2654 C418.7878,402.6124 418.4698,402.1544 417.7598,402.1164 C416.9588,402.0704 416.2898,402.0864 415.5588,402.1674 C414.3308,402.3024 414.5688,402.4304 415.2448,402.5564" id="Fill-15" fill="#020F14"></path>
                <path d="M389.8996,403.928 C391.2806,403.926 390.9936,404.011 389.7886,404.226 C388.4056,404.473 387.1276,404.607 385.9516,404.553 C384.6176,404.492 382.5666,404.487 383.1756,404.123 C383.8266,403.733 383.9856,403.324 386.7466,402.892 C389.6396,402.44 392.4196,402.263 394.5566,402.301 C397.1696,402.347 394.4576,403.03 393.9806,403.367 C393.4376,403.751 393.0906,403.315 392.3806,403.323 C391.5776,403.33 390.9116,403.39 390.1866,403.519 C388.9706,403.734 389.2166,403.846 389.8996,403.928" id="Fill-17" fill="#020F14"></path>
                <path d="M364.7155,407.0511 C366.0925,406.9471 365.8115,407.0541 364.6265,407.3561 C363.2665,407.7041 362.0015,407.9311 360.8255,407.9651 C359.4905,408.0021 357.4445,408.1461 358.0245,407.7391 C358.6435,407.3021 358.7715,406.8841 361.4945,406.2501 C364.3475,405.5861 367.1075,405.2061 369.2425,405.0871 C371.8515,404.9411 369.1945,405.8211 368.7445,406.1921 C368.2305,406.6151 367.8525,406.2061 367.1455,406.2661 C366.3455,406.3321 365.6855,406.4411 364.9725,406.6231 C363.7755,406.9261 364.0285,407.0201 364.7155,407.0511" id="Fill-19" fill="#020F14"></path>
                <path d="M339.861,412.1326 C341.223,411.9136 340.953,412.0436 339.798,412.4446 C338.472,412.9046 337.232,413.2366 336.062,413.3676 C334.736,413.5166 332.708,413.8326 333.251,413.3796 C333.831,412.8916 333.922,412.4646 336.583,411.6036 C339.371,410.7036 342.091,410.0936 344.209,409.7956 C346.797,409.4316 344.221,410.5306 343.802,410.9396 C343.326,411.4036 342.916,411.0276 342.216,411.1466 C341.424,411.2796 340.776,411.4436 340.081,411.6836 C338.913,412.0866 339.174,412.1586 339.861,412.1326" id="Fill-21" fill="#020F14"></path>
                <path d="M315.5778,419.4363 C316.9118,419.0853 316.6558,419.2403 315.5458,419.7523 C314.2718,420.3403 313.0718,420.7923 311.9208,421.0373 C310.6158,421.3153 308.6288,421.8293 309.1228,421.3243 C309.6508,420.7833 309.6988,420.3493 312.2628,419.2313 C314.9508,418.0613 317.5998,417.1873 319.6778,416.6833 C322.2178,416.0673 319.7598,417.4153 319.3828,417.8623 C318.9528,418.3723 318.5098,418.0363 317.8258,418.2233 C317.0508,418.4343 316.4218,418.6603 315.7528,418.9683 C314.6308,419.4833 314.8968,419.5293 315.5778,419.4363" id="Fill-23" fill="#020F14"></path>
                <path d="M292.2316,429.2898 C293.5146,428.7848 293.2776,428.9698 292.2366,429.6078 C291.0426,430.3408 289.9036,430.9298 288.7906,431.3088 C287.5266,431.7368 285.6136,432.4808 286.0436,431.9228 C286.5026,431.3238 286.4966,430.8888 288.9146,429.4768 C291.4466,427.9988 293.9786,426.8178 295.9826,426.0728 C298.4326,425.1638 296.1466,426.7918 295.8246,427.2808 C295.4566,427.8368 294.9786,427.5558 294.3206,427.8218 C293.5766,428.1218 292.9786,428.4198 292.3506,428.8048 C291.2966,429.4478 291.5666,429.4618 292.2316,429.2898" id="Fill-25" fill="#020F14"></path>
                <path d="M270.3054,441.9637 C271.5074,441.2877 271.2974,441.5017 270.3554,442.2767 C269.2754,443.1697 268.2424,443.9277 267.2094,444.4817 C266.0354,445.1067 264.2954,446.1837 264.6254,445.5517 C264.9804,444.8777 264.8944,444.4277 267.0574,442.6387 C269.3294,440.7737 271.6954,439.2757 273.6124,438.3117 C275.9584,437.1377 273.8684,438.9947 273.6114,439.5157 C273.3164,440.1077 272.8014,439.8887 272.1804,440.2347 C271.4774,440.6247 270.9244,441.0007 270.3544,441.4667 C269.4014,442.2517 269.6714,442.2277 270.3054,441.9637" id="Fill-27" fill="#020F14"></path>
                <path d="M250.7253,457.9939 C251.7923,457.1219 251.6213,457.3689 250.8293,458.2939 C249.9223,459.3589 249.0403,460.2849 248.1243,461.0129 C247.0803,461.8339 245.5673,463.2079 245.7763,462.5269 C246.0033,461.8009 245.8343,461.3709 247.6463,459.2259 C249.5533,456.9869 251.6323,455.1059 253.3623,453.8339 C255.4813,452.2869 253.7263,454.4659 253.5633,455.0219 C253.3723,455.6539 252.8273,455.5249 252.2743,455.9709 C251.6483,456.4739 251.1683,456.9399 250.6873,457.4959 C249.8853,458.4339 250.1473,458.3639 250.7253,457.9939" id="Fill-29" fill="#020F14"></path>
                <path d="M234.5437,477.4065 C235.4107,476.3365 235.2937,476.6135 234.7067,477.6795 C234.0357,478.9055 233.3657,479.9915 232.6197,480.8935 C231.7697,481.9125 230.5797,483.5745 230.6407,482.8645 C230.7107,482.1075 230.4537,481.7215 231.7827,479.2455 C233.1867,476.6565 234.8467,474.3915 236.2917,472.8005 C238.0637,470.8635 236.7727,473.3475 236.7247,473.9245 C236.6637,474.5815 236.1037,474.5645 235.6507,475.1125 C235.1397,475.7315 234.7637,476.2845 234.4057,476.9265 C233.8117,478.0085 234.0537,477.8855 234.5437,477.4065" id="Fill-31" fill="#020F14"></path>
                <path d="M222.9074,499.8201 C223.5154,498.5851 223.4634,498.8801 223.1264,500.0501 C222.7444,501.3941 222.3334,502.6021 221.8074,503.6471 C221.2054,504.8301 220.4154,506.7151 220.3174,506.0091 C220.2174,505.2551 219.8794,504.9371 220.6244,502.2261 C221.4164,499.3901 222.5344,496.8121 223.5944,494.9421 C224.8984,492.6621 224.1834,495.3691 224.2634,495.9431 C224.3494,496.5971 223.7994,496.7041 223.4794,497.3381 C223.1164,498.0541 222.8724,498.6771 222.6664,499.3831 C222.3264,500.5691 222.5354,500.3961 222.9074,499.8201" id="Fill-33" fill="#020F14"></path>
                <path d="M216.5188,524.2596 C216.8448,522.9216 216.8568,523.2206 216.7828,524.4366 C216.6998,525.8316 216.5578,527.1016 216.2668,528.2356 C215.9318,529.5206 215.5578,531.5306 215.3118,530.8626 C215.0538,530.1456 214.6598,529.9056 214.8078,527.1006 C214.9738,524.1626 215.5018,521.4056 216.1248,519.3486 C216.8958,516.8386 216.7948,519.6356 216.9978,520.1786 C217.2248,520.7986 216.7118,521.0226 216.5378,521.7116 C216.3398,522.4896 216.2368,523.1516 216.1888,523.8846 C216.1138,525.1166 216.2798,524.9026 216.5188,524.2596" id="Fill-35" fill="#020F14"></path>
                <path d="M215.3005,549.5145 C215.3365,548.1395 215.4135,548.4305 215.5945,549.6385 C215.8035,551.0235 215.9025,552.2995 215.8165,553.4695 C215.7175,554.7965 215.6555,556.8465 215.3095,556.2315 C214.9375,555.5735 214.5335,555.4085 214.1765,552.6255 C213.9905,551.1685 213.8725,549.7395 213.8135,548.4095 C213.7735,547.0775 213.8545,545.8425 213.9405,544.7745 C214.1735,542.1635 214.6595,544.9235 214.9625,545.4175 C215.3065,545.9815 214.8465,546.3015 214.8035,547.0115 C214.7415,547.8135 214.7885,548.4805 214.8995,549.2095 C215.0805,550.4325 215.1995,550.1915 215.3005,549.5145" id="Fill-37" fill="#020F14"></path>
                <path d="M218.676,574.576 C218.479,573.213 218.603,573.486 218.987,574.641 C219.431,575.967 219.772,577.198 219.928,578.358 C220.098,579.675 220.507,581.678 220.029,581.15 C219.521,580.583 219.063,580.51 218.15,577.851 C217.206,575.062 216.669,572.306 216.478,570.167 C216.255,567.55 217.207,570.182 217.597,570.611 C218.039,571.101 217.647,571.5 217.743,572.205 C217.851,573.001 218,573.653 218.23,574.351 C218.62,575.522 218.695,575.262 218.676,574.576" id="Fill-39" fill="#020F14"></path>
                <path d="M227.2277,598.3387 C226.7297,597.0557 226.9117,597.2947 227.5447,598.3327 C228.2767,599.5227 228.8897,600.6407 229.3077,601.7337 C229.7747,602.9747 230.6387,604.8257 230.0507,604.4247 C229.4257,603.9917 228.9607,604.0277 227.4597,601.6487 C225.9007,599.1477 224.7597,596.5767 224.1027,594.5297 C223.3107,592.0237 224.8167,594.3857 225.2927,594.7157 C225.8317,595.0967 225.5377,595.5727 225.7877,596.2377 C226.0697,596.9897 226.3617,597.5917 226.7427,598.2207 C227.3867,599.2737 227.4007,599.0027 227.2277,598.3387" id="Fill-41" fill="#020F14"></path>
                <path d="M241.1726,619.3689 C240.3736,618.2479 240.6086,618.4349 241.4786,619.2849 C242.4816,620.2569 243.3516,621.1889 244.0266,622.1439 C244.7866,623.2309 246.0846,624.8089 245.4146,624.5669 C244.7016,624.3019 244.2596,624.4539 242.2156,622.5189 C240.0846,620.4819 238.3446,618.2679 237.2076,616.4419 C235.8276,614.2039 237.8646,616.1299 238.4076,616.3319 C239.0236,616.5699 238.8546,617.1029 239.2596,617.6869 C239.7176,618.3469 240.1496,618.8579 240.6726,619.3739 C241.5566,620.2359 241.5036,619.9689 241.1726,619.3689" id="Fill-43" fill="#020F14"></path>
                <path d="M259.8942,636.2884 C258.8442,635.3984 259.1182,635.5214 260.1702,636.1314 C261.3812,636.8284 262.4532,637.5194 263.3412,638.2804 C264.3432,639.1494 265.9842,640.3674 265.2762,640.2934 C264.5202,640.2104 264.1292,640.4634 261.6772,639.0864 C259.1142,637.6324 256.8842,635.9174 255.3322,634.4304 C253.4422,632.6034 255.8912,633.9644 256.4662,634.0274 C257.1222,634.1044 257.0902,634.6634 257.6272,635.1294 C258.2332,635.6564 258.7772,636.0444 259.4122,636.4164 C260.4802,637.0344 260.3622,636.7884 259.8942,636.2884" id="Fill-45" fill="#020F14"></path>
                <path d="M282.1193,648.2645 C280.8923,647.6395 281.1863,647.6965 282.3513,648.0485 C283.6903,648.4495 284.8923,648.8775 285.9303,649.4175 C287.1043,650.0365 288.9773,650.8545 288.2703,650.9425 C287.5153,651.0315 287.1923,651.3635 284.4933,650.5805 C281.6693,649.7485 279.1063,648.5975 277.2513,647.5135 C274.9883,646.1795 277.6863,646.9285 278.2613,646.8565 C278.9163,646.7795 279.0153,647.3305 279.6453,647.6595 C280.3563,648.0315 280.9763,648.2845 281.6793,648.4995 C282.8603,648.8555 282.6903,648.6445 282.1193,648.2645" id="Fill-47" fill="#020F14"></path>
                <path d="M306.4533,655.0408 C305.1213,654.6918 305.4213,654.6848 306.6353,654.7808 C308.0283,654.8868 309.2953,655.0518 310.4233,655.3618 C311.7023,655.7188 313.7053,656.1258 313.0323,656.3598 C312.3123,656.6058 312.0653,656.9978 309.2643,656.8018 C306.3293,656.5838 303.5823,656.0078 301.5373,655.3498 C299.0413,654.5358 301.8363,654.6848 302.3823,654.4908 C303.0063,654.2748 303.2213,654.7918 303.9073,654.9778 C304.6823,655.1888 305.3403,655.3038 306.0733,655.3648 C307.3033,655.4608 307.0923,655.2908 306.4533,655.0408" id="Fill-49" fill="#020F14"></path>
                <g id="Group-53" transform="translate(325.000000, 656.079000)">
                    <mask id="mask-2" fill="white">
                        <use xlink:href="#path-1"></use>
                    </mask>
                    <g id="Clip-52"></g>
                    <path d="M6.6716,0.5385 C5.2956,0.4685 5.5876,0.4005 6.7966,0.2465 C8.1826,0.0655 9.4566,-0.0315 10.6246,0.0405 C11.9496,0.1295 13.9936,0.1195 13.3826,0.4855 C12.7286,0.8735 12.5666,1.3075 9.7836,1.6875 C6.8656,2.0745 4.0586,2.0715 1.9216,1.8465 C-0.6884,1.5615 2.0776,1.1345 2.5726,0.8325 C3.1396,0.4945 3.4556,0.9555 4.1656,0.9975 C4.9666,1.0455 5.6356,1.0225 6.3646,0.9325 C7.5896,0.7755 7.3476,0.6525 6.6716,0.5385" id="Fill-51" fill="#020F14" mask="url(#mask-2)"></path>
                </g>
                <path d="M356.6774,652.9798 C355.3174,653.1988 355.5894,653.0708 356.7384,652.6678 C358.0564,652.2028 359.2804,651.8408 360.4374,651.6658 C361.7504,651.4738 363.7464,651.0298 363.2264,651.5188 C362.6684,652.0358 362.6034,652.4948 359.9614,653.4518 C357.1884,654.4428 354.4404,655.0238 352.3034,655.2458 C349.6904,655.5068 352.3094,654.5168 352.7304,654.1198 C353.2144,653.6708 353.6194,654.0568 354.3224,653.9508 C355.1164,653.8308 355.7654,653.6698 356.4604,653.4298 C357.6244,653.0208 357.3624,652.9498 356.6774,652.9798" id="Fill-54" fill="#020F14"></path>
                <path d="M380.289,644.0311 C379.014,644.5501 379.25,644.3641 380.278,643.7141 C381.456,642.9631 382.564,642.3321 383.649,641.8981 C384.883,641.4111 386.72,640.5171 386.328,641.1121 C385.904,641.7441 385.949,642.2081 383.594,643.7461 C381.119,645.3451 378.568,646.5271 376.532,647.2171 C374.041,648.0501 376.377,646.5061 376.699,646.0241 C377.071,645.4791 377.551,645.7651 378.213,645.5051 C378.96,645.2111 379.556,644.9081 380.179,644.5181 C381.221,643.8571 380.949,643.8471 380.289,644.0311" id="Fill-56" fill="#020F14"></path>
                <path d="M401.0712,629.7391 C399.9672,630.5601 400.1492,630.3221 400.9812,629.4351 C401.9322,628.4141 402.8432,627.5241 403.7822,626.8281 C404.8512,626.0441 406.3962,624.7081 406.1702,625.3841 C405.9232,626.1021 406.0872,626.5421 404.1982,628.6291 C402.2082,630.8061 400.0272,632.5891 398.2212,633.7591 C396.0092,635.1781 397.8972,633.1071 398.0902,632.5611 C398.3152,631.9421 398.8522,632.1011 399.4282,631.6841 C400.0792,631.2141 400.5812,630.7721 401.0872,630.2391 C401.9292,629.3371 401.6642,629.3961 401.0712,629.7391" id="Fill-58" fill="#020F14"></path>
                <path d="M417.3835,610.5252 C416.5415,611.6122 416.6525,611.3342 417.2145,610.2562 C417.8545,609.0172 418.4905,607.9152 419.2065,606.9912 C420.0235,605.9482 421.1475,604.2442 421.1135,604.9552 C421.0705,605.7132 421.3475,606.0922 420.0945,608.6122 C418.7675,611.2462 417.1455,613.5512 415.7185,615.1612 C413.9655,617.1202 415.2325,614.6202 415.2715,614.0432 C415.3225,613.3852 415.8815,613.3952 416.3245,612.8392 C416.8265,612.2122 417.1895,611.6512 417.5325,611.0012 C418.1015,609.9062 417.8625,610.0352 417.3835,610.5252" id="Fill-60" fill="#020F14"></path>
                <path d="M427.9225,587.6258 C427.3975,588.8978 427.4305,588.5998 427.6885,587.4108 C427.9805,586.0458 428.3065,584.8128 428.7565,583.7338 C429.2745,582.5128 429.9235,580.5758 430.0735,581.2718 C430.2275,582.0168 430.5905,582.3108 430.0365,585.0688 C429.4435,587.9558 428.4935,590.6058 427.5475,592.5388 C426.3825,594.8948 426.9345,592.1468 426.8185,591.5798 C426.6925,590.9328 427.2345,590.7928 427.5135,590.1388 C427.8305,589.4008 428.0325,588.7638 428.1925,588.0458 C428.4525,586.8398 428.2555,587.0268 427.9225,587.6258" id="Fill-62" fill="#020F14"></path>
                <path d="M432.4284,562.7874 C432.1854,564.1454 432.1524,563.8484 432.1544,562.6324 C432.1344,561.2344 432.1544,559.9474 432.3774,558.7944 C432.6224,557.4844 432.9124,555.4554 433.1884,556.1104 C433.4844,556.8104 433.8664,557.0264 433.9124,559.8264 C434.0114,562.7574 433.5944,565.5474 433.2034,567.6504 C432.6934,570.2194 432.5044,567.4154 432.2564,566.8914 C431.9754,566.2904 432.4664,566.0264 432.5844,565.3254 C432.7194,564.5344 432.7784,563.8684 432.7804,563.1334 C432.7844,561.9024 432.6304,562.1284 432.4284,562.7874" id="Fill-64" fill="#020F14"></path>
                <path d="M432.6518,537.4397 C432.5968,538.8177 432.5238,538.5267 432.3588,537.3157 C432.1688,535.9267 432.0888,534.6477 432.1908,533.4757 C432.3068,532.1467 432.3978,530.0957 432.7348,530.7147 C433.0988,531.3777 433.4988,531.5477 433.8178,534.3287 C434.1498,537.2417 434.2108,540.0337 434.0838,542.1677 C433.9298,544.7767 433.3598,542.0297 433.0428,541.5377 C432.6818,540.9777 433.1318,540.6527 433.1538,539.9427 C433.1788,539.1407 433.1468,538.4727 433.0478,537.7437 C432.8838,536.5207 432.7618,536.7607 432.6518,537.4397" id="Fill-66" fill="#020F14"></path>
                <path d="M430.0068,512.241 C430.1248,513.616 430.0168,513.336 429.7008,512.157 C429.3338,510.804 429.0738,509.55 428.9988,508.379 C428.9188,507.05 428.6678,505.019 429.1048,505.583 C429.5698,506.187 430.0118,506.298 430.7388,509.006 C431.4908,511.845 431.8788,514.616 431.9708,516.759 C432.0768,519.379 431.2428,516.711 430.8728,516.263 C430.4558,515.751 430.8668,515.371 430.8078,514.662 C430.7408,513.862 430.6278,513.202 430.4388,512.491 C430.1188,511.299 430.0278,511.554 430.0068,512.241" id="Fill-68" fill="#020F14"></path>
                <path d="M423.7709,487.6976 C424.0919,489.0376 423.9439,488.7776 423.4559,487.6596 C422.8929,486.3776 422.4469,485.1776 422.1979,484.0316 C421.9189,482.7326 421.3619,480.7636 421.8789,481.2546 C422.4299,481.7806 422.8849,481.8226 424.0109,484.3906 C425.1819,487.0846 425.9749,489.7686 426.3779,491.8756 C426.8639,494.4526 425.6509,491.9336 425.2199,491.5456 C424.7319,491.1006 425.0829,490.6636 424.9209,489.9726 C424.7379,489.1906 424.5279,488.5556 424.2349,487.8806 C423.7419,486.7496 423.6899,487.0156 423.7709,487.6976" id="Fill-70" fill="#020F14"></path>
                <path d="M413.83,464.4173 C414.358,465.6903 414.171,465.4573 413.513,464.4303 C412.755,463.2523 412.125,462.1383 411.697,461.0463 C411.217,459.8063 410.356,457.9513 410.944,458.3543 C411.571,458.7863 412.027,458.7553 413.545,461.1133 C415.127,463.5893 416.333,466.1153 417.062,468.1333 C417.946,470.6033 416.353,468.3053 415.867,467.9893 C415.315,467.6263 415.593,467.1403 415.324,466.4833 C415.02,465.7393 414.712,465.1463 414.318,464.5253 C413.651,463.4863 413.643,463.7563 413.83,464.4173" id="Fill-72" fill="#020F14"></path>
                <path d="M400.3625,442.9798 C401.0795,444.1568 400.8585,443.9548 400.0505,443.0408 C399.1215,441.9928 398.3285,440.9868 397.7405,439.9718 C397.0775,438.8188 395.9475,437.1128 396.5895,437.4228 C397.2745,437.7568 397.7195,437.6588 399.5765,439.7578 C401.5165,441.9638 403.0965,444.2718 404.1295,446.1518 C405.3855,448.4538 403.4555,446.4328 402.9255,446.1958 C402.3245,445.9218 402.5245,445.3988 402.1565,444.7918 C401.7415,444.1038 401.3465,443.5638 400.8605,443.0118 C400.0435,442.0868 400.0765,442.3548 400.3625,442.9798" id="Fill-74" fill="#020F14"></path>
                <path d="M383.8315,423.7923 C384.7085,424.8563 384.4595,424.6883 383.5305,423.8953 C382.4635,422.9853 381.5515,422.0853 380.8475,421.1433 C380.0495,420.0753 378.7505,418.4853 379.4145,418.7233 C380.1265,418.9753 380.5395,418.8343 382.6295,420.6963 C384.8175,422.6483 386.7235,424.6893 388.0505,426.3653 C389.6725,428.4133 387.4175,426.7433 386.8535,426.5873 C386.2095,426.4103 386.3305,425.8683 385.8735,425.3253 C385.3585,424.7103 384.8895,424.2333 384.3305,423.7553 C383.3925,422.9523 383.4615,423.2133 383.8315,423.7923" id="Fill-76" fill="#020F14"></path>
                <path d="M365.0891,406.7366 C366.0811,407.6946 365.8161,407.5556 364.8021,406.8736 C363.6381,406.0906 362.6281,405.2986 361.8211,404.4416 C360.9061,403.4706 359.4361,402.0396 360.1241,402.2006 C360.8621,402.3716 361.2571,402.1866 363.5441,403.7986 C365.9391,405.4876 368.0611,407.2976 369.5701,408.8116 C371.4151,410.6626 368.9871,409.2616 368.4101,409.1716 C367.7511,409.0696 367.8081,408.5156 367.2921,408.0286 C366.7101,407.4746 366.1901,407.0546 365.5801,406.6436 C364.5571,405.9516 364.6561,406.2036 365.0891,406.7366" id="Fill-78" fill="#020F14"></path>
                <path d="M344.6852,391.6756 C345.7602,392.5406 345.4832,392.4266 344.4112,391.8376 C343.1812,391.1616 342.1022,390.4636 341.2222,389.6836 C340.2232,388.7996 338.6302,387.5066 339.3312,387.6066 C340.0822,387.7106 340.4622,387.4926 342.8832,388.8896 C345.4182,390.3546 347.6922,391.9636 349.3312,393.3346 C351.3352,395.0116 348.7952,393.8386 348.2122,393.8006 C347.5482,393.7586 347.5532,393.2016 346.9952,392.7626 C346.3662,392.2636 345.8102,391.8926 345.1652,391.5376 C344.0842,390.9416 344.2052,391.1836 344.6852,391.6756" id="Fill-80" fill="#020F14"></path>
                <path d="M323.1281,378.2894 C324.2621,379.0784 323.9781,378.9834 322.8661,378.4694 C321.5911,377.8814 320.4661,377.2584 319.5321,376.5414 C318.4731,375.7284 316.7951,374.5494 317.5031,374.6014 C318.2611,374.6534 318.6261,374.4104 321.1371,375.6364 C323.7681,376.9204 326.1471,378.3664 327.8771,379.6204 C329.9931,381.1544 327.3801,380.1614 326.7961,380.1654 C326.1311,380.1694 326.0961,379.6134 325.5091,379.2134 C324.8461,378.7594 324.2661,378.4284 323.5981,378.1194 C322.4781,377.5994 322.6151,377.8314 323.1281,378.2894" id="Fill-82" fill="#020F14"></path>
                <path d="M300.7829,366.2322 C301.9569,366.9612 301.6679,366.8812 300.5309,366.4262 C299.2259,365.9042 298.0689,365.3402 297.0989,364.6732 C295.9989,363.9152 294.2619,362.8252 294.9729,362.8402 C295.7339,362.8542 296.0869,362.5932 298.6579,363.6862 C301.3509,364.8322 303.7989,366.1512 305.5929,367.3142 C307.7859,368.7352 305.1269,367.8812 304.5439,367.9162 C303.8819,367.9552 303.8159,367.4002 303.2089,367.0312 C302.5229,366.6132 301.9269,366.3122 301.2429,366.0372 C300.0969,365.5762 300.2459,365.8012 300.7829,366.2322" id="Fill-84" fill="#020F14"></path>
                <path d="M277.9142,355.1824 C279.1142,355.8674 278.8232,355.7984 277.6692,355.3854 C276.3462,354.9124 275.1682,354.3914 274.1742,353.7604 C273.0462,353.0444 271.2692,352.0194 271.9822,352.0094 C272.7442,351.9944 273.0882,351.7214 275.6972,352.7174 C278.4292,353.7624 280.9232,354.9894 282.7592,356.0834 C285.0032,357.4224 282.3162,356.6694 281.7362,356.7254 C281.0752,356.7894 280.9882,356.2374 280.3682,355.8904 C279.6672,355.4984 279.0602,355.2194 278.3672,354.9704 C277.2052,354.5524 277.3612,354.7714 277.9142,355.1824" id="Fill-86" fill="#020F14"></path>
                <path d="M254.7043,344.8436 C255.9213,345.4986 255.6283,345.4376 254.4643,345.0526 C253.1293,344.6116 251.9383,344.1196 250.9283,343.5136 C249.7833,342.8246 247.9813,341.8446 248.6953,341.8166 C249.4573,341.7836 249.7953,341.5026 252.4273,342.4346 C255.1833,343.4106 257.7063,344.5746 259.5683,345.6246 C261.8453,346.9076 259.1423,346.2216 258.5633,346.2916 C257.9053,346.3726 257.8033,345.8226 257.1753,345.4906 C256.4643,345.1156 255.8503,344.8516 255.1513,344.6206 C253.9793,344.2316 254.1413,344.4466 254.7043,344.8436" id="Fill-88" fill="#020F14"></path>
                <path d="M231.2927,334.9476 C232.5187,335.5866 232.2257,335.5296 231.0557,335.1596 C229.7137,334.7366 228.5157,334.2606 227.4977,333.6676 C226.3427,332.9946 224.5287,332.0386 225.2427,332.0016 C226.0057,331.9596 226.3417,331.6736 228.9847,332.5696 C231.7527,333.5086 234.2877,334.6376 236.1637,335.6616 C238.4577,336.9146 235.7487,336.2656 235.1717,336.3446 C234.5157,336.4346 234.4047,335.8846 233.7717,335.5616 C233.0557,335.1966 232.4387,334.9406 231.7367,334.7186 C230.5597,334.3446 230.7247,334.5576 231.2927,334.9476" id="Fill-90" fill="#020F14"></path>
                <path d="M207.7976,325.2464 C209.0256,325.8814 208.7326,325.8254 207.5616,325.4594 C206.2186,325.0394 205.0186,324.5674 203.9986,323.9764 C202.8416,323.3074 201.0246,322.3564 201.7386,322.3174 C202.5016,322.2734 202.8376,321.9864 205.4826,322.8744 C208.2536,323.8064 210.7916,324.9284 212.6706,325.9464 C214.9686,327.1934 212.2576,326.5524 211.6806,326.6324 C211.0246,326.7244 210.9126,326.1744 210.2786,325.8534 C209.5616,325.4894 208.9436,325.2364 208.2406,325.0164 C207.0626,324.6454 207.2286,324.8584 207.7976,325.2464" id="Fill-92" fill="#020F14"></path>
                <path d="M184.3151,315.4925 C185.5391,316.1375 185.2461,316.0785 184.0771,315.7035 C182.7371,315.2745 181.5401,314.7925 180.5241,314.1945 C179.3721,313.5155 177.5631,312.5515 178.2781,312.5185 C179.0421,312.4805 179.3811,312.1965 182.0191,313.1045 C184.7821,314.0555 187.3101,315.1965 189.1811,316.2285 C191.4691,317.4925 188.7661,316.8315 188.1881,316.9075 C187.5321,316.9945 187.4231,316.4445 186.7921,316.1185 C186.0771,315.7495 185.4611,315.4915 184.7601,315.2655 C183.5841,314.8865 183.7481,315.1005 184.3151,315.4925" id="Fill-94" fill="#020F14"></path>
                <path d="M160.9558,305.4383 C162.1678,306.1053 161.8758,306.0423 160.7148,305.6453 C159.3818,305.1903 158.1928,304.6863 157.1888,304.0693 C156.0498,303.3703 154.2588,302.3723 154.9758,302.3533 C155.7408,302.3293 156.0858,302.0523 158.7058,303.0083 C161.4498,304.0103 163.9548,305.1963 165.8058,306.2643 C168.0698,307.5693 165.3808,306.8603 164.8018,306.9253 C164.1448,307.0003 164.0458,306.4473 163.4198,306.1103 C162.7128,305.7283 162.1018,305.4583 161.4048,305.2203 C160.2368,304.8193 160.3958,305.0353 160.9558,305.4383" id="Fill-96" fill="#020F14"></path>
                <path d="M137.8444,294.8147 C139.0354,295.5197 138.7454,295.4467 137.5964,295.0137 C136.2784,294.5177 135.1044,293.9767 134.1194,293.3297 C133.0024,292.5947 131.2434,291.5417 131.9614,291.5447 C132.7284,291.5457 133.0824,291.2807 135.6714,292.3167 C138.3824,293.4027 140.8474,294.6657 142.6644,295.7897 C144.8874,297.1647 142.2234,296.3727 141.6434,296.4197 C140.9854,296.4757 140.9014,295.9187 140.2864,295.5627 C139.5914,295.1587 138.9894,294.8697 138.3004,294.6097 C137.1444,294.1727 137.2974,294.3947 137.8444,294.8147" id="Fill-98" fill="#020F14"></path>
                <path d="M115.1472,283.3235 C116.3052,284.0815 116.0192,283.9955 114.8912,283.5105 C113.5952,282.9555 112.4472,282.3615 111.4932,281.6695 C110.4102,280.8845 108.7012,279.7535 109.4192,279.7895 C110.1872,279.8255 110.5542,279.5775 113.0912,280.7295 C115.7482,281.9375 118.1512,283.3095 119.9152,284.5145 C122.0732,285.9905 119.4512,285.0795 118.8692,285.1005 C118.2102,285.1255 118.1502,284.5655 117.5532,284.1815 C116.8762,283.7455 116.2882,283.4305 115.6112,283.1395 C114.4772,282.6505 114.6202,282.8785 115.1472,283.3235" id="Fill-100" fill="#020F14"></path>
                <path d="M93.0959,270.6238 C94.2039,271.4548 93.9239,271.3508 92.8279,270.7948 C91.5699,270.1578 90.4599,269.4918 89.5509,268.7408 C88.5189,267.8888 86.8859,266.6508 87.6019,266.7338 C88.3669,266.8198 88.7509,266.5958 91.2089,267.9058 C93.7829,269.2788 96.0929,270.7988 97.7769,272.1138 C99.8369,273.7228 97.2809,272.6488 96.6999,272.6338 C96.0409,272.6178 96.0149,272.0538 95.4429,271.6328 C94.7949,271.1548 94.2269,270.8028 93.5709,270.4698 C92.4699,269.9108 92.5969,270.1468 93.0959,270.6238" id="Fill-102" fill="#020F14"></path>
                <path d="M72.0329,256.3377 C73.0669,257.2597 72.7969,257.1317 71.7509,256.4847 C70.5519,255.7437 69.5019,254.9837 68.6589,254.1587 C67.7039,253.2217 66.1819,251.8507 66.8899,251.9957 C67.6459,252.1467 68.0499,251.9587 70.3859,253.4707 C72.8319,255.0557 75.0009,256.7637 76.5669,258.2167 C78.4829,259.9947 76.0309,258.7107 75.4529,258.6457 C74.7989,258.5747 74.8199,258.0097 74.2849,257.5417 C73.6799,257.0107 73.1449,256.6117 72.5189,256.2247 C71.4699,255.5727 71.5759,255.8197 72.0329,256.3377" id="Fill-104" fill="#020F14"></path>
                <path d="M52.4533,240.0687 C53.3793,241.1007 53.1253,240.9437 52.1573,240.1847 C51.0453,239.3127 50.0843,238.4407 49.3393,237.5267 C48.4923,236.4887 47.1313,234.9587 47.8213,235.1817 C48.5573,235.4177 48.9813,235.2767 51.1353,237.0387 C53.3893,238.8827 55.3523,240.8187 56.7483,242.4357 C58.4563,244.4157 56.1643,242.8707 55.5983,242.7427 C54.9563,242.6007 55.0383,242.0407 54.5583,241.5157 C54.0163,240.9207 53.5283,240.4647 52.9493,240.0097 C51.9773,239.2467 52.0563,239.5027 52.4533,240.0687" id="Fill-106" fill="#020F14"></path>
                <path d="M34.9509,221.5735 C35.7329,222.7195 35.4999,222.5315 34.6419,221.6475 C33.6579,220.6325 32.8379,219.6255 32.2439,218.6015 C31.5679,217.4415 30.4949,215.6885 31.1299,216.0215 C31.8109,216.3705 32.2319,216.3075 34.0799,218.3795 C36.0199,220.5445 37.7269,222.7045 38.9369,224.4555 C40.4239,226.5955 38.2959,224.8145 37.7449,224.6175 C37.1179,224.3985 37.2699,223.8575 36.8569,223.2805 C36.3899,222.6255 35.9649,222.1105 35.4509,221.5825 C34.5919,220.6945 34.6349,220.9585 34.9509,221.5735" id="Fill-108" fill="#020F14"></path>
                <path d="M20.4997,200.5926 C21.0867,201.8496 20.8887,201.6276 20.1827,200.6156 C19.3747,199.4546 18.7287,198.3256 18.3117,197.2176 C17.8327,195.9616 17.0657,194.0536 17.6357,194.4886 C18.2507,194.9456 18.6747,194.9536 20.1577,197.2996 C21.7177,199.7516 23.0577,202.1546 23.9757,204.0746 C25.1067,206.4206 23.2857,204.3286 22.7727,204.0456 C22.1887,203.7306 22.4237,203.2196 22.1077,202.5836 C21.7507,201.8636 21.4147,201.2856 20.9907,200.6826 C20.2867,199.6666 20.2867,199.9346 20.4997,200.5926" id="Fill-110" fill="#020F14"></path>
                <path d="M9.7741,177.4808 C10.1371,178.8198 9.9791,178.5668 9.4581,177.4498 C8.8611,176.1668 8.4191,174.9438 8.1981,173.7798 C7.9421,172.4608 7.5131,170.4498 8.0011,170.9758 C8.5281,171.5318 8.9451,171.6118 10.0031,174.1778 C11.1191,176.8618 12.0251,179.4588 12.6021,181.5068 C13.3161,184.0118 11.8781,181.6388 11.4211,181.2728 C10.9001,180.8618 11.2191,180.3998 11.0171,179.7188 C10.7891,178.9468 10.5561,178.3208 10.2431,177.6538 C9.7231,176.5328 9.6771,176.7958 9.7741,177.4808" id="Fill-112" fill="#020F14"></path>
                <path d="M3.1228,152.886 C3.2598,154.266 3.1458,153.99 2.8158,152.803 C2.4378,151.44 2.2028,150.162 2.1728,148.979 C2.1348,147.636 2.0338,145.583 2.4298,146.18 C2.8608,146.813 3.2618,146.96 3.8898,149.664 C4.5538,152.496 5.0168,155.209 5.2438,157.326 C5.5278,159.915 4.5078,157.335 4.1188,156.898 C3.6728,156.406 4.0638,156.003 3.9778,155.298 C3.8818,154.499 3.7558,153.843 3.5568,153.134 C3.2288,151.942 3.1398,152.195 3.1228,152.886" id="Fill-114" fill="#020F14"></path>
                <g id="Group-118" transform="translate(0.000000, 120.079000)">
                    <mask id="mask-4" fill="white">
                        <use xlink:href="#path-3"></use>
                    </mask>
                    <g id="Clip-117"></g>
                    <path d="M0.4738,7.4803 C0.4038,8.8653 0.3328,8.5753 0.1818,7.3543 C0.0088,5.9523 -0.0582,4.6563 0.0578,3.4813 C0.1888,2.1483 0.3038,0.1043 0.6348,0.7493 C0.9908,1.4353 1.3908,1.6343 1.6758,4.4013 C1.9738,7.2983 2.0008,10.0543 1.8498,12.1853 C1.6648,14.7933 1.1298,12.0833 0.8178,11.5943 C0.4638,11.0423 0.9168,10.7013 0.9468,9.9903 C0.9818,9.1863 0.9568,8.5183 0.8668,7.7873 C0.7168,6.5613 0.5918,6.7993 0.4738,7.4803" id="Fill-116" fill="#020F14" mask="url(#mask-4)"></path>
                </g>
                <path d="M1.0715,102.1067 C0.8365,103.4727 0.8005,103.1767 0.7975,101.9467 C0.7915,100.5347 0.8805,99.2417 1.1345,98.0897 C1.4245,96.7817 1.7825,94.7647 2.0345,95.4427 C2.3055,96.1647 2.6795,96.4087 2.6325,99.1907 C2.5825,102.1057 2.2795,104.8487 1.8765,106.9467 C1.3815,109.5147 1.1735,106.7557 0.9225,106.2317 C0.6365,105.6397 1.1275,105.3577 1.2415,104.6557 C1.3715,103.8607 1.4265,103.1957 1.4245,102.4597 C1.4215,101.2237 1.2695,101.4447 1.0715,102.1067" id="Fill-119" fill="#020F14"></path>
                <path d="M4.4162,76.8733 C4.0502,78.2093 4.0442,77.9113 4.1582,76.6873 C4.2892,75.2823 4.5022,74.0053 4.8672,72.8833 C5.2812,71.6103 5.8322,69.6373 6.0172,70.3343 C6.2182,71.0773 6.5672,71.3533 6.2512,74.1203 C5.9202,77.0183 5.3542,79.7223 4.7492,81.7713 C4.0102,84.2783 4.0692,81.5093 3.8702,80.9633 C3.6432,80.3453 4.1582,80.1133 4.3392,79.4263 C4.5462,78.6483 4.6652,77.9913 4.7332,77.2583 C4.8502,76.0283 4.6772,76.2333 4.4162,76.8733" id="Fill-121" fill="#020F14"></path>
                <path d="M9.948,52.0305 C9.479,53.3335 9.496,53.0355 9.705,51.8245 C9.945,50.4355 10.256,49.1795 10.707,48.0905 C11.218,46.8535 11.921,44.9285 12.052,45.6375 C12.195,46.3925 12.522,46.6935 11.992,49.4275 C11.436,52.2915 10.661,54.9455 9.899,56.9415 C8.967,59.3835 9.242,56.6245 9.086,56.0645 C8.907,55.4305 9.439,55.2405 9.673,54.5695 C9.939,53.8105 10.109,53.1645 10.235,52.4385 C10.446,51.2215 10.258,51.4135 9.948,52.0305" id="Fill-123" fill="#020F14"></path>
                <path d="M17.2141,27.6428 C16.6641,28.9138 16.7001,28.6178 16.9851,27.4228 C17.3111,26.0508 17.7011,24.8178 18.2191,23.7588 C18.8081,22.5578 19.6311,20.6798 19.7171,21.3938 C19.8131,22.1568 20.1201,22.4758 19.4181,25.1728 C18.6821,27.9968 17.7411,30.5998 16.8551,32.5438 C15.7701,34.9228 16.2191,32.1848 16.0991,31.6148 C15.9621,30.9698 16.5041,30.8148 16.7791,30.1608 C17.0931,29.4188 17.3031,28.7848 17.4741,28.0688 C17.7621,26.8678 17.5621,27.0468 17.2141,27.6428" id="Fill-125" fill="#020F14"></path>
                <path d="M24.1237,8.1389 C23.9177,8.3419 23.8827,8.2689 23.8647,8.0119 C23.8447,7.7179 23.9137,7.4799 24.1397,7.3269 C24.3967,7.1539 24.7107,6.8559 24.9547,7.0809 C25.2177,7.3219 25.5707,7.4969 25.5567,8.0609 C25.5397,8.6519 25.2847,9.1219 24.9287,9.4209 C24.4927,9.7869 24.2687,9.1389 24.0287,8.9449 C23.7547,8.7239 24.2107,8.8329 24.3107,8.7259 C24.4237,8.6059 24.4687,8.4859 24.4587,8.3319 C24.4427,8.0749 24.3027,8.0689 24.1237,8.1389" id="Fill-127" fill="#020F14"></path>
                <polygon id="Fill-129" fill="#FFFFFF" points="602.0832 412.2933 599.6542 460.1123 644.5162 455.4043"></polygon>
                <path d="M24.3009552,1.72852986 C23.8948393,1.29907569 23.2536038,1.07938382 22.6147432,1.46787849 C21.9176964,1.89112667 23.1740431,2.52537835 22.5304326,3.01440998 C22.8047389,3.40166345 22.887862,3.75043981 22.6111808,4.23698904 C22.4354347,4.55225309 22.576744,5.22622307 22.9211113,5.24235863 C24.2819556,5.31434806 24.5847613,7.83397801 26.0121042,6.97382847 C26.9193337,6.4214958 28.3027401,6.66725281 28.8240408,5.32303644 C28.9142888,5.087209 29.4902133,5.07852062 29.8357681,4.92709459 C30.4069427,4.67637279 30.6052507,3.20058953 30.1314489,3.18321277 C28.3264895,3.12735891 28.0509957,1.13523769 26.7210257,0.373142718 C25.7781719,-0.171742774 25.3079325,0.472438479 24.6488849,0.409137431 C23.8105287,0.333424413 25.0609381,1.32886442 24.3009552,1.72852986" id="Fill-1-Copy-6" fill="#020F14"></path>
                <path d="M601.6223,411.0813 L623.5763,432.5813 C630.9293,439.8263 638.2343,447.1693 645.4403,454.4943 C645.9413,455.0043 645.9353,455.8233 645.4253,456.3253 C645.2353,456.5123 645.0023,456.6283 644.7583,456.6743 L644.6513,456.6943 C640.9453,457.3983 637.2293,457.9983 633.5043,458.5193 C629.7803,459.0493 626.0483,459.5053 622.3113,459.9143 C618.5773,460.3453 614.8323,460.6783 611.0823,460.9603 C607.3313,461.2303 603.5683,461.3913 599.7903,461.402312 L599.6523,461.402312 C598.9393,461.4053 598.3603,460.8283 598.3573,460.1153 L598.3593,460.0463 C598.7713,451.8833 599.2443,443.6403 599.8203,435.4393 L601.6223,411.0813 Z M602.5443,413.5053 L601.9173,436.9663 C601.6833,444.7053 601.3473,452.4023 600.9493,460.1783 L599.5193,458.8223 C603.2173,458.0493 606.9323,457.4253 610.6573,456.9103 C614.3843,456.4083 618.1163,455.9563 621.8593,455.6023 C625.5993,455.2273 629.3443,454.8973 633.0973,454.6443 C636.8493,454.3793 640.6093,454.1953 644.3803,454.1143 L643.5913,456.3143 C636.6533,449.2693 629.8143,442.2423 623.0233,435.1163 L602.5443,413.5053 Z" id="Fill-131" fill="#020F14"></path>
                <path d="M598.8471,447.7112 C596.1871,447.2452 593.6141,446.4682 591.0331,445.7202 C588.4501,444.9812 585.8821,444.1872 583.3271,443.3442 L583.2721,443.3262 C582.5921,443.1022 582.2231,442.3692 582.4471,441.6902 C582.5341,441.4272 582.6961,441.2112 582.9021,441.0572 L599.6961,428.5132 C600.2701,428.0842 601.0831,428.2022 601.5111,428.7762 C601.9401,429.3502 601.8221,430.1622 601.2481,430.5912 L584.4551,443.1352 L584.0301,440.8482 C586.6491,441.4612 589.2541,442.1232 591.8441,442.8392 C594.4361,443.5462 597.0361,444.2252 599.5491,445.2142 C600.2191,445.4782 600.5491,446.2342 600.2851,446.9042 C600.0541,447.4912 599.4451,447.8162 598.8471,447.7112" id="Fill-133" fill="#020F14"></path>
                <path d="M612.4421,435.2273 C615.6751,437.0713 619.1611,439.1313 623.1251,441.2493 C629.8231,444.8293 634.5541,448.2063 639.5531,451.4843 C646.3061,455.9123 645.1931,455.8573 642.2681,454.7913 C639.0771,453.6293 633.2511,450.4613 626.0491,446.2693 C619.1831,442.2723 615.9341,439.9103 613.8581,438.1683 C612.1621,436.7463 610.4831,435.4383 605.0481,432.3223 C602.5481,430.8893 601.5531,430.0713 602.0271,430.2003 C603.0551,430.4833 604.7171,431.7373 605.9731,432.5213 C607.3101,433.3553 608.9671,434.4983 609.7781,434.7773 C610.7771,435.1223 611.1291,435.0393 610.8671,434.6293 C610.6891,434.3523 608.4371,433.1133 607.0261,432.3023 C604.8801,431.0683 603.6901,430.7363 600.9631,428.9373 C600.7461,428.7943 601.0051,428.8513 601.2151,428.9213 C602.5861,429.3853 605.6371,431.2313 608.2891,432.7663 C609.4951,433.4623 610.7091,434.1993 612.4421,435.2273" id="Fill-135" fill="#020F14"></path>
            </g>
        </g>
    </g>
</svg>