<?xml version="1.0" encoding="utf-8"?>
<!-- Generator: Adobe Illustrator 25.0.1, SVG Export Plug-In . SVG Version: 6.00 Build 0)  -->
<svg version="1.1" id="Layer_1" xmlns="http://www.w3.org/2000/svg" xmlns:xlink="http://www.w3.org/1999/xlink" x="0px" y="0px"
	 viewBox="0 0 1024 456" style="enable-background:new 0 0 1024 456;" xml:space="preserve">
<style type="text/css">
	.st0{fill:#999999;}
</style>
<path class="st0" d="M311.9,208.7c-1,18-1.8,31.8-2.7,46.9h-282v-33h102.4V61.7h-53V27.8h88.8v194.9h110V106.9h-86.7V74.5h121.5
	v102.6h70.7V30.2h31.9v178.5L311.9,208.7z"/>
<ellipse class="st0" cx="514.8" cy="295.4" rx="697.5" ry="3.1"/>
<path class="st0" d="M924.9,223h46.4V29.1h32.4v226.1h-78.8V223z"/>
<path class="st0" d="M525.8,59.3V28.5h240.6v30.8H525.8z"/>
<path class="st0" d="M60,204.8l-32.6,1.5V28.6H60V204.8z"/>
<path class="st0" d="M735.2,70.3l30.9,1.8v183h-30.9V70.3z"/>
<path class="st0" d="M187.8,58.9V28.4h180.3v30.5H187.8z"/>
<path class="st0" d="M467.5,209.1h-31.1V71.8h31.1V209.1z"/>
<path class="st0" d="M235.6,146.3l27.1,24.3l-29.1,23.7l-25.3-23.9L235.6,146.3z"/>
<path class="st0" d="M345.7,159.1l-25.8-28.2c7.9-7.4,16.3-15.3,26.5-25l22.8,27.4L345.7,159.1z"/>
<path class="st0" d="M526.7,131.9l27.2-25.6c8.8,8.5,17,16.3,26.6,25.6l-27.6,24.8L526.7,131.9z"/>
<path class="st0" d="M593.1,72.6v111h79.6V222H515.5V28h-87.9v33h53.6v162H322v31.7h382.6V72.6H593.1z M665.5,146h-36.3v-37.3h36.3
	V146z"/>
<path class="st0" d="M790,28.7v112.1h82.5v80.8h-45.9c-0.7-14.6-1.3-27.3-2-40.8h-32.4v74.3h112.7V28.7H790z M865.5,102.3h-35.8v-37
	h35.9L865.5,102.3z"/>
<path class="st0" d="M98.8,382.3c0,15.6-9.8,26.4-24.3,26.4c-15.6,0-24.5-10.9-24.5-26.4c0-7.8,2.3-14.2,6.9-19.1H41
	c-10.6,0-16.8,9.8-16.8,25.7v39.1H16v-39.5c0-21.7,8.3-32.3,25-32.3h33.7C89.5,356.1,98.8,366.5,98.8,382.3z M89,381.6
	c0-11.2-5-18.1-14-18.1c-9.6,0-14.9,7.4-14.9,19.4c0,11,5.4,18.2,14.5,18.2C84.2,401.1,89,394.6,89,381.6L89,381.6z"/>
<path class="st0" d="M122.6,409h-8.2v-75.4h8.2V409z"/>
<path class="st0" d="M202.8,409h-70.1v-8.2h43.2c0-10.4-1.9-18.8-5.7-25.1c-4.7-7.6-11.9-11.5-21.6-12.1h-3.1V356
	c24.6,0,37.6,15,38.8,44.9h18.6V409z"/>
<path class="st0" d="M276.4,409h-11.5c-6.5,0-11-0.2-13.4-0.7c-4.9-1.1-9.6-3-13.9-5.6c-4.3,2.6-9.1,4.5-14,5.6
	c-2.4,0.5-6.9,0.7-13.5,0.7h-11.5v-8.2h18.4c4.1,0,8.2-0.9,11.9-2.8c-5.1-2.3-9.4-6.1-12.4-10.9c-2.8-4.4-4.2-9.5-4.2-14.7
	c-0.2-6.2,2.1-12.3,6.4-16.8c4.7-5,11-7.5,18.8-7.5s14.2,2.5,18.9,7.5c4.2,4.6,6.5,10.6,6.3,16.8c0,5.2-1.4,10.3-4.2,14.7
	c-2.9,4.8-7.3,8.6-12.4,10.9c3.7,1.9,7.8,2.8,11.9,2.8h18.4L276.4,409z M237.5,393.1c4.9-1.9,9.1-5.3,12.1-9.6
	c2.6-3.6,4-7.8,4.1-12.2c0.2-4.1-1.4-8.2-4.2-11.2c-2.9-3.1-7-4.8-12.1-4.8c-10.1,0-16.2,7-16.2,15.9c0,4.4,1.4,8.7,4,12.2
	C228.3,387.8,232.5,391.2,237.5,393.1L237.5,393.1z M234.4,338.4h-8.3v-9.9h8.3V338.4z M249.7,338.4h-8.3v-9.9h8.3V338.4z"/>
<path class="st0" d="M313.8,409h-40.2v-8h7.4c5,0,8.3-1.6,9.9-4.8c1.2-2.2,1.8-6,1.8-11.3v-28.8h8.2v32.4c0,5-0.7,9.2-2.2,12.4h15.2
	V409z M285.5,347.6h-8.3v-9.9h8.3V347.6z M300.7,347.6h-8.3v-9.9h8.3V347.6z"/>
<path class="st0" d="M405.6,356.1v32.4c0,13.6-5.7,20.5-17.3,20.5h-77.2v-8.2H322c7.5,0,11.5-5,12.4-14.9v-29.9h8.2v32.4
	c0.1,4.1-0.6,8.1-2,11.9v0.5h15.3c7.5,0,9.9-3.6,9.9-16v-28.8h8.2v32.4c0,5-0.7,9.2-2.2,12.4h14c8.7,0,11.7-3.6,11.7-16V356
	L405.6,356.1z"/>
<path class="st0" d="M487.1,409h-68.6v-8h19l-15-58.4h8.7l14.8,58.4h3.4c8.5,0,11.7-3.5,11.7-16.1v-51.3h8.3v54.9
	c0,5-0.8,9.2-2.5,12.4h20.2L487.1,409z"/>
<path class="st0" d="M511.3,333.6v54.9c0,13.6-5.7,20.5-17.1,20.5H484v-8h7.5c5,0,8.3-1.6,9.9-4.9c1.2-2.1,1.8-5.8,1.8-11.2v-51.3
	H511.3z"/>
<path class="st0" d="M610.9,409h-70.1v-8.2H584c0-10.4-1.9-18.8-5.7-25.1c-4.7-7.6-11.9-11.5-21.6-12.1h-3.2V356
	c24.6,0,37.6,15,38.8,44.9h18.5L610.9,409z"/>
<path class="st0" d="M701.3,409h-93.7v-8.2h70.9c0.1-1.5,0.2-2.9,0.2-4.2c0-19.7-10.4-31-28.7-31c-9.9,0-17.3,3.9-21.9,11.5
	c-1.2-1.3-3.5-3.6-7.1-7.2c6.7-8.3,16.2-12.4,28.9-12.4c23.2,0,38.5,15.4,38.5,39.7v3.6h12.8V409z M656.4,426.7h-8.3v-9.9h8.3V426.7
	z"/>
<path class="st0" d="M726,356.1v32.4c0,13.6-5.7,20.5-17.2,20.5h-10.1v-8h7.5c5,0,8.3-1.6,9.9-4.9c1.2-2.1,1.8-5.8,1.8-11.2v-28.8
	L726,356.1z M726,347.7h-8.3v-9.9h8.3V347.7z"/>
<path class="st0" d="M825.7,409h-70.1v-8.2h43.2c0-10.4-1.9-18.8-5.7-25.1c-4.7-7.6-11.9-11.5-21.6-12.1h-3.2V356
	c24.6,0,37.5,15,38.8,44.9h18.5V409z"/>
<path class="st0" d="M888.2,382.6c0,15.2-9.6,26.5-24.3,26.5h-41.4v-8.2h22.8c-3.8-4.7-5.8-10.7-5.8-18.2c0-15.2,9.4-26.5,24.6-26.5
	C878.9,356.2,888.2,366.7,888.2,382.6z M879.2,381.8c0-11.7-5.2-18.8-14.8-18.8c-10.4,0-15.7,7.8-15.7,20.2
	c0,11.7,5.7,19.1,15.3,19.1C874.1,402.3,879.2,395.4,879.2,381.8L879.2,381.8z M868.2,347.7h-8.4v-9.9h8.4V347.7z"/>
<path class="st0" d="M912,409h-8.2v-75.4h8.2V409z"/>
<path class="st0" d="M969.7,381.8v17.4c0,19-7.5,28.1-24.6,29v-7.8c10.7,0,16.2-6.5,16.4-19.7c-2.6,4.4-7.1,6.6-13.8,6.6
	c-12.8,0-22.3-10.7-22.3-25.9c0-14.9,9-25.7,22.3-25.7C960.5,355.7,969.7,366.6,969.7,381.8z M961.8,381.8
	c0-10.5-5.8-18.8-14.5-18.8s-13.8,8.2-13.8,18.3c0,10.6,5.8,18.7,14.3,18.7S961.8,391.9,961.8,381.8z"/>
<path class="st0" d="M1003,356.1v43c0,19-7.3,28.1-24.5,29v-7.8c10.8,0,16.3-6,16.3-19.7v-44.5H1003z"/>
</svg>
