<svg id="Layer_1" data-name="Layer 1" xmlns="http://www.w3.org/2000/svg" viewBox="0 0 1024 456"><defs><style>.cls-1{fill:#fff;}</style></defs><path class="cls-1" d="M311.89,208.71c-1,18-1.83,31.81-2.7,46.93H27.24v-33H129.65V61.72h-53V27.83h88.81V222.75h110V106.92h-86.7V74.52H310.27V177.08h70.66V30.21h31.9v178.5Z"/><ellipse class="cls-1" cx="514.77" cy="295.37" rx="697.54" ry="3.15"/><path class="cls-1" d="M924.88,223h46.4V29.11h32.44V255.2H924.88Z"/><path class="cls-1" d="M525.78,59.29V28.46H766.4V59.29Z"/><path class="cls-1" d="M60,204.75l-32.6,1.48V28.56H60Z"/><path class="cls-1" d="M735.18,70.26l30.91,1.82v183H735.18Z"/><path class="cls-1" d="M187.8,58.9V28.41H368.15V58.9Z"/><path class="cls-1" d="M467.5,209.13H436.44V71.78H467.5Z"/><path class="cls-1" d="M235.63,146.27l27.12,24.27-29.1,23.71-25.29-23.94Z"/><path class="cls-1" d="M345.66,159.1l-25.77-28.23,26.54-25,22.75,27.37Z"/><path class="cls-1" d="M526.67,131.87l27.24-25.64c8.81,8.47,17,16.33,26.63,25.57l-27.61,24.84Z"/><path class="cls-1" d="M593.1,72.62v111h79.62V222H515.55V28H427.61V61h53.63V223H322v31.69H704.59V72.62ZM665.54,146h-36.3V108.69h36.3Z"/><path class="cls-1" d="M790,28.69V140.8h82.49v80.79H826.61c-.71-14.59-1.32-27.26-2-40.76h-32.4v74.35h112.7V28.69Zm75.49,73.6H829.66v-37h35.87Z"/><path class="cls-1" d="M98.81,382.33c0,15.63-9.8,26.36-24.26,26.36-15.63,0-24.49-10.85-24.49-26.36,0-7.82,2.33-14.23,6.88-19.13H41c-10.61,0-16.8,9.8-16.8,25.66v39.07H16V388.4c0-21.7,8.28-32.31,25-32.31H74.67C89.48,356.09,98.81,366.47,98.81,382.33Zm-9.8-.7c0-11.2-5-18.08-14-18.08-9.57,0-14.93,7.35-14.93,19.36,0,11,5.36,18.2,14.46,18.2,9.69,0,14.46-6.53,14.46-19.48Z"/><path class="cls-1" d="M122.62,409h-8.17V333.58h8.17Z"/><path class="cls-1" d="M202.75,409h-70.1v-8.17h43.16c0-10.38-1.87-18.77-5.72-25.07-4.66-7.58-11.9-11.55-21.58-12.13h-3.15V356q36.91,0,38.84,44.9h18.55Z"/><path class="cls-1" d="M276.35,409H264.81q-9.8,0-13.42-.7a44.46,44.46,0,0,1-13.88-5.6,44.87,44.87,0,0,1-14,5.6c-2.45.47-6.88.7-13.53.7H198.44v-8.17h18.43a25.62,25.62,0,0,0,11.9-2.79,28.12,28.12,0,0,1-12.37-10.85,27.59,27.59,0,0,1-4.2-14.7,23.4,23.4,0,0,1,6.42-16.79c4.67-5,11-7.47,18.78-7.47s14.23,2.45,18.89,7.47a23.8,23.8,0,0,1,6.3,16.79,27.59,27.59,0,0,1-4.2,14.7A28,28,0,0,1,246,398.08a25.62,25.62,0,0,0,11.9,2.79h18.42Zm-38.84-15.86a27.07,27.07,0,0,0,12.14-9.57,21.18,21.18,0,0,0,4.08-12.25,15.51,15.51,0,0,0-4.2-11.19c-2.92-3.15-7-4.78-12.13-4.78-10.15,0-16.21,7-16.21,15.86a21,21,0,0,0,4,12.24,27.23,27.23,0,0,0,12.32,9.73Zm-3.14-54.71h-8.29v-9.91h8.29Zm15.28,0h-8.29v-9.91h8.29Z"/><path class="cls-1" d="M313.8,409H273.56v-8H281c5,0,8.28-1.63,9.91-4.78,1.17-2.22,1.75-6,1.75-11.32V356.1h8.17v32.42c0,5-.7,9.21-2.22,12.36H313.8Zm-28.34-61.35h-8.28v-9.91h8.28Zm15.28,0h-8.28v-9.91h8.28Z"/><path class="cls-1" d="M405.6,356.09v32.42c0,13.65-5.72,20.53-17.26,20.53H311.13v-8.17H322c7.47,0,11.55-5,12.37-14.92V356.09h8.16v32.42a31.76,31.76,0,0,1-2,11.9v.46H355.8c7.46,0,9.91-3.61,9.91-16v-28.8h8.16v32.42c0,5-.69,9.21-2.21,12.36h14c8.74,0,11.66-3.61,11.66-16v-28.8Z"/><path class="cls-1" d="M487.14,409H418.56v-8h19l-15-58.43h8.74L446.08,401h3.39c8.51,0,11.66-3.5,11.66-16.1V333.58h8.28v54.93c0,5-.81,9.21-2.45,12.36h20.18Z"/><path class="cls-1" d="M511.29,333.58v54.93c0,13.65-5.71,20.53-17.14,20.53H484v-8h7.47c5,0,8.28-1.63,9.91-4.9q1.75-3.15,1.75-11.2V333.58Z"/><path class="cls-1" d="M610.91,409h-70.1v-8.17H584c0-10.38-1.86-18.77-5.71-25.07-4.67-7.58-11.9-11.55-21.58-12.13h-3.15V356q36.91,0,38.84,44.9H611Z"/><path class="cls-1" d="M701.31,409H607.65v-8.17h70.92c.11-1.51.23-2.91.23-4.19,0-19.71-10.38-31-28.69-31-9.92,0-17.26,3.85-21.93,11.55-1.17-1.29-3.5-3.62-7.12-7.24,6.65-8.28,16.22-12.36,28.93-12.36,23.21,0,38.49,15.4,38.49,39.66v3.61h12.83Zm-44.9,17.73h-8.29v-9.92h8.29Z"/><path class="cls-1" d="M726.05,356.09v32.42c0,13.65-5.72,20.53-17.15,20.53H698.76v-8h7.46c5,0,8.28-1.63,9.91-4.9q1.75-3.15,1.75-11.2V356.1Zm0-8.4h-8.28v-9.91h8.28Z"/><path class="cls-1" d="M825.66,409h-70.1v-8.17h43.16c0-10.38-1.87-18.77-5.72-25.07-4.66-7.58-11.89-11.55-21.57-12.13h-3.15V356q36.91,0,38.83,44.9h18.55Z"/><path class="cls-1" d="M888.19,382.56c0,15.16-9.57,26.48-24.26,26.48H822.52v-8.17h22.75c-3.85-4.66-5.83-10.73-5.83-18.19,0-15.16,9.44-26.48,24.6-26.48C878.86,356.2,888.19,366.7,888.19,382.56Zm-9-.81c0-11.67-5.25-18.78-14.82-18.78-10.38,0-15.74,7.81-15.74,20.18,0,11.66,5.71,19.12,15.28,19.12,10.17,0,15.3-6.88,15.3-20.52Zm-11-34.06H859.8v-9.91h8.39Z"/><path class="cls-1" d="M912,409h-8.16V333.58H912Z"/><path class="cls-1" d="M969.73,381.75v17.37c0,19-7.47,28.11-24.61,29.05v-7.82c10.73,0,16.21-6.53,16.44-19.71-2.56,4.43-7.11,6.65-13.76,6.65-12.83,0-22.27-10.73-22.27-25.89,0-14.93,9-25.66,22.27-25.66C960.51,355.74,969.73,366.58,969.73,381.75Zm-7.93,0c0-10.5-5.83-18.78-14.46-18.78s-13.77,8.16-13.77,18.31c0,10.61,5.83,18.66,14.35,18.66S961.8,391.89,961.8,381.75Z"/><path class="cls-1" d="M1003,356.09v43c0,19-7.35,28.11-24.5,29.05v-7.82c10.85,0,16.34-6,16.34-19.71V356.09Z"/></svg>